<?xml version="1.0" encoding="utf-8"?>
<!-- Generator: Adobe Illustrator 15.0.2, SVG Export Plug-In . SVG Version: 6.00 Build 0)  -->
<!DOCTYPE svg PUBLIC "-//W3C//DTD SVG 1.1//EN" "http://www.w3.org/Graphics/SVG/1.1/DTD/svg11.dtd">
<svg version="1.1" id="Layer_1" xmlns="http://www.w3.org/2000/svg" xmlns:xlink="http://www.w3.org/1999/xlink" x="0px" y="0px"
	 width="400px" height="400px" viewBox="0 0 400 400" enable-background="new 0 0 400 400" xml:space="preserve">
<g>
	<g>
		<path fill="#FFFFFF" d="M60.516,30.415l-8.082,24.758h-9.784L37.46,12.336c-1.333-0.17-2.34-0.631-3.021-1.382
			c-0.681-0.752-1.021-1.709-1.021-2.872c0-1.361,0.446-2.452,1.34-3.275c0.894-0.822,2.389-1.233,4.487-1.233l11.613,0.043
			c2.099,0,3.595,0.397,4.488,1.19c0.894,0.795,1.34,1.844,1.34,3.148s-0.446,2.36-1.34,3.169c-0.894,0.808-2.39,1.212-4.488,1.212
			h-4.552L49.2,36.711l6.85-20.291h9.061l6.806,20.291l2.893-24.375h-4.552c-2.099,0-3.594-0.404-4.487-1.212
			c-0.894-0.809-1.34-1.864-1.34-3.169s0.446-2.361,1.34-3.17c0.894-0.808,2.389-1.212,4.487-1.212l11.571,0.043
			c2.098,0,3.595,0.397,4.487,1.19c0.894,0.795,1.34,1.844,1.34,3.148c0,1.105-0.354,2.056-1.063,2.85s-1.729,1.305-3.062,1.531
			l-5.02,42.837h-9.613L60.516,30.415z"/>
		<path fill="#FFFFFF" d="M134.661,40.284H98.886c0.907,2.27,2.517,4.099,4.828,5.487c2.312,1.39,5.438,2.085,9.38,2.085
			c3.233,0,7.529-0.695,12.89-2.085c2.212-0.566,3.743-0.851,4.594-0.851c1.163,0,2.142,0.411,2.936,1.233
			c0.794,0.823,1.191,1.858,1.191,3.105c0,1.135-0.426,2.1-1.276,2.893c-1.135,1.05-3.899,2.05-8.295,2.999
			c-4.396,0.95-8.622,1.425-12.677,1.425c-6.977,0-12.557-1.971-16.739-5.912c-4.184-3.941-6.274-8.791-6.274-14.549
			c0-6.125,2.261-11.109,6.785-14.952c4.522-3.843,9.733-5.764,15.633-5.764c3.545,0,6.799,0.624,9.763,1.871
			c2.963,1.248,5.168,2.595,6.615,4.041c2.041,2.1,3.729,4.694,5.062,7.785c0.907,2.155,1.361,4.651,1.361,7.486V40.284z
			 M125.005,31.563c-1.333-2.495-3.077-4.36-5.232-5.594s-4.722-1.851-7.699-1.851c-2.95,0-5.502,0.617-7.657,1.851
			s-3.914,3.099-5.274,5.594H125.005z"/>
		<path fill="#FFFFFF" d="M163.247,16.548v5.444c3.658-2.637,6.544-4.396,8.657-5.274c2.112-0.879,4.09-1.318,5.934-1.318
			c2.836,0,5.587,1.049,8.253,3.147c1.814,1.418,2.723,2.864,2.723,4.339c0,1.248-0.433,2.305-1.298,3.169
			c-0.865,0.865-1.907,1.298-3.127,1.298c-1.078,0-2.212-0.538-3.402-1.616c-1.191-1.078-2.255-1.617-3.19-1.617
			c-1.22,0-3.042,0.766-5.467,2.298c-2.425,1.531-5.452,3.828-9.082,6.891v13.145h12.422c2.098,0,3.594,0.404,4.487,1.213
			c0.894,0.808,1.34,1.865,1.34,3.169c0,1.276-0.446,2.318-1.34,3.127c-0.894,0.808-2.39,1.212-4.487,1.212h-26.332
			c-2.099,0-3.595-0.404-4.487-1.212c-0.894-0.809-1.341-1.865-1.341-3.17c0-1.275,0.447-2.318,1.341-3.126
			c0.893-0.809,2.389-1.213,4.487-1.213h5.189V25.268h-3.147c-2.099,0-3.595-0.403-4.488-1.212c-0.893-0.809-1.34-1.864-1.34-3.169
			c0-1.276,0.447-2.318,1.34-3.127c0.894-0.808,2.39-1.212,4.488-1.212H163.247z"/>
		<path fill="#FFFFFF" d="M210.168,40.667v14.506h-10.21c-2.099,0-3.594-0.404-4.487-1.212c-0.894-0.809-1.34-1.865-1.34-3.17
			c0-1.275,0.453-2.318,1.361-3.126c0.907-0.809,2.396-1.213,4.466-1.213h1.489V8.721h-1.489c-2.099,0-3.594-0.404-4.487-1.213
			c-0.894-0.808-1.34-1.864-1.34-3.169c0-1.276,0.446-2.318,1.34-3.127C196.364,0.404,197.859,0,199.958,0h10.21v29.395l6.806-5.487
			c-0.709-1.22-1.063-2.213-1.063-2.979c0-1.304,0.439-2.36,1.319-3.169c0.878-0.808,2.367-1.212,4.466-1.212h9.954
			c2.099,0,3.595,0.404,4.488,1.212c0.894,0.809,1.34,1.865,1.34,3.169c0,1.276-0.446,2.318-1.34,3.127s-2.39,1.212-4.488,1.212
			h-2.425l-10.592,8.594l14.251,12.591h2.552c2.099,0,3.595,0.404,4.488,1.213c0.894,0.808,1.34,1.865,1.34,3.169
			c0,1.276-0.446,2.318-1.34,3.127c-0.894,0.808-2.39,1.212-4.488,1.212h-10.039c-2.099,0-3.595-0.404-4.487-1.212
			c-0.894-0.809-1.341-1.865-1.341-3.17c0-1.105,0.482-2.197,1.446-3.275l-9.23-8.167L210.168,40.667z"/>
		<path fill="#FFFFFF" d="M291.502,40.284h-35.775c0.907,2.27,2.517,4.099,4.828,5.487c2.312,1.39,5.438,2.085,9.38,2.085
			c3.233,0,7.529-0.695,12.89-2.085c2.212-0.566,3.743-0.851,4.594-0.851c1.163,0,2.142,0.411,2.936,1.233
			c0.794,0.823,1.191,1.858,1.191,3.105c0,1.135-0.426,2.1-1.276,2.893c-1.135,1.05-3.899,2.05-8.295,2.999
			c-4.396,0.95-8.622,1.425-12.677,1.425c-6.977,0-12.557-1.971-16.739-5.912c-4.184-3.941-6.274-8.791-6.274-14.549
			c0-6.125,2.261-11.109,6.785-14.952c4.522-3.843,9.733-5.764,15.633-5.764c3.545,0,6.799,0.624,9.763,1.871
			c2.963,1.248,5.168,2.595,6.615,4.041c2.041,2.1,3.729,4.694,5.062,7.785c0.907,2.155,1.361,4.651,1.361,7.486V40.284z
			 M281.846,31.563c-1.333-2.495-3.077-4.36-5.232-5.594s-4.722-1.851-7.699-1.851c-2.95,0-5.502,0.617-7.657,1.851
			s-3.914,3.099-5.274,5.594H281.846z"/>
		<path fill="#FFFFFF" d="M313.069,16.548v2.935c1.588-1.361,3.339-2.382,5.253-3.062c1.915-0.681,3.992-1.021,6.232-1.021
			c5.161,0,9.245,1.603,12.251,4.807c2.383,2.552,3.573,5.898,3.573,10.039v16.207c1.844,0,3.205,0.404,4.084,1.213
			c0.879,0.808,1.318,1.865,1.318,3.169c0,1.276-0.446,2.318-1.34,3.127c-0.894,0.808-2.39,1.212-4.487,1.212h-7.87
			c-2.099,0-3.595-0.404-4.487-1.212c-0.894-0.809-1.341-1.865-1.341-3.17c0-1.275,0.439-2.318,1.319-3.126
			c0.879-0.809,2.239-1.213,4.083-1.213V29.99c0-1.9-0.51-3.29-1.531-4.169c-1.333-1.134-3.332-1.702-5.998-1.702
			c-2.014,0-3.779,0.391-5.296,1.17c-1.518,0.78-3.438,2.433-5.764,4.956v16.207c2.24,0,3.687,0.213,4.339,0.639
			c1.389,0.851,2.084,2.099,2.084,3.743c0,1.276-0.446,2.318-1.34,3.127c-0.894,0.808-2.39,1.212-4.487,1.212h-9.912
			c-2.099,0-3.595-0.404-4.487-1.212c-0.894-0.809-1.34-1.865-1.34-3.17c0-1.588,0.681-2.821,2.041-3.7
			c0.681-0.426,2.142-0.639,4.382-0.639V25.268c-1.844,0-3.205-0.41-4.084-1.233c-0.879-0.822-1.318-1.871-1.318-3.147
			s0.446-2.318,1.34-3.127c0.894-0.808,2.389-1.212,4.488-1.212H313.069z"/>
	</g>
	<g>
		<path fill="#FFFFFF" d="M16.954,112.251c-0.988,0.866-2.302,1.823-3.938,2.872c-1.637,1.05-3.506,1.575-5.604,1.575
			c-0.681,0-1.376-0.217-2.085-0.648c-0.711-0.433-1.39-1.003-2.038-1.714c-0.648-0.709-1.221-1.497-1.714-2.362
			c-0.495-0.864-0.866-1.729-1.112-2.595c-0.185-0.679-0.31-1.327-0.37-1.945C0.03,106.817,0,106.169,0,105.488
			c0-1.173,0.107-2.316,0.324-3.428c0.216-1.112,0.603-2.47,1.158-4.077c0.309-0.864,0.57-1.682,0.787-2.455
			c0.216-0.771,0.479-1.497,0.788-2.177c1.42-3.396,2.84-6.778,4.262-10.146c1.42-3.365,2.995-6.84,4.725-10.423
			c0.494-0.987,1.173-1.651,2.038-1.991c0.864-0.339,1.729-0.51,2.595-0.51c0.493,0,1.003,0.046,1.528,0.139
			c0.524,0.093,0.941,0.294,1.251,0.603c0.246,0.186,0.432,0.37,0.556,0.556c0.123,0.186,0.186,0.495,0.186,0.927
			c0,1.236-0.217,2.332-0.648,3.289c-0.433,0.958-0.942,1.868-1.529,2.732c-0.587,0.866-1.22,1.761-1.898,2.688
			c-0.681,0.926-1.298,1.945-1.854,3.057c-0.37,0.866-0.804,1.869-1.297,3.012c-0.495,1.144-1.005,2.332-1.528,3.566
			c-0.525,1.236-1.02,2.425-1.482,3.567c-0.464,1.144-0.85,2.146-1.158,3.011c-0.804,2.101-1.375,3.97-1.714,5.605
			c-0.341,1.637-0.51,2.795-0.51,3.474c0,0.434,0.076,1.035,0.231,1.807c0.153,0.773,0.633,1.158,1.437,1.158
			c0.493,0,0.956-0.046,1.39-0.139c0.431-0.093,0.895-0.246,1.39-0.463c0.493-0.216,1.049-0.524,1.667-0.927
			c0.617-0.401,1.39-0.941,2.316-1.621c1.112-0.803,1.93-1.344,2.455-1.622c0.524-0.277,1.158-0.417,1.899-0.417
			c0.371,0,0.771,0.047,1.204,0.14c0.432,0.093,0.803,0.264,1.112,0.51c0.309,0.247,0.478,0.479,0.51,0.694
			c0.03,0.217,0.046,0.417,0.046,0.603c0,0.556-0.155,1.019-0.463,1.39c-0.311,0.37-0.648,0.741-1.02,1.111L16.954,112.251z
			 M28.721,51.382c0.494,0.495,0.802,1.005,0.927,1.529c0.123,0.525,0.185,1.034,0.185,1.528c0,0.31-0.031,0.603-0.092,0.88
			c-0.062,0.278-0.186,0.542-0.371,0.788c-0.865,1.051-1.807,2.069-2.825,3.057c-1.02,0.989-2.055,1.482-3.104,1.482
			c-0.926,0-1.714-0.199-2.362-0.602c-0.648-0.401-1.097-0.818-1.343-1.251c-0.248-0.494-0.417-1.02-0.51-1.575
			s-0.14-1.08-0.14-1.575c0-0.679,0.093-1.374,0.278-2.084s0.494-1.312,0.927-1.807c0.493-0.557,1.126-0.957,1.899-1.205
			c0.771-0.246,1.651-0.37,2.64-0.37c0.741,0,1.497,0.108,2.271,0.324C27.871,50.719,28.411,51.012,28.721,51.382z"/>
		<path fill="#FFFFFF" d="M23.809,90.757c0.679-1.605,1.344-3.104,1.992-4.493s1.312-2.747,1.992-4.076
			c0.679-1.328,1.42-2.688,2.224-4.077c0.802-1.39,1.729-2.855,2.779-4.4c0.37-0.556,0.602-0.94,0.694-1.158
			c0.093-0.216,0.354-0.51,0.788-0.88c0.679-0.617,1.76-0.927,3.242-0.927c2.038,0,3.273,0.464,3.706,1.39
			c0.123,0.248,0.231,0.51,0.324,0.788c0.093,0.277,0.139,0.571,0.139,0.88c0,0.495-0.124,1.081-0.37,1.76
			c-0.248,0.681-0.804,1.545-1.668,2.595c-0.31,0.37-1.065,1.267-2.27,2.687c-1.204,1.422-2.425,3.305-3.66,5.651
			c-0.68,1.236-1.561,2.997-2.64,5.281c-1.082,2.286-2.395,5.343-3.938,9.172c-0.186,0.433-0.387,0.989-0.603,1.668
			c-0.217,0.681-0.417,1.375-0.603,2.084c-0.185,0.711-0.34,1.329-0.463,1.854c-0.125,0.525-0.186,0.819-0.186,0.88
			c0,0.186,0.015,0.387,0.047,0.603c0.03,0.217,0.106,0.324,0.231,0.324c0.493,0,1.019-0.401,1.575-1.205
			c3.149-4.446,5.929-8.09,8.338-10.932c2.409-2.841,4.493-5.188,6.254-7.041c1.76-1.854,3.211-3.351,4.354-4.494
			c1.142-1.142,1.96-2.27,2.455-3.382c0.432-0.863,0.787-1.559,1.065-2.084c0.277-0.524,0.523-0.911,0.741-1.158
			c0.216-0.246,0.432-0.401,0.648-0.463c0.216-0.062,0.478-0.093,0.787-0.093c0.68,0,1.219,0.139,1.622,0.417
			c0.4,0.277,0.973,0.448,1.714,0.509c0.493,0.062,0.926,0.356,1.297,0.881c0.37,0.525,0.556,1.065,0.556,1.621
			c0,0.186-0.093,0.541-0.278,1.065c-0.185,0.525-0.402,0.973-0.648,1.344c-1.667,2.719-2.996,5.096-3.983,7.134
			c-0.989,2.038-1.822,4.231-2.502,6.578c-0.124,0.495-0.263,1.111-0.417,1.853s-0.277,1.515-0.37,2.316
			c-0.093,0.803-0.171,1.591-0.231,2.362c-0.062,0.773-0.093,1.375-0.093,1.807c0,0.865,0.093,1.621,0.278,2.27
			c0.185,0.648,0.338,1.221,0.463,1.714c0.123,0.866,0.616,1.575,1.482,2.131c0.864,0.557,1.45,0.959,1.76,1.205
			c0.371,0.31,0.695,0.618,0.974,0.926c0.277,0.311,0.416,0.711,0.416,1.205c0,0.31-0.185,0.756-0.556,1.343
			c-0.37,0.587-0.988,0.881-1.853,0.881c-0.371,0-1.128-0.093-2.271-0.278c-1.144-0.186-1.991-0.525-2.547-1.02
			c-0.681-0.616-1.298-1.096-1.854-1.436c-0.556-0.339-1.144-0.941-1.76-1.807c-1.052-1.42-1.575-3.335-1.575-5.744
			c0-2.717,0.139-4.586,0.417-5.605c0.277-1.019,0.417-1.589,0.417-1.714c0-0.246-0.093-0.37-0.278-0.37s-0.371,0.124-0.556,0.37
			c-1.915,2.533-3.537,4.648-4.864,6.347c-1.329,1.699-2.548,3.352-3.659,4.956c-0.495,0.681-0.912,1.221-1.251,1.622
			c-0.34,0.402-0.665,0.727-0.973,0.973c-0.311,0.247-0.603,0.463-0.881,0.648c-0.277,0.186-0.571,0.463-0.88,0.834
			c-0.37,0.433-0.927,0.709-1.668,0.834c-0.74,0.123-1.328,0.185-1.76,0.185c-0.31,0-0.757-0.154-1.344-0.463
			c-0.588-0.309-1.236-0.679-1.945-1.111c-0.711-0.432-1.375-0.896-1.992-1.391c-0.618-0.493-1.081-0.926-1.39-1.297
			c-0.186-0.246-0.34-0.633-0.463-1.158c-0.125-0.523-0.186-1.033-0.186-1.528c0-0.741,0.047-1.344,0.139-1.807
			c0.093-0.463,0.2-0.895,0.324-1.297c0.123-0.401,0.246-0.788,0.371-1.158c0.123-0.371,0.216-0.802,0.278-1.297
			c0.061-0.679,0.262-1.543,0.602-2.595c0.339-1.049,0.741-2.161,1.205-3.335c0.463-1.173,0.94-2.347,1.436-3.521
			C23.006,92.734,23.438,91.684,23.809,90.757z"/>
		<path fill="#FFFFFF" d="M113.676,117.811c-0.556,0.123-1.081,0.277-1.575,0.463c-0.495,0.186-1.051,0.278-1.667,0.278
			c-0.311,0-0.649-0.032-1.02-0.093c-0.371-0.062-0.927-0.248-1.668-0.556c-1.792-0.681-3.073-1.746-3.845-3.197
			c-0.772-1.45-1.158-3.319-1.158-5.604c0-2.965,0.587-6.423,1.761-10.377c0.616-2.038,1.204-3.798,1.76-5.28
			c0.557-1.482,1.112-2.903,1.668-4.262c0.246-0.557,0.371-0.927,0.371-1.112c0-0.123-0.062-0.186-0.186-0.186
			c-0.186,0-0.588,0.341-1.205,1.02c-1.606,1.792-3.196,3.768-4.771,5.93c-1.575,2.162-3.12,4.34-4.633,6.531
			c-1.514,2.193-3.011,4.324-4.493,6.393c-1.482,2.07-2.904,3.907-4.262,5.513c-0.31,0.31-0.495,0.51-0.556,0.603
			c-0.062,0.092-0.218,0.201-0.464,0.324c-0.495,0.31-1.035,0.588-1.621,0.834c-0.588,0.247-1.221,0.37-1.899,0.37
			c-0.247,0-0.927-0.246-2.038-0.741c-1.112-0.493-2.038-1.111-2.779-1.853c-0.248-0.246-0.371-0.587-0.371-1.02
			c0-0.493,0.093-0.834,0.278-1.02c0.186-0.185,0.37-0.679,0.556-1.481c0.864-3.645,1.945-7.181,3.243-10.608
			c1.297-3.428,2.717-6.81,4.262-10.146c1.543-3.335,3.134-6.624,4.771-9.866c1.636-3.243,3.196-6.47,4.679-9.682
			c0.37-0.803,0.648-1.39,0.833-1.761c0.186-0.37,0.401-0.771,0.648-1.204c2.1-3.829,4.17-7.551,6.208-11.164
			s4.199-7.704,6.485-12.276c0.309-0.556,0.663-0.91,1.065-1.065c0.4-0.153,0.848-0.231,1.343-0.231
			c0.494,0,0.881,0.032,1.158,0.093c0.278,0.062,0.54,0.093,0.788,0.093c0.431,0,0.88,0.139,1.343,0.417
			c0.464,0.277,0.881,0.603,1.251,0.973c0.309,0.31,0.524,0.618,0.648,0.927c0.123,0.31,0.186,0.772,0.186,1.39
			c0,1.236-0.417,2.316-1.251,3.242c-0.834,0.927-1.869,2.131-3.104,3.613c-0.433,0.495-0.741,0.912-0.927,1.251
			c-0.185,0.34-0.463,0.757-0.834,1.251c-2.1,2.903-4.122,6.192-6.068,9.867c-1.945,3.675-3.86,7.504-5.744,11.488
			c-1.885,3.983-3.722,8.014-5.512,12.09c-1.793,4.077-3.553,7.968-5.281,11.674c-0.371,0.804-0.603,1.297-0.695,1.482
			c-0.092,0.186-0.139,0.31-0.139,0.37c0,0.125,0.061,0.186,0.186,0.186c0.061,0,0.123-0.046,0.186-0.139
			c0.061-0.093,0.215-0.293,0.463-0.603c3.767-5.249,7.365-9.928,10.793-14.036c3.429-4.106,6.841-8.014,10.238-11.72
			c0.616-0.679,1.079-1.158,1.39-1.437c0.308-0.277,0.709-0.509,1.204-0.694c0.927-0.309,1.636-0.463,2.131-0.463
			c0.494,0,1.096,0.078,1.807,0.231c0.709,0.154,1.251,0.294,1.621,0.417c0.309,0.124,0.617,0.37,0.927,0.741
			c0.309,0.37,0.463,0.711,0.463,1.019c0,1.482-0.294,2.812-0.88,3.984c-0.588,1.174-1.221,2.315-1.899,3.428
			c-0.68,1.111-1.158,2.116-1.436,3.011c-0.278,0.896-0.603,1.776-0.973,2.641c-1.236,2.965-2.349,6.224-3.336,9.774
			c-0.988,3.553-1.482,6.902-1.482,10.052c0,2.224,0.216,3.706,0.648,4.447c0.432,0.741,0.987,1.297,1.668,1.668
			c0.309,0.124,0.679,0.217,1.112,0.278c0.431,0.062,0.833,0.154,1.204,0.277c0.432,0.125,0.648,0.371,0.648,0.741
			c0,0.186-0.046,0.371-0.139,0.556c-0.093,0.186-0.201,0.401-0.324,0.648c-0.125,0.309-0.371,0.571-0.741,0.788
			C114.324,117.517,113.984,117.686,113.676,117.811z"/>
		<path fill="#FFFFFF" d="M139.246,115.68c-0.865,0.493-1.482,0.771-1.853,0.833c-0.371,0.062-0.866,0.093-1.482,0.093
			c-0.556,0-1.098-0.031-1.621-0.093c-0.525-0.062-1.158-0.247-1.899-0.556c-0.495-0.186-1.051-0.402-1.668-0.648
			c-0.618-0.246-1.22-0.51-1.807-0.787c-0.588-0.278-1.097-0.51-1.528-0.695c-0.433-0.186-0.741-0.339-0.927-0.463
			c-0.927-0.494-1.807-1.297-2.641-2.409c-0.833-1.111-1.498-2.439-1.991-3.983c-0.311-0.927-0.572-2.131-0.788-3.613
			c-0.217-1.482-0.324-2.655-0.324-3.521c0-0.432,0.03-0.881,0.093-1.344c0.061-0.463,0.186-1.033,0.371-1.714
			c1.297-4.756,3.396-9.187,6.3-13.295c2.902-4.107,6.114-8.045,9.635-11.812c0.803-0.864,2.085-1.774,3.845-2.733
			c1.761-0.957,3.783-1.436,6.069-1.436c1.234,0,2.254,0.093,3.057,0.277c0.802,0.186,1.668,0.434,2.595,0.741
			c0.493,0.186,1.111,0.727,1.853,1.622s1.112,2.27,1.112,4.122c0,1.236-0.218,2.379-0.649,3.429
			c-0.433,1.051-0.926,2.131-1.482,3.242c-0.494,0.927-0.942,1.699-1.343,2.316c-0.402,0.618-0.942,1.297-1.621,2.038
			c-1.607,1.792-3.259,3.629-4.957,5.513c-1.699,1.885-3.444,3.691-5.234,5.42c-1.792,1.729-3.629,3.335-5.513,4.817
			c-1.885,1.482-3.814,2.779-5.79,3.892c-0.371,0.247-0.557,0.495-0.557,0.741c0,0.741,0.263,1.514,0.788,2.315
			c0.523,0.804,1.003,1.329,1.436,1.575c0.927,0.495,1.884,0.741,2.872,0.741c0.802,0,1.668-0.153,2.595-0.463
			c0.926-0.309,2.438-1.02,4.539-2.131c1.605-0.864,3.072-1.807,4.401-2.826c1.327-1.019,2.608-2.053,3.845-3.104
			c1.234-1.05,2.455-2.099,3.659-3.15c1.205-1.049,2.517-2.006,3.938-2.872c0.494-0.308,0.881-0.493,1.158-0.556
			c0.278-0.061,0.51-0.093,0.695-0.093c0.308,0,0.694,0.186,1.158,0.556c0.463,0.371,0.694,0.804,0.694,1.298
			c0,0.433-0.016,0.711-0.046,0.834c-0.032,0.124-0.047,0.247-0.047,0.37c0,0.186-0.016,0.402-0.046,0.648
			c-0.032,0.248-0.171,0.463-0.417,0.648c-1.112,0.927-2.146,1.932-3.104,3.011c-0.959,1.082-2.131,2.271-3.521,3.567
			s-3.166,2.749-5.328,4.354C145.607,112.005,142.767,113.766,139.246,115.68z M146.195,78.527c0.431-0.679,0.817-1.343,1.158-1.991
			c0.338-0.648,0.509-1.404,0.509-2.271c0-0.37-0.016-0.648-0.046-0.834c-0.032-0.185-0.201-0.277-0.51-0.277
			c-0.37,0-0.711,0.093-1.019,0.277c-0.311,0.186-0.618,0.371-0.927,0.557c-0.495,0.31-0.819,0.479-0.973,0.509
			c-0.155,0.032-0.449,0.264-0.881,0.695c-1.482,1.359-2.98,2.842-4.493,4.447c-1.514,1.606-2.935,3.305-4.262,5.096
			c-1.329,1.792-2.501,3.675-3.521,5.651c-1.02,1.978-1.776,3.983-2.27,6.021c0,0.311,0.061,0.464,0.185,0.464
			c0.123,0,0.339-0.093,0.649-0.278c2.779-2.099,5.311-4.369,7.597-6.81c2.284-2.439,4.478-4.925,6.578-7.458
			c0.37-0.432,0.633-0.787,0.787-1.065c0.153-0.278,0.293-0.54,0.417-0.787c0.123-0.246,0.246-0.51,0.371-0.788
			C145.67,79.408,145.885,79.022,146.195,78.527z"/>
		<path fill="#FFFFFF" d="M183.995,56.385c-0.311,1.792-0.788,3.537-1.437,5.234c-0.648,1.7-1.39,3.367-2.224,5.003
			c-0.834,1.638-1.684,3.259-2.548,4.864c-0.865,1.607-1.667,3.182-2.408,4.726c-0.248,0.495-0.495,1.051-0.741,1.667
			c-0.248,0.618-0.479,1.221-0.695,1.807c-0.217,0.588-0.387,1.098-0.51,1.529c-0.124,0.433-0.185,0.68-0.185,0.741
			c0,0.185,0.123,0.277,0.37,0.277c0.123,0,0.417-0.03,0.88-0.093c0.464-0.061,0.941-0.153,1.437-0.277
			c2.038-0.432,4.229-1.08,6.578-1.946c2.347-0.864,4.292-1.76,5.836-2.687c0.494-0.309,0.834-0.463,1.02-0.463
			c0.371,0,0.818,0.078,1.344,0.231c0.523,0.155,1.019,0.34,1.482,0.556c0.463,0.218,0.864,0.479,1.204,0.788
			c0.339,0.31,0.51,0.587,0.51,0.833c0,0.618-0.248,1.251-0.741,1.899c-0.495,0.648-1.267,1.19-2.316,1.622
			c-1.236,0.495-2.038,0.865-2.409,1.111c-0.37,0.247-0.958,0.525-1.76,0.834c-1.112,0.433-2.409,0.865-3.892,1.297
			c-1.482,0.433-2.918,0.834-4.308,1.204c-1.39,0.371-2.641,0.695-3.753,0.973c-1.111,0.278-1.915,0.51-2.408,0.695
			c-0.804,0.248-1.39,0.711-1.761,1.39c-0.37,0.681-0.68,1.422-0.926,2.224c-0.248,0.804-0.464,1.545-0.649,2.224
			c-0.124,0.495-0.293,0.988-0.509,1.482c-0.218,0.495-0.387,0.988-0.51,1.482c-0.125,0.741-0.402,1.76-0.834,3.058
			c-0.433,1.297-0.88,2.672-1.344,4.122c-0.463,1.452-0.896,2.919-1.297,4.401c-0.402,1.482-0.664,2.811-0.787,3.983
			c-0.062,0.433-0.294,1.112-0.695,2.038c-0.402,0.927-0.942,1.543-1.621,1.854c-0.186,0.123-0.417,0.199-0.694,0.231
			c-0.278,0.03-0.51,0.046-0.695,0.046c-0.556,0-1.158-0.093-1.807-0.277c-0.648-0.186-1.158-0.434-1.528-0.741
			c-0.681-0.495-1.02-1.235-1.02-2.224c0-0.371,0.03-0.818,0.093-1.344c0.061-0.523,0.153-1.003,0.278-1.436
			c1.172-3.459,2.254-7.103,3.242-10.933c0.987-3.829,2.224-7.535,3.706-11.118c0.123-0.37,0.186-0.586,0.186-0.648
			c0-0.185-0.155-0.37-0.464-0.556c-0.865-0.432-1.561-0.895-2.084-1.39c-0.525-0.493-0.989-0.987-1.39-1.482
			c-0.403-0.493-0.788-1.003-1.158-1.528c-0.371-0.524-0.834-1.004-1.39-1.437c-0.248-0.186-0.387-0.385-0.417-0.602
			c-0.032-0.216-0.047-0.386-0.047-0.51c0-0.309,0.093-0.54,0.278-0.695c0.186-0.153,0.463-0.324,0.834-0.51
			c0.308-0.123,0.586-0.231,0.834-0.324c0.246-0.093,0.586-0.139,1.019-0.139c1.05,0,2.1,0.248,3.15,0.741
			c1.049,0.495,2.006,0.741,2.872,0.741c0.864,0,1.39-0.432,1.575-1.297c0.308-1.112,0.802-2.562,1.481-4.354
			c1.112-2.841,2.301-5.976,3.567-9.404c1.266-3.428,2.701-6.84,4.309-10.237c0.308-0.616,0.509-0.973,0.602-1.065
			s0.231-0.139,0.417-0.139c0.741,0,1.235-0.077,1.482-0.231c0.246-0.153,0.617-0.231,1.111-0.231c0.432,0,0.987,0.062,1.668,0.185
			c0.679,0.125,1.297,0.31,1.854,0.557c0.556,0.247,0.833,0.463,0.833,0.648c0,0.124,0,0.247,0,0.37
			C184.087,55.861,184.056,56.076,183.995,56.385z"/>
		<path fill="#FFFFFF" d="M263.762,56.199c0.432,0.866,0.726,1.7,0.88,2.502c0.153,0.804,0.263,1.638,0.324,2.501
			c0.062,0.681,0.107,1.313,0.14,1.899c0.03,0.588,0.046,1.19,0.046,1.807c0,2.349-0.155,4.525-0.463,6.532
			c-0.31,2.008-0.773,4.463-1.39,7.365c-1.422,6.485-3.397,12.801-5.93,18.946c-2.533,6.146-5.776,12.029-9.729,17.649
			c-0.556,0.802-1.189,1.513-1.898,2.131c-0.711,0.617-1.653,0.927-2.826,0.927c-0.247,0-0.541-0.093-0.88-0.278
			c-0.341-0.186-0.942-0.31-1.807-0.37c-0.681-0.062-1.221-0.186-1.621-0.371c-0.403-0.186-0.819-0.495-1.251-0.927
			c-0.31-0.31-0.927-0.587-1.854-0.833c-0.926-0.248-1.544-0.71-1.853-1.39c-0.866-1.854-1.422-3.783-1.668-5.791
			c-0.247-2.006-0.525-4.276-0.834-6.81c-0.124-0.802-0.231-1.281-0.324-1.436c-0.092-0.154-0.201-0.232-0.324-0.232
			c-0.247,0-0.525,0.248-0.834,0.741c-0.494,0.741-0.973,1.406-1.436,1.992c-0.463,0.588-1.065,1.221-1.807,1.899
			c-1.174,1.051-2.286,2.255-3.335,3.613c-1.052,1.359-2.085,2.626-3.104,3.799c-1.019,1.174-2.023,2.162-3.011,2.965
			c-0.988,0.802-2.008,1.204-3.058,1.204c-0.618,0-1.729-0.711-3.335-2.131c-0.247-0.246-0.541-0.417-0.88-0.51
			c-0.341-0.093-0.681-0.186-1.02-0.278c-0.34-0.092-0.634-0.199-0.88-0.324c-0.248-0.123-0.402-0.339-0.463-0.648
			c-0.125-0.37-0.186-0.709-0.186-1.019c0-0.371,0-1.08,0-2.131c0-1.544,0.107-2.949,0.324-4.216
			c0.216-1.266,0.417-2.516,0.603-3.752c0.061-0.556,0.106-0.987,0.139-1.297c0.03-0.309,0.061-0.617,0.093-0.927
			c0.03-0.309,0.076-0.663,0.139-1.065c0.061-0.401,0.186-0.973,0.371-1.714c1.42-6.485,3.118-12.971,5.095-19.456
			s3.829-12.908,5.56-19.271c0.123-0.494,0.324-0.881,0.602-1.158c0.278-0.278,1.034-0.417,2.271-0.417
			c0.493,0,0.973,0.062,1.436,0.186c0.464,0.124,0.941,0.247,1.437,0.37c0.123,0,0.308,0.125,0.556,0.371
			c0.246,0.247,0.51,0.509,0.787,0.787c0.278,0.278,0.51,0.541,0.695,0.787c0.186,0.248,0.277,0.402,0.277,0.464
			c0,0.124-0.031,0.277-0.092,0.463c-0.062,0.186-0.125,0.34-0.186,0.463c-2.842,6.796-5.234,13.82-7.181,21.078
			c-1.945,7.258-3.691,14.592-5.234,22.003c-0.186,0.866-0.31,1.545-0.37,2.039c-0.062,0.495-0.093,0.803-0.093,0.926
			c0,0.311,0.093,0.464,0.277,0.464c0.123,0,0.339-0.093,0.648-0.278c0.309-0.186,0.896-0.709,1.761-1.575
			c3.025-3.149,5.883-6.592,8.57-10.33c2.687-3.736,4.771-7.272,6.253-10.608c0.246-0.493,0.432-0.91,0.557-1.25
			c0.123-0.339,0.231-0.648,0.324-0.927s0.185-0.586,0.277-0.927c0.093-0.339,0.2-0.756,0.324-1.251
			c0.186-0.864,0.401-1.682,0.648-2.455c0.246-0.771,0.524-1.496,0.834-2.177c0.123-0.309,0.231-0.51,0.324-0.603
			s0.231-0.139,0.417-0.139c0.371,0,0.788,0.062,1.251,0.186c0.463,0.124,0.849,0.217,1.158,0.277
			c0.741,0.062,1.39,0.434,1.945,1.112c1.05,1.236,1.575,2.378,1.575,3.428c0,0.556-0.016,0.973-0.046,1.251
			c-0.032,0.277-0.109,0.571-0.232,0.88c-0.865,2.719-1.528,5.436-1.991,8.153c-0.464,2.719-0.695,5.559-0.695,8.523
			c0,3.768,0.401,7.659,1.204,11.674c0.123,0.556,0.339,0.833,0.649,0.833c0.185,0,0.385-0.123,0.602-0.37
			c0.216-0.246,0.478-0.556,0.788-0.927c3.767-5.063,6.84-10.777,9.218-17.14c2.377-6.36,4.309-12.754,5.791-19.178
			c0.246-0.987,0.4-1.791,0.463-2.409c0.061-0.616,0.093-1.173,0.093-1.668c0-0.556,0.015-1.019,0.046-1.39
			c0.03-0.37,0.047-0.741,0.047-1.111c0-0.371,0.015-0.756,0.046-1.158c0.03-0.401,0.047-0.941,0.047-1.621
			c0-0.741-0.093-1.344-0.278-1.807c-0.186-0.464-0.402-0.911-0.648-1.344c-0.248-0.432-0.463-0.88-0.648-1.343
			c-0.186-0.464-0.278-1.034-0.278-1.715c0-1.049,0.077-1.853,0.231-2.408s0.479-0.834,0.974-0.834c0.37,0,0.755,0.032,1.157,0.093
			c0.401,0.062,0.941,0.093,1.622,0.093c0.864,0,1.636,0.124,2.315,0.37C262.681,54.502,263.267,55.15,263.762,56.199z"/>
		<path fill="#FFFFFF" d="M283.031,112.251c-0.988,0.866-2.302,1.823-3.938,2.872c-1.637,1.05-3.506,1.575-5.604,1.575
			c-0.681,0-1.376-0.217-2.085-0.648c-0.711-0.433-1.39-1.003-2.038-1.714c-0.648-0.709-1.221-1.497-1.714-2.362
			c-0.495-0.864-0.866-1.729-1.112-2.595c-0.185-0.679-0.31-1.327-0.37-1.945c-0.062-0.616-0.093-1.265-0.093-1.945
			c0-1.173,0.107-2.316,0.324-3.428c0.216-1.112,0.603-2.47,1.158-4.077c0.309-0.864,0.57-1.682,0.787-2.455
			c0.216-0.771,0.479-1.497,0.788-2.177c1.42-3.396,2.84-6.778,4.262-10.146c1.42-3.365,2.995-6.84,4.725-10.423
			c0.494-0.987,1.173-1.651,2.038-1.991c0.864-0.339,1.729-0.51,2.595-0.51c0.493,0,1.003,0.046,1.528,0.139
			c0.524,0.093,0.941,0.294,1.251,0.603c0.246,0.186,0.432,0.37,0.556,0.556c0.123,0.186,0.186,0.495,0.186,0.927
			c0,1.236-0.217,2.332-0.648,3.289c-0.433,0.958-0.942,1.868-1.529,2.732c-0.587,0.866-1.22,1.761-1.898,2.688
			c-0.681,0.926-1.298,1.945-1.854,3.057c-0.37,0.866-0.804,1.869-1.297,3.012c-0.495,1.144-1.005,2.332-1.528,3.566
			c-0.525,1.236-1.02,2.425-1.482,3.567c-0.464,1.144-0.85,2.146-1.158,3.011c-0.804,2.101-1.375,3.97-1.714,5.605
			c-0.341,1.637-0.51,2.795-0.51,3.474c0,0.434,0.076,1.035,0.231,1.807c0.153,0.773,0.633,1.158,1.437,1.158
			c0.493,0,0.956-0.046,1.39-0.139c0.431-0.093,0.895-0.246,1.39-0.463c0.493-0.216,1.049-0.524,1.667-0.927
			c0.617-0.401,1.39-0.941,2.316-1.621c1.112-0.803,1.93-1.344,2.455-1.622c0.524-0.277,1.158-0.417,1.899-0.417
			c0.371,0,0.771,0.047,1.204,0.14c0.432,0.093,0.803,0.264,1.112,0.51c0.309,0.247,0.478,0.479,0.51,0.694
			c0.03,0.217,0.046,0.417,0.046,0.603c0,0.556-0.155,1.019-0.463,1.39c-0.311,0.37-0.648,0.741-1.02,1.111L283.031,112.251z
			 M294.798,51.382c0.494,0.495,0.802,1.005,0.927,1.529c0.123,0.525,0.185,1.034,0.185,1.528c0,0.31-0.031,0.603-0.092,0.88
			c-0.062,0.278-0.186,0.542-0.371,0.788c-0.865,1.051-1.807,2.069-2.825,3.057c-1.02,0.989-2.055,1.482-3.104,1.482
			c-0.926,0-1.714-0.199-2.362-0.602c-0.648-0.401-1.097-0.818-1.343-1.251c-0.248-0.494-0.417-1.02-0.51-1.575
			s-0.14-1.08-0.14-1.575c0-0.679,0.093-1.374,0.278-2.084s0.494-1.312,0.927-1.807c0.493-0.557,1.126-0.957,1.899-1.205
			c0.771-0.246,1.651-0.37,2.64-0.37c0.741,0,1.497,0.108,2.271,0.324C293.948,50.719,294.488,51.012,294.798,51.382z"/>
		<path fill="#FFFFFF" d="M294.519,117.069c-0.186,0-0.727-0.14-1.621-0.417c-0.896-0.278-1.869-0.695-2.919-1.251
			c-1.051-0.556-2.038-1.281-2.965-2.177c-0.926-0.896-1.514-1.992-1.76-3.289c-0.186-0.987-0.278-2.039-0.278-3.15
			c0-2.161,0.401-4.339,1.204-6.531s1.729-4.617,2.78-7.273c0.987-2.594,2.223-5.435,3.705-8.523
			c1.482-3.088,3.072-6.254,4.771-9.496c1.698-3.243,3.475-6.5,5.327-9.774c1.854-3.273,3.675-6.423,5.467-9.45
			c0.37-0.679,0.709-1.467,1.019-2.362c0.309-0.895,0.663-1.761,1.065-2.595c0.401-0.833,0.881-1.528,1.437-2.084
			s1.297-0.834,2.224-0.834c0.679,0,1.234-0.03,1.667-0.093c0.432-0.061,0.895-0.093,1.39-0.093c0.494,0,0.957,0.093,1.391,0.278
			c0.431,0.186,0.771,0.433,1.019,0.741c0.494,0.741,0.741,1.606,0.741,2.594c0,1.112-0.31,2.193-0.927,3.243
			c-2.101,3.397-4.262,6.749-6.485,10.052c-2.224,3.305-4.37,6.61-6.438,9.913c-2.07,3.306-4.03,6.656-5.883,10.053
			c-1.854,3.397-3.46,6.888-4.818,10.469c-0.741,1.916-1.514,3.784-2.316,5.605c-0.803,1.822-1.204,3.752-1.204,5.791
			c0,0.556,0.03,1.111,0.093,1.667c0.061,0.556,0.186,1.144,0.371,1.761c0.246,0.741,0.863,1.111,1.853,1.111
			c0.616,0,1.143-0.123,1.575-0.37c0.987-0.617,2.022-1.513,3.104-2.688c1.08-1.172,2.161-2.33,3.242-3.474
			c1.08-1.143,2.178-2.131,3.289-2.965c1.112-0.834,2.192-1.251,3.243-1.251c0.37,0,0.987,0.171,1.853,0.51
			c0.864,0.34,1.297,0.88,1.297,1.621c0,0.618-0.185,1.082-0.556,1.39c-0.37,0.31-0.804,0.711-1.297,1.205
			c-1.174,1.297-2.316,2.656-3.428,4.076c-1.112,1.422-2.271,2.733-3.475,3.938s-2.518,2.193-3.938,2.965
			C297.914,116.683,296.309,117.069,294.519,117.069z"/>
		<path fill="#FFFFFF" d="M370.026,46.193c0,1.175-0.201,2.147-0.603,2.919c-0.402,0.772-0.85,1.498-1.344,2.177
			c-0.433,0.618-0.772,1.236-1.019,1.854c-0.248,0.618-0.618,1.328-1.112,2.131c-1.359,2.162-2.779,4.354-4.262,6.578
			c-1.482,2.223-2.935,4.446-4.354,6.67c-1.421,2.224-2.732,4.447-3.938,6.671c-1.204,2.224-2.177,4.387-2.918,6.485l-1.482,4.076
			c-1.422,3.892-2.58,7.259-3.475,10.099c-0.896,2.842-1.606,5.281-2.131,7.319c-0.525,2.038-0.896,3.722-1.111,5.049
			c-0.218,1.329-0.324,2.395-0.324,3.197c0,1.667,0.123,2.857,0.37,3.566c0.246,0.709,0.371,1.251,0.371,1.621
			c0,0.186-0.125,0.401-0.371,0.648c-0.31,0.309-0.556,0.587-0.741,0.834c-0.186,0.246-0.37,0.447-0.556,0.603
			c-0.186,0.153-0.433,0.278-0.741,0.37c-0.31,0.093-0.741,0.14-1.297,0.14c-0.433,0-1.082-0.218-1.945-0.648
			c-0.866-0.434-1.329-0.804-1.391-1.112c-0.37-2.099-0.556-4.106-0.556-6.021c0-2.78,0.278-5.312,0.834-7.598
			c0.556-2.284,1.08-4.322,1.575-6.114c0.186-0.617,0.432-1.312,0.741-2.085c0.309-0.771,0.633-1.482,0.973-2.131
			c0.339-0.648,0.616-1.204,0.834-1.668c0.216-0.463,0.324-0.725,0.324-0.787c0-0.123-0.062-0.186-0.186-0.186
			c-0.124,0-0.433,0.278-0.927,0.834c-1.853,2.163-3.705,4.324-5.559,6.485c-1.853,2.163-3.752,4.247-5.697,6.254
			c-1.946,2.008-3.938,3.907-5.977,5.697c-2.038,1.793-4.2,3.367-6.485,4.726c-0.495,0.31-0.988,0.495-1.481,0.556
			c-0.495,0.061-0.927,0.093-1.298,0.093c-0.495,0-1.081-0.123-1.76-0.371c-0.681-0.246-1.375-0.523-2.085-0.833
			c-0.711-0.309-1.329-0.617-1.853-0.927c-0.525-0.309-0.819-0.556-0.881-0.741c-1.051-1.791-1.574-3.551-1.574-5.281
			c0-2.47,1.08-5.774,3.242-9.913c2.224-4.262,5.063-8.153,8.523-11.674c3.459-3.521,7.134-6.578,11.025-9.172
			c0.679-0.493,1.651-0.91,2.918-1.251c1.266-0.339,2.517-0.509,3.753-0.509c0.987,0,1.853,0.154,2.594,0.463
			c0.617,0.31,1.357,0.588,2.224,0.834c0.864,0.247,1.575,0.556,2.131,0.926c0.432,0,0.679-0.03,0.741-0.092
			c2.409-2.595,4.508-5.266,6.3-8.015c1.791-2.747,3.489-5.513,5.096-8.292c1.605-2.779,3.211-5.559,4.817-8.338
			c1.605-2.779,3.396-5.467,5.374-8.061c0.309-0.37,0.586-0.648,0.834-0.834c0.246-0.186,0.679-0.277,1.297-0.277
			c0.309,0,0.709,0.092,1.204,0.277c0.494,0.186,0.987,0.417,1.482,0.695c0.494,0.277,0.927,0.602,1.297,0.973
			C369.841,45.452,370.026,45.823,370.026,46.193z M337.97,81.215c0-0.617-0.711-0.927-2.131-0.927
			c-0.927,0-1.699,0.155-2.316,0.463c-2.223,1.112-4.433,2.548-6.624,4.309c-2.193,1.76-4.231,3.706-6.114,5.837
			c-1.885,2.131-3.599,4.433-5.143,6.902c-1.544,2.471-2.779,4.972-3.706,7.504c-0.062,0.125-0.124,0.324-0.185,0.603
			c-0.062,0.277-0.093,0.479-0.093,0.602c0,0.495,0.046,0.974,0.139,1.437s0.262,0.694,0.51,0.694c0.309,0,0.616-0.123,0.927-0.37
			c0.308-0.246,0.602-0.417,0.88-0.51s0.633-0.292,1.065-0.603c4.015-3.149,7.736-6.685,11.164-10.607
			c3.428-3.922,6.654-7.922,9.682-11.998c0.556-0.741,1.02-1.281,1.39-1.621C337.784,82.59,337.97,82.018,337.97,81.215z"/>
	</g>
</g>
<g>
	<g>
		<path fill="#1E1E1C" d="M75.502,160.415l-8.082,24.758h-9.784l-5.189-42.837c-1.333-0.17-2.34-0.631-3.021-1.382
			c-0.681-0.752-1.021-1.709-1.021-2.872c0-1.361,0.446-2.452,1.34-3.275c0.894-0.822,2.389-1.233,4.487-1.233l11.613,0.043
			c2.099,0,3.595,0.397,4.488,1.19c0.894,0.795,1.34,1.844,1.34,3.148s-0.446,2.36-1.34,3.169c-0.894,0.808-2.39,1.212-4.488,1.212
			h-4.552l2.893,24.375l6.85-20.291h9.061l6.806,20.291l2.893-24.375h-4.552c-2.099,0-3.594-0.404-4.487-1.212
			c-0.894-0.809-1.34-1.864-1.34-3.169s0.446-2.361,1.34-3.17c0.894-0.808,2.389-1.212,4.487-1.212l11.571,0.043
			c2.098,0,3.595,0.397,4.487,1.19c0.894,0.795,1.34,1.844,1.34,3.148c0,1.105-0.354,2.056-1.063,2.85s-1.729,1.305-3.062,1.531
			l-5.02,42.837h-9.613L75.502,160.415z"/>
		<path fill="#1E1E1C" d="M149.648,170.284h-35.775c0.907,2.27,2.517,4.099,4.828,5.487c2.312,1.39,5.438,2.085,9.38,2.085
			c3.233,0,7.529-0.695,12.89-2.085c2.212-0.566,3.743-0.851,4.594-0.851c1.163,0,2.142,0.411,2.936,1.233
			c0.794,0.823,1.191,1.858,1.191,3.105c0,1.135-0.426,2.1-1.276,2.893c-1.135,1.05-3.899,2.05-8.295,2.999
			c-4.396,0.95-8.622,1.425-12.677,1.425c-6.977,0-12.557-1.971-16.739-5.912c-4.184-3.941-6.274-8.791-6.274-14.549
			c0-6.125,2.261-11.109,6.785-14.952c4.522-3.843,9.733-5.764,15.633-5.764c3.545,0,6.799,0.624,9.763,1.871
			c2.963,1.248,5.168,2.595,6.615,4.041c2.041,2.1,3.729,4.694,5.062,7.785c0.907,2.155,1.361,4.651,1.361,7.486V170.284z
			 M139.992,161.563c-1.333-2.495-3.077-4.36-5.232-5.594s-4.722-1.851-7.699-1.851c-2.95,0-5.502,0.617-7.657,1.851
			s-3.914,3.099-5.274,5.594H139.992z"/>
		<path fill="#1E1E1C" d="M178.234,146.548v5.444c3.658-2.637,6.544-4.396,8.657-5.274c2.112-0.879,4.09-1.318,5.934-1.318
			c2.836,0,5.587,1.049,8.253,3.147c1.814,1.418,2.723,2.864,2.723,4.339c0,1.248-0.434,2.305-1.299,3.169
			c-0.865,0.865-1.907,1.298-3.126,1.298c-1.078,0-2.212-0.538-3.402-1.616c-1.191-1.078-2.255-1.617-3.19-1.617
			c-1.22,0-3.042,0.766-5.467,2.298c-2.425,1.531-5.452,3.828-9.082,6.891v13.145h12.422c2.098,0,3.594,0.404,4.487,1.213
			c0.894,0.808,1.34,1.865,1.34,3.169c0,1.276-0.446,2.318-1.34,3.127c-0.894,0.808-2.39,1.212-4.487,1.212h-26.332
			c-2.099,0-3.595-0.404-4.487-1.212c-0.894-0.809-1.341-1.865-1.341-3.17c0-1.275,0.447-2.318,1.341-3.126
			c0.893-0.809,2.389-1.213,4.487-1.213h5.189v-21.185h-3.147c-2.099,0-3.595-0.403-4.488-1.212c-0.893-0.809-1.34-1.864-1.34-3.169
			c0-1.276,0.447-2.318,1.34-3.127c0.894-0.808,2.39-1.212,4.488-1.212H178.234z"/>
		<path fill="#1E1E1C" d="M225.154,170.667v14.506h-10.209c-2.1,0-3.594-0.404-4.488-1.212c-0.893-0.809-1.34-1.865-1.34-3.17
			c0-1.275,0.453-2.318,1.361-3.126c0.908-0.809,2.396-1.213,4.467-1.213h1.488v-37.731h-1.488c-2.1,0-3.594-0.404-4.488-1.213
			c-0.893-0.808-1.34-1.864-1.34-3.169c0-1.276,0.447-2.318,1.34-3.127c0.895-0.808,2.389-1.212,4.488-1.212h10.209v29.395
			l6.807-5.487c-0.709-1.22-1.064-2.213-1.064-2.979c0-1.304,0.439-2.36,1.32-3.169c0.877-0.808,2.367-1.212,4.465-1.212h9.955
			c2.098,0,3.594,0.404,4.488,1.212c0.893,0.809,1.34,1.865,1.34,3.169c0,1.276-0.447,2.318-1.34,3.127
			c-0.895,0.809-2.391,1.212-4.488,1.212h-2.426l-10.592,8.594l14.252,12.591h2.551c2.1,0,3.596,0.404,4.488,1.213
			c0.895,0.808,1.34,1.865,1.34,3.169c0,1.276-0.445,2.318-1.34,3.127c-0.893,0.808-2.389,1.212-4.488,1.212h-10.039
			c-2.098,0-3.594-0.404-4.486-1.212c-0.895-0.809-1.342-1.865-1.342-3.17c0-1.105,0.482-2.197,1.447-3.275l-9.23-8.167
			L225.154,170.667z"/>
		<path fill="#1E1E1C" d="M306.488,170.284h-35.775c0.908,2.27,2.518,4.099,4.828,5.487c2.312,1.39,5.438,2.085,9.381,2.085
			c3.232,0,7.529-0.695,12.889-2.085c2.213-0.566,3.744-0.851,4.594-0.851c1.164,0,2.143,0.411,2.936,1.233
			c0.795,0.823,1.191,1.858,1.191,3.105c0,1.135-0.426,2.1-1.275,2.893c-1.135,1.05-3.9,2.05-8.295,2.999
			c-4.396,0.95-8.623,1.425-12.678,1.425c-6.977,0-12.557-1.971-16.738-5.912c-4.184-3.941-6.275-8.791-6.275-14.549
			c0-6.125,2.262-11.109,6.785-14.952s9.734-5.764,15.633-5.764c3.545,0,6.799,0.624,9.764,1.871
			c2.963,1.248,5.168,2.595,6.615,4.041c2.041,2.1,3.729,4.694,5.061,7.785c0.908,2.155,1.361,4.651,1.361,7.486V170.284z
			 M296.832,161.563c-1.332-2.495-3.076-4.36-5.232-5.594c-2.154-1.233-4.721-1.851-7.699-1.851c-2.949,0-5.502,0.617-7.656,1.851
			c-2.156,1.233-3.914,3.099-5.275,5.594H296.832z"/>
		<path fill="#1E1E1C" d="M328.057,146.548v2.935c1.588-1.361,3.338-2.382,5.252-3.062c1.916-0.681,3.992-1.021,6.232-1.021
			c5.162,0,9.246,1.603,12.252,4.807c2.383,2.552,3.572,5.898,3.572,10.039v16.207c1.844,0,3.205,0.404,4.084,1.213
			c0.879,0.808,1.318,1.865,1.318,3.169c0,1.276-0.445,2.318-1.34,3.127c-0.893,0.808-2.389,1.212-4.486,1.212h-7.871
			c-2.098,0-3.594-0.404-4.486-1.212c-0.895-0.809-1.342-1.865-1.342-3.17c0-1.275,0.439-2.318,1.32-3.126
			c0.879-0.809,2.238-1.213,4.082-1.213V159.99c0-1.9-0.51-3.29-1.531-4.169c-1.332-1.134-3.332-1.702-5.998-1.702
			c-2.014,0-3.779,0.391-5.295,1.17c-1.518,0.78-3.439,2.433-5.764,4.956v16.207c2.24,0,3.686,0.213,4.338,0.639
			c1.389,0.851,2.084,2.099,2.084,3.743c0,1.276-0.445,2.318-1.34,3.127c-0.893,0.808-2.389,1.212-4.486,1.212h-9.912
			c-2.1,0-3.596-0.404-4.488-1.212c-0.893-0.809-1.34-1.865-1.34-3.17c0-1.588,0.682-2.821,2.041-3.7
			c0.682-0.426,2.143-0.639,4.383-0.639v-21.185c-1.844,0-3.205-0.41-4.084-1.233c-0.879-0.822-1.318-1.871-1.318-3.147
			s0.445-2.318,1.34-3.127c0.893-0.808,2.389-1.212,4.488-1.212H328.057z"/>
	</g>
	<g>
		<path fill="#1E1E1C" d="M31.941,242.251c-0.988,0.866-2.302,1.823-3.938,2.872c-1.637,1.05-3.506,1.575-5.604,1.575
			c-0.681,0-1.376-0.217-2.085-0.648c-0.711-0.433-1.39-1.003-2.038-1.714c-0.648-0.709-1.221-1.497-1.714-2.362
			c-0.495-0.864-0.866-1.729-1.112-2.595c-0.185-0.679-0.31-1.327-0.37-1.945c-0.062-0.616-0.093-1.265-0.093-1.945
			c0-1.173,0.107-2.316,0.324-3.428c0.216-1.112,0.603-2.47,1.158-4.077c0.309-0.864,0.57-1.682,0.787-2.455
			c0.216-0.771,0.479-1.497,0.788-2.177c1.42-3.396,2.84-6.778,4.262-10.146c1.42-3.365,2.995-6.84,4.725-10.423
			c0.494-0.987,1.173-1.651,2.038-1.991c0.864-0.339,1.729-0.51,2.595-0.51c0.493,0,1.003,0.046,1.528,0.139
			c0.524,0.093,0.941,0.294,1.251,0.603c0.246,0.186,0.432,0.37,0.556,0.556c0.123,0.186,0.186,0.495,0.186,0.927
			c0,1.236-0.217,2.332-0.648,3.289c-0.433,0.958-0.942,1.868-1.529,2.732c-0.587,0.866-1.22,1.761-1.898,2.688
			c-0.681,0.926-1.298,1.945-1.854,3.057c-0.37,0.866-0.804,1.869-1.297,3.012c-0.495,1.144-1.005,2.332-1.528,3.566
			c-0.525,1.236-1.02,2.425-1.482,3.567c-0.464,1.144-0.85,2.146-1.158,3.011c-0.804,2.101-1.375,3.97-1.714,5.605
			c-0.341,1.637-0.51,2.795-0.51,3.474c0,0.434,0.076,1.035,0.231,1.807c0.153,0.773,0.633,1.158,1.437,1.158
			c0.493,0,0.956-0.046,1.39-0.139c0.431-0.093,0.895-0.246,1.39-0.463c0.493-0.216,1.049-0.524,1.667-0.927
			c0.617-0.401,1.39-0.941,2.316-1.621c1.112-0.803,1.93-1.344,2.455-1.622c0.524-0.277,1.158-0.417,1.899-0.417
			c0.371,0,0.771,0.047,1.204,0.14c0.432,0.093,0.803,0.264,1.112,0.51c0.309,0.247,0.478,0.479,0.51,0.694
			c0.03,0.217,0.046,0.417,0.046,0.603c0,0.556-0.155,1.019-0.463,1.39c-0.311,0.37-0.648,0.741-1.02,1.111L31.941,242.251z
			 M43.708,181.382c0.494,0.495,0.802,1.005,0.927,1.529c0.123,0.525,0.185,1.034,0.185,1.528c0,0.31-0.031,0.603-0.092,0.88
			c-0.062,0.278-0.186,0.542-0.371,0.788c-0.865,1.051-1.807,2.069-2.825,3.057c-1.02,0.989-2.055,1.482-3.104,1.482
			c-0.926,0-1.714-0.199-2.362-0.602c-0.648-0.401-1.097-0.818-1.343-1.251c-0.248-0.494-0.417-1.02-0.51-1.575
			s-0.14-1.08-0.14-1.575c0-0.679,0.093-1.374,0.278-2.084s0.494-1.312,0.927-1.807c0.493-0.557,1.126-0.957,1.899-1.205
			c0.771-0.246,1.651-0.37,2.64-0.37c0.741,0,1.497,0.108,2.271,0.324C42.858,180.719,43.398,181.012,43.708,181.382z"/>
		<path fill="#1E1E1C" d="M38.795,220.757c0.679-1.605,1.344-3.104,1.992-4.493s1.312-2.747,1.992-4.076
			c0.679-1.328,1.42-2.688,2.224-4.077c0.802-1.39,1.729-2.855,2.779-4.4c0.37-0.556,0.602-0.94,0.694-1.158
			c0.093-0.216,0.354-0.51,0.788-0.88c0.679-0.617,1.76-0.927,3.242-0.927c2.038,0,3.273,0.464,3.706,1.39
			c0.123,0.248,0.231,0.51,0.324,0.788c0.093,0.277,0.139,0.571,0.139,0.88c0,0.495-0.124,1.081-0.37,1.76
			c-0.248,0.681-0.804,1.545-1.668,2.595c-0.31,0.37-1.065,1.267-2.27,2.687c-1.204,1.422-2.425,3.305-3.66,5.651
			c-0.68,1.236-1.561,2.997-2.64,5.281c-1.082,2.286-2.395,5.343-3.938,9.172c-0.186,0.433-0.387,0.989-0.603,1.668
			c-0.217,0.681-0.417,1.375-0.603,2.084c-0.185,0.711-0.34,1.329-0.463,1.854c-0.125,0.525-0.186,0.819-0.186,0.88
			c0,0.186,0.015,0.387,0.047,0.603c0.03,0.217,0.106,0.324,0.231,0.324c0.493,0,1.019-0.401,1.575-1.205
			c3.149-4.446,5.929-8.09,8.338-10.932c2.409-2.841,4.493-5.188,6.254-7.041c1.76-1.854,3.211-3.351,4.354-4.494
			c1.142-1.142,1.96-2.27,2.455-3.382c0.432-0.863,0.787-1.559,1.065-2.084c0.277-0.524,0.523-0.911,0.741-1.158
			c0.216-0.246,0.432-0.401,0.648-0.463c0.216-0.062,0.478-0.093,0.787-0.093c0.68,0,1.219,0.139,1.622,0.417
			c0.4,0.277,0.973,0.448,1.714,0.509c0.493,0.062,0.926,0.356,1.297,0.881c0.37,0.525,0.556,1.065,0.556,1.621
			c0,0.186-0.093,0.541-0.278,1.065c-0.185,0.525-0.402,0.973-0.648,1.344c-1.667,2.719-2.996,5.096-3.983,7.134
			c-0.989,2.038-1.822,4.231-2.502,6.578c-0.124,0.495-0.263,1.111-0.417,1.853s-0.277,1.515-0.37,2.316
			c-0.093,0.803-0.171,1.591-0.231,2.362c-0.062,0.773-0.093,1.375-0.093,1.807c0,0.865,0.093,1.621,0.278,2.27
			c0.185,0.648,0.338,1.221,0.463,1.714c0.123,0.866,0.616,1.575,1.482,2.131c0.864,0.557,1.45,0.959,1.76,1.205
			c0.371,0.31,0.695,0.618,0.974,0.926c0.277,0.311,0.416,0.711,0.416,1.205c0,0.31-0.185,0.756-0.556,1.343
			c-0.37,0.587-0.988,0.881-1.853,0.881c-0.371,0-1.128-0.093-2.271-0.278c-1.144-0.186-1.991-0.525-2.547-1.02
			c-0.681-0.616-1.298-1.096-1.854-1.436c-0.556-0.339-1.144-0.941-1.76-1.807c-1.052-1.42-1.575-3.335-1.575-5.744
			c0-2.717,0.139-4.586,0.417-5.605c0.277-1.019,0.417-1.589,0.417-1.714c0-0.246-0.093-0.37-0.278-0.37s-0.371,0.124-0.556,0.37
			c-1.915,2.533-3.537,4.648-4.864,6.347c-1.329,1.699-2.548,3.352-3.659,4.956c-0.495,0.681-0.912,1.221-1.251,1.622
			c-0.34,0.402-0.665,0.727-0.973,0.973c-0.311,0.247-0.603,0.463-0.881,0.648c-0.277,0.186-0.571,0.463-0.88,0.834
			c-0.37,0.433-0.927,0.709-1.668,0.834c-0.74,0.123-1.328,0.185-1.76,0.185c-0.31,0-0.757-0.154-1.344-0.463
			c-0.588-0.309-1.236-0.679-1.945-1.111c-0.711-0.432-1.375-0.896-1.992-1.391c-0.618-0.493-1.081-0.926-1.39-1.297
			c-0.186-0.246-0.34-0.633-0.463-1.158c-0.125-0.523-0.186-1.033-0.186-1.528c0-0.741,0.047-1.344,0.139-1.807
			c0.093-0.463,0.2-0.895,0.324-1.297c0.123-0.401,0.246-0.788,0.371-1.158c0.123-0.371,0.216-0.802,0.278-1.297
			c0.061-0.679,0.262-1.543,0.602-2.595c0.339-1.049,0.741-2.161,1.205-3.335c0.463-1.173,0.94-2.347,1.436-3.521
			C37.993,222.734,38.425,221.684,38.795,220.757z"/>
		<path fill="#1E1E1C" d="M128.663,247.811c-0.556,0.123-1.081,0.277-1.575,0.463c-0.495,0.186-1.051,0.278-1.667,0.278
			c-0.311,0-0.649-0.032-1.02-0.093c-0.371-0.062-0.927-0.248-1.668-0.556c-1.792-0.681-3.073-1.746-3.845-3.197
			c-0.772-1.45-1.158-3.319-1.158-5.604c0-2.965,0.587-6.423,1.761-10.377c0.616-2.038,1.204-3.798,1.76-5.28
			c0.557-1.482,1.112-2.903,1.668-4.262c0.246-0.557,0.371-0.927,0.371-1.112c0-0.123-0.062-0.186-0.186-0.186
			c-0.186,0-0.588,0.341-1.205,1.02c-1.606,1.792-3.196,3.768-4.771,5.93c-1.575,2.162-3.12,4.34-4.633,6.531
			c-1.514,2.193-3.011,4.324-4.493,6.393c-1.482,2.07-2.904,3.907-4.262,5.513c-0.31,0.31-0.495,0.51-0.556,0.603
			c-0.062,0.092-0.218,0.201-0.464,0.324c-0.495,0.31-1.035,0.588-1.621,0.834c-0.588,0.247-1.221,0.37-1.899,0.37
			c-0.247,0-0.927-0.246-2.038-0.741c-1.112-0.493-2.038-1.111-2.779-1.853c-0.248-0.246-0.371-0.587-0.371-1.02
			c0-0.493,0.093-0.834,0.278-1.02c0.186-0.185,0.37-0.679,0.556-1.481c0.864-3.645,1.945-7.181,3.243-10.608
			c1.297-3.428,2.717-6.81,4.262-10.146c1.543-3.335,3.134-6.624,4.771-9.866c1.636-3.243,3.196-6.47,4.679-9.682
			c0.37-0.803,0.648-1.39,0.833-1.761c0.186-0.37,0.401-0.771,0.648-1.204c2.1-3.829,4.17-7.551,6.208-11.164
			s4.199-7.704,6.485-12.276c0.309-0.556,0.663-0.91,1.065-1.065c0.4-0.153,0.848-0.231,1.343-0.231
			c0.494,0,0.881,0.032,1.158,0.093c0.278,0.062,0.54,0.093,0.788,0.093c0.431,0,0.88,0.139,1.343,0.417
			c0.464,0.277,0.881,0.603,1.251,0.973c0.309,0.31,0.524,0.618,0.648,0.927c0.123,0.31,0.186,0.772,0.186,1.39
			c0,1.236-0.417,2.316-1.251,3.242c-0.834,0.927-1.869,2.131-3.104,3.613c-0.433,0.495-0.741,0.912-0.927,1.251
			c-0.185,0.34-0.463,0.757-0.834,1.251c-2.1,2.903-4.122,6.192-6.068,9.867c-1.945,3.675-3.86,7.504-5.744,11.488
			c-1.885,3.983-3.722,8.014-5.512,12.09c-1.793,4.077-3.553,7.968-5.281,11.674c-0.371,0.804-0.603,1.297-0.695,1.482
			c-0.092,0.186-0.139,0.31-0.139,0.37c0,0.125,0.061,0.186,0.186,0.186c0.061,0,0.123-0.046,0.186-0.139
			c0.061-0.093,0.215-0.293,0.463-0.603c3.767-5.249,7.365-9.928,10.793-14.036c3.429-4.106,6.841-8.014,10.238-11.72
			c0.616-0.679,1.079-1.158,1.39-1.437c0.308-0.277,0.709-0.509,1.204-0.694c0.927-0.309,1.636-0.463,2.131-0.463
			c0.494,0,1.096,0.078,1.807,0.231c0.709,0.154,1.251,0.294,1.621,0.417c0.309,0.124,0.617,0.37,0.927,0.741
			c0.309,0.37,0.463,0.711,0.463,1.019c0,1.482-0.294,2.812-0.88,3.984c-0.588,1.174-1.221,2.315-1.899,3.428
			c-0.68,1.111-1.158,2.116-1.436,3.011c-0.278,0.896-0.603,1.776-0.973,2.641c-1.236,2.965-2.349,6.224-3.336,9.774
			c-0.988,3.553-1.482,6.902-1.482,10.052c0,2.224,0.216,3.706,0.648,4.447c0.432,0.741,0.987,1.297,1.668,1.668
			c0.309,0.124,0.679,0.217,1.112,0.278c0.431,0.062,0.833,0.154,1.204,0.277c0.432,0.125,0.648,0.371,0.648,0.741
			c0,0.186-0.046,0.371-0.139,0.556c-0.093,0.186-0.201,0.401-0.324,0.648c-0.125,0.309-0.371,0.571-0.741,0.788
			C129.311,247.517,128.971,247.686,128.663,247.811z"/>
		<path fill="#1E1E1C" d="M154.233,245.68c-0.865,0.493-1.482,0.771-1.853,0.833c-0.371,0.062-0.866,0.093-1.482,0.093
			c-0.556,0-1.098-0.031-1.621-0.093c-0.525-0.062-1.158-0.247-1.899-0.556c-0.495-0.186-1.051-0.402-1.668-0.648
			c-0.618-0.246-1.22-0.51-1.807-0.787c-0.588-0.278-1.097-0.51-1.528-0.695c-0.433-0.186-0.741-0.339-0.927-0.463
			c-0.927-0.494-1.807-1.297-2.641-2.409c-0.833-1.111-1.498-2.439-1.991-3.983c-0.311-0.927-0.572-2.131-0.788-3.613
			c-0.217-1.482-0.324-2.655-0.324-3.521c0-0.432,0.03-0.881,0.093-1.344c0.061-0.463,0.186-1.033,0.371-1.714
			c1.297-4.756,3.396-9.187,6.3-13.295c2.902-4.107,6.114-8.045,9.635-11.812c0.803-0.864,2.085-1.774,3.845-2.733
			c1.761-0.957,3.783-1.436,6.069-1.436c1.234,0,2.254,0.093,3.057,0.277c0.802,0.186,1.668,0.434,2.595,0.741
			c0.493,0.186,1.111,0.727,1.853,1.622s1.112,2.27,1.112,4.122c0,1.236-0.218,2.379-0.649,3.429
			c-0.433,1.051-0.926,2.131-1.482,3.242c-0.494,0.927-0.942,1.699-1.343,2.316c-0.402,0.618-0.942,1.297-1.621,2.038
			c-1.607,1.792-3.259,3.629-4.957,5.513c-1.699,1.885-3.444,3.691-5.234,5.42c-1.792,1.729-3.629,3.335-5.513,4.817
			c-1.885,1.482-3.814,2.779-5.79,3.892c-0.371,0.247-0.557,0.495-0.557,0.741c0,0.741,0.263,1.514,0.788,2.315
			c0.523,0.804,1.003,1.329,1.436,1.575c0.927,0.495,1.884,0.741,2.872,0.741c0.802,0,1.668-0.153,2.595-0.463
			c0.926-0.309,2.438-1.02,4.539-2.131c1.605-0.864,3.072-1.807,4.401-2.826c1.327-1.019,2.608-2.053,3.845-3.104
			c1.234-1.05,2.455-2.099,3.659-3.15c1.205-1.049,2.517-2.006,3.938-2.872c0.494-0.308,0.881-0.493,1.158-0.556
			c0.278-0.061,0.51-0.093,0.695-0.093c0.308,0,0.694,0.186,1.158,0.556c0.463,0.371,0.694,0.804,0.694,1.298
			c0,0.433-0.016,0.711-0.046,0.834c-0.032,0.124-0.047,0.247-0.047,0.37c0,0.186-0.016,0.402-0.046,0.648
			c-0.032,0.248-0.171,0.463-0.417,0.648c-1.112,0.927-2.146,1.932-3.104,3.011c-0.959,1.082-2.131,2.271-3.521,3.567
			s-3.166,2.749-5.328,4.354C160.594,242.005,157.753,243.766,154.233,245.68z M161.182,208.527
			c0.431-0.679,0.817-1.343,1.158-1.991c0.338-0.648,0.509-1.404,0.509-2.271c0-0.37-0.016-0.648-0.046-0.834
			c-0.032-0.185-0.201-0.277-0.51-0.277c-0.37,0-0.711,0.093-1.019,0.277c-0.311,0.186-0.618,0.371-0.927,0.557
			c-0.495,0.31-0.819,0.479-0.973,0.509c-0.155,0.032-0.449,0.264-0.881,0.695c-1.482,1.359-2.98,2.842-4.493,4.447
			c-1.514,1.606-2.935,3.305-4.262,5.096c-1.329,1.792-2.501,3.675-3.521,5.651c-1.02,1.978-1.776,3.983-2.27,6.021
			c0,0.311,0.061,0.464,0.185,0.464c0.123,0,0.339-0.093,0.649-0.278c2.779-2.099,5.311-4.369,7.597-6.81
			c2.284-2.439,4.478-4.925,6.578-7.458c0.37-0.432,0.633-0.787,0.787-1.065c0.153-0.278,0.293-0.54,0.417-0.787
			c0.123-0.246,0.246-0.51,0.371-0.788C160.657,209.408,160.872,209.022,161.182,208.527z"/>
		<path fill="#1E1E1C" d="M198.982,186.385c-0.311,1.792-0.788,3.537-1.437,5.234c-0.648,1.7-1.39,3.367-2.224,5.003
			c-0.834,1.638-1.684,3.259-2.548,4.864c-0.865,1.607-1.667,3.182-2.408,4.726c-0.248,0.495-0.495,1.051-0.741,1.667
			c-0.248,0.618-0.479,1.221-0.695,1.807c-0.217,0.588-0.387,1.098-0.51,1.529c-0.124,0.433-0.185,0.68-0.185,0.741
			c0,0.185,0.123,0.277,0.37,0.277c0.123,0,0.417-0.03,0.88-0.093c0.464-0.061,0.941-0.153,1.437-0.277
			c2.038-0.432,4.229-1.08,6.578-1.946c2.347-0.864,4.292-1.76,5.836-2.687c0.494-0.309,0.834-0.463,1.02-0.463
			c0.371,0,0.818,0.078,1.344,0.231c0.523,0.155,1.018,0.34,1.482,0.556c0.463,0.218,0.863,0.479,1.203,0.788
			c0.34,0.31,0.51,0.587,0.51,0.833c0,0.618-0.248,1.251-0.74,1.899c-0.496,0.648-1.268,1.19-2.316,1.622
			c-1.236,0.495-2.039,0.865-2.41,1.111c-0.369,0.247-0.957,0.525-1.76,0.834c-1.112,0.433-2.409,0.865-3.891,1.297
			c-1.482,0.433-2.918,0.834-4.308,1.204c-1.39,0.371-2.641,0.695-3.753,0.973c-1.111,0.278-1.915,0.51-2.408,0.695
			c-0.804,0.248-1.39,0.711-1.761,1.39c-0.37,0.681-0.68,1.422-0.926,2.224c-0.248,0.804-0.464,1.545-0.649,2.224
			c-0.124,0.495-0.293,0.988-0.509,1.482c-0.218,0.495-0.387,0.988-0.51,1.482c-0.125,0.741-0.402,1.76-0.834,3.058
			c-0.433,1.297-0.88,2.672-1.344,4.122c-0.463,1.452-0.896,2.919-1.297,4.401c-0.402,1.482-0.664,2.811-0.787,3.983
			c-0.062,0.433-0.294,1.112-0.695,2.038c-0.402,0.927-0.942,1.543-1.621,1.854c-0.186,0.123-0.417,0.199-0.694,0.231
			c-0.278,0.03-0.51,0.046-0.695,0.046c-0.556,0-1.158-0.093-1.807-0.277c-0.648-0.186-1.158-0.434-1.528-0.741
			c-0.681-0.495-1.02-1.235-1.02-2.224c0-0.371,0.03-0.818,0.093-1.344c0.061-0.523,0.153-1.003,0.278-1.436
			c1.172-3.459,2.254-7.103,3.242-10.933c0.987-3.829,2.224-7.535,3.706-11.118c0.123-0.37,0.186-0.586,0.186-0.648
			c0-0.185-0.155-0.37-0.464-0.556c-0.865-0.432-1.561-0.895-2.084-1.39c-0.525-0.493-0.989-0.987-1.39-1.482
			c-0.403-0.493-0.788-1.003-1.158-1.528c-0.371-0.524-0.834-1.004-1.39-1.437c-0.248-0.186-0.387-0.385-0.417-0.602
			c-0.032-0.216-0.047-0.386-0.047-0.51c0-0.309,0.093-0.54,0.278-0.695c0.186-0.153,0.463-0.324,0.834-0.51
			c0.308-0.123,0.586-0.231,0.834-0.324c0.246-0.093,0.586-0.139,1.019-0.139c1.05,0,2.1,0.248,3.15,0.741
			c1.049,0.495,2.006,0.741,2.872,0.741c0.864,0,1.39-0.432,1.575-1.297c0.308-1.112,0.802-2.562,1.481-4.354
			c1.112-2.841,2.301-5.976,3.567-9.404c1.266-3.428,2.701-6.84,4.309-10.237c0.308-0.616,0.509-0.973,0.602-1.065
			s0.231-0.139,0.417-0.139c0.741,0,1.235-0.077,1.482-0.231c0.246-0.153,0.617-0.231,1.111-0.231c0.432,0,0.987,0.062,1.668,0.185
			c0.679,0.125,1.297,0.31,1.854,0.557c0.556,0.247,0.833,0.463,0.833,0.648c0,0.124,0,0.247,0,0.37
			C199.074,185.861,199.042,186.076,198.982,186.385z"/>
		<path fill="#1E1E1C" d="M278.748,186.199c0.432,0.866,0.727,1.7,0.881,2.502c0.152,0.804,0.262,1.638,0.324,2.501
			c0.061,0.681,0.107,1.313,0.139,1.899c0.031,0.588,0.047,1.19,0.047,1.807c0,2.349-0.156,4.525-0.463,6.532
			c-0.311,2.008-0.773,4.463-1.391,7.365c-1.422,6.485-3.396,12.801-5.93,18.946c-2.533,6.146-5.775,12.029-9.729,17.649
			c-0.555,0.802-1.189,1.513-1.898,2.131c-0.711,0.617-1.652,0.927-2.826,0.927c-0.246,0-0.541-0.093-0.879-0.278
			c-0.342-0.186-0.943-0.31-1.807-0.37c-0.682-0.062-1.221-0.186-1.621-0.371c-0.404-0.186-0.82-0.495-1.252-0.927
			c-0.309-0.31-0.926-0.587-1.854-0.833c-0.926-0.248-1.543-0.71-1.852-1.39c-0.867-1.854-1.422-3.783-1.668-5.791
			c-0.248-2.006-0.525-4.276-0.834-6.81c-0.125-0.802-0.232-1.281-0.324-1.436s-0.201-0.232-0.324-0.232
			c-0.248,0-0.525,0.248-0.834,0.741c-0.494,0.741-0.973,1.406-1.436,1.992c-0.463,0.588-1.066,1.221-1.807,1.899
			c-1.174,1.051-2.287,2.255-3.336,3.613c-1.051,1.359-2.084,2.626-3.104,3.799c-1.02,1.174-2.023,2.162-3.012,2.965
			c-0.988,0.802-2.008,1.204-3.057,1.204c-0.619,0-1.73-0.711-3.336-2.131c-0.246-0.246-0.541-0.417-0.879-0.51
			c-0.342-0.093-0.682-0.186-1.02-0.278c-0.34-0.092-0.635-0.199-0.881-0.324c-0.248-0.123-0.402-0.339-0.463-0.648
			c-0.125-0.37-0.186-0.709-0.186-1.019c0-0.371,0-1.08,0-2.131c0-1.544,0.107-2.949,0.324-4.216
			c0.217-1.266,0.418-2.516,0.604-3.752c0.061-0.556,0.105-0.987,0.139-1.297c0.029-0.309,0.061-0.617,0.092-0.927
			c0.031-0.309,0.076-0.663,0.139-1.065c0.061-0.401,0.186-0.973,0.371-1.714c1.42-6.485,3.119-12.971,5.096-19.456
			s3.828-12.908,5.559-19.271c0.123-0.494,0.324-0.881,0.602-1.158c0.279-0.278,1.035-0.417,2.271-0.417
			c0.492,0,0.973,0.062,1.436,0.186c0.463,0.124,0.941,0.247,1.436,0.37c0.123,0,0.309,0.125,0.557,0.371
			c0.246,0.247,0.51,0.509,0.787,0.787s0.51,0.541,0.695,0.787c0.186,0.248,0.277,0.402,0.277,0.464
			c0,0.124-0.031,0.277-0.092,0.463c-0.062,0.186-0.125,0.34-0.186,0.463c-2.842,6.796-5.234,13.82-7.182,21.078
			c-1.945,7.258-3.691,14.592-5.234,22.003c-0.186,0.866-0.309,1.545-0.369,2.039c-0.062,0.495-0.094,0.803-0.094,0.926
			c0,0.311,0.094,0.464,0.277,0.464c0.123,0,0.34-0.093,0.648-0.278s0.896-0.709,1.762-1.575c3.025-3.149,5.883-6.592,8.57-10.33
			c2.686-3.736,4.77-7.272,6.252-10.608c0.246-0.493,0.432-0.91,0.557-1.25c0.123-0.339,0.232-0.648,0.324-0.927
			c0.094-0.278,0.186-0.586,0.277-0.927c0.094-0.339,0.201-0.756,0.324-1.251c0.186-0.864,0.402-1.682,0.648-2.455
			c0.246-0.771,0.525-1.496,0.834-2.177c0.123-0.309,0.232-0.51,0.324-0.603c0.094-0.093,0.232-0.139,0.418-0.139
			c0.371,0,0.787,0.062,1.25,0.186c0.463,0.124,0.85,0.217,1.158,0.277c0.742,0.062,1.391,0.434,1.945,1.112
			c1.051,1.236,1.576,2.378,1.576,3.428c0,0.556-0.016,0.973-0.047,1.251c-0.031,0.277-0.109,0.571-0.232,0.88
			c-0.865,2.719-1.527,5.436-1.99,8.153c-0.465,2.719-0.695,5.559-0.695,8.523c0,3.768,0.4,7.659,1.203,11.674
			c0.123,0.556,0.34,0.833,0.65,0.833c0.184,0,0.385-0.123,0.602-0.37c0.215-0.246,0.477-0.556,0.787-0.927
			c3.768-5.063,6.84-10.777,9.219-17.14c2.377-6.36,4.309-12.754,5.791-19.178c0.246-0.987,0.4-1.791,0.463-2.409
			c0.061-0.616,0.092-1.173,0.092-1.668c0-0.556,0.016-1.019,0.047-1.39c0.029-0.37,0.047-0.741,0.047-1.111
			c0-0.371,0.014-0.756,0.045-1.158c0.031-0.401,0.047-0.941,0.047-1.621c0-0.741-0.092-1.344-0.277-1.807
			c-0.186-0.464-0.402-0.911-0.648-1.344c-0.248-0.432-0.463-0.88-0.648-1.343c-0.186-0.464-0.279-1.034-0.279-1.715
			c0-1.049,0.078-1.853,0.232-2.408s0.479-0.834,0.973-0.834c0.371,0,0.756,0.032,1.158,0.093c0.4,0.062,0.941,0.093,1.621,0.093
			c0.865,0,1.637,0.124,2.316,0.37C277.668,184.502,278.254,185.15,278.748,186.199z"/>
		<path fill="#1E1E1C" d="M298.018,242.251c-0.988,0.866-2.301,1.823-3.938,2.872c-1.637,1.05-3.506,1.575-5.604,1.575
			c-0.682,0-1.377-0.217-2.086-0.648c-0.711-0.433-1.389-1.003-2.037-1.714c-0.648-0.709-1.221-1.497-1.715-2.362
			c-0.494-0.864-0.865-1.729-1.111-2.595c-0.186-0.679-0.311-1.327-0.371-1.945c-0.062-0.616-0.092-1.265-0.092-1.945
			c0-1.173,0.107-2.316,0.324-3.428c0.215-1.112,0.602-2.47,1.158-4.077c0.309-0.864,0.57-1.682,0.787-2.455
			c0.215-0.771,0.479-1.497,0.787-2.177c1.42-3.396,2.84-6.778,4.262-10.146c1.42-3.365,2.996-6.84,4.725-10.423
			c0.494-0.987,1.174-1.651,2.039-1.991c0.863-0.339,1.729-0.51,2.594-0.51c0.494,0,1.004,0.046,1.529,0.139
			c0.523,0.093,0.941,0.294,1.25,0.603c0.246,0.186,0.432,0.37,0.557,0.556c0.123,0.186,0.186,0.495,0.186,0.927
			c0,1.236-0.217,2.332-0.648,3.289c-0.434,0.958-0.943,1.868-1.529,2.732c-0.588,0.866-1.221,1.761-1.898,2.688
			c-0.682,0.926-1.299,1.945-1.854,3.057c-0.371,0.866-0.805,1.869-1.297,3.012c-0.496,1.144-1.006,2.332-1.529,3.566
			c-0.525,1.236-1.02,2.425-1.482,3.567c-0.463,1.144-0.85,2.146-1.158,3.011c-0.803,2.101-1.375,3.97-1.713,5.605
			c-0.342,1.637-0.51,2.795-0.51,3.474c0,0.434,0.076,1.035,0.23,1.807c0.154,0.773,0.633,1.158,1.438,1.158
			c0.492,0,0.955-0.046,1.389-0.139c0.432-0.093,0.895-0.246,1.391-0.463c0.492-0.216,1.049-0.524,1.666-0.927
			c0.617-0.401,1.391-0.941,2.316-1.621c1.113-0.803,1.93-1.344,2.455-1.622c0.525-0.277,1.158-0.417,1.9-0.417
			c0.371,0,0.771,0.047,1.203,0.14s0.803,0.264,1.113,0.51c0.309,0.247,0.477,0.479,0.51,0.694c0.029,0.217,0.045,0.417,0.045,0.603
			c0,0.556-0.154,1.019-0.463,1.39c-0.311,0.37-0.648,0.741-1.02,1.111L298.018,242.251z M309.785,181.382
			c0.494,0.495,0.801,1.005,0.926,1.529c0.123,0.525,0.186,1.034,0.186,1.528c0,0.31-0.031,0.603-0.092,0.88
			c-0.062,0.278-0.186,0.542-0.371,0.788c-0.865,1.051-1.807,2.069-2.826,3.057c-1.02,0.989-2.055,1.482-3.104,1.482
			c-0.926,0-1.715-0.199-2.363-0.602c-0.648-0.401-1.096-0.818-1.342-1.251c-0.248-0.494-0.418-1.02-0.51-1.575
			c-0.094-0.556-0.141-1.08-0.141-1.575c0-0.679,0.094-1.374,0.279-2.084s0.494-1.312,0.926-1.807
			c0.494-0.557,1.127-0.957,1.9-1.205c0.771-0.246,1.65-0.37,2.639-0.37c0.742,0,1.498,0.108,2.271,0.324
			C308.936,180.719,309.475,181.012,309.785,181.382z"/>
		<path fill="#1E1E1C" d="M309.506,247.069c-0.186,0-0.727-0.14-1.621-0.417c-0.896-0.278-1.869-0.695-2.92-1.251
			s-2.037-1.281-2.965-2.177c-0.926-0.896-1.514-1.992-1.76-3.289c-0.186-0.987-0.277-2.039-0.277-3.15
			c0-2.161,0.4-4.339,1.203-6.531s1.729-4.617,2.781-7.273c0.986-2.594,2.223-5.435,3.705-8.523
			c1.482-3.088,3.072-6.254,4.771-9.496c1.697-3.243,3.475-6.5,5.326-9.774c1.854-3.273,3.676-6.423,5.467-9.45
			c0.371-0.679,0.709-1.467,1.02-2.362c0.309-0.895,0.662-1.761,1.064-2.595c0.402-0.833,0.881-1.528,1.438-2.084
			c0.555-0.556,1.297-0.834,2.223-0.834c0.68,0,1.234-0.03,1.668-0.093c0.432-0.061,0.895-0.093,1.389-0.093
			s0.957,0.093,1.391,0.278c0.432,0.186,0.771,0.433,1.02,0.741c0.494,0.741,0.74,1.606,0.74,2.594c0,1.112-0.309,2.193-0.926,3.243
			c-2.102,3.397-4.262,6.749-6.486,10.052c-2.223,3.305-4.369,6.61-6.438,9.913c-2.07,3.306-4.031,6.656-5.883,10.053
			c-1.854,3.397-3.461,6.888-4.818,10.469c-0.742,1.916-1.514,3.784-2.316,5.605c-0.803,1.822-1.205,3.752-1.205,5.791
			c0,0.556,0.031,1.111,0.094,1.667c0.061,0.556,0.186,1.144,0.371,1.761c0.246,0.741,0.863,1.111,1.852,1.111
			c0.617,0,1.143-0.123,1.576-0.37c0.986-0.617,2.021-1.513,3.104-2.688c1.08-1.172,2.16-2.33,3.242-3.474
			c1.08-1.143,2.178-2.131,3.289-2.965s2.191-1.251,3.242-1.251c0.371,0,0.988,0.171,1.854,0.51c0.863,0.34,1.297,0.88,1.297,1.621
			c0,0.618-0.186,1.082-0.557,1.39c-0.369,0.31-0.803,0.711-1.297,1.205c-1.174,1.297-2.316,2.656-3.428,4.076
			c-1.111,1.422-2.27,2.733-3.475,3.938c-1.203,1.204-2.518,2.193-3.938,2.965C312.9,246.683,311.295,247.069,309.506,247.069z"/>
		<path fill="#1E1E1C" d="M385.014,176.193c0,1.175-0.201,2.147-0.604,2.919c-0.402,0.772-0.85,1.498-1.344,2.177
			c-0.432,0.618-0.771,1.236-1.018,1.854c-0.248,0.618-0.619,1.328-1.113,2.131c-1.359,2.162-2.779,4.354-4.262,6.578
			c-1.482,2.223-2.934,4.446-4.354,6.67c-1.422,2.224-2.732,4.447-3.938,6.671s-2.178,4.387-2.918,6.485l-1.482,4.076
			c-1.422,3.892-2.58,7.259-3.475,10.099c-0.896,2.842-1.607,5.281-2.131,7.319c-0.525,2.038-0.896,3.722-1.111,5.049
			c-0.219,1.329-0.324,2.395-0.324,3.197c0,1.667,0.123,2.857,0.369,3.566s0.371,1.251,0.371,1.621c0,0.186-0.125,0.401-0.371,0.648
			c-0.309,0.309-0.555,0.587-0.74,0.834c-0.186,0.246-0.371,0.447-0.557,0.603c-0.186,0.153-0.432,0.278-0.74,0.37
			c-0.311,0.093-0.742,0.14-1.297,0.14c-0.434,0-1.082-0.218-1.945-0.648c-0.867-0.434-1.33-0.804-1.391-1.112
			c-0.371-2.099-0.557-4.106-0.557-6.021c0-2.78,0.279-5.312,0.834-7.598c0.557-2.284,1.08-4.322,1.576-6.114
			c0.186-0.617,0.432-1.312,0.74-2.085c0.309-0.771,0.633-1.482,0.973-2.131s0.617-1.204,0.834-1.668
			c0.217-0.463,0.324-0.725,0.324-0.787c0-0.123-0.062-0.186-0.186-0.186s-0.432,0.278-0.926,0.834
			c-1.854,2.163-3.705,4.324-5.559,6.485c-1.854,2.163-3.752,4.247-5.697,6.254c-1.947,2.008-3.938,3.907-5.977,5.697
			c-2.039,1.793-4.201,3.367-6.486,4.726c-0.494,0.31-0.988,0.495-1.48,0.556c-0.496,0.061-0.928,0.093-1.299,0.093
			c-0.494,0-1.08-0.123-1.76-0.371c-0.68-0.246-1.375-0.523-2.084-0.833c-0.711-0.309-1.33-0.617-1.854-0.927
			c-0.525-0.309-0.818-0.556-0.881-0.741c-1.051-1.791-1.574-3.551-1.574-5.281c0-2.47,1.08-5.774,3.242-9.913
			c2.225-4.262,5.064-8.153,8.523-11.674s7.135-6.578,11.025-9.172c0.68-0.493,1.652-0.91,2.918-1.251
			c1.266-0.339,2.518-0.509,3.754-0.509c0.986,0,1.852,0.154,2.594,0.463c0.617,0.31,1.357,0.588,2.223,0.834
			c0.865,0.247,1.576,0.556,2.131,0.926c0.432,0,0.68-0.03,0.742-0.092c2.408-2.595,4.508-5.266,6.299-8.015
			c1.791-2.747,3.49-5.513,5.096-8.292s3.211-5.559,4.818-8.338c1.605-2.779,3.396-5.467,5.373-8.061
			c0.309-0.37,0.586-0.648,0.834-0.834c0.246-0.186,0.68-0.277,1.297-0.277c0.309,0,0.709,0.092,1.205,0.277
			c0.494,0.186,0.986,0.417,1.482,0.695c0.494,0.277,0.926,0.602,1.297,0.973C384.828,175.452,385.014,175.823,385.014,176.193z
			 M352.957,211.215c0-0.617-0.711-0.927-2.131-0.927c-0.928,0-1.699,0.155-2.316,0.463c-2.223,1.112-4.434,2.548-6.625,4.309
			c-2.193,1.76-4.23,3.706-6.113,5.837c-1.885,2.131-3.6,4.433-5.143,6.902c-1.545,2.471-2.779,4.972-3.707,7.504
			c-0.061,0.125-0.123,0.324-0.184,0.603c-0.062,0.277-0.094,0.479-0.094,0.602c0,0.495,0.047,0.974,0.139,1.437
			c0.094,0.463,0.262,0.694,0.51,0.694c0.309,0,0.617-0.123,0.928-0.37c0.307-0.246,0.602-0.417,0.879-0.51
			c0.279-0.093,0.633-0.292,1.066-0.603c4.014-3.149,7.736-6.685,11.164-10.607c3.428-3.922,6.654-7.922,9.682-11.998
			c0.555-0.741,1.02-1.281,1.389-1.621C352.771,212.59,352.957,212.018,352.957,211.215z"/>
	</g>
</g>
<g>
	<g>
		<path fill="#1E1E1C" d="M13.083,266.576l-1.747,5.353H9.221l-1.123-9.262c-0.288-0.036-0.506-0.137-0.653-0.299
			c-0.147-0.163-0.221-0.369-0.221-0.621c0-0.294,0.097-0.53,0.29-0.708c0.193-0.178,0.517-0.267,0.97-0.267l2.511,0.01
			c0.454,0,0.777,0.086,0.971,0.257c0.193,0.172,0.29,0.399,0.29,0.681c0,0.282-0.097,0.511-0.29,0.686
			c-0.193,0.175-0.517,0.262-0.971,0.262h-0.984l0.625,5.27l1.481-4.387h1.959l1.471,4.387l0.625-5.27H15.19
			c-0.454,0-0.777-0.087-0.971-0.262c-0.193-0.175-0.29-0.403-0.29-0.686c0-0.281,0.097-0.511,0.29-0.686
			c0.193-0.174,0.517-0.262,0.971-0.262l2.501,0.01c0.454,0,0.777,0.086,0.971,0.257c0.193,0.172,0.29,0.399,0.29,0.681
			c0,0.239-0.077,0.444-0.23,0.616s-0.374,0.282-0.662,0.331l-1.085,9.262h-2.078L13.083,266.576z"/>
		<path fill="#1E1E1C" d="M29.114,268.709h-7.734c0.196,0.491,0.544,0.887,1.043,1.188c0.5,0.3,1.176,0.45,2.028,0.45
			c0.699,0,1.628-0.15,2.787-0.45c0.478-0.123,0.81-0.185,0.993-0.185c0.251,0,0.463,0.089,0.635,0.267
			c0.171,0.179,0.257,0.402,0.257,0.672c0,0.245-0.092,0.453-0.276,0.625c-0.245,0.227-0.843,0.443-1.793,0.648
			c-0.951,0.206-1.864,0.309-2.741,0.309c-1.508,0-2.715-0.427-3.619-1.278c-0.905-0.853-1.357-1.901-1.357-3.146
			c0-1.324,0.489-2.401,1.467-3.232c0.978-0.831,2.104-1.246,3.38-1.246c0.766,0,1.47,0.135,2.11,0.404
			c0.641,0.271,1.118,0.562,1.43,0.874c0.441,0.454,0.806,1.016,1.094,1.684c0.196,0.466,0.294,1.005,0.294,1.618V268.709z
			 M27.026,266.824c-0.289-0.54-0.666-0.943-1.131-1.209c-0.466-0.267-1.021-0.4-1.665-0.4c-0.637,0-1.189,0.134-1.655,0.4
			c-0.466,0.266-0.846,0.669-1.14,1.209H27.026z"/>
		<path fill="#1E1E1C" d="M35.294,263.577v1.178c0.791-0.57,1.415-0.95,1.872-1.141c0.457-0.19,0.884-0.285,1.283-0.285
			c0.613,0,1.208,0.228,1.784,0.681c0.393,0.307,0.589,0.619,0.589,0.938c0,0.271-0.094,0.499-0.281,0.686
			c-0.187,0.188-0.413,0.28-0.676,0.28c-0.233,0-0.478-0.115-0.735-0.349s-0.488-0.35-0.689-0.35c-0.264,0-0.658,0.165-1.183,0.497
			c-0.524,0.33-1.178,0.827-1.963,1.489v2.842h2.686c0.454,0,0.777,0.088,0.971,0.263c0.193,0.174,0.29,0.403,0.29,0.685
			c0,0.276-0.097,0.501-0.29,0.676c-0.193,0.175-0.517,0.263-0.971,0.263h-5.693c-0.454,0-0.777-0.088-0.97-0.263
			c-0.193-0.175-0.29-0.402-0.29-0.685c0-0.276,0.097-0.502,0.29-0.676c0.192-0.175,0.516-0.263,0.97-0.263h1.122v-4.58h-0.681
			c-0.454,0-0.777-0.087-0.97-0.262c-0.193-0.176-0.29-0.403-0.29-0.686c0-0.275,0.097-0.501,0.29-0.676s0.517-0.263,0.97-0.263
			H35.294z"/>
		<path fill="#1E1E1C" d="M45.438,268.792v3.137h-2.208c-0.454,0-0.777-0.088-0.97-0.263c-0.193-0.175-0.29-0.402-0.29-0.685
			c0-0.276,0.098-0.502,0.294-0.676c0.196-0.175,0.518-0.263,0.965-0.263h0.322v-8.158h-0.322c-0.454,0-0.777-0.087-0.97-0.262
			c-0.193-0.175-0.29-0.402-0.29-0.685c0-0.276,0.097-0.502,0.29-0.676c0.193-0.175,0.517-0.263,0.97-0.263h2.208v6.354l1.471-1.186
			c-0.153-0.264-0.229-0.479-0.229-0.644c0-0.282,0.095-0.511,0.285-0.686c0.19-0.175,0.512-0.263,0.965-0.263h2.152
			c0.454,0,0.777,0.088,0.97,0.263s0.29,0.403,0.29,0.686c0,0.275-0.096,0.5-0.29,0.676c-0.193,0.175-0.517,0.262-0.97,0.262h-0.524
			l-2.29,1.858l3.081,2.722h0.552c0.454,0,0.777,0.088,0.97,0.263c0.193,0.174,0.29,0.403,0.29,0.685
			c0,0.276-0.096,0.501-0.29,0.676c-0.193,0.175-0.517,0.263-0.97,0.263h-2.17c-0.454,0-0.777-0.088-0.97-0.263
			c-0.193-0.175-0.29-0.402-0.29-0.685c0-0.239,0.104-0.476,0.312-0.709l-1.996-1.766L45.438,268.792z"/>
		<path fill="#1E1E1C" d="M63.023,268.709h-7.735c0.196,0.491,0.544,0.887,1.044,1.188c0.499,0.3,1.175,0.45,2.028,0.45
			c0.699,0,1.627-0.15,2.787-0.45c0.478-0.123,0.809-0.185,0.993-0.185c0.251,0,0.463,0.089,0.634,0.267
			c0.172,0.179,0.258,0.402,0.258,0.672c0,0.245-0.092,0.453-0.276,0.625c-0.246,0.227-0.843,0.443-1.793,0.648
			c-0.95,0.206-1.864,0.309-2.741,0.309c-1.508,0-2.715-0.427-3.619-1.278c-0.904-0.853-1.356-1.901-1.356-3.146
			c0-1.324,0.489-2.401,1.467-3.232c0.978-0.831,2.104-1.246,3.379-1.246c0.767,0,1.47,0.135,2.111,0.404
			c0.641,0.271,1.117,0.562,1.43,0.874c0.441,0.454,0.806,1.016,1.095,1.684c0.196,0.466,0.294,1.005,0.294,1.618V268.709z
			 M60.935,266.824c-0.288-0.54-0.665-0.943-1.131-1.209c-0.466-0.267-1.021-0.4-1.665-0.4c-0.638,0-1.189,0.134-1.656,0.4
			c-0.466,0.266-0.846,0.669-1.141,1.209H60.935z"/>
		<path fill="#1E1E1C" d="M67.686,263.577v0.635c0.343-0.294,0.722-0.515,1.135-0.662c0.414-0.146,0.863-0.221,1.348-0.221
			c1.116,0,1.999,0.347,2.648,1.04c0.516,0.551,0.773,1.274,0.773,2.17v3.504c0.398,0,0.693,0.088,0.883,0.263
			c0.19,0.174,0.285,0.403,0.285,0.685c0,0.276-0.097,0.501-0.29,0.676c-0.193,0.175-0.516,0.263-0.97,0.263h-1.702
			c-0.454,0-0.777-0.088-0.97-0.263s-0.29-0.402-0.29-0.685c0-0.276,0.095-0.502,0.285-0.676c0.19-0.175,0.484-0.263,0.883-0.263
			v-3.56c0-0.41-0.11-0.711-0.331-0.9c-0.288-0.245-0.72-0.368-1.296-0.368c-0.436,0-0.817,0.084-1.145,0.253
			c-0.328,0.168-0.744,0.525-1.246,1.071v3.504c0.484,0,0.797,0.046,0.938,0.139c0.3,0.184,0.451,0.453,0.451,0.809
			c0,0.276-0.097,0.501-0.29,0.676s-0.517,0.263-0.97,0.263h-2.144c-0.454,0-0.777-0.088-0.97-0.263
			c-0.193-0.175-0.29-0.402-0.29-0.685c0-0.344,0.147-0.61,0.441-0.8c0.147-0.093,0.463-0.139,0.947-0.139v-4.58
			c-0.398,0-0.693-0.089-0.883-0.267s-0.285-0.405-0.285-0.681s0.097-0.501,0.29-0.676c0.193-0.175,0.516-0.263,0.97-0.263H67.686z"
			/>
	</g>
	<g>
		<path fill="#1E1E1C" d="M3.666,284.269c-0.214,0.188-0.498,0.395-0.852,0.621s-0.758,0.341-1.211,0.341
			c-0.147,0-0.297-0.047-0.451-0.141c-0.154-0.093-0.301-0.217-0.44-0.37c-0.141-0.153-0.264-0.323-0.371-0.511
			c-0.107-0.188-0.188-0.374-0.241-0.562c-0.04-0.146-0.067-0.286-0.08-0.42S0,282.954,0,282.807c0-0.254,0.023-0.501,0.07-0.741
			s0.13-0.533,0.251-0.881c0.066-0.188,0.123-0.364,0.17-0.531s0.104-0.323,0.17-0.471c0.307-0.734,0.614-1.466,0.921-2.193
			c0.307-0.728,0.647-1.479,1.021-2.253c0.106-0.214,0.253-0.357,0.44-0.431s0.374-0.11,0.561-0.11c0.106,0,0.217,0.01,0.331,0.029
			c0.113,0.021,0.204,0.063,0.271,0.131c0.053,0.04,0.093,0.08,0.12,0.12c0.026,0.04,0.04,0.107,0.04,0.2
			c0,0.268-0.047,0.505-0.14,0.711c-0.093,0.208-0.204,0.404-0.331,0.591c-0.127,0.188-0.264,0.381-0.411,0.581
			s-0.281,0.421-0.401,0.661c-0.08,0.188-0.173,0.403-0.28,0.65c-0.107,0.248-0.217,0.505-0.331,0.771
			c-0.113,0.268-0.22,0.524-0.32,0.771s-0.184,0.464-0.25,0.651c-0.174,0.453-0.297,0.858-0.371,1.211
			c-0.074,0.354-0.11,0.604-0.11,0.751c0,0.094,0.016,0.225,0.05,0.391c0.033,0.168,0.137,0.251,0.311,0.251
			c0.107,0,0.207-0.01,0.3-0.03c0.093-0.02,0.193-0.053,0.301-0.1c0.106-0.047,0.227-0.114,0.36-0.2
			c0.133-0.087,0.3-0.204,0.501-0.352c0.24-0.173,0.417-0.29,0.531-0.351c0.113-0.06,0.25-0.09,0.411-0.09
			c0.08,0,0.167,0.011,0.26,0.03c0.093,0.02,0.173,0.058,0.24,0.11c0.067,0.054,0.104,0.104,0.11,0.15
			c0.006,0.047,0.01,0.09,0.01,0.13c0,0.12-0.033,0.22-0.1,0.301c-0.067,0.079-0.141,0.16-0.221,0.24L3.666,284.269z M6.209,271.108
			c0.106,0.107,0.173,0.218,0.2,0.331s0.04,0.224,0.04,0.331c0,0.066-0.007,0.13-0.02,0.189c-0.014,0.061-0.041,0.117-0.081,0.171
			c-0.187,0.227-0.391,0.447-0.611,0.66c-0.22,0.215-0.444,0.32-0.671,0.32c-0.2,0-0.371-0.043-0.51-0.129
			c-0.14-0.087-0.237-0.178-0.291-0.271c-0.054-0.107-0.09-0.222-0.11-0.342c-0.021-0.119-0.031-0.232-0.031-0.34
			c0-0.146,0.02-0.297,0.061-0.45c0.04-0.153,0.107-0.284,0.2-0.391c0.106-0.121,0.243-0.207,0.411-0.261
			c0.167-0.054,0.357-0.08,0.571-0.08c0.16,0,0.324,0.023,0.491,0.07S6.143,271.029,6.209,271.108z"/>
		<path fill="#1E1E1C" d="M5.147,279.622c0.146-0.348,0.291-0.671,0.431-0.972s0.284-0.594,0.431-0.882
			c0.147-0.286,0.307-0.58,0.481-0.881c0.173-0.301,0.374-0.617,0.601-0.952c0.08-0.12,0.13-0.203,0.15-0.25
			c0.02-0.047,0.077-0.109,0.17-0.19c0.146-0.133,0.38-0.2,0.701-0.2c0.44,0,0.708,0.101,0.801,0.301
			c0.027,0.054,0.05,0.11,0.07,0.171c0.02,0.06,0.03,0.123,0.03,0.189c0,0.107-0.026,0.233-0.08,0.381
			c-0.053,0.146-0.174,0.334-0.36,0.561c-0.067,0.08-0.23,0.273-0.491,0.581s-0.524,0.715-0.792,1.222
			c-0.147,0.268-0.337,0.648-0.571,1.142c-0.234,0.495-0.518,1.155-0.851,1.983c-0.04,0.094-0.083,0.214-0.13,0.36
			c-0.047,0.147-0.091,0.297-0.13,0.45c-0.041,0.154-0.074,0.288-0.1,0.401c-0.027,0.113-0.041,0.177-0.041,0.19
			c0,0.04,0.003,0.083,0.01,0.13s0.023,0.07,0.05,0.07c0.106,0,0.22-0.087,0.34-0.261c0.681-0.961,1.282-1.749,1.803-2.363
			s0.972-1.122,1.352-1.522s0.694-0.725,0.941-0.972c0.247-0.246,0.424-0.49,0.531-0.73c0.093-0.187,0.17-0.338,0.23-0.451
			c0.06-0.113,0.113-0.196,0.16-0.251c0.047-0.053,0.093-0.086,0.14-0.1s0.104-0.021,0.17-0.021c0.146,0,0.263,0.03,0.351,0.091
			c0.086,0.061,0.21,0.097,0.37,0.11c0.107,0.013,0.201,0.076,0.281,0.189c0.08,0.114,0.12,0.23,0.12,0.351
			c0,0.04-0.02,0.117-0.06,0.23c-0.04,0.114-0.087,0.211-0.14,0.291c-0.361,0.588-0.648,1.102-0.861,1.542
			c-0.214,0.44-0.394,0.915-0.541,1.422c-0.027,0.107-0.057,0.241-0.09,0.401c-0.034,0.16-0.06,0.327-0.08,0.5
			c-0.02,0.174-0.037,0.345-0.05,0.512c-0.014,0.167-0.02,0.297-0.02,0.391c0,0.187,0.02,0.351,0.06,0.49s0.073,0.264,0.1,0.37
			c0.027,0.188,0.133,0.341,0.321,0.461c0.187,0.12,0.313,0.207,0.38,0.261c0.08,0.066,0.15,0.134,0.21,0.2
			c0.06,0.066,0.09,0.153,0.09,0.261c0,0.066-0.04,0.163-0.12,0.29s-0.213,0.19-0.4,0.19c-0.081,0-0.244-0.02-0.491-0.06
			c-0.248-0.041-0.431-0.114-0.551-0.222c-0.147-0.133-0.281-0.236-0.401-0.31s-0.247-0.203-0.38-0.391
			c-0.228-0.308-0.34-0.722-0.34-1.242c0-0.588,0.03-0.991,0.09-1.212s0.09-0.343,0.09-0.37c0-0.054-0.02-0.08-0.061-0.08
			c-0.04,0-0.08,0.026-0.12,0.08c-0.414,0.548-0.765,1.005-1.052,1.372c-0.288,0.367-0.551,0.725-0.792,1.071
			c-0.107,0.147-0.197,0.264-0.27,0.351c-0.074,0.087-0.144,0.157-0.21,0.211c-0.067,0.053-0.13,0.1-0.19,0.14
			s-0.124,0.1-0.19,0.181c-0.08,0.094-0.2,0.152-0.361,0.18c-0.16,0.027-0.287,0.04-0.38,0.04c-0.067,0-0.164-0.033-0.291-0.1
			c-0.127-0.066-0.268-0.147-0.421-0.241c-0.154-0.093-0.297-0.192-0.431-0.3c-0.133-0.106-0.234-0.2-0.3-0.281
			c-0.04-0.053-0.073-0.137-0.1-0.25c-0.027-0.113-0.041-0.224-0.041-0.33c0-0.16,0.011-0.291,0.03-0.391
			c0.02-0.101,0.043-0.193,0.07-0.28c0.026-0.087,0.053-0.171,0.08-0.25c0.026-0.081,0.047-0.174,0.06-0.281
			c0.013-0.146,0.057-0.333,0.13-0.561c0.074-0.228,0.161-0.467,0.261-0.721s0.204-0.508,0.31-0.762
			C4.974,280.049,5.067,279.822,5.147,279.622z"/>
		<path fill="#1E1E1C" d="M24.577,285.471c-0.12,0.026-0.233,0.06-0.34,0.101c-0.107,0.04-0.228,0.06-0.36,0.06
			c-0.067,0-0.141-0.007-0.221-0.02c-0.08-0.014-0.2-0.055-0.361-0.121c-0.387-0.146-0.664-0.377-0.831-0.69s-0.25-0.718-0.25-1.212
			c0-0.641,0.127-1.389,0.38-2.243c0.133-0.44,0.26-0.821,0.38-1.143c0.121-0.32,0.241-0.627,0.361-0.921
			c0.053-0.12,0.08-0.2,0.08-0.24c0-0.027-0.014-0.04-0.04-0.04c-0.04,0-0.127,0.073-0.261,0.22
			c-0.347,0.388-0.691,0.815-1.031,1.282c-0.34,0.468-0.674,0.938-1.001,1.412c-0.327,0.475-0.651,0.935-0.972,1.383
			c-0.32,0.447-0.628,0.845-0.921,1.191c-0.067,0.067-0.107,0.11-0.12,0.13c-0.014,0.02-0.047,0.044-0.101,0.07
			c-0.107,0.066-0.224,0.127-0.351,0.181s-0.264,0.08-0.411,0.08c-0.053,0-0.2-0.054-0.44-0.16
			c-0.241-0.107-0.441-0.241-0.601-0.401c-0.054-0.053-0.08-0.126-0.08-0.22c0-0.107,0.02-0.181,0.06-0.221s0.08-0.146,0.12-0.32
			c0.187-0.788,0.421-1.552,0.701-2.294c0.28-0.741,0.587-1.472,0.921-2.192c0.333-0.722,0.678-1.433,1.031-2.134
			c0.354-0.701,0.691-1.398,1.012-2.093c0.08-0.174,0.14-0.301,0.181-0.381c0.04-0.08,0.086-0.167,0.14-0.261
			c0.454-0.827,0.902-1.632,1.342-2.413s0.908-1.666,1.402-2.654c0.067-0.12,0.144-0.197,0.23-0.23s0.184-0.051,0.291-0.051
			s0.19,0.008,0.25,0.021c0.06,0.014,0.117,0.021,0.17,0.021c0.093,0,0.19,0.029,0.29,0.09c0.1,0.06,0.191,0.13,0.271,0.211
			c0.066,0.066,0.113,0.133,0.14,0.2c0.027,0.066,0.041,0.167,0.041,0.3c0,0.268-0.09,0.501-0.271,0.701
			c-0.18,0.2-0.404,0.461-0.67,0.781c-0.094,0.107-0.161,0.197-0.201,0.271s-0.1,0.163-0.18,0.271
			c-0.454,0.627-0.891,1.339-1.312,2.134c-0.42,0.794-0.834,1.621-1.242,2.483c-0.407,0.86-0.805,1.732-1.191,2.614
			c-0.388,0.881-0.768,1.722-1.142,2.523c-0.08,0.174-0.13,0.28-0.15,0.32s-0.03,0.066-0.03,0.08c0,0.026,0.013,0.04,0.041,0.04
			c0.013,0,0.026-0.01,0.04-0.03c0.013-0.02,0.047-0.062,0.101-0.13c0.814-1.135,1.592-2.146,2.333-3.034
			c0.742-0.888,1.479-1.733,2.214-2.534c0.133-0.146,0.233-0.251,0.3-0.311c0.067-0.061,0.153-0.11,0.26-0.15
			c0.2-0.066,0.354-0.1,0.461-0.1c0.106,0,0.237,0.017,0.391,0.05c0.153,0.033,0.271,0.063,0.35,0.09
			c0.067,0.026,0.133,0.08,0.201,0.16c0.067,0.08,0.1,0.154,0.1,0.221c0,0.32-0.064,0.607-0.19,0.861
			c-0.127,0.254-0.265,0.501-0.411,0.741c-0.147,0.24-0.25,0.457-0.311,0.65c-0.06,0.194-0.13,0.384-0.21,0.571
			c-0.267,0.641-0.508,1.345-0.721,2.113c-0.214,0.769-0.321,1.492-0.321,2.173c0,0.48,0.047,0.801,0.14,0.962
			c0.094,0.16,0.213,0.28,0.361,0.36c0.067,0.027,0.147,0.047,0.241,0.06c0.093,0.014,0.18,0.034,0.26,0.061
			c0.093,0.027,0.14,0.08,0.14,0.16c0,0.04-0.01,0.08-0.03,0.12c-0.021,0.04-0.044,0.087-0.07,0.141
			c-0.027,0.066-0.08,0.123-0.16,0.17S24.644,285.443,24.577,285.471z"/>
		<path fill="#1E1E1C" d="M30.105,285.01c-0.187,0.106-0.32,0.167-0.4,0.181s-0.188,0.02-0.32,0.02c-0.12,0-0.237-0.006-0.351-0.02
			s-0.25-0.054-0.411-0.121c-0.107-0.04-0.228-0.087-0.361-0.14c-0.134-0.053-0.264-0.11-0.391-0.17
			c-0.127-0.061-0.237-0.11-0.33-0.15c-0.094-0.04-0.16-0.073-0.201-0.1c-0.2-0.107-0.391-0.281-0.571-0.521
			c-0.18-0.24-0.324-0.527-0.431-0.861c-0.067-0.2-0.124-0.461-0.17-0.781s-0.07-0.574-0.07-0.761c0-0.094,0.007-0.19,0.02-0.29
			c0.013-0.101,0.04-0.224,0.081-0.371c0.28-1.028,0.733-1.986,1.362-2.875c0.627-0.888,1.322-1.738,2.083-2.554
			c0.174-0.187,0.451-0.384,0.832-0.591c0.381-0.207,0.818-0.31,1.312-0.31c0.267,0,0.487,0.02,0.661,0.06
			c0.173,0.04,0.361,0.094,0.561,0.16c0.106,0.04,0.24,0.157,0.4,0.351c0.161,0.193,0.241,0.49,0.241,0.892
			c0,0.267-0.047,0.515-0.141,0.741c-0.093,0.228-0.2,0.461-0.32,0.7c-0.107,0.2-0.204,0.368-0.291,0.501
			c-0.087,0.134-0.204,0.28-0.35,0.44c-0.348,0.388-0.705,0.785-1.072,1.192c-0.368,0.407-0.745,0.798-1.132,1.172
			c-0.387,0.374-0.784,0.721-1.191,1.042c-0.407,0.32-0.825,0.601-1.252,0.841c-0.08,0.054-0.12,0.107-0.12,0.16
			c0,0.16,0.057,0.327,0.17,0.5c0.113,0.175,0.217,0.288,0.31,0.342c0.2,0.106,0.407,0.16,0.621,0.16
			c0.173,0,0.36-0.034,0.561-0.101c0.2-0.066,0.527-0.22,0.981-0.461c0.347-0.187,0.665-0.391,0.952-0.61
			c0.287-0.221,0.563-0.444,0.831-0.671c0.267-0.228,0.531-0.454,0.791-0.682c0.261-0.227,0.544-0.434,0.851-0.621
			c0.107-0.066,0.191-0.106,0.25-0.12c0.06-0.013,0.11-0.02,0.15-0.02c0.066,0,0.15,0.04,0.25,0.119
			c0.1,0.081,0.15,0.175,0.15,0.281c0,0.094-0.003,0.154-0.01,0.18c-0.007,0.027-0.01,0.054-0.01,0.081
			c0,0.039-0.003,0.086-0.01,0.14c-0.007,0.054-0.037,0.1-0.09,0.141c-0.241,0.2-0.464,0.418-0.671,0.65
			c-0.207,0.234-0.461,0.491-0.761,0.771c-0.301,0.28-0.685,0.595-1.152,0.941C31.48,284.216,30.866,284.596,30.105,285.01z
			 M31.608,276.978c0.093-0.146,0.176-0.29,0.25-0.43c0.073-0.141,0.11-0.304,0.11-0.491c0-0.081-0.003-0.141-0.01-0.181
			c-0.007-0.04-0.043-0.061-0.11-0.061c-0.08,0-0.154,0.021-0.221,0.061s-0.134,0.08-0.2,0.12c-0.107,0.067-0.177,0.104-0.21,0.11
			c-0.034,0.007-0.097,0.057-0.191,0.15c-0.32,0.294-0.645,0.614-0.971,0.961c-0.328,0.348-0.634,0.715-0.921,1.102
			c-0.288,0.388-0.541,0.795-0.761,1.222c-0.221,0.429-0.384,0.862-0.491,1.303c0,0.067,0.013,0.1,0.04,0.1
			c0.026,0,0.073-0.02,0.14-0.06c0.601-0.454,1.148-0.944,1.643-1.473c0.494-0.527,0.968-1.064,1.422-1.612
			c0.08-0.094,0.137-0.17,0.17-0.23c0.033-0.06,0.063-0.116,0.09-0.17c0.026-0.053,0.053-0.11,0.08-0.17
			C31.494,277.168,31.541,277.085,31.608,276.978z"/>
		<path fill="#1E1E1C" d="M39.78,272.19c-0.067,0.388-0.17,0.765-0.311,1.132c-0.14,0.367-0.3,0.728-0.48,1.082
			c-0.181,0.354-0.364,0.704-0.551,1.051c-0.188,0.348-0.361,0.688-0.521,1.022c-0.053,0.106-0.107,0.227-0.16,0.36
			c-0.054,0.133-0.104,0.264-0.15,0.391s-0.083,0.237-0.11,0.33c-0.027,0.094-0.04,0.146-0.04,0.16c0,0.04,0.026,0.061,0.08,0.061
			c0.027,0,0.09-0.007,0.19-0.021c0.101-0.014,0.204-0.033,0.311-0.061c0.44-0.093,0.915-0.232,1.422-0.42
			c0.507-0.187,0.928-0.381,1.262-0.581c0.106-0.066,0.18-0.101,0.221-0.101c0.08,0,0.177,0.018,0.29,0.051s0.22,0.073,0.32,0.12
			c0.101,0.047,0.187,0.104,0.261,0.17c0.073,0.067,0.11,0.127,0.11,0.181c0,0.134-0.053,0.271-0.16,0.41
			c-0.107,0.141-0.273,0.258-0.5,0.352c-0.268,0.106-0.441,0.187-0.521,0.239c-0.08,0.054-0.207,0.113-0.38,0.181
			c-0.241,0.094-0.521,0.187-0.842,0.28c-0.32,0.094-0.631,0.181-0.931,0.261c-0.301,0.08-0.571,0.149-0.812,0.21
			c-0.24,0.061-0.414,0.11-0.52,0.15c-0.174,0.054-0.301,0.153-0.381,0.301s-0.147,0.308-0.2,0.48
			c-0.054,0.174-0.101,0.334-0.141,0.48c-0.026,0.107-0.063,0.214-0.11,0.32c-0.047,0.107-0.083,0.214-0.11,0.32
			c-0.027,0.16-0.087,0.381-0.181,0.661c-0.094,0.28-0.19,0.578-0.291,0.892c-0.1,0.314-0.194,0.631-0.28,0.951
			c-0.087,0.32-0.144,0.608-0.17,0.862c-0.013,0.093-0.063,0.239-0.15,0.439c-0.087,0.201-0.204,0.334-0.351,0.401
			c-0.04,0.026-0.09,0.043-0.15,0.05s-0.11,0.01-0.15,0.01c-0.121,0-0.251-0.02-0.391-0.06c-0.141-0.04-0.251-0.094-0.331-0.16
			c-0.147-0.107-0.22-0.267-0.22-0.48c0-0.081,0.007-0.177,0.02-0.291c0.013-0.113,0.033-0.217,0.061-0.311
			c0.253-0.747,0.487-1.535,0.701-2.363c0.213-0.828,0.481-1.629,0.801-2.403c0.026-0.081,0.04-0.127,0.04-0.141
			c0-0.04-0.034-0.08-0.1-0.12c-0.187-0.094-0.337-0.193-0.451-0.301c-0.114-0.106-0.214-0.214-0.301-0.32s-0.17-0.217-0.25-0.331
			c-0.081-0.113-0.18-0.216-0.301-0.31c-0.053-0.04-0.083-0.083-0.09-0.13s-0.01-0.084-0.01-0.111c0-0.066,0.02-0.116,0.061-0.149
			c0.04-0.033,0.1-0.07,0.18-0.11c0.066-0.026,0.126-0.05,0.18-0.07c0.053-0.02,0.126-0.03,0.22-0.03
			c0.227,0,0.454,0.054,0.681,0.16c0.227,0.107,0.434,0.16,0.621,0.16c0.187,0,0.3-0.093,0.34-0.28
			c0.066-0.24,0.173-0.554,0.32-0.941c0.24-0.614,0.498-1.291,0.771-2.032c0.274-0.742,0.584-1.479,0.932-2.214
			c0.066-0.134,0.11-0.211,0.13-0.23c0.02-0.021,0.05-0.029,0.09-0.029c0.161,0,0.268-0.018,0.321-0.051s0.133-0.05,0.24-0.05
			c0.093,0,0.213,0.013,0.361,0.04c0.146,0.026,0.28,0.066,0.4,0.12c0.12,0.054,0.18,0.101,0.18,0.141c0,0.026,0,0.053,0,0.079
			C39.8,272.077,39.793,272.123,39.78,272.19z"/>
		<path fill="#1E1E1C" d="M57.026,272.15c0.093,0.188,0.157,0.367,0.19,0.541s0.057,0.354,0.07,0.541
			c0.014,0.146,0.023,0.284,0.03,0.41c0.007,0.127,0.01,0.258,0.01,0.391c0,0.508-0.033,0.979-0.1,1.412
			c-0.066,0.435-0.167,0.965-0.3,1.593c-0.307,1.401-0.734,2.768-1.282,4.096c-0.548,1.329-1.249,2.602-2.104,3.816
			c-0.12,0.173-0.257,0.326-0.41,0.461c-0.154,0.133-0.357,0.2-0.611,0.2c-0.053,0-0.117-0.021-0.19-0.061
			c-0.074-0.04-0.204-0.067-0.391-0.08c-0.147-0.014-0.264-0.04-0.351-0.08c-0.087-0.04-0.177-0.107-0.271-0.2
			c-0.067-0.067-0.201-0.127-0.4-0.181c-0.201-0.054-0.334-0.153-0.401-0.301c-0.187-0.4-0.308-0.817-0.36-1.251
			c-0.054-0.434-0.114-0.925-0.181-1.473c-0.027-0.174-0.05-0.276-0.07-0.311c-0.02-0.033-0.044-0.05-0.07-0.05
			c-0.054,0-0.113,0.053-0.181,0.16c-0.106,0.16-0.21,0.304-0.31,0.431s-0.23,0.264-0.39,0.411
			c-0.254,0.227-0.495,0.487-0.722,0.781c-0.227,0.293-0.45,0.566-0.671,0.82c-0.22,0.254-0.438,0.468-0.651,0.642
			c-0.214,0.173-0.434,0.26-0.661,0.26c-0.133,0-0.374-0.153-0.721-0.46c-0.053-0.054-0.117-0.091-0.19-0.11
			c-0.073-0.021-0.147-0.041-0.22-0.061c-0.074-0.02-0.138-0.043-0.19-0.07c-0.054-0.026-0.087-0.073-0.1-0.14
			c-0.027-0.08-0.041-0.153-0.041-0.221c0-0.08,0-0.233,0-0.461c0-0.333,0.023-0.637,0.07-0.911c0.047-0.273,0.09-0.544,0.13-0.812
			c0.013-0.12,0.023-0.213,0.03-0.28c0.007-0.066,0.013-0.133,0.021-0.2c0.006-0.066,0.016-0.144,0.03-0.23
			c0.013-0.086,0.04-0.21,0.08-0.37c0.307-1.402,0.674-2.805,1.102-4.207c0.427-1.401,0.828-2.79,1.202-4.166
			c0.027-0.106,0.07-0.19,0.13-0.25c0.06-0.061,0.224-0.09,0.491-0.09c0.107,0,0.21,0.013,0.311,0.04
			c0.101,0.026,0.204,0.054,0.311,0.079c0.027,0,0.066,0.027,0.12,0.081c0.053,0.054,0.11,0.109,0.17,0.17s0.11,0.117,0.15,0.17
			c0.04,0.054,0.06,0.087,0.06,0.101c0,0.027-0.007,0.06-0.021,0.1c-0.013,0.041-0.026,0.073-0.04,0.101
			c-0.615,1.469-1.132,2.988-1.553,4.558c-0.42,1.568-0.798,3.154-1.131,4.756c-0.041,0.188-0.067,0.335-0.08,0.441
			c-0.014,0.107-0.021,0.174-0.021,0.2c0,0.067,0.021,0.1,0.06,0.1c0.027,0,0.074-0.02,0.14-0.06c0.067-0.04,0.194-0.153,0.381-0.34
			c0.654-0.682,1.272-1.426,1.853-2.233c0.581-0.809,1.032-1.573,1.353-2.294c0.053-0.107,0.093-0.197,0.12-0.271
			c0.026-0.073,0.05-0.14,0.07-0.2s0.04-0.127,0.06-0.2c0.02-0.074,0.043-0.164,0.07-0.271c0.04-0.187,0.086-0.363,0.14-0.531
			c0.053-0.167,0.113-0.323,0.18-0.471c0.026-0.066,0.05-0.11,0.07-0.13c0.02-0.02,0.05-0.03,0.09-0.03
			c0.081,0,0.17,0.014,0.271,0.04s0.184,0.047,0.25,0.061c0.161,0.013,0.3,0.094,0.421,0.24c0.227,0.268,0.34,0.514,0.34,0.741
			c0,0.12-0.003,0.21-0.01,0.271c-0.006,0.06-0.023,0.123-0.05,0.189c-0.187,0.589-0.33,1.176-0.43,1.763
			c-0.1,0.589-0.15,1.202-0.15,1.843c0,0.815,0.087,1.656,0.26,2.524c0.027,0.12,0.073,0.18,0.141,0.18
			c0.04,0,0.083-0.026,0.13-0.079c0.047-0.054,0.104-0.121,0.17-0.2c0.814-1.096,1.479-2.331,1.993-3.706
			c0.514-1.375,0.932-2.758,1.252-4.146c0.054-0.213,0.087-0.388,0.101-0.521c0.013-0.133,0.02-0.253,0.02-0.359
			c0-0.121,0.003-0.221,0.01-0.301c0.006-0.08,0.01-0.16,0.01-0.24s0.003-0.163,0.01-0.251c0.007-0.087,0.01-0.203,0.01-0.35
			c0-0.16-0.02-0.291-0.06-0.391c-0.041-0.101-0.087-0.197-0.14-0.291c-0.054-0.094-0.1-0.19-0.141-0.29
			c-0.04-0.101-0.06-0.224-0.06-0.371c0-0.227,0.017-0.4,0.05-0.521c0.033-0.12,0.104-0.181,0.21-0.181
			c0.08,0,0.163,0.007,0.25,0.021c0.087,0.013,0.204,0.021,0.351,0.021c0.187,0,0.354,0.026,0.501,0.079
			C56.792,271.783,56.918,271.924,57.026,272.15z"/>
		<path fill="#1E1E1C" d="M61.192,284.269c-0.214,0.188-0.498,0.395-0.852,0.621s-0.758,0.341-1.212,0.341
			c-0.147,0-0.297-0.047-0.451-0.141c-0.153-0.093-0.3-0.217-0.44-0.37s-0.264-0.323-0.371-0.511
			c-0.107-0.188-0.188-0.374-0.241-0.562c-0.04-0.146-0.067-0.286-0.08-0.42s-0.02-0.273-0.02-0.421c0-0.254,0.023-0.501,0.07-0.741
			s0.13-0.533,0.25-0.881c0.066-0.188,0.123-0.364,0.17-0.531s0.104-0.323,0.17-0.471c0.307-0.734,0.614-1.466,0.921-2.193
			s0.648-1.479,1.021-2.253c0.107-0.214,0.254-0.357,0.441-0.431c0.187-0.073,0.374-0.11,0.561-0.11c0.106,0,0.217,0.01,0.33,0.029
			c0.113,0.021,0.204,0.063,0.271,0.131c0.053,0.04,0.093,0.08,0.12,0.12s0.041,0.107,0.041,0.2c0,0.268-0.047,0.505-0.141,0.711
			c-0.093,0.208-0.204,0.404-0.331,0.591c-0.126,0.188-0.264,0.381-0.411,0.581s-0.28,0.421-0.4,0.661
			c-0.08,0.188-0.174,0.403-0.28,0.65c-0.107,0.248-0.218,0.505-0.331,0.771c-0.114,0.268-0.22,0.524-0.321,0.771
			c-0.1,0.247-0.184,0.464-0.25,0.651c-0.174,0.453-0.297,0.858-0.371,1.211c-0.074,0.354-0.11,0.604-0.11,0.751
			c0,0.094,0.017,0.225,0.05,0.391c0.033,0.168,0.137,0.251,0.311,0.251c0.106,0,0.207-0.01,0.3-0.03
			c0.093-0.02,0.193-0.053,0.3-0.1s0.227-0.114,0.36-0.2c0.134-0.087,0.301-0.204,0.501-0.352c0.24-0.173,0.417-0.29,0.531-0.351
			c0.113-0.06,0.25-0.09,0.411-0.09c0.08,0,0.167,0.011,0.261,0.03c0.093,0.02,0.173,0.058,0.24,0.11
			c0.067,0.054,0.103,0.104,0.11,0.15s0.01,0.09,0.01,0.13c0,0.12-0.034,0.22-0.1,0.301c-0.067,0.079-0.14,0.16-0.221,0.24
			L61.192,284.269z M63.735,271.108c0.107,0.107,0.173,0.218,0.201,0.331c0.026,0.113,0.04,0.224,0.04,0.331
			c0,0.066-0.006,0.13-0.02,0.189c-0.014,0.061-0.041,0.117-0.08,0.171c-0.188,0.227-0.391,0.447-0.611,0.66
			c-0.22,0.215-0.444,0.32-0.671,0.32c-0.2,0-0.371-0.043-0.511-0.129c-0.14-0.087-0.237-0.178-0.291-0.271
			c-0.053-0.107-0.09-0.222-0.11-0.342c-0.02-0.119-0.03-0.232-0.03-0.34c0-0.146,0.02-0.297,0.06-0.45s0.107-0.284,0.201-0.391
			c0.106-0.121,0.243-0.207,0.41-0.261s0.357-0.08,0.571-0.08c0.16,0,0.324,0.023,0.491,0.07
			C63.552,270.966,63.668,271.029,63.735,271.108z"/>
		<path fill="#1E1E1C" d="M63.675,285.311c-0.04,0-0.157-0.03-0.351-0.09c-0.194-0.061-0.404-0.151-0.631-0.271
			c-0.228-0.12-0.441-0.277-0.642-0.471c-0.2-0.193-0.327-0.431-0.38-0.712c-0.041-0.213-0.061-0.44-0.061-0.681
			c0-0.468,0.087-0.938,0.26-1.412c0.174-0.474,0.374-0.998,0.602-1.572c0.213-0.562,0.48-1.175,0.801-1.843
			s0.664-1.352,1.032-2.054c0.367-0.7,0.751-1.404,1.152-2.113c0.4-0.707,0.794-1.388,1.182-2.043c0.08-0.146,0.153-0.316,0.22-0.51
			c0.067-0.194,0.144-0.382,0.23-0.562c0.086-0.18,0.19-0.331,0.311-0.45c0.12-0.12,0.28-0.181,0.481-0.181
			c0.146,0,0.267-0.007,0.36-0.021c0.094-0.013,0.193-0.02,0.301-0.02c0.107,0,0.207,0.02,0.3,0.061
			c0.093,0.04,0.167,0.094,0.221,0.16c0.107,0.16,0.16,0.347,0.16,0.561c0,0.24-0.067,0.475-0.201,0.701
			c-0.454,0.734-0.921,1.459-1.402,2.173c-0.481,0.715-0.945,1.43-1.392,2.144c-0.447,0.715-0.871,1.438-1.271,2.173
			c-0.401,0.734-0.748,1.489-1.042,2.264c-0.161,0.415-0.327,0.818-0.501,1.212c-0.173,0.395-0.26,0.812-0.26,1.252
			c0,0.12,0.006,0.24,0.02,0.36c0.013,0.12,0.04,0.248,0.08,0.381c0.053,0.16,0.187,0.24,0.401,0.24c0.133,0,0.247-0.026,0.34-0.08
			c0.214-0.133,0.437-0.327,0.671-0.581c0.233-0.253,0.467-0.504,0.701-0.751c0.233-0.247,0.471-0.461,0.711-0.641
			c0.241-0.181,0.474-0.271,0.701-0.271c0.08,0,0.213,0.036,0.401,0.11c0.187,0.073,0.28,0.19,0.28,0.351
			c0,0.134-0.04,0.233-0.12,0.3c-0.08,0.067-0.174,0.154-0.281,0.261c-0.254,0.28-0.5,0.574-0.741,0.882
			c-0.241,0.307-0.491,0.59-0.751,0.851c-0.26,0.261-0.544,0.475-0.852,0.642C64.409,285.228,64.062,285.311,63.675,285.311z"/>
		<path fill="#1E1E1C" d="M80,269.987c0,0.254-0.043,0.464-0.13,0.631s-0.184,0.324-0.291,0.471c-0.093,0.134-0.167,0.268-0.22,0.4
			c-0.053,0.134-0.133,0.287-0.24,0.461c-0.294,0.467-0.601,0.941-0.922,1.422c-0.32,0.481-0.634,0.962-0.941,1.442
			c-0.307,0.48-0.59,0.961-0.851,1.442c-0.26,0.48-0.47,0.948-0.631,1.401l-0.32,0.882c-0.308,0.841-0.558,1.569-0.751,2.184
			s-0.347,1.142-0.46,1.582c-0.114,0.441-0.194,0.805-0.24,1.092c-0.047,0.287-0.07,0.518-0.07,0.691c0,0.36,0.027,0.617,0.08,0.771
			c0.053,0.153,0.08,0.27,0.08,0.35c0,0.041-0.027,0.087-0.08,0.141c-0.067,0.066-0.12,0.127-0.16,0.18
			c-0.041,0.054-0.08,0.097-0.12,0.131c-0.04,0.033-0.093,0.06-0.161,0.08c-0.067,0.02-0.16,0.03-0.28,0.03
			c-0.094,0-0.234-0.047-0.421-0.141c-0.187-0.094-0.288-0.174-0.3-0.24c-0.08-0.454-0.121-0.888-0.121-1.302
			c0-0.602,0.061-1.148,0.18-1.643c0.121-0.494,0.234-0.935,0.341-1.322c0.04-0.134,0.093-0.283,0.16-0.45s0.137-0.32,0.21-0.461
			s0.133-0.261,0.18-0.36c0.047-0.101,0.07-0.157,0.07-0.171c0-0.026-0.014-0.04-0.041-0.04s-0.093,0.061-0.2,0.181
			c-0.401,0.468-0.802,0.935-1.202,1.402s-0.811,0.918-1.231,1.352c-0.421,0.434-0.852,0.845-1.292,1.231
			c-0.441,0.389-0.908,0.729-1.402,1.022c-0.107,0.066-0.213,0.106-0.32,0.12c-0.107,0.013-0.2,0.02-0.28,0.02
			c-0.107,0-0.234-0.026-0.38-0.08c-0.147-0.053-0.297-0.113-0.451-0.181c-0.154-0.066-0.288-0.133-0.401-0.199
			c-0.113-0.067-0.177-0.121-0.19-0.16c-0.227-0.388-0.34-0.769-0.34-1.143c0-0.533,0.234-1.248,0.701-2.143
			c0.48-0.922,1.094-1.763,1.842-2.524c0.748-0.761,1.542-1.422,2.384-1.983c0.146-0.106,0.357-0.196,0.631-0.27
			c0.273-0.074,0.544-0.11,0.811-0.11c0.214,0,0.4,0.033,0.561,0.1c0.134,0.067,0.294,0.128,0.481,0.181
			c0.187,0.053,0.34,0.12,0.46,0.2c0.093,0,0.147-0.007,0.16-0.02c0.521-0.562,0.975-1.139,1.362-1.733
			c0.387-0.594,0.754-1.191,1.102-1.793c0.347-0.601,0.694-1.201,1.042-1.802c0.347-0.602,0.734-1.183,1.162-1.743
			c0.067-0.08,0.127-0.14,0.18-0.181c0.054-0.04,0.147-0.06,0.281-0.06c0.066,0,0.153,0.02,0.26,0.06
			c0.107,0.041,0.213,0.091,0.32,0.151c0.107,0.06,0.201,0.129,0.281,0.21C79.96,269.826,80,269.907,80,269.987z M73.069,277.559
			c0-0.134-0.154-0.2-0.461-0.2c-0.2,0-0.367,0.034-0.5,0.101c-0.48,0.239-0.958,0.551-1.432,0.931
			c-0.474,0.381-0.915,0.802-1.322,1.262c-0.408,0.461-0.778,0.959-1.112,1.492c-0.333,0.534-0.601,1.076-0.801,1.623
			c-0.013,0.027-0.027,0.07-0.04,0.13c-0.014,0.061-0.021,0.104-0.021,0.13c0,0.107,0.01,0.211,0.03,0.312
			c0.02,0.1,0.057,0.149,0.11,0.149c0.066,0,0.133-0.026,0.2-0.079c0.067-0.054,0.13-0.091,0.19-0.11
			c0.06-0.021,0.137-0.063,0.23-0.131c0.868-0.681,1.673-1.445,2.414-2.294c0.741-0.848,1.438-1.712,2.093-2.594
			c0.12-0.16,0.22-0.276,0.3-0.351C73.029,277.856,73.069,277.732,73.069,277.559z"/>
	</g>
</g>
</svg>
