<?xml version="1.0" standalone="no"?>
<!DOCTYPE svg PUBLIC "-//W3C//DTD SVG 1.1//EN" "http://www.w3.org/Graphics/SVG/1.1/DTD/svg11.dtd" >
<svg xmlns="http://www.w3.org/2000/svg">
<metadata>
Created by FontPrep 20130207 at Fri Jun  6 12:31:13 2014
 By Wout Mager
Copyright   1996, H.A. Simon,  published by Fontshop International for the FontFont library.
</metadata>
<defs>
<font id="1ab3d40215da71033c2131dc969287d9" horiz-adv-x='1024' >
  <font-face 
    font-family="MarketWeb"
    font-weight="400"
    font-stretch="normal"
    units-per-em="2048"
    panose-1="2 0 5 6 4 0 0 2 0 4"
    ascent="1638"
    descent="-410"
    x-height="918"
    cap-height="1307"
    bbox="-348 -897 2157 1880"
    underline-thickness="131"
    underline-position="-262"
    unicode-range="U+0020-FB02"
  />
<missing-glyph horiz-adv-x="1024" 
 />
    <glyph glyph-name="fi" unicode="fi" horiz-adv-x="999" 
d="M1081 246q70 0 70 -43q0 -23 -33 -56l-84 -77q-103 -97 -211 -97q-44 0 -104 65.5t-60 175.5q-1 73 23 143q61 180 95 254q34 73 34 81t-5 8t-30 -10q-24 -10 -46.5 -18t-52 -18.5t-111.5 -35.5t-100 -44q-19 -19 -30 -44q-35 -102 -69.5 -201.5t-84 -262.5t-67.5 -369
q-2 -18 -18.5 -34.5t-36.5 -23.5t-40 -15.5t-33 -8.5t-44 25q-14 14 -14 76t19.5 115.5t30.5 89.5t20 80t23.5 91t40.5 131t64.5 196t38.5 131q0 18 -11 38t-43 44.5t-44 61.5t-12 51t9 26.5t25 12.5t49 -14t65 -14t44 28q145 351 213 482t115 207q12 20 47 32.5t67 12.5
t54 -29t22 -46t-9 -31.5t-19.5 -30t-20.5 -30t-12 -30.5t-15 -44t-45 -69t-89.5 -116t-73.5 -132q-16 -56 -33 -89t-24 -51.5t-13 -35t-6 -26.5t18 -10q63 0 175 45t157 69.5t66 67.5t44 55t70 12t58.5 -17t11.5 -45t-14.5 -59.5t-34 -60.5t-42 -59.5t-38.5 -63.5
q-24 -50 -98 -229t-74 -256q0 -76 37 -76q45 0 81.5 23.5t70.5 48.5q58 43 87 43zM1208 1442q111 0 111 -94q1 -24 -19 -48q-73 -90 -122 -90q-31 0 -64 20.5t-33 81.5q0 130 127 130z" />
    <glyph glyph-name="fl" unicode="fl" horiz-adv-x="1024" 
d="M1405 1417q0 -37 -21 -71q-70 -113 -248 -378t-274 -517q-25 -63 -51.5 -124t-26.5 -103q0 -107 18.5 -116.5t36.5 -9.5t44 18t62 56.5t97 101t113 62.5q12 0 41 -11.5t29 -33.5t-12.5 -32.5t-40.5 -40.5t-64.5 -77t-101 -111.5t-166.5 -64.5q-29 0 -111 40t-96 116
q-6 33 -6 87t26.5 127t57.5 152t53 129t26.5 58t4.5 13t-7 5t-32 -11q-29 -13 -149 -51q-119 -38 -140 -55q-22 -16 -29 -34q-35 -102 -70.5 -203.5t-85 -268.5t-67.5 -372q-2 -18 -18.5 -35.5t-35.5 -22.5t-40 -14.5t-34 -9.5t-44 25q-14 14 -14 76t19.5 115.5t30.5 89.5
t20 80t23.5 91t40.5 131t64.5 196t38.5 131q0 18 -11 38t-43 44.5t-44 61.5t-12 51t9 26.5t25 12.5t49 -14t65 -14t44 28q145 351 213 482t115 207q24 40 110 40q34 0 57 -25.5t23 -55.5q0 -72 -89 -181t-137 -192.5t-58 -113.5t-30 -68.5t-27 -57t-13 -35t-6 -26.5t18 -10
q66 0 159 38t130 61t94.5 94t220.5 353q12 20 24.5 53t39 89.5t76.5 56.5l68 2q69 2 69 -78z" />
    <glyph glyph-name=".notdef" horiz-adv-x="1024" 
 />
    <glyph glyph-name=".null" horiz-adv-x="0" 
 />
    <glyph glyph-name="nonmarkingreturn" horiz-adv-x="1024" 
 />
    <glyph glyph-name="space" unicode=" " horiz-adv-x="503" 
 />
    <glyph glyph-name="exclam" unicode="!" horiz-adv-x="655" 
d="M758 1231q0 -57 -24.5 -103t-45.5 -110t-74.5 -262t-126.5 -361q-10 -25 -37 -24t-31 22q-5 22 -14.5 34.5t-27 27.5t-17.5 31.5t8 39.5t11.5 39.5t15.5 66.5q19 79 65.5 245.5t57.5 239.5q20 122 38 167t58 45q12 0 21.5 -7t26.5 -11t23.5 -14.5t24.5 -15.5t33 -20.5
t15 -29.5zM281 -23q-22 0 -43 46t-21 76q1 30 13 52q12 21 16 40.5t28 19.5q38 0 70.5 -20t64.5 -23q31 -3 31 -31q0 -67 -27.5 -112t-52.5 -45z" />
    <glyph glyph-name="quotedbl" unicode="&#x22;" horiz-adv-x="716" 
d="M328 840q0 16 6 24t10 27l72 289q18 81 24 136q6 54 17 64.5t33 10.5t34 -12.5t44 -17.5q50 -8 50 -58q0 -23 -17 -79.5t-34 -127.5l-65 -281q-4 -16 -25.5 -28.5t-34.5 -12.5l-67 14q-10 0 -28.5 18t-18.5 34zM928 1286q0 -66 -54 -209l-73 -289q-4 -14 -20.5 -24
t-37.5 -10q-72 0 -98 53q-4 8 -4 13t4 20.5t8 35t9.5 39t7.5 29.5l49 197q39 161 39 197t51 36t72 -24q20 -24 33.5 -34t13.5 -30z" />
    <glyph glyph-name="numbersign" unicode="#" horiz-adv-x="1331" 
d="M360 350l-194 -12q-31 0 -31 31v3l8 36l-3 18q-2 18 12 36q14 19 23 23t26 7h21l174 2q47 0 56 11t19 32l53 127q4 12 7.5 19t3.5 13q0 12 -19 13l-174 -7q-55 0 -69.5 6.5t-14.5 21.5t10.5 38.5t13.5 45.5t21.5 33t34.5 11l219 -6q29 0 39 9t20 36l111 281
q36 101 58 123q23 22 47 22t37 -6t33 -6t32 -19.5t12 -43.5t-28 -59t-44 -69t-22 -49l-64 -149q-20 -46 -20 -56t18 -10l148 6q23 0 31 7.5t18 35.5l109 273q16 43 34.5 70.5t22.5 56.5q2 18 51 18t74 -23q39 -26 39 -48t-33 -71q-33 -48 -44 -72t-25.5 -52.5t-37.5 -78.5
t-29 -71q-7 -21 -7 -29t18 -10l172 9q75 1 79 -9t8.5 -26.5t4.5 -26.5t-4 -16t-9 -10.5t-11.5 -8.5t-12.5 -22t-17 -24.5t-15 -6.5h-68l-184 -4q-12 0 -23.5 -6t-43.5 -94q-33 -87 -33 -97t18 -10h168q44 0 65 -6t21 -8q6 -23 14 -24.5t8 -17.5t-7 -27t-9 -29t-13.5 -27.5
t-23.5 -9.5l-172 6l-100 -2q-16 0 -24.5 -6.5t-26.5 -54.5t-46 -109.5t-61 -137.5t-50.5 -110.5t-51 -34.5t-49.5 12t-28 19.5t-12 25.5t14 56q14 37 25 52t15 30l78 198q10 25 10 35t-19 10l-149 -8q-14 0 -22 -4t-28 -50t-46.5 -110.5t-58.5 -132.5t-47 -100.5t-39 -32.5
t-30 5t-28 5q-41 0 -41 41t28.5 99.5t57.5 128.5l43 108q10 25 10 35q1 10 -31 10zM629 509q0 -11 18 -11l150 10q18 0 25 7t18 32l49 123q10 20 10 32t-18 13l-150 -6q-20 0 -26.5 -5.5t-16.5 -29.5l-49 -129q-10 -25 -10 -36z" />
    <glyph glyph-name="dollar" unicode="$" horiz-adv-x="946" 
d="M834 1135q-10 0 -36 -85t-41.5 -127t-37 -105t-21.5 -78t68 -161t93.5 -224t25.5 -161t-35 -130.5t-90 -79.5q-42 -21 -124 -21t-117 9.5t-43 9.5t-11 -15l-6 -86q0 -49 -34 -59t-42 -10l-76 10q-31 0 -31 38t21.5 99t21.5 71q1 12 -31 28q-71 37 -128 110
q-16 20 -67.5 63t-51.5 166q0 12 15.5 37t36.5 28t42 3t31 -5t30 -10t48 -22.5t28 -40.5l-8 -65q0 -39 44 -85.5t65 -48.5q5 0 19 54t51 162t57 175t20 83t-36 98t-70.5 166t-34.5 143q0 97 28.5 143t87.5 95q58 49 146 49q39 0 62.5 -6.5t31.5 -6.5q18 0 25 23
q31 86 33 102t14 22.5t27.5 10.5t33 5t29.5 1t40 -8t28 -28.5t-10.5 -39t-10.5 -33.5q0 -24 -27.5 -61.5t-27.5 -47.5q0 -11 14 -19q88 -51 131 -105.5t51 -66.5q23 -35 -12 -68q-14 -14 -29.5 -21.5t-22.5 -14.5t-15 -7l-37 10q-29 0 -42.5 19.5t-27.5 34t-18 19.5t-5.5 10
t-13 30t-28.5 25zM629 1227q-86 0 -86 -131q-1 -40 25 -108q26 -67 36 -66q4 0 16 44t32 98t33 91t13 46t-20.5 17.5t-48.5 8.5zM705 169q0 130 -68 288q-6 16 -12.5 16t-7.5 -4t-13 -38q-32 -90 -55 -169.5t-32 -101.5t-9 -35q0 -35 98 -35t99 79z" />
    <glyph glyph-name="percent" unicode="%" horiz-adv-x="1597" 
d="M905 1145v-17q0 -207 -133 -368q-35 -43 -79.5 -75t-118.5 -32q-120 0 -207 121q-56 73 -56 134t19.5 119.5t49.5 116.5q107 212 277 212q61 0 85 -21.5t105 -44.5q81 -22 158 -22q203 0 250 61q19 25 39 25q64 0 84.5 -24.5t20.5 -60.5t-8.5 -50.5t-38.5 -38.5t-92 -119
l-574 -907q-98 -151 -118 -180q-21 -29 -63 -29t-62 16q-19 16 -23 26.5t-4 45.5q0 50 15 56q27 11 44 40q21 34 40.5 45t79.5 108q59 97 121 198.5t146 238.5t173 275t89 146.5t-6 8.5l-18 -3l-99 -7l-90 10q-6 0 -6 -4zM1427 600q91 -47 91 -193t-117 -329
q-71 -105 -206 -105q-136 0 -196 66q-75 84 -75 157q0 131 82 275q66 109 115.5 147.5t117.5 38.5q69 0 111.5 -19.5t76.5 -37.5zM561 762q23 0 38 12t45 62q106 177 106 258t-20 89q-29 11 -31 34.5t-34 23.5q-31 0 -55 -31q-137 -187 -137 -318q0 -130 88 -130zM1087 174
q1 -106 73 -106q55 0 81 55q121 240 121 306t-27 77q-18 8 -23.5 26.5t-27.5 18.5t-33.5 -5.5t-52.5 -67.5t-76 -146t-35 -158z" />
    <glyph glyph-name="ampersand" unicode="&#x26;" horiz-adv-x="1081" 
d="M479 907q0 220 92.5 299.5t184.5 79.5t112 -26t40 -42q56 -45 55 -98q0 -54 -35 -157q-14 -41 -70.5 -103.5t-148.5 -154.5q-19 -19 -19 -29t16 -64t39 -123t37 -114t17.5 -47t8.5 -2q4 0 24 16t43 39t70 53q47 29 66 29t24 -2t11.5 -23t6.5 -63q0 -43 -12.5 -65
t-34.5 -34t-29.5 -18t-17 -13t-25.5 -19.5t-40 -26.5t-29 -19.5t-5 -16.5t12 -45t29 -78q19 -44 19 -58t-14.5 -14.5t-29 6t-25.5 6.5t-13 -4.5t-23 -4.5t-42 15.5t-24 28.5t-10.5 24.5t-14.5 32.5t-15 20q-10 0 -63 -27t-80 -33q-301 -78 -342.5 -5t-57.5 91q-39 45 -39 97
q0 106 103.5 225.5t181.5 187t86 78.5q8 10 8 25q-27 126 -27 176zM299 195q0 -50 74 -50q25 0 94.5 16.5t126.5 42.5t61 29t4 9t-3 14t-7 25l-80 245q-5 19 -14 18.5t-59 -50.5t-79.5 -89t-44.5 -59q-36 -46 -54.5 -79.5t-18.5 -71.5zM627 927q0 -87 16 -86t66.5 62.5
t66.5 92.5t21.5 50t15.5 43t10 41q0 41 -36 41t-62.5 -19t-42.5 -46t-35.5 -59.5t-19.5 -119.5z" />
    <glyph glyph-name="quotesingle" unicode="'" horiz-adv-x="475" 
d="M475 770l-67 16q-16 0 -34 21.5t-18 40.5t7.5 27t11.5 30l59 244q25 106 30 163t13 69t38 12t44 -15.5t43 -21.5q45 -9 45 -66q0 -33 -22.5 -94t-38.5 -145l-49 -234q-4 -16 -27 -31.5t-35 -15.5z" />
    <glyph glyph-name="parenleft" unicode="(" horiz-adv-x="675" 
d="M438 -104q0 -93 -71 -93q-10 0 -26.5 11.5t-29.5 13.5q-42 4 -65 101t-23 255t49 359q121 471 451 878q15 18 34 27.5t41 31.5t48 21q42 0 60 -32.5t18 -47.5q0 -44 -30 -145q-9 -31 -45 -31t-49.5 -6t-47.5 -50q-72 -92 -147.5 -230t-125.5 -259q-51 -120 -80.5 -264.5
t-29.5 -271.5v-27q0 -104 16 -132t34.5 -54.5t18.5 -54.5z" />
    <glyph glyph-name="parenright" unicode=")" horiz-adv-x="675" 
d="M525 1470.5q7 6.5 20 18.5t51 12q39 0 83 -52t44 -343q0 -372 -106.5 -636.5t-233.5 -411t-231 -226.5q-27 -22 -56 -22t-49 14t-20 34t-14.5 36t-14.5 34t24 28.5t62 48.5t54 38t27 6t38 33q72 72 108 124t111 193q133 252 133 615q0 269 -19.5 299t-34 51t-14.5 56
q-1 36 15 40t23 10.5z" />
    <glyph glyph-name="asterisk" unicode="*" horiz-adv-x="847" 
d="M299 1016l8 46q0 11 5 14.5t13 15.5t25 12q18 0 19 -2t19 -5t63 -5t70 -6t35 -3q9 -1 9 5t-7 26t-16.5 46t-29.5 66q-44 85 -5.5 103.5t49.5 29.5t16.5 13t21.5 2t23.5 -16.5t16.5 -39.5t17 -59t9 -39l12 -36q9 -35 15.5 -34.5t17.5 18.5q18 29 49 65.5t48 60.5
q35 54 64 54h41q28 0 38 -6q11 -6 24.5 -10.5t13.5 -21.5q-1 -17 -23 -45t-34 -37t-28 -27t-34 -41t-38 -47t-21 -29q0 -5 1 -5h12q6 0 20 4q20 6 79.5 15.5t77.5 9.5q64 0 64 -27q0 -20 3 -20q3 1 3 -15t-6 -25t-10 -19q-12 -30 -35 -29l-56 -2q-47 0 -94.5 -9.5
t-69.5 -11.5t-22 -6q0 -8 9 -20q14 -18 42.5 -71.5t44.5 -65.5t16 -36t-17 -37.5t-29 -28.5t-30 -15t-30 13q-46 56 -80 121t-36.5 69t-6.5 4t-7 -5.5t-21.5 -36t-30.5 -48t-24 -43.5q-29 -68 -96 -68q-29 0 -53 14.5t-24 28.5t5.5 19t48.5 71t66 99q24 34 24 41t-102.5 7
t-120.5 12q-17 12 -19 20.5t-2 27.5z" />
    <glyph glyph-name="plus" unicode="+" horiz-adv-x="1208" 
d="M801 967q65 0 65 -33q0 -4 -3 -12.5t-5 -14.5l-22 -71q-23 -71 -36 -114.5t-28 -90.5q0 -8 10 -7t22 1h21l232 22q47 0 76 -29q8 -8 8 -28t-9.5 -39t-17.5 -39t-20 -20l-31 4q-35 0 -66 -4q-74 -10 -149 -16t-103 -9q-28 -4 -32 -18q-41 -117 -58 -225
q-16 -108 -26.5 -124t-55.5 -16l-36 -12q-35 0 -46.5 11t-11.5 17q0 73 19 134t39 139l14 63q0 12 -10 13h-78q-64 0 -124.5 8t-72.5 13t-22.5 36t-10.5 80q-1 12 17 26t32 14t19.5 0.5t16.5 -3.5q36 -13 140 -13h99q45 0 50 16t14.5 45t18.5 61t17.5 58.5t21.5 83.5t36 66
q37 10 54 18.5t32 8.5z" />
    <glyph glyph-name="comma" unicode="," horiz-adv-x="532" 
d="M76 -324l-66 15q-16 0 -27.5 18.5t-11.5 31.5t15 38l139 239q27 45 35 62l67 133q14 27 26.5 35t46.5 8t62 -41q18 -29 31 -39t13 -28t-7 -25l-266 -406q-10 -16 -27.5 -28.5t-29.5 -12.5z" />
    <glyph glyph-name="hyphen" unicode="-" horiz-adv-x="933" 
d="M895 608q1 -80 -19 -100t-53 -22.5t-55 -8.5q-38 -10 -114 -10h-44q-119 0 -207 8t-110 8t-36.5 48.5t-14.5 62.5t10 32t70 19l344 -8l153 8q76 0 76 -37z" />
    <glyph glyph-name="hyphen" unicode="&#xad;" horiz-adv-x="933" 
d="M895 608q1 -80 -19 -100t-53 -22.5t-55 -8.5q-38 -10 -114 -10h-44q-119 0 -207 8t-110 8t-36.5 48.5t-14.5 62.5t10 32t70 19l344 -8l153 8q76 0 76 -37z" />
    <glyph glyph-name="period" unicode="." horiz-adv-x="581" 
d="M446 151q0 -23 -16 -74t-43 -71q-21 -18 -56 -18q-75 0 -122 71q-16 22 -16 47q-1 24 19 44t23 52t20 50t60 18q44 0 87.5 -30t43.5 -89z" />
    <glyph glyph-name="slash" unicode="/" horiz-adv-x="819" 
d="M137 -160q-43 0 -77 22q-33 22 -33 50q0 29 23 70q23 42 46 73t37 54l647 1120q44 85 127 168q35 26 55 26q30 0 69.5 -30t39.5 -62t-31 -63t-48 -42.5t-31 -31.5q-183 -270 -450.5 -751t-315.5 -542t-58 -61z" />
    <glyph glyph-name="zero" unicode="0" horiz-adv-x="901" 
d="M866.5 1153q59.5 -29 73.5 -57q49 -93 49 -213q0 -121 -28.5 -219.5t-50.5 -152.5t-43.5 -117t-145.5 -257q-61 -96 -145 -149.5t-143 -53.5t-121 38t-100 72t-58 77q-4 6 -17.5 56.5t-13.5 98.5q0 86 33 218.5t86 244.5q82 175 325 459q13 16 56 16q42 0 54.5 -5
t38.5 -21t39 -16t14.5 5t19.5 5t77.5 -29zM789 1032q-36 47 -68 47q-31 0 -51 -22q-231 -264 -338 -551q-18 -47 -21 -68.5t-19 -87.5t-16 -92t8 -74.5t14 -57.5q7 -9 21.5 -31.5t36.5 -22.5q114 0 260 243q10 18 28 43t36 70t46 106.5t63.5 164.5t35.5 194q0 92 -36 139z
" />
    <glyph glyph-name="one" unicode="1" horiz-adv-x="901" 
d="M711 66q0 -107 -52 -107l-53 -6q-59 0 -92 29q-8 8 -8 39t9 71t21 62t36 114t65 244t63 241t21 101q1 12 -5 12t-20 -14q-311 -381 -394.5 -456.5t-93.5 -90.5q-9 -14 -43 -14t-35 1l-13 13l-25 15q-26 16 -36.5 38.5t-10.5 28.5t46 49q71 66 113.5 94t94.5 82
q369 408 459.5 539.5t98.5 145.5q7 15 12 19.5t35 4.5t68 -13.5t54 -47.5q4 -8 4 -20t-6 -26q-98 -248 -161.5 -511t-99.5 -407t-44 -175t-8 -55z" />
    <glyph glyph-name="two" unicode="2" horiz-adv-x="901" 
d="M451 100q94 0 143 9.5t83 43.5t43 66.5t32 63.5t90 30q22 0 61 -37q10 -10 10 -27q0 -30 -24 -114t-43 -108q-74 -94 -381 -75t-345 50q-75 61 -75 127q0 49 276 313q282 270 390 439t108 274q0 20 -14 25.5t-44 5.5q-63 0 -151 -71.5t-88 -98.5q0 -6 -23.5 -27.5
t-37.5 -53.5t-58 -32l-47 -8q-11 0 -38 25t-27 55t1 41.5t6 22t8 13.5l46 63q42 56 146 117t150 71t132 10q49 0 126 -63.5t77 -108.5q0 -258 -175 -443.5t-351 -355.5t-176 -206t170 -36z" />
    <glyph glyph-name="three" unicode="3" horiz-adv-x="901" 
d="M347.5 113q52.5 -41 90.5 -41t54 10q120 77 188 235q55 138 55 178t-24 74q-24 33 -61 33q-38 0 -57 -9t-31 -9t-47 -20q-36 -20 -78 -43t-85 -23t-56 13t-22.5 38t-9.5 35t33 32.5t61.5 39t38 27.5t15.5 15q142 93 227 215.5t106 180.5t21 65q0 6 -17 6t-42 -13
q-207 -107 -207 -159q0 -29 -19.5 -37t-34.5 -22t-79 -14q-18 0 -38 39t-20 45q0 68 56.5 107.5t68.5 51.5q12 11 38 17t44 19t52 31q115 62 184 62t93 -17t44 -24q51 -15 59 -47.5t8 -48.5t-14 -48q-14 -33 -17 -44.5t-37 -71.5t-97.5 -139.5t-108.5 -122.5q47 0 131 -36
t84 -189t-127.5 -364.5t-316.5 -211.5q-131 0 -254 123t-121 130t-5 21.5t-7 26.5t8 26.5t41 14.5l57 -2l23 4q18 0 35 -18t41 -37t24 -41t52.5 -63z" />
    <glyph glyph-name="four" unicode="4" horiz-adv-x="901" 
d="M796 1307q28 -1 45 -7q66 -25 66 -51q0 -63 -16.5 -96t-16.5 -63q0 -43 -72.5 -278t-72.5 -296v-10q0 -6 14 -6q16 0 64.5 10t130.5 10q48 0 74 -64q10 -26 10 -32q0 -37 -52 -37q-103 0 -261 -37q-37 -82 -45.5 -177t-8.5 -109t-3 -22.5t-7.5 -32t-21.5 -23.5
q-41 0 -69 18.5t-51 31.5t-24 40t12 96q13 70 20 99.5t7 33.5q0 16 -16 17q-88 4 -165 5t-165 35q-9 5 -33 27q-23 23 -48 64t-25 61l4 31q0 11 40 56t209.5 244t376.5 374q39 31 55 60q17 28 45 28zM252 503q0 -48 174 -48q39 0 81 6t46 10t12 52q31 187 115 430
q18 53 18 58t-5.5 5t-33.5 -29q-96 -98 -251.5 -283.5t-155.5 -200.5z" />
    <glyph glyph-name="five" unicode="5" horiz-adv-x="901" 
d="M1067 1094l-117 12h-90q-89 0 -330 -55q-14 -4 -22 -33t-25 -84t-27 -90t-10 -41t8 -6t52.5 22.5t128.5 22.5q153 0 225 -105q43 -62 43 -161t-34.5 -184t-77.5 -164q-80 -148 -174 -221t-159 -73q-109 0 -197.5 52t-174.5 143q-18 20 -28.5 31.5t-16.5 21t-6 22.5t14 21
t35.5 32t43.5 24t44.5 -8.5t34.5 -16.5q24 -16 47.5 -56t40.5 -61q73 -76 123 -76q30 0 83 46q95 84 167 270q10 25 13 44t23 79t21 98q0 108 -28.5 113.5t-58.5 5.5t-100.5 -36t-156.5 -122q-22 -22 -52 -22t-65 18q-34 18 -42.5 24.5t-8.5 13.5q-1 7 25 90t68 224.5
t79 245.5q10 35 59.5 49.5t62.5 14.5t22.5 -7.5t15.5 -7.5t27.5 3t53 7.5t69.5 9.5t72 10t64.5 8t79 8t72.5 5q25 0 83 -29t58 -77q0 -23 -19.5 -39t-37.5 -16z" />
    <glyph glyph-name="six" unicode="6" horiz-adv-x="901" 
d="M391 533q1 -16 23 -1t41.5 27t38 22.5t32 18.5t49.5 18t78.5 29t103.5 19t88 -32q26 -32 53.5 -65t27.5 -45t-4 -28q-92 -308 -396 -514q-53 -35 -118 -35q-66 0 -94.5 8t-48 18.5t-33 20.5t-26.5 19q-53 36 -84.5 69.5t-31.5 96.5t19 112q115 348 239.5 527t208.5 249
q23 18 103 102t171 84q61 0 94 -31.5t33 -57.5q0 -27 -10 -37.5t-33 -10.5l-61 6q-10 0 -61 -40q-122 -96 -231 -241.5t-152 -250.5q-10 -27 -14.5 -39t-4.5 -18zM737 502q0 8 -12 8q-24 0 -116 -42t-137.5 -75t-83 -60.5t-58.5 -60.5t-43.5 -59.5t-22.5 -56.5t25.5 -57
t49.5 -27t84 31.5t132 106.5t170 243q12 20 12 49z" />
    <glyph glyph-name="seven" unicode="7" horiz-adv-x="901" 
d="M403 999q0 -30 -51 -30t-73 30q-16 18 -17.5 52t-11.5 57t-10 52t30.5 45t77.5 27t101.5 17.5t122.5 14.5t188 8t162 -20q42 -21 73 -58t31 -64.5t-13.5 -55t-51.5 -85.5q-39 -57 -90 -124.5t-80 -103.5t-29 -44t22 -8l50 4q85 0 112 -32t27 -42q0 -59 -19 -59l-61 6
q-85 0 -151 -17.5t-111 -23.5q-154 -221 -219.5 -356.5t-65.5 -192.5q0 -25 -16 -25t-24 -17t-26 -17q-49 0 -81 38q-14 16 -28.5 30.5t-14.5 28.5q0 80 182 355q90 135 90 142t-14 7q-132 5 -145 18t-19 30.5t-9 23.5t-3 31l-5 23q0 18 11.5 26t21.5 8l148 -24
q115 0 125 16q53 78 138 186t132 226q6 14 6 26q0 21 -78 21q-178 0 -256 -35t-78 -115z" />
    <glyph glyph-name="eight" unicode="8" horiz-adv-x="901" 
d="M580 526l14 -268q0 -302 -82 -313q-10 -2 -23.5 -7.5t-60.5 -5.5t-92 27q-109 65 -192 165.5t-83 205.5q0 160 170.5 244.5t176.5 96t6 23.5v8l-2 82q0 445 227 527q21 8 60 8q39 1 79 -13q39 -14 45 -21t16 -20t34 -23q61 -27 133.5 -130t72.5 -183q0 -81 -75 -122
q-284 -146 -420 -205q-4 -10 -4 -34v-42zM424 265q0 85 -5 145.5t-5 73.5q0 21 -31 8q-68 -29 -113 -78.5t-45 -95.5q0 -80 33 -123q84 -113 123 -113q14 -1 20 24q23 74 23 159zM582 844q0 -62 12 -62q16 0 77 32q60 32 114.5 52.5t95.5 52.5q41 31 41 61q0 69 -39 105
q-39 35 -60 35l-18 -8q-18 0 -27 34q-10 34 -14 36q-8 0 -33 -10q-56 -22 -102 -99q-16 -25 -31.5 -96t-15.5 -133z" />
    <glyph glyph-name="nine" unicode="9" horiz-adv-x="901" 
d="M1085 1137q-1 -50 -31 -94t-48 -91q-23 -62 -107.5 -221t-120.5 -275q-37 -116 -79 -226.5t-58 -227.5q-2 -12 -7 -17t-33.5 -23.5t-60.5 -0.5q-83 47 -83 71q0 16 33 104t102 285q69 198 71.5 205t2.5 12t-6 5t-72 -36t-95 -38q-30 -2 -65 -13t-79 -11t-64 15
q-21 15 -31 20.5t-25 15.5t-35 41q-20 30 -34.5 45.5t-14.5 48.5t13 57q105 192 298 291t235 123t62.5 31.5t58.5 21t78 13.5t55 -14t32.5 -22.5t62.5 -44.5t45 -50zM895.5 1130q-5.5 0 -51.5 -22t-229 -104.5t-316 -270.5q-10 -16 -13 -20t-3 -11t8.5 -15.5t30.5 -8.5
t90 22t154.5 75.5t191 144t139.5 184.5q4 12 4 19t-5.5 7z" />
    <glyph glyph-name="colon" unicode=":" horiz-adv-x="593" 
d="M603.5 608q-25.5 -20 -40.5 -20t-54 12q-38 12 -61.5 29.5t-23.5 65.5t15.5 72.5t28.5 52.5t22.5 34t32.5 6q43 0 87 -36q45 -36 45 -72t-13 -80t-38.5 -64zM561 122q1 -84 -23 -94q-24 -9 -43 -17.5t-49 -8.5t-42.5 14t-27.5 34t-31.5 31t-16.5 27t4 29t10 45t26.5 63
t53.5 31t56.5 -22.5t43.5 -34.5t29.5 -46t9.5 -51z" />
    <glyph glyph-name="semicolon" unicode=";" horiz-adv-x="573" 
d="M344 650q0 20 10.5 64t26.5 67t31.5 41t49.5 18t66 -39q17 -20 41.5 -40t24.5 -52t-7 -51q-25 -68 -52 -68l-105 -2q-47 0 -66.5 21t-19.5 41zM401 162v-27q0 -35 -15 -46t-24 -23q-39 -61 -71.5 -118t-66.5 -113t-69 -114.5t-61 -98.5t-38.5 -43t-30.5 -3t-32.5 4
t-36.5 6q-38 3 -38 68q0 10 7 17t40 57t71 119t70.5 130.5t62 119t53.5 97.5t28 46t12 10t10 7t19 3t41.5 -18.5t39.5 -23.5q29 -10 29 -56z" />
    <glyph glyph-name="semicolon" unicode="&#x37e;" horiz-adv-x="573" 
d="M344 650q0 20 10.5 64t26.5 67t31.5 41t49.5 18t66 -39q17 -20 41.5 -40t24.5 -52t-7 -51q-25 -68 -52 -68l-105 -2q-47 0 -66.5 21t-19.5 41zM401 162v-27q0 -35 -15 -46t-24 -23q-39 -61 -71.5 -118t-66.5 -113t-69 -114.5t-61 -98.5t-38.5 -43t-30.5 -3t-32.5 4
t-36.5 6q-38 3 -38 68q0 10 7 17t40 57t71 119t70.5 130.5t62 119t53.5 97.5t28 46t12 10t10 7t19 3t41.5 -18.5t39.5 -23.5q29 -10 29 -56z" />
    <glyph glyph-name="less" unicode="&#x3c;" horiz-adv-x="1208" 
d="M1110 831.5q-6 -20.5 -22 -20.5q-16 -1 -61 -29q-46 -28 -53 -30t-53.5 -17.5t-242.5 -133.5q-195 -118 -195 -123q1 -10 19 -20t174.5 -110t196 -106t55.5 -6t34.5 -17t18.5 -31t-3 -20t-11.5 -14t-46.5 -51.5t-127 -5t-241 136t-213 135.5t-67 48.5t-6 28.5t10 40
t17 29.5t13 22.5q5 15 11.5 22t19.5 17.5t36 23.5t75 43t145 82t165 96t110.5 66.5t60 34t33 15.5t24.5 8t24.5 11.5t31.5 7.5t38 -18.5t18 -37.5l18 -51q0 -6 -6 -26.5z" />
    <glyph glyph-name="equal" unicode="=" horiz-adv-x="1208" 
d="M1176 736q0 -105 -51 -105t-132 -6l-321 -29q-16 -2 -20 -2h-46q-188 0 -287 22q-35 10 -34 115q0 10 5 15.5t14 16.5t22 11h20q8 0 62 -13t123 -13h51q51 0 73 2l160 8l283 26q78 0 78 -48zM733 489q70 1 173 15t150 14t68 -17t20 -36t-8.5 -42.5t-12.5 -41.5t-19 -19
l-49 5l-15 1q-16 0 -104 -16t-309 -16h-58q-248 0 -260 12q-16 10 -37.5 41t-21.5 57t5 30t10 18t32 14t97.5 -11.5t199.5 -11.5z" />
    <glyph glyph-name="greater" unicode="&#x3e;" horiz-adv-x="1208" 
d="M436 889q0 36 16 66t22 46.5t26 16.5t26 -11.5t38 -26.5q43 -20 55.5 -34t52.5 -37q435 -254 444.5 -272.5t9.5 -42.5t-15 -48t-22.5 -30t-11.5 -14q-16 -32 -82 -69q-67 -37 -125.5 -71t-150 -87t-141.5 -84q-95 -61 -128 -74t-78 -13q-46 0 -61.5 7.5t-19.5 26.5
t-12.5 30.5t-8.5 19.5q0 37 72 65t215 109.5t189 107.5t78 44q61 35 74 44.5t13 17.5q1 8 -65 48t-135.5 82t-104.5 59t-70 39.5t-63 35.5q-37 13 -37 49z" />
    <glyph glyph-name="question" unicode="?" horiz-adv-x="737" 
d="M780 452q0 -44 -142 -44t-241 41q-29 12 -40 22t-28 41t-18 45l-4 21q0 22 8 30t10.5 15.5t6.5 11.5q49 88 122.5 170.5t147.5 158.5q143 148 143 189q0 42 -38.5 56t-64.5 14t-73 -45q-16 -16 -16 -50l4 -47q0 -43 -49 -43t-82 45q-14 17 -14 67q0 98 45 136
q70 63 172 64q149 0 210.5 -67t61.5 -109t-3 -70.5t-34 -77t-131 -145.5q-139 -135 -197.5 -209t-58.5 -89t25.5 -24.5t54.5 -9.5l72 4q66 0 86 -16.5t24 -16.5t14.5 -7t18.5 -27t8 -34zM504.5 123.5q19.5 -19.5 19.5 -52.5t-19 -53q-51 -53 -102 -53q-23 0 -45 10.5
t-31 22.5t-24.5 27.5t-15.5 37.5t13 67q21 71 79 71q20 0 63 -29t62.5 -48.5z" />
    <glyph glyph-name="at" unicode="@" horiz-adv-x="1433" 
d="M375 440q0 -160 90 -254t248 -94t303 105q45 34 91 13.5t60 -54.5q4 -8 8.5 -12.5t10.5 -12t6 -27.5t-9 -25t-34.5 -12.5t-34.5 -13.5q-175 -119 -385 -119q-107 0 -188.5 39t-106.5 60q-213 169 -213 403q0 178 40.5 314.5t119.5 262.5q79 125 152 190t178 119t232 54
q126 0 235 -40.5t200.5 -153t107 -192.5t15.5 -152q0 -131 -46 -244.5t-105 -189.5q-89 -115 -194 -115q-64 0 -138 45q-38 23 -48 57q-9 33 -10.5 40t-7.5 7t-20 -20q-35 -51 -86.5 -85t-81.5 -34t-48 7t-33 16.5t-27.5 18.5t-18.5 13q-35 23 -56.5 67t-21.5 91
q0 92 64 246t170 225.5t145 71.5q56 0 112.5 -39.5t69.5 -63.5q17 -24 17 -39q0 -16 9 -22.5t25 -16.5t17 -30t-21 -69q-22 -50 -57 -130t-35 -146q0 -67 35 -67t76 36t101.5 141t60.5 288t-105.5 260.5t-243.5 77.5q-111 0 -241 -70.5t-244 -259.5q-80 -131 -109.5 -258
t-29.5 -207zM700 482q0 -38 23 -38q38 0 117.5 88t111 136.5t31.5 56.5t-6 13t-6 22t39 59t39 80q0 10 -16.5 23.5t-22.5 13.5q-63 0 -148.5 -104t-101.5 -155t-32 -76.5t-22 -52.5q-6 -28 -6 -66z" />
    <glyph glyph-name="A" unicode="A" 
d="M797 1021q0 107 -7 107t-18 -16q-221 -352 -369 -633q-24 -44 -24 -52q0 -9 10 -9q23 0 99.5 22t120.5 40t81 29t46 16t12 22q49 367 49 474zM929 602l113 8q94 0 127 -39q19 -22 3 -51q-28 -51 -146 -51q-58 0 -81 -15t-26.5 -20.5t-5.5 -25.5l-10 -205l-1 -15l-1 -114
q0 -111 14.5 -153t20.5 -54.5t6 -23.5t-14.5 -22t-25.5 -21t-30 -9q-61 0 -99 38t-38 259l8 274q0 8 -12 9q-153 -57 -269 -89t-136 -35t-27 -8.5t-27 -50.5t-20 -113q0 -69 3 -86.5t3 -26.5t-15 -19t-32.5 -25.5t-42.5 -15.5t-59.5 34.5t-34.5 110.5t13 132.5t13 61.5
t-24 17t-38.5 24t-14.5 40t13 65t20 43t26 6t40.5 -17.5t33.5 -17.5t17 4.5t39 70.5q61 116 197.5 344.5t248.5 399.5t119 178t19 7t51.5 12.5t86.5 12.5t57 -19q4 -16 10.5 -18t6.5 -15l-31 -194q0 -29 -8 -78q-16 -98 -29.5 -276t-13.5 -203t3 -25z" />
    <glyph glyph-name="B" unicode="B" horiz-adv-x="1175" 
d="M403 1105q0 27 2.5 30.5t10.5 7.5q45 18 67.5 55.5t44.5 101.5t40 81.5t38.5 17.5t67 -26.5t70.5 -26.5t46 12q63 35 133 35q138 0 214 -68q43 -37 43 -74q0 -96 -179 -303q-20 -25 -40.5 -49.5t-46 -60t-25.5 -38.5q1 -3 19 -12t54.5 -8.5t77.5 -14.5t81.5 -51t58.5 -70
t18 -92q0 -57 -16.5 -115t-45 -113.5t-65.5 -112.5t-83 -131t-134 -111t-179 -37t-150.5 13.5t-76 24t-45 20.5t-57.5 39q-6 -4 -8 -4h-23q-35 0 -64 25.5t-49 41.5t-20 30q0 13 -13 29.5t-28.5 34t-30 32t-15.5 26.5q-2 21 -18 45.5t-16 44.5t24 27.5t91 7.5l28 -5
q27 -4 34 23q83 348 120 455.5t70 191.5q0 4 -12 24t-13 47zM979 1254q0 11 -10 12q-145 0 -293 -107q-20 -16 -28 -34q-7 -18 -16.5 -40t-19.5 -50t-31.5 -83t-57.5 -156t-36 -120q0 -20 9 -21q10 0 46 23.5t54 47.5t32 43t42 51t90.5 98.5t116.5 141.5t78 129t24 65z
M897 676q-92 0 -225 -90t-203 -90q-12 0 -14.5 -4t-8.5 -22q-9 -28 -36 -138.5t-27 -134.5q0 -25 14 -39q129 -129 271 -129q110 0 179 132t113 223t44 202q0 37 -16.5 59.5t-37 26.5t-53.5 4z" />
    <glyph glyph-name="C" unicode="C" horiz-adv-x="966" 
d="M1019 918q-15 0 -44 4q-37 5 -63.5 26t-26.5 44q0 37 33.5 86.5t36.5 67.5q3 17 14.5 33.5t11.5 40.5t-27.5 24.5t-80.5 -26.5t-84 -56q-51 -46 -93 -95.5t-132 -172.5q-159 -217 -265 -562q-4 -10 -5 -27.5t-3 -36t-2 -34.5v-21q1 -49 27 -72t44 -41t52 -18
q138 0 397 258q25 25 37 33t41 8h33q45 0 69 -39q12 -20 12 -30t-7.5 -15t-41.5 -39t-167 -169.5t-322 -135.5t-262.5 89.5t-73.5 220.5q0 136 35 231q97 265 249.5 495.5t366.5 356.5q26 19 88 26.5t84 7.5q78 0 115 -37q16 -23 57 -58t41 -91q0 -23 -36.5 -104.5
t-46.5 -115.5t-28 -45t-33 -11z" />
    <glyph glyph-name="D" unicode="D" horiz-adv-x="1134" 
d="M392.5 922.5q-33.5 -23.5 -51.5 -23.5q-19 0 -32.5 12.5t-13.5 40.5q0 68 21 96.5t94 79.5q250 172 462 172q130 0 184 -37.5t96 -64.5t72 -66t40 -71.5t10 -115.5t-55 -187q-12 -23 -16.5 -39.5t-40.5 -88.5q-119 -244 -254 -423t-339 -254q-67 -25 -219 18
q-2 -14 -18 -16t-40 -2t-58.5 23.5t-51.5 52.5q-14 6 -94 39.5t-80 105.5q0 35 41 35l76 -6q18 0 30.5 -11.5t23.5 -11.5t14 6q89 355 249 748q0 12 -8 12t-41.5 -23.5zM924 1178q-49 0 -105.5 -24t-101.5 -34q8 -8 8 -18t-4 -16.5t-9 -12.5t-12.5 -12t-35.5 -71t-150 -332
t-162 -554q0 -10 3.5 -17t77.5 -7q106 0 192 86q292 289 381.5 543t89.5 274q0 27 -8 67.5t-17 55.5q-51 72 -147 72z" />
    <glyph glyph-name="E" unicode="E" horiz-adv-x="1040" 
d="M262 674v13q0 7 4 14t38 16q34 10 39 14t50 104t66 175q0 10 -9 10t-31 -8t-44.5 -8t-35.5 7t-23.5 20t-17.5 28.5t-11 30t-4 24.5t12 14q98 25 188 59t152 57q128 48 295 82t248 34q82 0 116 -15t65.5 -43t31.5 -62t-31 -34l-51 -12q-12 0 -28.5 10t-45.5 10
q-231 0 -516 -96q-20 -8 -25 -24q-29 -76 -56.5 -144.5t-55.5 -144.5q0 -8 8 -8q70 25 146.5 52.5t154.5 27.5t153 -41q27 -17 27 -66q0 -24 -46 -32.5t-52 -8.5l-68 6q-82 0 -154.5 -25.5t-114.5 -41t-68 -22.5t-47 -14t-27 -22q-25 -57 -52.5 -118.5t-65.5 -159.5
t-38 -176q0 -25 18 -47.5t40 -22.5q71 0 138 30q68 30 102 43t66 27t72.5 39t108.5 65t143 40q16 0 20 -5t14.5 -12.5t30 -22.5t19.5 -35t-18 -24q-18 -5 -44 -29q-28 -24 -74 -48q-185 -98 -323 -146.5t-317 -48.5q-42 0 -93 30.5t-66 54.5t-15 95t12 131t31.5 116
t42 112.5t43.5 111.5q-27 27 -27 64z" />
    <glyph glyph-name="F" unicode="F" horiz-adv-x="913" 
d="M381 14q0 -28 -50 -28t-114 37q-14 8 -14 24q0 98 28.5 200.5t44.5 153.5t15 57v9q0 20 -30 20t-49 18.5t-19 32.5t-6.5 24t-6.5 20t27 20t57 14.5t52 11.5t25 11t25 53t59.5 146.5t74.5 185.5q0 10 -9 10t-93.5 -39t-99.5 -39q-28 0 -54.5 28t-26.5 45t11.5 33t16.5 30
t15 16q124 31 231 74t121 47t48 13t96.5 26.5t168 42t173.5 24.5q67 0 118.5 -10t92.5 -65q8 -12 8 -38t-1 -30t-30 -18t-51 -13q-22 0 -28.5 7.5t-23.5 22.5t-56 15q-40 0 -72.5 -10t-82.5 -16t-108.5 -25t-95.5 -27t-41 -17t-4 -18l1 -13q0 -13 -26 -61t-70 -133t-69 -181
q0 -10 14 -11q84 20 167 36t144 28t71 12q11 0 53 -18t55.5 -32.5t13.5 -37.5t-22 -29q-133 -27 -267 -52.5t-206 -43.5t-75 -19.5t-23 -41.5t-33 -110.5t-33 -116.5q-41 -92 -41 -199z" />
    <glyph glyph-name="G" unicode="G" horiz-adv-x="1220" 
d="M1323 1166q0 -93 -24.5 -151.5t-27.5 -67.5q-8 -23 -38.5 -51t-46.5 -28t-27 8.5t-39 14.5t-39 27q-4 10 -12 19t-8 18t6 19.5t14.5 20t17.5 19.5t14 28t13.5 28.5t19.5 27t11 82.5q0 51 -71 51t-127 -33t-92 -62.5t-67.5 -62.5t-60.5 -59l-55 -53q-128 -125 -226 -300.5
t-145 -367.5q-12 -52 -12 -93q0 -40 2 -59.5t7 -28t10.5 -13.5t10.5 -19t27 -22.5t48 -8.5t89.5 24.5t137.5 89.5q103 90 207.5 173t143 135.5t38.5 64.5t-13 11q-19 0 -91 -23.5t-112 -23.5t-65 20t-35 29.5t-10 35.5t9.5 41t54.5 15q60 0 161 33t164 33q22 0 68.5 -45
t46.5 -72t-38 -105q-71 -148 -102.5 -293.5t-31.5 -242.5q0 -19 -34 -33t-46 -14q-20 0 -30 7t-32 7t-27 8t-5 30t7 60.5t14.5 74.5t14.5 61.5t7 30.5t-6 5t-67 -55q-115 -105 -173.5 -137.5t-133.5 -53.5q-75 -20 -109 -20q-113 0 -187 78q-51 53 -72.5 91t-21.5 84
q0 152 81 384.5t312 489.5q86 95 231.5 201t208 109t82.5 3q71 0 176 -50.5t105 -143.5z" />
    <glyph glyph-name="H" unicode="H" horiz-adv-x="1150" 
d="M1231 1184q0 -75 -62.5 -207.5t-93.5 -220.5q0 -16 15 -17q12 0 33.5 6.5t67 19.5t72.5 13t49 -10t34 -10q13 0 30 -16.5t27 -33t14 -20.5t4 -32t-16 -27q-102 0 -189.5 -19.5t-138.5 -29.5t-57 -14t-22 -32t-31 -85.5t-47 -153.5t-64 -377q-4 -27 -43 -27t-84 17
q-30 14 -41 74q-4 20 -4 40t18 77t38 160t38 157t19 78q0 23 -23 22q-37 -8 -80 -16t-83 -16.5t-72.5 -14.5t-54.5 -11t-32 -26q-11 -21 -23.5 -60.5t-22 -79.5t-15.5 -73t-13 -46t-7 -50l10 -90q0 -29 -6 -44.5t-40 -15.5q-34 1 -52 15t-34 15.5t-30 19.5t-24 18t-11 32
t6 55t9 41.5t9 50.5t13 63.5t11.5 58.5t5.5 37t-10 10t-41 -6t-64 -6q-82 0 -125 49q-8 12 -15.5 49t-7.5 44t8.5 16.5t25.5 9.5t42 -9.5t39 -9.5q25 0 109 14t89.5 21t21.5 37t30 94t105 277t200 413q14 25 46 25t45.5 -10.5t47.5 -21.5t35 -36q0 -18 -6 -30
q-84 -122 -166.5 -327.5t-111.5 -262.5t-29 -79q0 -23 12 -24q174 26 248 49q75 23 91.5 33t176.5 490q4 14 14 21t20.5 16.5t33.5 9.5l69 -6q20 0 40 -12.5t20 -32.5z" />
    <glyph glyph-name="I" unicode="I" horiz-adv-x="520" 
d="M203 -92q-10 0 -14.5 10t-20.5 10t-35 15.5t-29 15.5t-10 18t16.5 77t24.5 74t28 91t54.5 188.5t71.5 223t75 222.5t60 180q23 71 46.5 113t51.5 136q6 25 82 25q26 0 71.5 -17t45.5 -44q0 -81 -46 -125q-22 -21 -27 -29t-54 -134t-125 -356.5t-118 -357.5t-42 -130
l4 -36q0 -52 -39 -125q-5 -8 -23 -8q-18 -1 -28 -19t-20 -18z" />
    <glyph glyph-name="J" unicode="J" horiz-adv-x="819" 
d="M229 410q0 -28 -14.5 -45t-22.5 -49t-13 -40t-10 -24.5t-5 -78.5q0 -99 27 -147.5t47 -48.5q84 0 142 97q60 99 87.5 164.5t58.5 156.5t60.5 175.5t55.5 152.5t49.5 125t47 113.5t52 118t63.5 139.5q0 8 -12 8q-57 -10 -111.5 -26.5t-85.5 -23.5t-62 -27q-32 -20 -89 -20
q-58 0 -86 6t-31 23q-4 16 -14.5 25t-10.5 31q0 21 15 69q2 16 22 16q69 0 277.5 46.5t304.5 46.5q19 0 64 -30t51 -40.5t6 -30.5t-12 -44t-56 -77t-167 -357t-164 -434q-55 -174 -87 -242t-71 -133q-39 -64 -109 -123.5t-123 -59.5t-85 22.5t-68 33.5q-71 22 -108.5 112
t-37.5 236t36 206t54 60l64 -9q27 0 49 -22.5t22 -50.5z" />
    <glyph glyph-name="K" unicode="K" horiz-adv-x="1089" 
d="M569 784q15 0 33 6q20 7 29.5 9t38.5 16q410 202 651 492q10 12 43 12t84 -39q8 -6 16.5 -7t16.5 -9t8 -18t-19 -32q-235 -286 -469.5 -407t-284.5 -147t-55.5 -31.5t-5.5 -24.5q1 -18 17 -52t19 -52t19 -52q35 -73 146 -229t171 -210t89 -68q74 -36 74 -75t-31 -44
q-18 -3 -29 -9t-38 -6q-58 0 -119.5 42.5t-99.5 88.5t-74.5 84.5t-75.5 87.5q-77 96 -138.5 222.5t-81.5 188.5t-26 62.5t-10 -8.5q-152 -301 -195 -552q-5 -23 -32 -39t-43.5 -16.5t-21.5 12t-30 22.5t-43 19.5t-18 24.5q0 67 92 308.5t177.5 438.5t157.5 335t75.5 143
t16.5 13t31 28.5t38 20.5t30 -5t11.5 -10t15.5 -11t28.5 -9.5t27 -15.5t12.5 -30q0 -19 -15 -42q-131 -195 -227 -415q0 -11 14 -11z" />
    <glyph glyph-name="L" unicode="L" horiz-adv-x="921" 
d="M829 1286q0 -41 -14 -61.5t-14 -35.5t-23 -34q-44 -37 -94 -166q-12 -31 -24.5 -52.5t-93.5 -197.5t-216 -565q-8 -20 -8 -38q0 -44 31 -44q20 0 144 33q125 33 353 125q10 4 32 4t56 -14.5t54 -33.5t20 -27q0 -9 6 -15t6 -32q0 -40 -76 -40h-37q-37 0 -139 -38
t-226.5 -80t-254.5 -42q-75 0 -115 51.5t-50 64.5t-11 37t19 73t21 56t3 17.5t5 26.5t14 45q92 268 213.5 521t238.5 509q12 23 64 23q14 0 20.5 -9.5t30.5 -15.5t44.5 -19.5t20.5 -25.5z" />
    <glyph glyph-name="M" unicode="M" horiz-adv-x="1339" 
d="M950 -113q0 6 5.5 40t13.5 84t18 108.5t24 147.5t19 116q6 27 17.5 69t27 91t31.5 101t31 95q0 22 -28 -6q-28 -29 -74 -78t-88 -94t-74.5 -81t-44.5 -50t-16.5 -16t-8.5 -2t-21.5 6t-48.5 11q-76 12 -96 44q-37 58 -45 191v198q0 10 -6 10t-46 -75t-120 -291
q-80 -215 -89 -251t-30.5 -119t-21.5 -148q0 -10 -14.5 -22.5t-30.5 -12.5t-22.5 -10.5t-15.5 -10.5q-11 0 -42.5 16.5t-39.5 16.5q-7 0 -22.5 24.5t-15.5 52.5t9 54.5t21.5 50t23 44t32.5 105.5t82.5 233.5t128 292t134 281.5t101.5 223t41 85q16 0 22.5 -3t55.5 -11
t66 -24q18 -17 18 -28t-6 -37t-13.5 -56.5t-16.5 -61.5t-21 -81t-13 -189l1 -17l3 -258q0 -25 13 -24q4 0 6 3t45 49t120 117.5t153.5 142.5t149 141.5t106.5 116.5t39 49t30 3t41 -8t26 -8q15 0 35.5 -26.5t20.5 -45.5q0 -18 -10 -33q-240 -360 -303.5 -701t-75.5 -464
t-13.5 -131t-10.5 -8t-20.5 8t-25.5 8l-22 -8q-35 0 -64 24q-28 24 -31.5 27.5t-3.5 9.5z" />
    <glyph glyph-name="N" unicode="N" horiz-adv-x="1224" 
d="M1325 1313q18 0 46 -28t28 -54q-1 -26 -17 -53t-20 -44.5t-28 -85.5t-59.5 -181t-111.5 -348.5t-127 -361.5q-51 -127 -55.5 -134t-34.5 -37t-66 -31t-88 25q-50 26 -68.5 51t-39.5 91t-40 178t-35.5 221.5t-31 206.5t-23.5 137t-11.5 45t-10.5 5q-8 -1 -20 -43
t-113.5 -361t-101.5 -529q0 -16 -21.5 -26.5t-50.5 -10.5t-40 2t-18 5t-12 8t-25 14t-19 29q0 20 15 84.5t54.5 203.5t85 287t70.5 235l18 70q44 163 84 331q3 17 17 21t19 6t5 14t-15 35.5t-15 53.5t3 35t32 17t108 13q18 0 29 -29q74 -225 102.5 -482t48 -406.5
t43.5 -239.5q25 -90 31 -90t8 5t12 26q84 180 143 369.5t93 305.5t42.5 136t20.5 65t14.5 102.5t14.5 98.5t18.5 48t11.5 7z" />
    <glyph glyph-name="O" unicode="O" horiz-adv-x="1003" 
d="M1063 872v-30q0 -45 -21 -117q-45 -184 -107.5 -352t-163.5 -295t-276 -127t-249 117q-35 53 -50.5 104t-15.5 129q0 211 66.5 382t183.5 343t238 244q37 23 53.5 22.5t34.5 -8.5q86 -37 114 -37q29 0 48 -16q145 -130 145 -359zM478 88q44 0 84 21.5t63 54.5
q139 214 197.5 431.5t58.5 278.5v63q0 63 -25 108t-63 57q-13 4 -13 20t-19 16t-99 -82q-80 -83 -158 -212t-123 -273q-6 -20 -15.5 -51t-9.5 -76l-10 -141q0 -127 70 -197q18 -18 62 -18z" />
    <glyph glyph-name="P" unicode="P" horiz-adv-x="1003" 
d="M609 428q-30 0 -48 5t-31.5 13.5t-35 26t-36.5 19.5t-75.5 -245t-60.5 -266.5t-19 -32.5q-19 -14 -41 -14t-32 10q-15 15 -36 22.5t-31 18.5q-11 11 -11 17t7 35t15 63.5t10 43.5l18 74q16 65 28 91t12 41q0 28 33 117.5t42 136.5q0 10 -8 17q-39 28 -39 45q0 18 3 22
t9.5 6t23 13.5t32.5 11.5t18 8q23 71 40.5 115.5t22.5 70.5q5 27 4 29t-12 2t-33 13t-26 25t-16 24t-12 28q0 32 74 79q196 127 345 195t312 68q45 0 74.5 -5t66.5 -36t54.5 -59t17.5 -102t-30 -142t-80 -158t-145 -198.5t-198 -188.5q-42 -31 -109 -45t-97 -14zM514 631
q89 -76 109 -76t23 1t18 11q98 66 224.5 205.5t166 272.5t39.5 151t-6 23.5t-32 5.5t-60 -9t-143 -34t-185 -103q-41 -111 -86 -224.5t-68 -223.5z" />
    <glyph glyph-name="Q" unicode="Q" horiz-adv-x="1134" 
d="M1288 -178q0 -35 -56 -35q-95 0 -147 41q-131 112 -249 285q-18 23 -31 6q-96 -102 -183 -130t-140 -28t-76 8t-37.5 18.5t-32 21.5t-32.5 21.5t-25 16.5q-64 33 -87 131q-24 99 -24 203t39 229q8 25 12.5 40.5t36.5 81.5t108 182t185 208q23 18 41 28.5t51 32.5
q63 42 151 69.5t128 27.5q39 0 77 -20t79.5 -30.5t81.5 -44.5t59.5 -92.5t19.5 -144.5q0 -268 -293 -655q-6 -9 -6 -21q108 -206 197 -301.5t121 -118.5q32 -24 32 -30zM536.5 855q-192.5 -198 -192.5 -524q0 -231 108 -231q93 0 265 172q10 10 10 27q-71 139 -96 193.5
t-39 85t-14 66.5t44 36t64 -12.5t48 -12.5t38 -30q16 -53 25.5 -87t23.5 -59q13 -25 19 -25q23 2 126 178t103 331q0 104 -16.5 145t-52.5 41q-73 0 -172 -48t-291.5 -246z" />
    <glyph glyph-name="R" unicode="R" horiz-adv-x="1011" 
d="M328 29q0 -37 -84 -37q-18 0 -22.5 4t-21.5 12t-35 18.5t-18 30.5q48 343 209 805q15 40 28 57t24.5 56t23.5 63q0 8 -8 9q-23 0 -48.5 40.5t-25.5 50.5q0 21 130.5 96t312.5 75q189 0 238 -53t69 -96q20 -42 20 -122q0 -185 -159 -356q-59 -62 -127 -90.5t-113 -41
t-73 -22.5t-33 -12t-5 -12q20 -51 62 -111.5t64 -97.5t55 -75t89 -91t89 -66.5t55 -18.5t32.5 -17.5t26 -40t15.5 -58.5q0 -30 -66 -30t-159 58t-150 118.5t-103.5 127t-86 139.5t-63.5 115t-28 45t-8 3q-12 0 -25 -44q-37 -123 -59 -248.5t-22 -182.5zM545 655q28 -1 54 9
q27 10 36.5 11t24 4t55.5 29q96 61 164.5 163t68.5 231q0 25 -9 55.5t-99 30.5q-56 0 -101 -16q-44 -16 -51 -27q-97 -166 -137.5 -276.5t-65.5 -184.5q0 -29 60 -29z" />
    <glyph glyph-name="S" unicode="S" horiz-adv-x="884" 
d="M1010 987q0 -10 -13.5 -18t-28.5 -8t-40 7t-50.5 31.5t-34.5 37.5t-20.5 56t-31 77t-72.5 34q-10 0 -29.5 -43t-19.5 -123t20 -164q20 -83 94 -344t74 -401q0 -63 -43 -123t-86 -62.5t-78 -2.5q-137 0 -265 72.5t-226 195.5q-12 14 -54 56t-61 145q-4 16 -4 20v41
q0 14 14.5 36.5t36.5 22.5q84 0 127 -46t43 -62t-7 -28t-7 -32t1 -22l19 -38q27 -55 133 -141.5t201 -86.5q25 0 47.5 21.5t22.5 58.5q0 156 -32 276.5t-78.5 279.5t-56 224t-15 102.5t-5.5 72.5q0 33 4 51t17.5 98.5t116.5 80.5q75 0 154 -22t141 -89t79 -175
q4 -18 8.5 -37t4.5 -29z" />
    <glyph glyph-name="T" unicode="T" horiz-adv-x="794" 
d="M408 33q0 -66 -50 -66q-43 0 -110 39q-8 4 -17.5 21.5t-9.5 45.5t10 68q126 528 326 938q0 8 -12 8q-115 -10 -149 -10q-82 0 -115 33q-5 4 -5 50t18 63.5t26 17.5t15 -2t33 -7t105 -5q106 0 298.5 32.5t262.5 32.5t103.5 -12t81 -41.5t47.5 -48.5q0 -49 -18.5 -57.5
t-32 -17.5t-31.5 -9t-22 8t-30 18t-36.5 16.5t-93.5 6.5t-238 -31q14 -14 14 -21t-4 -16q-267 -451 -358 -933q-4 -25 -7 -38.5t-3 -33.5z" />
    <glyph glyph-name="U" unicode="U" horiz-adv-x="1228" 
d="M1244 1206l60 -8q20 0 31 -18l29 -45q4 -8 8 -15.5t4 -15.5t-20 -58t-58 -111t-63 -126q-148 -399 -148 -813l3 -62q0 -20 -26 -20t-30 5t-20.5 9t-32 14.5t-33.5 21.5t-30.5 16.5t-12.5 28.5t9 38q8 13 16 77t15 166t21 160t15 67q0 9 -8 9t-19 -10
q-117 -135 -233.5 -266t-243.5 -242q-38 -33 -93 -33q-54 0 -78.5 24.5t-64 34.5t-55.5 38q-10 25 -10 148t56 304q56 180 129 354.5t109 272.5t42 107.5t13 24.5q23 50 59 50q8 0 17 -6t44 -19t44 -33t9 -38t-2 -23l-16 -40q-47 -117 -97.5 -227.5t-144.5 -330t-94 -434.5
q0 -30 11 -30q40 0 79 41q458 458 703 860q14 25 25 55t43 64t39 34z" />
    <glyph glyph-name="V" unicode="V" horiz-adv-x="962" 
d="M572.5 1218.5q-0.5 -26.5 -16.5 -144.5t-56 -342t-52 -344t-12 -132v-23q0 -35 8 -35q24 2 73 51t121 180q73 132 142.5 256t121.5 220t77 157.5t25 133.5l-5 47q0 31 45 31l58 -2q16 0 19 -9.5t19 -22.5t31 -27.5t15 -34.5q0 -45 -29 -139t-81 -176q-52 -83 -116.5 -207
t-176 -327.5t-236.5 -328.5q-39 -39 -53.5 -39t-24 6t-31.5 6t-26 -6t-20 -6t-47.5 17.5t-48.5 35.5t-20.5 22.5t-3.5 19.5t-13 35t-13 42l6 35q0 64 27.5 239t61 392t35.5 293q3 77 6 85.5t7 22.5t4 50t8.5 50.5t36.5 14.5l68 -4q36 0 53 -31q14 -35 13.5 -61.5z" />
    <glyph glyph-name="W" unicode="W" horiz-adv-x="1400" 
d="M1421.5 1352q22.5 -8 41.5 -49t24 -98q4 -57 4 -128t-44 -277q-96 -449 -343 -800q-45 -68 -105 -68q-8 0 -19 6.5t-45 9.5t-51 20t-48 25.5t-41 31.5q-29 61 -37 127t-16 122t-10.5 61t-8.5 5t-26 -32t-61 -69q-40 -36 -75 -81t-91.5 -110.5t-111.5 -65.5q-20 0 -50 28
t-42 30.5t-31 7.5t-22 20q-4 12 -4 23v46q0 51 7 93t11 72t11 105.5t96.5 368.5t146.5 504q4 16 13.5 25.5t37.5 9.5q68 0 73 -5l29 -30q25 -24 25 -32t-6 -19q-152 -363 -274 -953q-10 -48 -10 -62q0 -13 5 -13q13 0 54 41q100 104 213.5 261t142.5 287t54 130
q12 0 27 -4.5t33 -6.5q18 -1 44 -33t27 -66t-17 -86q-48 -146 -49 -300q0 -156 27 -289q4 -18 13 -18t32 28q210 282 332 803q12 50 12 90l4 117q0 35 -20.5 69.5t-20.5 68.5t5 52.5t22 18.5l61 -4q29 0 51.5 -8z" />
    <glyph glyph-name="X" unicode="X" horiz-adv-x="987" 
d="M507 1352q38 0 52 -3t23 -18q12 -23 29.5 -41t17.5 -34t-9.5 -49t-9.5 -115t14 -164q14 -83 17.5 -90t17.5 -7t57 43t110 99.5t180.5 154.5t207.5 205q18 21 39 21t46 -11.5t47 -17.5t38.5 -26.5t16.5 -34.5t-6 -23q-37 -48 -94.5 -89.5t-96.5 -69t-89 -76.5t-192.5 -168
t-192.5 -165t-54 -52.5t-4 -18.5q23 -137 59.5 -266.5t52.5 -201.5t43 -112t27 -63q0 -47 -63 -47q-42 0 -82 16q-41 16 -46 20t-23 40t-39 113.5t-40 224.5t-35 147q-6 0 -43 -37q-144 -156 -213.5 -249.5t-97.5 -206.5q-2 -8 -6 -15.5t-26 -14.5t-25.5 -16.5t-26.5 -9.5
q-54 0 -108 56q-10 10 -11.5 14t-1.5 34t28 70.5t44 73.5t44 76q28 44 76 97.5t98 104t101.5 98.5t86.5 85t37.5 43t2.5 18q-50 270 -53.5 364t-3.5 130q0 44 7 56t7 24l-3 42q-3 42 68 42z" />
    <glyph glyph-name="Y" unicode="Y" horiz-adv-x="1028" 
d="M533.5 1238q-19.5 -39 -31.5 -99q-88 -442 -88 -633q0 -6 9 -13.5t36 -7.5t55 17q140 89 237 186t193 284q95 186 132 240q38 53 46 54q20 0 58.5 -9.5t54.5 -25.5t24.5 -39t8.5 -34t-13 -25q-217 -305 -357 -742.5t-220 -1027.5q-4 -31 -8 -41t-4 -23t-13 -14
q-10 0 -21 3t-42 8q-78 13 -86 53q-4 17 -4 73t16 114t26 100t14.5 73t30.5 168t169 619l-17 -19q-73 -84 -148 -108.5t-103 -24.5q-35 0 -104 39t-103.5 91t-34.5 62t1 33t3.5 112t9 108.5t6.5 50.5t7.5 46t26.5 142t81 340q6 18 16 18q39 0 69.5 -7t59.5 -11
q10 -2 18.5 -22.5t8.5 -44.5t-19.5 -63z" />
    <glyph glyph-name="Z" unicode="Z" horiz-adv-x="1146" 
d="M1147 1151q1 57 -277 57q-58 0 -138.5 -25.5t-115.5 -90.5q-10 -15 -41 -15q-31 -1 -61 15t-42.5 42.5t-25.5 79.5q0 21 9 27q162 107 392 107q231 0 394 -93q46 -30 77.5 -68.5t31.5 -58.5q0 -44 -25 -92.5t-145 -155t-132 -115.5t-12 -18t19 -10q148 0 200 -69
q11 -12 11 -34t-11.5 -34t-21.5 -12h-7l-100 4q-99 0 -194.5 -20.5t-151 -33t-112.5 -20.5q-53 -45 -114.5 -86t-162 -116.5t-147.5 -172.5q-4 -10 -8.5 -18.5t-4.5 -16.5q0 -16 43.5 -34.5t69.5 -18.5q27 0 52.5 -8t72.5 -8q140 0 418 103q110 40 118 40q20 0 46.5 -6.5
t31.5 -13.5q16 -29 41 -55.5t25 -48.5t-14 -21l-35 8q-12 0 -13.5 -6t-15.5 -12q-287 -127 -534 -127q-246 0 -426 112q-34 23 -60 75.5t-26 78.5t7 44q28 70 204 214q81 68 81 74t-41 12t-61 28t-20 40l6 52q0 28 18.5 40t35.5 12t73 -20t78 -19q31 0 89.5 9t82.5 20
q457 283 513 378t56 101z" />
    <glyph glyph-name="bracketleft" unicode="[" horiz-adv-x="667" 
d="M580 -304q0 -20 -6.5 -38t-15.5 -29.5t-18.5 -17t-17.5 -13.5t-106 -8h-39q-101 0 -193 7q-37 4 -80 54t-43 92t6.5 63.5t14.5 49t22 68.5l455 1372q95 289 152.5 326t191.5 37h76q164 -1 169 -27q3 -14 9 -18t6 -20t-3 -23.5t-13 -30.5t-22.5 -33t-47.5 -10l-94 4h-22
q-86 0 -111 -11.5t-45 -59.5q-87 -201 -203.5 -562.5t-182 -569.5t-111.5 -337t-46 -174q0 -29 32 -32t66 -3l175 8q23 0 34 -22t11 -42z" />
    <glyph glyph-name="backslash" unicode="\" horiz-adv-x="765" 
d="M545 1342q0 -38 -9.5 -63.5t-9.5 -75.5t12 -143q16 -131 80 -510t72 -487t8 -155t-12 -47t-22 -10.5t-38 -10.5t-42.5 5t-34 45t-19.5 95t-8 111l-157 1059q-7 51 -7 101v73q0 67 37 90q8 6 35 6l31 -4q39 0 61.5 -20.5t22.5 -58.5z" />
    <glyph glyph-name="bracketright" unicode="]" horiz-adv-x="667" 
d="M547 1659q88 0 186 -6q34 0 78.5 -56t44.5 -82q0 -64 -43 -190l-455 -1372q-97 -296 -155 -329.5t-189 -33.5h-75q-163 0 -170 31q-2 10 -8.5 14.5t-6.5 20.5t13 46t25.5 40t47.5 10l94 -4h23q83 0 104 9.5t31 23t35 71.5t34 82.5t43 115.5t77 219t156.5 487.5
t164.5 508.5q51 150 51 183t-19.5 41t-76.5 8q-85 0 -118 -4t-56 -4t-34 22.5t-11 32.5q0 57 22.5 77.5t37.5 28.5t38 8.5t111 0.5z" />
    <glyph glyph-name="asciicircum" unicode="^" horiz-adv-x="1126" 
d="M1221 895q0 -17 -5.5 -13.5t-19.5 -15.5t-22.5 -23.5t-20.5 -4.5t-29.5 11t-27.5 32l-178 333q-12 21 -25 21t-27 -8q-299 -172 -324.5 -197.5t-45.5 -25.5t-36 19t-23 27t-7 42t7 47.5t11 23.5t103 58l354 174q20 10 48 10q28 -1 37 -19t16.5 -20t17.5 -25l180 -387
q17 -42 17 -59z" />
    <glyph glyph-name="underscore" unicode="_" horiz-adv-x="1282" 
d="M1190 -197v-131h-1434v131h1434z" />
    <glyph glyph-name="grave" unicode="`" 
d="M1059 1458q0 -12 -7.5 -29.5t-7.5 -45t-36.5 -18.5t-55.5 21l-209 136q-43 30 -135 67q-24 9 -24 54t24 69t47 23l29 -6q4 0 9 -3.5t16.5 -11.5t32 -23.5t55.5 -39.5l209 -144q53 -37 53 -49z" />
    <glyph glyph-name="a" unicode="a" horiz-adv-x="958" 
d="M1052 852q44 0 62 -27q4 -6 4 -14q0 -7 -22 -37q-183 -252 -217 -393q-35 -141 -35 -219q0 -77 43 -142q4 -8 4 -12t-8.5 -14t-26.5 -13t-28 -6.5t-26 -3.5t-43.5 10.5t-37.5 30.5q-35 79 -35 151t4 98t4 33t-10 7t-47 -37l-111 -102q-148 -133 -209 -147.5t-68 -14.5
q-19 0 -43 16t-100 76q-8 6 -26.5 34t-18.5 83q-1 122 107 282t186 228.5t125 103.5q152 111 328 162q20 6 50 6q73 0 110 -45t42 -58t18 -24.5t25 -11.5zM244 147q38 0 105 63t247 210t258 295q16 33 59 78q22 22 6.5 46.5t-39.5 24.5t-67 -20q-411 -221 -512.5 -409
t-101.5 -238t45 -50z" />
    <glyph glyph-name="b" unicode="b" horiz-adv-x="790" 
d="M823 1589q99 0 99 -78q0 -30 -31 -59t-49 -45.5t-44 -58.5t-72 -111.5t-116 -178t-107 -193.5q-36 -85 -130 -269.5t-94 -378.5q0 -35 5 -54.5t25 -19.5t42.5 14.5t50.5 50.5q120 155 170 332q20 74 24 88.5t4 20.5q0 20 -9 66t-25 59q-17 13 -17 42q0 28 19.5 60.5
t47.5 32.5t59 -38t44.5 -52t27.5 -23.5t88.5 -9.5t196 36t125.5 36l25 -4q37 0 51 -22.5t14 -31.5t-5 -22.5t-13 -15.5q-75 -10 -167.5 -45t-143 -48.5t-105.5 -13.5l-59 13q-9 0 -9 -19l5 -43q0 -18 -4.5 -29t-12.5 -63t-35.5 -102t-43.5 -89t-23.5 -53t-14 -25.5
t-12.5 -19t-22 -31.5q-136 -194 -260 -194q-61 0 -118 39t-65 71q-16 64 -16 139t43 195q2 6 10 31t18.5 53.5t20 55t37.5 92.5t83.5 174t115 216t122 215t106.5 185t72.5 100.5t71.5 22.5z" />
    <glyph glyph-name="c" unicode="c" horiz-adv-x="708" 
d="M649 813q-1 16 -15 16t-57 -43t-108.5 -129t-118.5 -180t-86 -182.5t-33 -118.5q0 -52 35 -53q119 0 270 113t199.5 134t64.5 21q27 0 50.5 -22t23.5 -31l-8 -21q0 -18 -16 -24q-70 -30 -191 -128q-120 -98 -196 -138.5t-130 -40.5q-88 0 -146.5 37t-71.5 63
q-25 49 -25 91t11.5 81.5t18.5 63.5t12.5 47t29.5 75q70 147 181 304t230 217q15 6 51 6t95 -22.5t100 -63.5q8 -8 8 -29l4 -31q0 -17 -35.5 -83t-35.5 -124q0 -30 -32 -30t-48 14l-53 39q-23 15 -23 37t7 39.5t15.5 33t15.5 31t7 31.5z" />
    <glyph glyph-name="d" unicode="d" horiz-adv-x="1015" 
d="M862 88q0 -55 8.5 -78.5t8.5 -33.5q1 -10 -9 -18q-10 -9 -28.5 -35.5t-67.5 -2t-51 34.5q-12 69 -12 147t18.5 154t29.5 116q18 64 43 112.5t25 53.5t-4.5 5.5t-42.5 -45.5q-139 -164 -259 -288.5t-242 -197.5q-43 -27 -122 1.5t-85 47.5q-35 59 -35 129t73 209
t187.5 256t243.5 203q56 39 147 39q33 0 55 -10t51 -18.5t48 -20.5q14 0 16 2q118 127 285.5 419t193 310t40.5 18q26 0 66 -22t40 -59q-1 -37 -29 -78t-37 -61.5t-39 -70.5t-79.5 -123t-128 -196t-119.5 -242l-33 -90q-156 -428 -156 -567zM205 150q12 0 22.5 8t19.5 11
t23 13q215 168 461 500q18 25 30.5 36t12.5 38q0 20 -39 20t-59 -10q-148 -74 -283 -226.5t-194 -316.5q-6 -13 -6 -43t12 -30z" />
    <glyph glyph-name="e" unicode="e" horiz-adv-x="749" 
d="M518 -6q-38 -21 -78 -21q-40 1 -65 11q-24 10 -45 18t-40.5 17.5t-83.5 37t-80.5 143t-16.5 144.5t10 68q43 158 139 294t213 261q27 29 85 60.5t126 31.5t133 -23q16 -6 41 -35t25 -81t-14.5 -86.5t-38.5 -81.5t-68 -96q-45 -49 -169.5 -187.5t-297.5 -237.5
q-12 -9 -12 -25t39 -77t204 27q106 57 178 118.5t112 96.5t76 57t49 21q13 0 28.5 -12.5t15.5 -28.5l-2 -27q0 -22 -10 -29q-37 -31 -127 -131t-326 -227zM709 898q0 23 -1 29.5t-13 6.5t-35 -14t-28 -15t-37 -31q-98 -90 -186 -209.5t-118 -244.5q0 -10 4 -10t14 6
q141 107 314 315q15 18 27 43t36 63t23 61z" />
    <glyph glyph-name="f" unicode="f" horiz-adv-x="548" 
d="M790 1518q32 0 54 -29t22 -46t-9 -31.5t-19.5 -30t-20.5 -30t-12 -30.5t-15 -44t-45 -69t-89.5 -116t-73.5 -132q-16 -56 -33 -89t-24 -51.5t-13 -35t-6 -26.5t10 -10q61 0 150.5 33.5t141.5 49t96 15.5t60.5 -15t16.5 -31t-18.5 -25t-29.5 -15t-16.5 -8t-11.5 -7
q-66 -25 -131 -57.5t-108 -40.5t-46.5 -11t-33.5 -15t-78.5 -25t-69.5 -55q-35 -102 -70.5 -203.5t-85 -268.5t-67.5 -374q-4 -38 -57 -60q-16 -6 -37 -14t-34 -8t-44 25q-14 14 -14 76t19.5 115.5t31.5 93.5t20 81t22.5 88t40.5 131t64.5 196t38.5 131q0 18 -11 38
t-43 44.5t-44 61.5t-12 51t9 26.5t25 12.5t49 -14t65 -14t44 28q145 351 213 482t115 207q12 20 47 32.5t67 12.5z" />
    <glyph glyph-name="g" unicode="g" horiz-adv-x="864" 
d="M641 246q0 -35 8 -35q150 126 342 242q34 20 58 20q25 0 41 -16t16 -36t-16 -34q-301 -226 -415 -341.5t-172.5 -199.5t-90.5 -162q-175 -417 -206.5 -450t-60 -36t-57.5 -3t-63.5 15.5t-41.5 39.5t-7 46t7 45.5t23.5 56.5t43 76t65.5 102t68.5 99t71.5 95.5t104 164.5
t161 341q-2 6 -10 7q-35 -33 -111 -110t-172 -77q-62 0 -125.5 53.5t-68 66t-4.5 62.5t21.5 95t33.5 73q21 48 136.5 193.5t202.5 209.5t153 97t118 33t108 -22.5t84 -58.5t27 -81q0 -46 -16 -78q-256 -458 -256 -493zM726 854q-42 0 -63.5 -14t-48.5 -34t-43 -28t-48 -38
q-73 -67 -181 -199t-127.5 -193.5t-19.5 -69.5t9 -13t16 -5q51 0 222.5 154.5t323.5 386.5q6 8 6 14l-2 19q-2 20 -44 20z" />
    <glyph glyph-name="h" unicode="h" horiz-adv-x="856" 
d="M922 1542q0 -31 -28 -61.5t-56 -62.5t-33 -44t-47 -68t-106 -178t-126.5 -254.5t-122 -267.5t-93.5 -210t-38 -81t-4 -9t3 -3t16 16q210 293 465 570q50 57 112.5 57t80.5 -21t18 -51t-19.5 -69t-42 -76t-32 -66t-35.5 -93t-59.5 -182t-33.5 -207t18 -119.5t58.5 -36.5
t40.5 -23q0 -6 -3 -12t-8 -18t-31 -20q-25 -9 -41.5 -15.5t-40.5 -6.5t-56 15q-111 43 -111 192q0 163 110 429q13 32 13 37t-5 5t-42 -40q-53 -58 -191.5 -257t-170.5 -236q-33 -38 -35 -40.5t-29 -18.5t-47 -16t-73.5 24t-53.5 56q0 16 5.5 22t23.5 80t61 187.5
t94.5 224.5t106 218.5t84.5 173.5t36.5 78.5t45.5 83.5t106.5 190.5t143.5 271.5q16 28 25 28l71 -4q27 0 47 -20t24.5 -30.5t4.5 -41.5z" />
    <glyph glyph-name="i" unicode="i" horiz-adv-x="450" 
d="M532 246q70 0 70 -43q0 -23 -33 -56l-84 -77q-33 -29 -87 -64t-124 -35q-42 0 -102.5 66t-60.5 182q0 72 21 133q21 62 28.5 87t35.5 93t75.5 179.5t105.5 230.5q27 55 92 55t76.5 -17t11.5 -45t-14.5 -59.5t-34 -60.5t-42 -59.5t-37.5 -63.5q-86 -190 -130 -307
q-43 -117 -43 -186q0 -68 37 -68q45 0 82 23.5t71 48.5q58 43 86 43zM659 1442q111 0 111 -94q0 -24 -20 -48q-73 -90 -121 -90q-31 0 -64 20.5t-33 81.5q0 130 127 130z" />
    <glyph glyph-name="j" unicode="j" horiz-adv-x="487" 
d="M512.5 913q13.5 -23 13.5 -37t-16 -38q-61 -120 -106.5 -239t-61.5 -159t-16 -50t4 -9q10 0 34 20q176 150 214 165.5t52 15.5q36 0 36 -26t-6.5 -40t-18.5 -26.5t-29.5 -25.5t-40.5 -34q-165 -146 -343 -396q-70 -99 -101 -165q-48 -120 -93.5 -247.5t-72.5 -201
t-43 -117.5q-22 -61 -44.5 -86.5t-59.5 -25.5q-6 0 -15 5t-31 12q-33 11 -46 39t-13 48q0 59 69.5 199.5t153.5 300.5t127 311q4 12 8.5 24.5t9.5 27t12 35.5t41 113t96 249t90 247t48 111t42 21l47 2q46 0 59.5 -23zM522 1361q40 50 97 50t93 -31t40 -37.5t4 -24.5
t-9.5 -32t-20.5 -26.5t-22.5 -23.5t-14.5 -30q-5 -30 -65 -30t-104 65q-10 14 -10 49l-2 26q-2 25 14 45z" />
    <glyph glyph-name="k" unicode="k" horiz-adv-x="770" 
d="M65.5 15.5q-16.5 21.5 -16.5 43.5t9 46t10.5 32t3.5 13q104 319 241 628.5t209 481.5t75 179t7 17q14 39 33 39q12 0 21.5 -2t46.5 -6q75 -10 75 -57.5t-19 -78t-45 -68.5t-33 -51t-15 -26q-72 -119 -120 -244.5t-78 -193.5t-30 -75t7 -7t65 34t151 108.5t156 175.5
q13 20 41 42q29 21 57 21q28 -1 63 -21q34 -20 34 -33q0 -24 -31.5 -68t-58.5 -69t-34 -36t-71 -65t-282 -197q-23 -16 -9.5 -53t27.5 -83q19 -63 64 -155t63 -117q19 -25 34 -45.5t40 -42t62 -36.5q36 -15 44 -15t17.5 -1.5t9.5 -23.5t-18.5 -33t-28.5 -27t-57 -16
q-86 0 -146 60q-29 29 -47 43t-29 33q-88 160 -125 269t-50 141t-21 32t-11 -8q-89 -209 -114 -359q-4 -16 -18.5 -78.5t-51.5 -62.5l-51 -6q-39 0 -55.5 21.5z" />
    <glyph glyph-name="l" unicode="l" horiz-adv-x="475" 
d="M838 1497q18 0 18 -82q0 -35 -20 -69q-70 -113 -247.5 -376t-275.5 -519q-25 -63 -51 -124t-26 -116t9 -84t35 -29t51 14q24 14 59.5 53.5t97.5 105t118 65.5q12 0 41 -11.5t29 -33.5t-12 -32.5t-40 -40.5t-65 -77t-102.5 -112.5t-167.5 -65.5q-30 0 -82.5 27.5
t-90.5 64.5t-38 122t26.5 158t60.5 160q61 155 184 389.5t243 434.5q12 23 22.5 52.5t32 75.5t72.5 46z" />
    <glyph glyph-name="m" unicode="m" horiz-adv-x="1400" 
d="M698 168q0 -33 26 -33q16 0 49.5 17.5t74.5 64.5t101.5 101.5t158 148.5t143.5 223q11 46 42 61t51 15q30 0 40 -6.5t36 -10.5q26 -3 36 -10.5t20 -25.5t10.5 -35t-31 -43t-42.5 -43q-143 -239 -143 -359t65 -221q7 -12 18 -17t20 -17.5t9 -24.5t-13 -22.5t-35.5 -10.5
t-39 6t-36.5 10q-46 11 -99 117q-51 112 -51 183q0 12 -7 12t-32 -18t-62.5 -59.5t-107 -104t-170.5 -62.5q-55 0 -113 27t-73 50t-15 50t-5 27t-45 -40t-183 -114q-10 -4 -18.5 -8t-34.5 -4t-70 15.5t-66 31.5t-32.5 35.5t-11.5 96.5t21.5 141.5t54.5 126t68 122t60 113.5
t40 80.5t36 65t31 64.5q10 27 41.5 52.5t77.5 25.5t64 -10t18.5 -19t0.5 -37t-24 -60q-267 -373 -346 -680q0 -8 6 -15.5t11.5 -7t55.5 24.5t201.5 149.5t263.5 401.5q12 31 46 57t82 25q48 0 90 -41q8 -8 8 -18t-10 -36q-10 -28 -32 -63t-46.5 -69t-50 -68t-60.5 -102
q-72 -138 -72 -226z" />
    <glyph glyph-name="n" unicode="n" horiz-adv-x="860" 
d="M219 167q0 -11 6 -11q16 0 35 26q189 267 323 401t149 167q26 57 38.5 72.5t35.5 15.5q22 0 35 -9.5t33 -11.5t33 -19.5t13 -37.5t-38 -80q-151 -241 -151 -458q0 -31 17 -89q4 -29 33 -47t49 -36t20 -33t-12.5 -34.5t-32.5 -19.5q-83 1 -110 25q-28 24 -46 35t-46 49
t-28 123t9.5 119t9.5 40t-6 6t-13 -8q-63 -84 -107 -140t-70 -94t-38 -51.5t-22 -21.5t-19.5 -14t-23.5 -24t-72 -17q-17 0 -70.5 33t-72.5 57q-19 23 -19 56q0 32 3.5 47.5t7.5 28.5t8 25.5t6 32.5t13.5 54t26.5 73t31.5 78t34.5 81q86 206 145 295q60 89 63 96t22 23
t77 17q59 -1 71 -27t12 -53t-28 -62q-28 -34 -68 -80.5t-72 -106.5q-151 -286 -173 -383t-22 -108z" />
    <glyph glyph-name="o" unicode="o" horiz-adv-x="753" 
d="M1112 782q0 -18 -27.5 -28.5t-32.5 -17.5t-28 -10t-63.5 -15.5t-83.5 -18.5t-71 -6q-27 0 -32 -16q-41 -166 -111.5 -331t-174 -252t-144.5 -87q-40 0 -80 20q-108 53 -135 119q-31 83 -31 190t54 218t94 173t46.5 69.5t11.5 12.5t9 10.5t21 27.5q61 81 116 128.5
t122 47.5t98 -31t40 -57t31.5 -62.5t67.5 -36.5l176 7q49 0 88 -14.5t39 -39.5zM560 872q-10 0 -22 -14t-24 -22.5t-17 -14.5t-24.5 -30.5t-69 -94.5t-107.5 -198.5t-58 -253.5q0 -26 20.5 -56t30.5 -38t24 -7q14 0 22.5 6.5t20.5 12.5t41 51q106 161 161.5 275t55.5 253v26
q0 26 -12 38q-12 11 -17 27t-9.5 28t-15.5 12z" />
    <glyph glyph-name="p" unicode="p" horiz-adv-x="901" 
d="M492 967q0 -66 -25 -139.5t-43 -147.5q0 -4 4 -4q201 231 257 249.5t90 18.5t143 -70q40 -29 40 -93t-9 -104t-7 -53.5t-16 -59.5t-78 -218.5t-207 -304.5q-15 -14 -45 -14q-162 0 -258 209q-4 10 -12.5 10t-12.5 -10q-176 -337 -245 -623q-31 -129 -28 -152t-25 -33
t-64 -10q-35 0 -56 20q-20 20 -28 27t-9 21q-3 47 92 301t212 576t160 581q4 29 9 33t19 9t32.5 13.5t42.5 8.5t45.5 -12.5t21.5 -28.5zM465.5 257q39.5 -91 76.5 -91t100 134t69 165q60 177 70 250t10 77q1 4 -7 5q-8 0 -16 -4q-183 -118 -328 -349q-14 -22 -14 -59
t39.5 -128z" />
    <glyph glyph-name="q" unicode="q" horiz-adv-x="790" 
d="M342 90q-80 -14 -115 -14q-34 0 -80 24l-28 19q-70 46 -70 153q0 32 29 105t91 166.5t185.5 217t307.5 179.5q50 16 86 16q72 0 122 -31t50 -75q0 -43 -33 -92t-33 -63q0 -15 11.5 -23t11.5 -18t-15 -27q-362 -481 -571 -1225q-8 -29 -7.5 -68t-9.5 -64t-24 -50t-54 -25
t-92 43q-10 8 -10 17q0 10 21 117t79 265t67 193q11 44 45.5 117t49.5 131q0 12 -14 12zM750 803q0 14 -22 14t-44 -12t-30 -11t-48 -25q-108 -71 -211 -175t-145 -186q-41 -82 -50.5 -118t-9.5 -58t11.5 -28.5t20.5 -6.5q38 0 110 55q169 128 276 291q23 36 13.5 42.5
t-9.5 16.5t40 54t69 78t29 69z" />
    <glyph glyph-name="r" unicode="r" horiz-adv-x="614" 
d="M420 679q0 -19 33 9q227 172 324 172q28 0 68 -13t66 -44q15 -11 15 -35q0 -39 -27 -64.5t-47 -25.5q-21 0 -44.5 10t-39.5 11t-70 -23t-135.5 -79.5t-196 -177t-157.5 -333.5q-16 -57 -47 -82q-14 -18 -38 -17t-37 15t-35 38t-25 58q-2 35 11 60.5t49.5 79t47.5 84.5
q39 117 78 233.5t52 184.5t14.5 75.5t1.5 14.5t-8.5 18.5t-9.5 24.5t21.5 30t51.5 17q61 0 81 -33q19 -33 22 -82t-6 -79t-11 -36t-2 -11z" />
    <glyph glyph-name="s" unicode="s" horiz-adv-x="606" 
d="M714 947q36 -36 36 -130t-60 -170q-16 -22 -30 -22t-57.5 15t-43.5 77q1 6 21 40t20 58q0 96 -59 96q-15 0 -72 -85t-57 -179q0 -4 2 -21.5t5.5 -57t8.5 -74.5q4 -35 15.5 -103.5t30 -179.5t18.5 -147t-23 -58q-23 -23 -52.5 -45t-65.5 -22t-56 8q-179 72 -299 274
q-12 24 -12 39t20.5 41.5t64.5 26.5t64 -27t34.5 -52.5t38.5 -68t55 -71.5t50 -29q18 0 19 16q0 16 -10 66q-22 104 -44 272.5t-22 198.5q0 145 79 269q40 63 94 92.5t83 29.5q84 0 126 -20.5t78 -56.5z" />
    <glyph glyph-name="t" unicode="t" horiz-adv-x="536" 
d="M596 1348l46 10q43 0 70 -12.5t27 -17.5v-52q0 -51 -106.5 -245.5t-119.5 -242t-13 -51.5t14 -4t63 11q50 11 127.5 40.5t111.5 49.5t43 20q23 0 60 -18t37 -36q0 -19 -16 -41t-54 -37t-50 -23.5t-44 -20.5t-81 -26.5t-95.5 -27t-83 -21.5t-58.5 -16t-35.5 -32t-24.5 -68
q-12 -44 -19.5 -60.5t-11.5 -37.5t-45 -141t-49 -192q-8 -73 -51 -93q-9 -6 -44 -6t-61 23q-38 26 -14 110q39 115 72 241.5t59 192.5t26 70t-20 14t-36.5 26.5t-30 33t-25.5 34t-26 28.5t-15 24q0 18 25 30q25 11 50 11t60 -16.5t63.5 -16.5t34.5 29q10 37 40 113t72 190
t74 180t35 70t19 4z" />
    <glyph glyph-name="u" unicode="u" horiz-adv-x="860" 
d="M299.5 -35q-8.5 0 -47.5 8.5t-78 30.5q-55 35 -60 61q-12 62 -12 118t30 150q30 93 35 118.5t19 68.5t27.5 91t39 127.5t58.5 136.5t57 69t44 12q58 0 73 -32q4 -10 13.5 -22.5t9.5 -35.5t-41 -52t-59 -97t-41 -138.5t-70 -215.5t-47 -208v-13q0 -13 9 -23t26 -10
q17 1 41 23t40.5 38t26.5 28.5t18.5 23.5t20.5 26q222 241 305 459q8 20 13.5 26.5t21.5 16.5t26.5 12t23 2t25.5 -8t39 -17t25 -36q0 -26 -12 -56q-118 -252 -149 -463q-13 -107 -13 -149q0 -41 18.5 -73t18.5 -64t-11 -38q-11 -7 -34 -7t-55 19q-38 22 -64 31.5t-26 141.5
l6 139q0 12 -8 13q-10 0 -46 -43q-106 -127 -212 -181q-16 -8 -24.5 -8z" />
    <glyph glyph-name="v" unicode="v" horiz-adv-x="774" 
d="M469 916q0 -48 -7 -77.5t-16.5 -53t-20.5 -48t-29 -105.5t-45 -205t-43 -202t-17 -87q0 -9 23 -9t46 27q124 147 215 372q12 31 15.5 48.5t17.5 49.5t13 83t-17 67q-36 34 -35 59q0 54 64 54q41 0 65 -10.5t46 -48.5q38 -63 92 -62q55 0 134.5 34t129.5 34t96 -29
q27 -15 27 -45q0 -7 -29 -24q-29 -16 -69 -30t-75.5 -24t-64.5 -17.5t-54 -17.5t-40 -10l-88 12q-34 0 -69.5 -149.5t-223.5 -384.5q-60 -76 -76 -89.5t-40 -39.5t-62 -27q-37 0 -54.5 15.5t-53.5 39.5t-58.5 46t-22.5 77q1 55 11 100q13 55 17 79.5t58 238.5q54 213 74 365
q4 25 23.5 35t25.5 10l47 -4q70 1 70 -47z" />
    <glyph glyph-name="w" unicode="w" horiz-adv-x="1105" 
d="M506.5 979.5q19.5 -13.5 19.5 -30.5t-13 -38q-13 -20 -20 -38.5t-39 -96.5t-79 -227.5t-77 -238.5t-30 -96t4 -7q19 1 96 93q198 236 291 458q12 28 23 28l78 -4q23 0 43 -19.5t20 -50t-45 -104.5t-50.5 -98.5t-27.5 -70.5t-42.5 -131t-20.5 -171q0 -20 12.5 -29.5
t20.5 -9.5t32.5 11.5t61.5 58.5q67 85 100 216t33 185l10 76q0 43 -20.5 88t-20.5 79t20 48t60 14q41 0 46 -2t11.5 -8t16.5 -16t36 -26t56.5 -22.5t96 -6.5t130 12t111.5 12t63.5 -7t16.5 -49t-88 -63t-145.5 -38t-109.5 -17q-51 0 -77.5 8t-38.5 8q-18 0 -18 -20v-111
q0 -110 -66.5 -266t-175.5 -264q-35 -35 -96 -35t-168 57q-18 10 -38 35t-20 60l7 80q0 16 -7 16t-31 -25t-44.5 -51t-55 -63t-92.5 -37q-25 0 -37 9.5t-43 21.5t-48 24t-26.5 27.5t-9.5 51.5t9 54q27 108 90 282.5t90.5 264.5t40.5 180q2 10 20 27.5t68 17.5l57 -2
q10 0 29.5 -13.5z" />
    <glyph glyph-name="x" unicode="x" horiz-adv-x="684" 
d="M326 -123q0 35 5 56.5t13 38t8 22.5t-5 48q-5 40 -8 87t-8 83t-6 41t-5.5 5t-16.5 -17q-16 -23 -67.5 -79.5t-61.5 -87.5t-39 -53q-29 -21 -49 -21q-29 0 -62.5 34t-33.5 50t2 20.5t46 55.5t117.5 131t113.5 126t42 52.5t2 24.5q0 213 -37 289q-22 43 -26 42.5t-12 11.5
t-9 36q0 24 29.5 34.5t63.5 10.5t58 -24q43 -45 57 -91t23 -112q9 -67 12 -73t8 -6t13.5 7.5t52.5 43.5t124 94.5t124 92.5t52 36.5t38 2.5q30 -1 46 -21t28.5 -34.5t12.5 -31.5t-86 -58t-361 -285q-38 -33 -39.5 -49t-1.5 -82t12.5 -168.5t12.5 -186.5t-12 -168
q-4 -22 -45 -22l-26 2q-26 2 -32 7.5t-21 15.5t-30.5 22t-15.5 47z" />
    <glyph glyph-name="y" unicode="y" horiz-adv-x="892" 
d="M694 -18q37 0 37 -28t-12 -46q-176 -236 -248 -578q-6 -31 -18 -118t-109 -101q-12 -2 -24.5 -5t-27.5 -3q-35 0 -58 14t-23 68q0 55 39 147q91 214 180 361q14 95 87 310.5t73 232.5q0 18 -31 -13q-50 -50 -131 -106t-98 -56q-127 0 -195 82q-12 15 -12 85t21.5 162.5
t54 180.5t68.5 177.5t67 189.5q10 31 35.5 45t36.5 14l36 -5q37 -5 55.5 -17.5t18.5 -36.5t-4 -41.5t-16.5 -40t-20.5 -34t-13 -17.5t-9 -10t-21 -39t-35 -85t-33.5 -98.5t-30 -99.5t-27.5 -91t-16 -55.5t-10.5 -45t-7.5 -57.5t11 -27q77 0 206 147q12 14 32.5 32.5
t44.5 48.5t102.5 108.5t158.5 295.5q4 12 21.5 37t33.5 25t27 -7t59 -7t48 -74q0 -35 -30 -79t-81 -124q-50 -79 -82 -174q-32 -96 -93.5 -255t-61.5 -187q0 -4 8 -4z" />
    <glyph glyph-name="z" unicode="z" horiz-adv-x="786" 
d="M690 818q0 16 -29 16t-45 -8.5t-68 -13.5q-108 -10 -183 -101q-4 -4 -16.5 -4t-41 25t-29.5 79q-2 55 39 66q76 18 161.5 42.5t155.5 24.5t123.5 -16.5t64.5 -29.5t37 -31t26 -57q0 -38 -9.5 -55.5t-28 -35t-46 -37.5t-51.5 -40t-23.5 -26t32.5 -6q119 0 144 -39t25 -47
q-11 -30 -43 -30q-51 0 -164 -17t-170 -35t-70.5 -25t-36.5 -28q-32 -29 -92 -97t-93 -99q-34 -31 -34 -64q0 -16 32 -32q31 -15 59 -15t63 12t69 12q47 0 120.5 40t122.5 40t81 -28q31 -28 25 -45t-39 -30t-163.5 -65.5t-255.5 -52.5t-216 53q-62 39 -62 127q0 39 14 68
t70 89q55 60 64.5 72.5t9.5 18.5t-3 9.5t-22 9.5t-36.5 14t-35.5 42t-18 51t16.5 29.5t44.5 12.5t60.5 -14.5t83.5 -14.5t89 21.5t70 51.5t61.5 61.5t67.5 52.5t65.5 52t27.5 47z" />
    <glyph glyph-name="braceleft" unicode="{" horiz-adv-x="708" 
d="M1063 1501q-158 0 -208 -93t-185 -544q-33 -104 -75 -165.5t-120 -73.5q-6 0 -6 -4.5t6 -4.5q57 -33 57 -106.5t-20 -134.5l-139 -447q-17 -49 -17 -85t20.5 -63.5t86.5 -27.5h82q23 0 34 -19t11 -39t-5 -34t-12.5 -22.5t-14.5 -12t-12 -19.5t-67 -16q-150 0 -232.5 54.5
t-82.5 152.5q0 57 20 127l133 422q37 114 37 141q0 55 -82 56q-57 0 -67 6t-10 26q0 4 -9.5 5.5t-9.5 19.5t12 52t28.5 43.5t51.5 9.5h25q88 0 129 44.5t88 184.5l121 362q68 207 154 284t223 77h41q47 0 78.5 -5t31.5 -24q0 -10 7.5 -14t7.5 -24t-14 -46q-14 -27 -26 -35
t-47 -8h-24z" />
    <glyph glyph-name="bar" unicode="|" horiz-adv-x="552" 
d="M837.5 1599.5q16.5 -10.5 16.5 -41.5t-10 -49q-25 -37 -40.5 -48t-25.5 -31q-80 -186 -174.5 -473.5t-236 -734t-181 -537.5t-59.5 -91q-42 0 -69 18q-26 18 -42 23t-16 29q0 70 25.5 116t35.5 75l535 1601q35 109 64.5 152t77.5 43t65.5 -20.5t34 -31z" />
    <glyph glyph-name="braceright" unicode="}" horiz-adv-x="708" 
d="M391 1499q-47 -1 -47 53q0 26 11.5 42t20.5 40t130 23h49q74 0 147.5 -51t73.5 -150q0 -75 -20 -133l-142 -422q-34 -104 -34 -141q0 -55 82 -55h38q62 0 62 -29q0 -51 -13.5 -71.5t-21.5 -37t-26.5 -20.5t-53.5 -4q-72 0 -124.5 -44.5t-98.5 -185.5l-121 -362
q-72 -218 -143.5 -289.5t-243.5 -71.5h-31q-76 0 -103.5 7t-27.5 39t13.5 47.5t21.5 37.5q7 29 64 29h30q118 0 148 21.5t42.5 48t24.5 65.5l164 496q35 102 78 165.5t121 80.5q6 0 6 4t-6 4q-59 27 -59 97t22 138l143 453q25 73 25 114q0 40 -31 51t-86 11h-84z" />
    <glyph glyph-name="asciitilde" unicode="~" horiz-adv-x="1126" 
d="M208 599q-3 3 -3 25t20 38q166 106 220.5 116t100.5 10t86 -30.5t74.5 -67.5t69.5 -67.5t79 -30.5t80 18.5t63.5 40t46.5 40t37 18.5t38.5 -15.5t21.5 -29.5t10 -16.5t9 -21.5q1 -19 -25 -42q-59 -53 -137.5 -103.5t-126.5 -50.5q-82 0 -125.5 21.5t-90.5 67.5
q-80 78 -98.5 90t-50.5 12q-33 0 -58 -14.5t-62 -42.5t-51 -35t-56 -7t-44 31q-5 31 -15 37t-13 9z" />
    <glyph glyph-name="nonbreakingspace" unicode="&#xa0;" horiz-adv-x="503" 
 />
    <glyph glyph-name="exclamdown" unicode="&#xa1;" horiz-adv-x="655" 
d="M470 938q26 0 62 -36t37 -62q0 -26 -10 -54t-11 -37.5t-2 -16.5t-2.5 -16t-23.5 -76t-46.5 -148.5t-40 -137t-23 -88.5t-10.5 -56.5t-7 -40.5t-16 -52t-31 -87t-24 -72q-4 -21 -16 -23.5t-30 -2.5q-23 0 -40 16t-42 28q-24 11 -28 30t-4 65t16 90t22.5 50t15 12t20.5 62
q13 55 33 120.5t41.5 134t48.5 152.5t47 157t29 81t35 8zM489 1229q-1 22 11 44q12 21 18 37.5t28 16.5t34 -3t23 -6t24.5 -7t30.5 -6t30.5 -15.5t13.5 -29.5t-2 -20l-20 -58q-25 -68 -64 -68l-59 -4q-68 0 -68 119z" />
    <glyph glyph-name="cent" unicode="&#xa2;" horiz-adv-x="888" 
d="M838 1074q0 -9 -12 -22.5t-36 -63.5t-24 -59t33 -24t54 -36q22 -20 50.5 -51.5t28.5 -71.5t-20 -114t-21.5 -91t-9.5 -34.5t-35 -17.5q-48 0 -84.5 28t-36.5 42q0 33 11.5 63.5t22.5 72.5t11 73t-16.5 37t-23.5 6t-11 -12l-57 -173q-58 -172 -108 -336.5t-50 -171.5
t13 -7q46 0 114 45q14 10 27.5 26.5t63.5 50.5t89 33q39 0 65 -20t25 -29q0 -28 -39 -55q-213 -146 -276.5 -159t-81.5 -16t-27.5 -5t-12.5 -10t-8 -23t-11.5 -32t-12.5 -33t-13 -34q-22 -55 -57 -55q-16 0 -27 11.5t-41 28.5t-30 34q0 26 15.5 48t35.5 83q0 8 -20 16
q-80 35 -130 111t-50 147q0 125 37 211q121 280 270 383q92 69 130 74.5t57 5.5t26 17q27 82 46 112.5t50 30.5l49 -4q12 0 35 -10.5t23 -19.5zM351 131q7 0 9 3.5t8 19.5t11 30.5t23 71.5t47.5 146.5t55 167t47 141t34.5 104.5q0 10 -16.5 10t-103.5 -115.5t-111 -183.5
q-23 -67 -33.5 -91.5t-21.5 -60t-11 -96.5t14 -95t27.5 -43t20.5 -9z" />
    <glyph glyph-name="sterling" unicode="&#xa3;" horiz-adv-x="1003" 
d="M866 612q0 -34 -19 -34t-34.5 -6.5t-56.5 -8.5t-149 -25q-109 -22 -118 -28t-29 -54q-140 -348 -133 -352t18 -4t46 6.5t106.5 19.5t191 41.5t127.5 36.5q7 7 30.5 11t34.5 4h55q27 0 39 -5t35 -30q10 -12 13 -18t18 -21t19.5 -23t4.5 -24q0 -48 -55 -47l-68 2
q-25 0 -317 -61.5t-419 -61.5h-81q-46 0 -59 13.5t-17 28t-7 31.5t-12 31q-10 14 -10 23q-2 40 25 43.5t31 3.5l71 -6q16 0 17 8q-8 12 -8 30t11.5 55t61.5 158.5t51 129.5t-31 11t-48.5 13.5t-16.5 42.5t-8 44t-8 32t12.5 22.5t41.5 2.5t116 10q26 5 35 23l24 55
q232 524 374.5 564t184.5 40t76.5 -7t64.5 -44t57.5 -65.5t27.5 -58.5t-10.5 -61.5t-21.5 -65t-21.5 -63.5t-10.5 -44t-16.5 -33.5t-36.5 -19.5t-33.5 6t-39.5 11t-39 15.5t-13 40.5q0 34 23.5 78t24.5 67q1 22 10.5 38t9.5 50t-23 34q-74 0 -174.5 -102.5t-183.5 -280.5
l-52 -111q-8 -17 -8 -25t13 -8l77 17q72 16 101 16t40.5 -5.5t33.5 -27.5t28 -33t6 -45z" />
    <glyph glyph-name="currency" unicode="&#xa4;" horiz-adv-x="1323" 
d="M510 490q0 -18 6 -19q6 0 14.5 2t33 10.5t74.5 24.5t207 66t205 51q48 0 76 -25t36.5 -39.5t8.5 -32.5t-5 -28.5t-52 -26.5t-69 -16q-56 0 -177.5 -31t-234.5 -72q-113 -40 -119 -44.5t-6 -11.5q0 -86 76 -141t164 -55q136 0 253 78q20 14 60.5 54t70 44.5t54.5 4.5
t88 -35q22 -13 22 -37t-2 -31.5t-12 -17.5t-35 -27t-95 -67t-174 -79.5t-204 -29.5q-174 0 -280.5 69.5t-141.5 192.5q-6 25 -17 25t-58.5 -17.5t-72.5 -17.5t-59 7t-34 71t24 71q73 25 100 25t57 10t35 18.5t10 44.5t5 48t-7 12q-10 0 -59 -17.5t-82 -17.5q-34 0 -57 20
q-24 20 -24 45q0 26 10 54.5t50.5 50t81.5 21.5t81 14q41 14 50.5 23t27.5 43t42.5 81.5t76 124t99.5 124.5t59 64.5t43 45t328 97.5t429 69q51 0 91 -36.5t40 -60.5t-13.5 -44.5t-39.5 -20.5l-99 -10l-57 6q-38 0 -209.5 -37t-261.5 -63q-90 -27 -97 -31t-17 -15t-20 -22.5
t-62 -63.5t-84.5 -106.5t-32.5 -61.5q0 -8 6 -8t41 11.5t88 28t116.5 37t171 48t140.5 27.5q34 0 48.5 -6t40.5 -37t26 -50q0 -28 -39 -57q-39 -28 -88 -28l-41 2q-104 0 -257.5 -52t-243.5 -82t-97 -35t-19 -45t-12 -58z" />
    <glyph glyph-name="yen" unicode="&#xa5;" horiz-adv-x="970" 
d="M604 1206l-16 -422q0 -64 11 -65t41 29t62.5 63t67.5 67.5t74 75.5t112.5 121.5t90.5 140.5q16 60 16 79q0 20 49 20l57 -8q14 0 19.5 -8.5t23.5 -8.5q25 0 25 -59t-58.5 -138t-114.5 -135t-128 -129t-163 -164.5t-111 -105.5q-21 -14 -21 -29q0 -8 14 -8l170 21
q64 0 72 -36t-18 -77q-6 -10 -9.5 -22.5t-13.5 -12.5l-61 4l-207 -14q-23 0 -25 -12q-24 -64 -24 -73t12 -9l209 18q71 0 71 -41q0 -22 -12 -61t-24 -39l-80 8q-130 -18 -174 -18q-43 0 -47.5 -4t-11.5 -24q-14 -39 -30 -104t-16 -69l4 -23q0 -16 -16 -41.5t-21 -68.5
q-2 -16 -23.5 -27.5t-42.5 -11.5t-28 7t-23 7t-38.5 15.5t-22.5 19.5t5.5 21.5t15 52t17.5 52.5q7 17 11.5 32.5t9.5 34l10 37t14 40.5t9 31q0 10 -10 10l-49 -2l-61 -2q-53 0 -67 7t-34 35.5t-20 50.5t5 25t9 17t23 13q18 0 64 -6.5t101.5 -6.5t70 3.5t18.5 14.5
q18 50 18 61t-14 12l-72 -2q-104 0 -119 6q-33 14 -33 106q0 10 5.5 11t13 14.5t25.5 13.5t35.5 -3t55 -8t81.5 -5t52.5 7t8.5 29v58l-2 143v47l6 254l-8 107v55l-2 41q0 23 12 38t29 15l65 9q70 0 70 -52z" />
    <glyph glyph-name="brokenbar" unicode="&#xa6;" horiz-adv-x="598" 
d="M668 1497q26 0 38 -7t36 -13t42.5 -19.5t18.5 -29.5t-2 -27.5t-4 -21t-4 -16.5t-2 -17t-36 -54q-37 -46 -63 -118t-45.5 -125.5t-54 -147.5t-42.5 -120q-17 -57 -24 -71t-37 -14t-41 23q-17 37 -40 51t-23 29t66 194l104 305q16 43 31.5 86t46.5 97q9 16 35 16zM132 -410
q-18 0 -26 3.5t-11 8.5t-6 11t-31 22t-29 43q0 26 18 74t19.5 66t9.5 41l145 436q26 78 46 96.5t37 18.5q27 0 46 -8.5t42 -11.5q22 -3 35 -18.5t13 -37.5t-8 -60t-35 -72t-47 -89l-190 -496q-10 -27 -28 -27z" />
    <glyph glyph-name="section" unicode="&#xa7;" horiz-adv-x="831" 
d="M18 -23q48 0 48 -34q0 -18 7 -31.5t7 -33.5q0 -48 26.5 -94t81.5 -46q39 0 70 38t38 73.5t7 57.5q1 95 -43 216q-44 120 -63 187t-19 129q0 179 46 255t112 126t104 62t43.5 14t5.5 10t-6 35t-6 96q0 142 133 266q78 73 184 73t138 -30q20 -16 42.5 -64.5t22.5 -100.5
t-22 -57q-25 -4 -41 -19t-42 -15t-32 14q-12 33 -12 52t-7 43q-16 54 -62 54q-47 0 -91.5 -42.5t-44.5 -131.5q-1 -98 95 -309q62 -138 63 -290q0 -152 -51.5 -218t-60.5 -74l-87 -76q-40 -35 -123 -53q-16 -4 -19 -8t-3 -12l6 -86q0 -103 -29 -151q-53 -88 -141 -156
q-52 -39 -124 -39q-124 0 -191.5 67.5t-67.5 182.5q0 61 25 72t46 29.5t37 18.5zM546 250.5q85 41.5 85 185.5q0 82 -82 299q-6 17 -20 17q-31 0 -107 -55.5t-76 -172.5q0 -90 72 -303q4 -12 23 -12q20 0 105 41.5z" />
    <glyph glyph-name="dieresis" unicode="&#xa8;" 
d="M651 1710q67 0 86 -32t19 -55t-7.5 -39.5t-15.5 -29t-16 -21.5t-8 -16q0 -11 -27.5 -22.5t-41.5 -11.5h-28q-24 0 -34.5 20.5t-17.5 27.5t-7 53q1 46 19 79q18 34 36.5 40.5t42.5 6.5zM1135 1495q0 -21 -17 -57t-39 -45q-21 -9 -58 -9q-36 0 -48 27t-28.5 44.5
t-16.5 35.5q0 34 18 73.5t45 39.5l41 -2q27 0 51.5 -9.5t28.5 -25.5t13.5 -33.5t9.5 -38.5z" />
    <glyph glyph-name="copyright" unicode="&#xa9;" horiz-adv-x="1630" 
d="M242 561q0 143 51 288.5t146.5 261.5t229.5 188.5t294 72.5t259.5 -27t182.5 -110q20 -20 138 -122.5t118 -354.5q0 -299 -131 -465t-244 -236q-159 -98 -360 -98q-202 0 -304.5 42t-172.5 101.5t-138.5 157t-68.5 301.5zM996 1235q-128 0 -244.5 -64.5t-196.5 -169
t-122 -235.5t-42 -256q0 -225 136.5 -325.5t309.5 -100.5t294.5 63.5t203.5 163t122 223t40 244.5t-36 207t-99.5 141.5t-150.5 82t-215 26.5zM1202 528q53 0 53 -34q0 -4 5.5 -8.5t5.5 -17.5t-16 -21t-68 -72t-121.5 -123t-157.5 -59q-215 0 -307 139q-43 65 -43 176
q0 192 162 410q94 127 186.5 161.5t144.5 34.5t104 -12t132 -88q18 -18 18 -55t-15 -71t-15 -71q0 -8 -16 -16t-54 -8t-71 12t-33 29q0 43 17 70.5t17 55.5t-19 31.5t-51 3.5q-64 0 -139 -85.5t-109 -153.5q-95 -190 -95 -336q0 -41 25.5 -79t79.5 -38t95 21.5t97 91.5
t84 91t57 21h47z" />
    <glyph glyph-name="ordfeminine" unicode="&#xaa;" horiz-adv-x="905" 
d="M907 557q-43 -16 -77 -16q-35 0 -54 30q-29 51 -31 97.5t-6 93.5q0 12 -14 12q-20 -16 -135.5 -114.5t-169.5 -98.5q-72 0 -134.5 55t-62.5 109q0 86 45.5 167t96.5 150q86 116 224.5 197.5t212.5 81.5t111 -26.5t61 -50.5t47 -26t40 -16t16.5 -30.5t-7.5 -30
t-17.5 -19.5t-16.5 -17t-22 -32q-40 -55 -83.5 -156t-43.5 -186t45 -137q0 -37 -25 -37zM164 322q-72 0 -83 48q-5 22 -8 26.5t-7.5 14.5t-4.5 35t12.5 32t71.5 7l56 -10q54 0 70 -5t36 -5l371 8l116 2q117 2 113.5 -13.5t12.5 -28.5t16 -31q0 -70 -25.5 -74t-72.5 -4
l-226 2l-161 -2l-238 -2h-49zM881 1171q0 23 -38 23t-93 -23q-47 -12 -112 -63t-125 -118.5t-102 -142.5t-42 -132q0 -31 50 -1.5t117 76t164.5 135t112.5 132.5q5 17 36.5 57t31.5 57z" />
    <glyph glyph-name="guillemotleft" unicode="&#xab;" horiz-adv-x="839" 
d="M473.5 968.5q11.5 4.5 36.5 4.5q25 -1 31 -19t11.5 -22t19.5 -28t14 -36t-2 -18t-10.5 -16.5t-26 -24.5t-53.5 -42t-58 -52.5t-42 -39.5t-19 -29q0 -14 34 -87q34 -74 49 -93t15 -57q0 -87 -82 -87q-20 0 -39 45q-2 6 -17.5 28.5t-35.5 52t-43 61t-35 50.5t-12 53l-4 37
q0 26 22 56l158 172q77 87 88.5 91.5zM829.5 973q12.5 0 28.5 -7.5t30 -39.5t24 -37t10 -21t-20 -36t-35 -28.5t-38 -31.5l-110 -104q-14 -14 -14 -26t4 -22q6 -13 48.5 -89.5t47.5 -87.5q6 -11 6 -40t-9 -37t-13.5 -13t-20.5 -18t-32 -13q-15 0 -21 9t-11.5 17t-15.5 23
l-141 194q-19 29 -19 51t3.5 27.5t10.5 26.5t17 35l162 182q67 82 81.5 84t27 2z" />
    <glyph glyph-name="logicalnot" unicode="&#xac;" horiz-adv-x="1208" 
d="M1130 675q0 -5 -4 -25t-21 -82q-16 -62 -31 -121.5t-21 -76.5t-7.5 -31.5t-10.5 -46.5t-17 -41t-25 -9h-41l-39 -4q-41 0 -41 21t38 132t38 141q0 29 -12 33t-53 4l-394 9q-31 0 -51.5 -6.5t-62.5 -6.5h-74q-29 0 -29 13l-6 34q0 27 37 101q10 15 80 16.5t147 1.5h183
l274 -6l76 6q18 0 42.5 -25.5t24.5 -30.5z" />
    <glyph glyph-name="registered" unicode="&#xae;" horiz-adv-x="1347" 
d="M826 283q-178 0 -290 72t-164.5 134.5t-66.5 149t-14 106.5q0 104 38 224.5t111.5 222.5t180 170t242.5 68t216 -20.5t140 -86.5q29 -31 75.5 -67t84.5 -98t54.5 -113.5t16.5 -111.5t-13.5 -127t-44 -137.5t-79.5 -139t-123 -124t-172 -89t-192 -33.5zM897 1307
q-94 0 -184 -53.5t-149.5 -136.5t-90.5 -184.5t-31 -185.5q0 -154 96 -250t246 -96q202 0 328 113q102 92 146.5 210t44.5 232q0 188 -115.5 269.5t-290.5 81.5zM584 551q0 4 1 9t11 82t54 209t54.5 157.5t16.5 39.5t5.5 17t-18.5 21t-18 32t1 15t33 23t96.5 45.5
t126.5 23.5t112 -20t67 -56q42 -149 -84 -275q-53 -53 -168 -77q70 -142 103 -158.5t48 -22.5t17 -10q12 -22 12 -50t-16 -39t-69 -11t-96 52q-71 87 -111 206q-14 -20 -17.5 -39.5t-18.5 -66t-15 -123.5q0 -21 -35 -21t-49 9t-28.5 12.5t-14.5 15.5zM1001 1074q0 40 -6 51
q-6 10 -24 10t-26.5 -3.5t-25.5 -7.5t-26 -18q-48 -88 -64 -135t-28 -84q103 0 151.5 73.5t48.5 113.5z" />
    <glyph glyph-name="macron" unicode="&#xaf;" 
d="M590 1612l278 -8l267 6q16 0 17 -9.5t10 -18.5t9 -15l-4 -23q0 -80 -45 -80l-75 2l-138 -2l-184 -2q-140 0 -160 8q-45 16 -45 113q0 29 70 29z" />
    <glyph glyph-name="macron" unicode="&#x2c9;" 
d="M590 1612l278 -8l267 6q16 0 17 -9.5t10 -18.5t9 -15l-4 -23q0 -80 -45 -80l-75 2l-138 -2l-184 -2q-140 0 -160 8q-45 16 -45 113q0 29 70 29z" />
    <glyph glyph-name="degree" unicode="&#xb0;" horiz-adv-x="786" 
d="M657 723q-67 0 -113 20t-85 52t-56 61q-47 84 -47 149.5t36 128t70 110.5t60.5 68.5t54 37t55 26.5t95 10t129.5 -46q63 -47 92 -101.5t29 -93.5q0 -40 -10.5 -81.5t-34 -91.5t-60.5 -103.5t-93 -99.5q-55 -46 -122 -46zM762 1288q-34 0 -64 -26q-194 -182 -194 -328
q0 -89 38 -102t61 -13t46 31q149 192 167 241.5t18 70.5t-16 73.5t-56 52.5z" />
    <glyph glyph-name="plusminus" unicode="&#xb1;" horiz-adv-x="1208" 
d="M852 1149q63 0 66 -33q0 -4 -3.5 -12t-5.5 -14l-22 -72q-18 -59 -30.5 -100t-31.5 -93q1 -10 11 -9t21 1h22l225 23q47 0 76 -29q8 -8 8 -28t-9.5 -39t-17.5 -39.5t-20 -20.5l-31 4q-30 0 -60 -4q-58 -8 -167 -15t-113 -18q-43 -150 -54 -234q-11 -83 -21.5 -102.5
t-55.5 -19.5l-33 -6q-35 0 -48 11t-13 17q0 49 14 101.5t31 136.5l14 74q0 12 -10 12h-78q-63 0 -120.5 8t-65.5 13q-37 14 -37 116q0 12 17 26q16 14 30 15h14q13 0 24 -4t62 -8t58 -4h112q45 0 50 15t13.5 44t17.5 57.5t17.5 54t21.5 82.5t36 66q37 10 54.5 18.5t31.5 8.5
zM958 78l-465 -17q-87 0 -179.5 7.5t-106.5 7.5q-24 0 -35.5 48t-11.5 80t69 32q25 0 105 -8.5t219 -8.5l430 17q28 0 57 -29q7 -18 7 -45q1 -27 -11 -58q-12 -30 -22 -30z" />
    <glyph glyph-name="twosuperior" unicode="&#xb2;" horiz-adv-x="745" 
d="M741 1191q0 30 -16 30q-70 0 -158 -117q-10 -12 -20.5 -22.5t-18.5 -26.5t-17 -21.5t-23.5 -7.5t-22.5 -4t-30 -2q-21 0 -45 24t-24 54q0 31 14.5 50t37.5 51t97 75q73 43 111 50t81 7q70 0 127 -50t57 -83q0 -186 -195 -391l-148 -149q-149 -148 -149 -164q0 -11 11 -11
h84q90 0 117.5 13.5t37 28t19.5 34.5t16 33.5t20 27.5t40 13q28 0 46.5 -4.5t34.5 -22.5t16.5 -46.5t-21 -85t-29.5 -64.5q-23 -29 -81 -38.5t-164 -9.5t-182.5 5t-108.5 31q-58 46 -58 98q0 24 60 87t131 133t109 111t81 90.5t79.5 100.5t60 97t23.5 76z" />
    <glyph glyph-name="threesuperior" unicode="&#xb3;" horiz-adv-x="745" 
d="M445 489q29 -24 47 -24t32 8q98 69 130 167.5t32 117.5t-12 38t-26 19t-28 -6q-16 -6 -27 -8t-27 -10t-52 -29t-66 -21t-48.5 6.5t-30 27t-11.5 34.5t10 23t26 18.5t33 19.5t24.5 18.5t11.5 12.5q100 68 167.5 166.5t67.5 122.5q0 4 -5 4t-18 -7q-116 -62 -116 -96
q0 -18 -13.5 -22.5t-24.5 -18.5t-49 -14t-49 12t-23.5 33t-12.5 29q0 43 31 66.5t51 43.5t38.5 22.5t30.5 8.5t31 18.5t62 31t91 18.5t75 -21q7 -4 25 -10q36 -12 48 -43q16 -31 8 -50t-13 -31t-8 -20.5t-39 -72.5t-118 -149q138 -28 138 -174q0 -79 -54 -185
q-42 -95 -107 -157t-154 -62q-129 0 -255 140q-51 56 -51 83q0 35 47 35l60 4q27 0 42 -17t32.5 -32.5t17.5 -29.5t29 -38z" />
    <glyph glyph-name="acute" unicode="&#xb4;" 
d="M1010 1704q23 0 42 -19t19 -57t-17 -58t-141 -59l-241 -75q-23 -6 -47 -6t-39 21q-14 21 -24 31t-9 22q0 12 8 24t23 12q14 0 57 16l182 70q54 18 99 40t55 30t33 8z" />
    <glyph glyph-name="mu" unicode="&#xb5;" 
d="M289 246q0 4 -3 4q-9 0 -103.5 -204t-125 -266.5t-63 -129t-54.5 -111.5q-58 -121 -83 -121l-64 4q-14 0 -25.5 15.5t-29.5 18.5t-17 35q0 48 18.5 78.5t82.5 98.5q14 16 30.5 46t92.5 168q199 361 481 978q27 62 43 62q25 0 32 9t22 9q65 0 77 -19t12 -51t-17 -52.5
t-27 -49.5t-39 -78t-43 -107t-24.5 -99.5t-22 -99t-11.5 -166.5t25 -109q19 0 36 15t39.5 40.5t46 56.5t46.5 59.5t51 64.5q67 85 102.5 148t70.5 160t49 111t42 14t42.5 -10t27.5 -10q36 0 36 -26q0 -37 -14 -70q-118 -252 -149 -463q-13 -107 -13 -139q0 -31 5.5 -40.5
t16.5 -31.5t11 -86q0 -31 -63 -31q-23 0 -36.5 10t-35.5 10q-39 0 -39 175l4 92q0 18 -7 18t-23 -21t-51.5 -74.5t-95.5 -92.5t-84 -39q-60 0 -109.5 28.5t-59.5 55.5t-10 79v134z" />
    <glyph glyph-name="mu" unicode="&#x3bc;" 
d="M289 246q0 4 -3 4q-9 0 -103.5 -204t-125 -266.5t-63 -129t-54.5 -111.5q-58 -121 -83 -121l-64 4q-14 0 -25.5 15.5t-29.5 18.5t-17 35q0 48 18.5 78.5t82.5 98.5q14 16 30.5 46t92.5 168q199 361 481 978q27 62 43 62q25 0 32 9t22 9q65 0 77 -19t12 -51t-17 -52.5
t-27 -49.5t-39 -78t-43 -107t-24.5 -99.5t-22 -99t-11.5 -166.5t25 -109q19 0 36 15t39.5 40.5t46 56.5t46.5 59.5t51 64.5q67 85 102.5 148t70.5 160t49 111t42 14t42.5 -10t27.5 -10q36 0 36 -26q0 -37 -14 -70q-118 -252 -149 -463q-13 -107 -13 -139q0 -31 5.5 -40.5
t16.5 -31.5t11 -86q0 -31 -63 -31q-23 0 -36.5 10t-35.5 10q-39 0 -39 175l4 92q0 18 -7 18t-23 -21t-51.5 -74.5t-95.5 -92.5t-84 -39q-60 0 -109.5 28.5t-59.5 55.5t-10 79v134z" />
    <glyph glyph-name="paragraph" unicode="&#xb6;" horiz-adv-x="1114" 
d="M967 0h-103v1206h-106v-1206h-103v723q-141 0 -228 77t-87 212t87 211.5t228 76.5h430v-94h-118v-1206z" />
    <glyph glyph-name="periodcentered" unicode="&#xb7;" horiz-adv-x="704" 
d="M484 725q50 0 79 -37t29 -72q0 -36 -12 -78t-42 -84t-93 -42t-98.5 21.5t-43.5 47.5t-8 99q0 74 22 96t69.5 35.5t97.5 13.5z" />
    <glyph glyph-name="periodcentered" unicode="&#x2219;" horiz-adv-x="704" 
d="M484 725q50 0 79 -37t29 -72q0 -36 -12 -78t-42 -84t-93 -42t-98.5 21.5t-43.5 47.5t-8 99q0 74 22 96t69.5 35.5t97.5 13.5z" />
    <glyph glyph-name="cedilla" unicode="&#xb8;" horiz-adv-x="692" 
d="M192 -236q60 0 111 108q21 44 21 64q0 19 -11 35l-55 86h111l67 -106q21 -26 21 -76t-42 -110q-78 -111 -179 -111q-52 0 -112 22t-92 53t-32 51t20 40t27 20l23 -6q10 0 23 -9t15 -21t24 -26t60 -14z" />
    <glyph glyph-name="onesuperior" unicode="&#xb9;" horiz-adv-x="745" 
d="M707 438q0 -82 -48 -82l-38 -4q-49 0 -82 29q-21 21 0 84q4 29 13 46t46 151t72 286q0 4 -3 4t-16 -14q-201 -251 -249 -288.5t-54 -48.5t-31 -11q-24 0 -36.5 3t-20.5 11t-18 13t-24 21t-14 27t37 47q36 36 71 59q36 24 109 102q72 78 175 200q103 123 129.5 164
t50.5 82q8 12 30 12q44 0 83 -20t39 -51q0 -6 -4 -19q-70 -174 -113 -357.5t-69 -284.5q-36 -140 -35 -161z" />
    <glyph glyph-name="ordmasculine" unicode="&#xba;" horiz-adv-x="835" 
d="M895.5 859q-56.5 -119 -123.5 -199q-67 -79 -121.5 -94t-114.5 -15t-109.5 17.5t-88.5 70.5q-68 92 -68 170t32 153.5t83 164.5t133 152.5t187 63.5q46 0 51 -3l24 -20q21 -17 39 -17t42 -18.5t57.5 -69t33.5 -143.5q0 -94 -56.5 -213zM532 328l-208 -13q-64 0 -84.5 1
t-74 3.5t-69.5 15.5t-20 29q-6 25 -10.5 31.5t-4.5 36.5t12.5 37.5t71.5 7.5l117 -14h92l342 10q129 0 129 -4l-8 -27q0 -10 19.5 -21t19.5 -32t-16 -41t-34 -22t-65 -2zM748 1206q0 14 -6.5 18.5t-27.5 4.5q-57 0 -100 -62q-188 -260 -188 -387q0 -57 27.5 -93t62.5 -36
q62 0 112 80q163 261 163 350q0 57 -29 90q-14 21 -14 35z" />
    <glyph glyph-name="guillemotright" unicode="&#xbb;" horiz-adv-x="839" 
d="M572 324q-20 0 -34 16t-14 26t-6 13t-6 15t8 20l193 209q14 14 14 28q0 15 -14 35t-19 36q-9 25 -15.5 34t-20.5 34q-13 25 -29.5 45.5t-16.5 36.5t19.5 28.5t41.5 41.5t49 29t38.5 -5.5t52.5 -88.5l78 -160q8 -15 8 -61t-45 -91l-205 -205q-25 -25 -41 -30.5t-36 -5.5z
M399 654q0 13 -8 30l-53 98q-17 34 -31 58t-14 31q0 10 31 54t58.5 45t31.5 6t19 5t26 -23l98 -235q12 -31 12 -75t-45 -83l-248 -221q-25 -25 -35.5 -25t-30.5 16t-20 50q0 35 19 57l174 181q16 18 16 31z" />
    <glyph glyph-name="onequarter" unicode="&#xbc;" horiz-adv-x="1945" 
d="M667 952q-3 0 -16 -14q-140 -175 -205 -240t-78 -75q-13 -9 -20 -21q-7 -11 -40 -12q-33 0 -44 11q-12 11 -21 15t-24 21t-15 28t37 47q36 36 71 59q36 24 109 102q72 78 175 200q104 123 130 164t50 82q8 12 30 12q76 0 110 -42q17 -20 8 -48q-70 -174 -113 -357
q-43 -182 -69 -284t-30 -124q-5 -22 -5 -50q0 -67 -48 -70l-38 -4q-49 0 -82 29q-17 17 -9 47t10 48q3 18 13 37t51 173q42 154 66 262q0 4 -3 4zM1636 1301q0 -42 -3 -51t-18 -14t-35 -29q-20 -25 -37 -33t-32 -27q-153 -202 -279 -408q-126 -205 -205 -336t-153 -245
t-119 -167q-44 -52 -55 -52q-44 0 -64 14q-19 14 -28 23q-8 9 -8 55t22 54t49 47q27 40 56 83l625 963q22 36 63 86q41 49 58 66q79 84 140 33q23 -20 23 -62zM1479 188q0 4 -35 4q-181 3 -224 55q-28 31 -41 60q-14 28 -14 46t17 36q86 96 191 217t235 232q26 20 32 31
q20 34 47 34q68 0 95 -36q12 -15 12 -37t-12 -47t-12 -49t-8 -49l-14 -50t-27 -87t-36 -125t-16 -73t5 -10t32 6t71 6t70 -24q25 -24 25 -62q0 -28 -37 -28t-72 -6t-63 -9q-28 -4 -49 -10q-23 -53 -28 -129t-19 -116q-4 -11 -33 -11t-70 24t-44 35q-3 12 -3 26t7 53
q7 38 8 45q1 8 5 26t5 22zM1331 326q1 -17 43 -17h62q61 0 66 5t13 46t39 148q31 106 31 110t-2 5q-6 0 -101 -113t-145 -172q-6 -10 -6 -12z" />
    <glyph glyph-name="onehalf" unicode="&#xbd;" horiz-adv-x="1945" 
d="M667 952q-3 0 -16 -14q-140 -175 -205 -240t-78 -75q-13 -9 -20 -21q-7 -11 -40 -12q-33 0 -44 11q-12 11 -21 15t-24 21t-15 28t37 47q36 36 71 59q36 24 109 102q72 78 175 200q104 123 130 164t50 82q8 12 30 12q76 0 110 -42q17 -20 8 -48q-70 -174 -113 -357
q-43 -182 -69 -284t-30 -124q-5 -22 -5 -50q0 -67 -48 -70l-38 -4q-49 0 -82 29q-17 17 -9 47t10 48q3 18 13 37t51 173q42 154 66 262q0 4 -3 4zM1612 1301q0 -42 -3 -51t-18 -14t-35 -29q-20 -25 -37 -33t-32 -27q-146 -193 -276 -403t-267 -437t-197 -297
q-61 -71 -71 -71q-59 0 -92 37q-8 9 -9 55t23 55q24 8 49 47q26 39 55 82l625 963q22 36 63 86q41 49 58 66q78 84 140 32q24 -19 24 -61zM1700 802q0 30 -17 29q-70 0 -157 -116q-10 -13 -22 -23t-18 -26t-16 -22t-24 -7q-14 -2 -22 -4t-30 -2q-22 -1 -46 23t-23 55
q0 31 14 50t37 51t97 75q73 43 111 50t81 7q100 0 168 -94q16 -23 16 -39q0 -187 -194 -391l-85 -85q-212 -212 -212 -229q0 -10 41 -10h53q95 0 120 14t36 28q11 15 26 48q14 32 29 46t41 14t44 -5t36 -23q16 -18 16 -38q0 -63 -39 -136q-8 -17 -12 -22q-23 -30 -81 -38
q-128 -19 -346 -4q-114 7 -154 81q-13 25 -13 48t36 61q36 39 86 89l96 96q45 45 83 85q244 264 244 364z" />
    <glyph glyph-name="threequarters" unicode="&#xbe;" horiz-adv-x="1945" 
d="M674 700q12 39 12 56t-16 47q-8 12 -22 12t-28 -6q-16 -6 -30 -8t-75 -38q-61 -35 -116 -15q-18 6 -35 36t2 46q18 16 48 33t38 25t11 13q100 68 152 145q83 123 83 144q0 4 -12 4t-69 -42q-58 -42 -58 -60q0 -19 -13 -23q-13 -5 -24 -19t-50 -14q-38 0 -49 12t-23 32
q-12 22 -13 30q0 43 31 67t51 43t42 23t55 25q33 22 80 36q47 15 85 15q38 -1 55 -13q18 -12 36 -18q37 -12 48 -43q16 -32 8 -50q-13 -30 -27 -67q-13 -36 -66 -104q-54 -69 -85 -102q138 -28 138 -174q0 -79 -54 -185q-95 -216 -270 -219q-115 0 -230 124q-54 58 -60 72
q-7 15 -7 29q0 33 47 33l60 4q27 0 42 -17t32 -33t18 -28q1 -13 28 -38q28 -25 47 -25t33 8q95 68 150 227zM1632 1301q0 -42 -3 -51t-18 -14t-35 -29q-20 -25 -37 -33t-32 -27q-153 -202 -279 -408q-126 -205 -205 -336t-153 -245t-119 -167q-44 -52 -55 -52q-46 0 -64 14
q-19 14 -28 23q-8 9 -8 55t22 54t49 48q27 39 56 82l625 963q45 72 122 154t139 31q23 -20 23 -62zM1479 188q0 4 -35 4q-181 3 -224 55q-28 31 -41 60q-14 28 -14 46t17 36q86 96 191 217t235 232q26 20 32 31q20 34 47 34q68 0 95 -36q12 -15 12 -37t-12 -47t-12 -49
t-8 -49l-14 -50t-27 -87t-36 -125t-16 -73t5 -10t32 6t71 6t70 -24q25 -24 25 -62q0 -28 -37 -28t-72 -6t-63 -9q-28 -4 -49 -10q-23 -53 -28 -129t-19 -116q-4 -11 -33 -11t-70 24t-44 35q-3 12 -3 26t7 53q7 38 8 45q1 8 5 26t5 22zM1331 326q1 -17 43 -17h62q61 0 66 5
t13 46t39 148q31 106 31 110t-2 5q-6 0 -101 -113t-145 -172q-6 -10 -6 -12z" />
    <glyph glyph-name="questiondown" unicode="&#xbf;" horiz-adv-x="737" 
d="M561 241q27 -29 27 -72q0 -81 -60 -135t-159 -54q-147 0 -207 64.5t-60 106.5t5.5 68.5t35.5 71t172 190.5t169.5 179t27.5 60q0 28 -27.5 40t-69.5 12t-71 -20t-45 -19q-51 0 -61 27q-4 12 -11.5 22.5t-7.5 20.5t10.5 29.5t26.5 31.5t59 25.5t119 13.5t133 -32
q58 -32 82.5 -62.5t24.5 -68.5t-5 -62.5t-38.5 -71.5t-151.5 -164q-164 -162 -191.5 -202t-27.5 -62q0 -31 30 -53.5t62 -22.5q31 0 61.5 18.5t30.5 61.5l-4 45q0 43 47 43t74 -29zM745 1217q0 -51 -19 -71q-49 -50 -98 -50t-65 21t-31.5 36t-15.5 37t13 63q22 68 75 68
q24 0 82.5 -40t58.5 -64z" />
    <glyph glyph-name="Agrave" unicode="&#xc0;" 
d="M379 427q0 -9 20 -9t96 24q77 24 117 40t78 27q37 11 44 15q8 4 10 8t18 118t28 296q13 182 3 182q-11 0 -21 -16q-221 -352 -369 -633q-24 -43 -24 -52zM937 602l105 8q94 0 127 -39q19 -22 3 -51q-28 -51 -146 -51q-58 0 -81 -15q-23 -14 -26 -20t-6 -26l-10 -205
l-2 -64v-65q1 -114 15 -154t20 -54q6 -12 6 -23t-14 -22t-26 -21t-30 -9q-63 0 -98 37q-16 16 -27 90q-12 74 -12 170l8 274q0 8 -12 9q-143 -53 -264 -87t-141 -37t-27 -8t-27 -51t-20 -114t3 -85t3 -27t-15 -19t-33 -25t-32 -16t-38 14q-42 24 -54 53t-12 92t13 119
q13 54 13 60t-24 18t-38 24q-15 12 -15 40t13 65t20 43t26 6t47 -23t44 -7q5 4 39 70t143 254q108 189 208 343q99 154 153 236t61 89t19 7t65 16q54 16 90 7q37 -9 40 -17q4 -16 10 -18t7 -15l-31 -194q0 -29 -8 -78q-16 -98 -29 -276q-14 -178 -14 -203t11 -25zM1143 1430
q-36 0 -64 18l-209 135q-37 26 -135 68q-24 9 -24 53q-1 44 23 69q24 24 48 23l29 -6q10 0 43 -26q34 -26 70 -52l209 -143q53 -37 53 -49t-7 -30t-8 -26q0 -34 -28 -34z" />
    <glyph glyph-name="Aacute" unicode="&#xc1;" 
d="M379 427q0 -9 20 -9t96 24q77 24 117 40t78 27q37 11 44 15q8 4 10 8t18 118t28 296q13 182 3 182q-11 0 -21 -16q-221 -352 -369 -633q-24 -43 -24 -52zM937 602l105 8q94 0 127 -39q19 -22 3 -51q-28 -51 -146 -51q-58 0 -81 -15q-23 -14 -26 -20t-6 -26l-10 -205
l-2 -64v-65q1 -114 15 -154t20 -54q6 -12 6 -23t-14 -22t-26 -21t-30 -9q-63 0 -98 37q-16 16 -27 90q-12 74 -12 170l8 274q0 8 -12 9q-143 -53 -264 -87t-141 -37t-27 -8t-27 -51t-20 -114t3 -85t3 -27t-15 -19t-33 -25t-32 -16t-38 14q-42 24 -54 53t-12 92t13 119
q13 54 13 60t-24 18t-38 24q-15 12 -15 40t13 65t20 43t26 6t47 -23t44 -7q5 4 39 70t143 254q108 189 208 343q99 154 153 236t61 89t19 7t65 16q54 16 90 7q37 -9 40 -17q4 -16 10 -18t7 -15l-31 -194q0 -29 -8 -78q-16 -98 -29 -276q-14 -178 -14 -203t11 -25zM627 1579
q0 39 37 39q8 0 51 16l182 70q115 38 158 72q7 6 29 6t42 -20t19 -57q0 -37 -17 -57t-141 -59l-242 -76q-23 -6 -46 -6q-23 -1 -39 21q-15 22 -24 31t-9 20z" />
    <glyph glyph-name="Acircumflex" unicode="&#xc2;" 
d="M379 427q0 -9 20 -9t96 24q77 24 117 40t78 27q37 11 44 15q8 4 10 8t18 118t28 296q13 182 3 182q-11 0 -21 -16q-221 -352 -369 -633q-24 -43 -24 -52zM937 602l105 8q94 0 127 -39q19 -22 3 -51q-28 -51 -146 -51q-58 0 -81 -15q-23 -14 -26 -20t-6 -26l-10 -205
l-2 -64v-65q1 -114 15 -154t20 -54q6 -12 6 -23t-14 -22t-26 -21t-30 -9q-63 0 -98 37q-16 16 -27 90q-12 74 -12 170l8 274q0 8 -12 9q-143 -53 -264 -87t-141 -37t-27 -8t-27 -51t-20 -114t3 -85t3 -27t-15 -19t-33 -25t-32 -16t-38 14q-42 24 -54 53t-12 92t13 119
q13 54 13 60t-24 18t-38 24q-15 12 -15 40t13 65t20 43t26 6t47 -23t44 -7q5 4 39 70t143 254q108 189 208 343q99 154 153 236t61 89t19 7t65 16q54 16 90 7q37 -9 40 -17q4 -16 10 -18t7 -15l-31 -194q0 -29 -8 -78q-16 -98 -29 -276q-14 -178 -14 -203t11 -25zM1225 1459
q-1 -15 -11 -21t-19 -18q-15 -20 -33 -21q-19 0 -40 28l-129 177q-8 12 -17 12t-84 -32t-107 -50q-32 -17 -39 -24t-20 -7q-14 0 -24 10t-20 15q-10 4 -10 44t5 50t9 13t13 14t108 45l182 63q18 6 38 6t26 -12t11 -12t15 -17l123 -211q23 -37 23 -52z" />
    <glyph glyph-name="Atilde" unicode="&#xc3;" 
d="M379 427q0 -9 20 -9t96 24q77 24 117 40t78 27q37 11 44 15q8 4 10 8t18 118t28 296q13 182 3 182q-11 0 -21 -16q-221 -352 -369 -633q-24 -43 -24 -52zM937 602l105 8q94 0 127 -39q19 -22 3 -51q-28 -51 -146 -51q-58 0 -81 -15q-23 -14 -26 -20t-6 -26l-10 -205
l-2 -64v-65q1 -114 15 -154t20 -54q6 -12 6 -23t-14 -22t-26 -21t-30 -9q-63 0 -98 37q-16 16 -27 90q-12 74 -12 170l8 274q0 8 -12 9q-143 -53 -264 -87t-141 -37t-27 -8t-27 -51t-20 -114t3 -85t3 -27t-15 -19t-33 -25t-32 -16t-38 14q-42 24 -54 53t-12 92t13 119
q13 54 13 60t-24 18t-38 24q-15 12 -15 40t13 65t20 43t26 6t47 -23t44 -7q5 4 39 70t143 254q108 189 208 343q99 154 153 236t61 89t19 7t65 16q54 16 90 7q37 -9 40 -17q4 -16 10 -18t7 -15l-31 -194q0 -29 -8 -78q-16 -98 -29 -276q-14 -178 -14 -203t11 -25zM752 1577
q-70 0 -70 31l-16 75q0 22 18 29l129 47q50 19 86 19q35 0 55 -23t50 -65t42 -56q13 -14 41 -14l164 49q19 0 29 -12q10 -11 12 -25t5 -21t3 -21t-20 -25q-20 -13 -44 -29q-95 -62 -152 -61q-101 0 -158 98q-25 41 -35 47t-30 6t-89 -43q-12 -6 -20 -6z" />
    <glyph glyph-name="Adieresis" unicode="&#xc4;" 
d="M379 427q0 -9 20 -9t96 24q77 24 117 40t78 27q37 11 44 15q8 4 10 8t18 118t28 296q13 182 3 182q-11 0 -21 -16q-221 -352 -369 -633q-24 -43 -24 -52zM937 602l105 8q94 0 127 -39q19 -22 3 -51q-28 -51 -146 -51q-58 0 -81 -15q-23 -14 -26 -20t-6 -26l-10 -205
l-2 -64v-65q1 -114 15 -154t20 -54q6 -12 6 -23t-14 -22t-26 -21t-30 -9q-63 0 -98 37q-16 16 -27 90q-12 74 -12 170l8 274q0 8 -12 9q-143 -53 -264 -87t-141 -37t-27 -8t-27 -51t-20 -114t3 -85t3 -27t-15 -19t-33 -25t-32 -16t-38 14q-42 24 -54 53t-12 92t13 119
q13 54 13 60t-24 18t-38 24q-15 12 -15 40t13 65t20 43t26 6t47 -23t44 -7q5 4 39 70t143 254q108 189 208 343q99 154 153 236t61 89t19 7t65 16q54 16 90 7q37 -9 40 -17q4 -16 10 -18t7 -15l-31 -194q0 -29 -8 -78q-16 -98 -29 -276q-14 -178 -14 -203t11 -25zM817 1632
q0 -24 -9 -46t-24 -38q-14 -16 -14 -26t-28 -20q-28 -11 -42 -11h-26q-26 0 -39 29q-5 12 -13 19t-8 48t27 99q16 32 78 32t80 -31t18 -55zM1257 1534v-21q0 -19 -20 -49t-37 -39q-17 -8 -54 -8q-38 0 -50 27t-29 44q-16 18 -16 36t6 44t23 47t34 21l41 -2q27 0 51 -10
t29 -25q4 -16 13 -33q9 -18 9 -32z" />
    <glyph glyph-name="Aring" unicode="&#xc5;" 
d="M1135 1626q0 -90 -54 -170q-41 -59 -118 -59q-139 0 -187 85q-16 30 -16 70t42 114t84 90q73 26 126 12q54 -15 84 -45q30 -31 34 -53t5 -44zM1017 1614q0 30 -15 54t-32 24q-18 0 -34 -23q-48 -68 -49 -110q0 -42 14 -62q13 -20 33 -20t29 12q18 33 36 63q18 32 18 62z
M786 975q0 94 -6 94t-31 -40q-24 -40 -135 -203t-173 -277t-62 -122q0 -9 20 -9t96 24q77 24 117 40t78 27q37 11 44 15q8 4 10 8t22 176q20 173 20 267zM937 602l105 8q94 0 127 -39q19 -22 3 -51q-28 -51 -146 -51q-58 0 -81 -15q-23 -14 -26 -20t-6 -26l-10 -205l-2 -64
v-65q1 -114 15 -154t20 -54q6 -12 6 -23t-14 -22t-26 -21t-30 -9q-63 0 -98 37q-16 16 -27 90q-12 74 -12 170l8 274q0 8 -12 9q-143 -53 -264 -87t-141 -37t-27 -8t-27 -51t-20 -114t3 -85t3 -27t-15 -19t-33 -25t-32 -16t-38 14q-42 24 -54 53t-12 92t13 119q13 54 13 60
t-24 18t-38 24q-15 12 -15 40t13 65t20 43t26 6t47 -23t44 -7q5 4 62 112t227 376t220 352t57 92t19 8t48 11t76 11t67 -4q28 -4 32 -14t11 -16t7 -17l-28 -187v-28q0 -10 -6 -51q-7 -41 -23 -210t-16 -227q0 -12 11 -12z" />
    <glyph glyph-name="AE" unicode="&#xc6;" horiz-adv-x="1507" 
d="M1163 1357l-18 -79q0 -10 17 -10t42 6l72 16q171 39 330 39l63 -8q42 0 113 -100q8 -13 8 -33t-16 -33q-16 -12 -24 -15t-26 -3t-33.5 11t-35.5 11l-66 8q-141 0 -252 -29.5t-173 -45.5t-68 -22.5t-12 -39.5q-10 -49 -34.5 -161.5t-31.5 -159.5q4 -10 10 -10.5t26 7.5
q38 17 142.5 34.5t167.5 17.5t89 -20q54 -44 54 -101q0 -14 -13 -22.5t-32 -8.5l-49 -6l-55 6q-86 0 -165 -29.5t-97.5 -35.5t-32.5 -12.5t-38 -14.5t-30 -13t-12 -33q-16 -76 -34.5 -215t-18.5 -174q0 -36 11 -51.5t22 -15.5q94 0 162.5 36t113.5 54t99.5 60t108.5 60
t68 18q13 0 43 -14t53 -25t23 -27t-1 -22q-1 -7 -43 -38t-146.5 -88t-229 -105t-321.5 -48q-84 0 -131 68q-19 30 -19 80q1 106 19 252t18 154q0 9 -8 9t-62 -20t-161 -43t-160 -35t-58 -17t-19 -33q-38 -80 -62.5 -162.5t-24.5 -108.5q0 -27 -11 -30t-17 -21t-11.5 -23.5
t-51.5 -5.5t-59 13t-27.5 29.5t-14.5 70.5t78 224q10 25 10 31t-23 6q-59 0 -59 29q0 71 18 105q18 35 25.5 39.5t32.5 4.5l75 -2q25 0 32.5 6.5t55.5 78.5t142 192.5t186 229t172 201.5t114 136t39 48t12 5t22.5 4.5t36 8.5l41 8t37.5 4q56 0 69 -18q14 -19 14 -34z
M940 1151q0 6 -4.5 6t-73.5 -89q-70 -89 -185.5 -226t-207.5 -285q-16 -26 -16 -32q0 -7 6 -7t99 24t174 54t87 37.5t23 99.5t57 252q41 160 41 166z" />
    <glyph glyph-name="Ccedilla" unicode="&#xc7;" horiz-adv-x="966" 
d="M438 -59q19 -19 19 -67t-42 -109q-78 -111 -179 -111q-48 0 -110 22t-94 53t-32 51t20 40t27 20l23 -6q10 0 23 -9t15 -21t24 -26t60 -14q60 0 111 108q21 44 21 67q0 22 -13 32l-88 58q-72 47 -87 113q-9 40 -9 93q0 166 35 261q232 633 631 858q17 12 76 19t89 7
t61.5 -10t41.5 -23t28.5 -31t45 -45.5t26.5 -58.5v-22q0 -22 -14 -53t-26.5 -62t-26 -63t-18.5 -52q-11 -42 -64 -42q-61 0 -94 27t-33 49q0 36 33.5 85t36.5 68q3 18 14.5 32.5t11.5 38.5t-18 25q-97 0 -188.5 -91.5t-199.5 -240.5t-167.5 -287t-85.5 -216t-29.5 -105
t-3.5 -57q0 -79 24 -103q23 -18 45 -40.5t40 -22.5q20 0 99 22.5t205.5 139.5t144 128t34.5 11h39q44 0 69 -39q15 -21 15 -28t-1.5 -9t-8.5 -9t-22.5 -21.5t-53.5 -52.5q-130 -128 -228.5 -198.5t-226.5 -70.5q-18 0 -21.5 -1t-3.5 -11z" />
    <glyph glyph-name="Egrave" unicode="&#xc8;" horiz-adv-x="1040" 
d="M262 674v13q0 16 14 21t38 12t29 11t52 109t64 170q0 10 -9 10t-31 -8q-23 -8 -45 -8q-65 0 -87 86q-4 14 -4 24t12 14q98 25 245 80t213 75q268 77 468 77q72 0 138 -58q32 -28 32 -62t-31 -34l-51 -12q-13 0 -29 10t-45 10q-231 0 -516 -96q-20 -8 -25 -24
q-28 -76 -56 -145t-56 -144q0 -8 8 -8q70 25 146 53t155 27q78 0 153 -41q27 -17 27 -66q0 -25 -76 -38q-16 -3 -22 -3l-68 6q-83 1 -155 -25t-114 -41t-68 -23t-47 -14q-22 -7 -27 -22q-25 -57 -53 -118q-103 -224 -103 -336q0 -26 17 -48t40 -22q72 0 139 30q68 30 102 42
q34 14 66 28t73 39q40 25 80 49q93 55 171 56q16 0 20 -5t14 -13q50 -34 50 -55q0 -22 -18 -26q-18 -5 -44 -29q-28 -24 -144 -85q-300 -158 -570 -158q-45 1 -95 31q-49 30 -64 54t-15 95q0 146 86 360q23 56 43 111q-27 27 -27 64zM553 1638q-25 9 -25 54q0 44 24 68
t48 24l29 -6q7 0 26 -16q20 -16 86 -62l209 -144q53 -37 54 -51l-15 -53q0 -34 -28 -35q-36 0 -64 19l-209 135q-43 30 -135 67z" />
    <glyph glyph-name="Eacute" unicode="&#xc9;" horiz-adv-x="1040" 
d="M262 674v13q0 16 14 21t38 12t29 11t52 109t64 170q0 10 -9 10t-31 -8q-23 -8 -45 -8q-65 0 -87 86q-4 14 -4 24t12 14q98 25 245 80t213 75q268 77 468 77q72 0 138 -58q32 -28 32 -62t-31 -34l-51 -12q-13 0 -29 10t-45 10q-231 0 -516 -96q-20 -8 -25 -24
q-28 -76 -56 -145t-56 -144q0 -8 8 -8q70 25 146 53t155 27q78 0 153 -41q27 -17 27 -66q0 -25 -76 -38q-16 -3 -22 -3l-68 6q-83 1 -155 -25t-114 -41t-68 -23t-47 -14q-22 -7 -27 -22q-25 -57 -53 -118q-103 -224 -103 -336q0 -26 17 -48t40 -22q72 0 139 30q68 30 102 42
q34 14 66 28t73 39q40 25 80 49q93 55 171 56q16 0 20 -5t14 -13q50 -34 50 -55q0 -22 -18 -26q-18 -5 -44 -29q-28 -24 -144 -85q-300 -158 -570 -158q-45 1 -95 31q-49 30 -64 54t-15 95q0 146 86 360q23 56 43 111q-27 27 -27 64zM994 1682q21 22 49 22t48 -26
q21 -26 21 -59t-23 -53t-108 -73l-215 -133q-58 -36 -98 4q-10 10 -14 11q-20 5 -21 22v14q0 20 26 31q5 2 15 7t33 21l159 113q37 27 72 53q35 24 56 46z" />
    <glyph glyph-name="Ecircumflex" unicode="&#xca;" horiz-adv-x="1040" 
d="M262 674v13q0 16 14 21t38 12t29 11t52 109t64 170q0 10 -9 10t-31 -8q-23 -8 -45 -8q-65 0 -87 86q-4 14 -4 24t12 14q98 25 245 80t213 75q268 77 468 77q72 0 138 -58q32 -28 32 -62t-31 -34l-51 -12q-13 0 -29 10t-45 10q-231 0 -516 -96q-20 -8 -25 -24
q-28 -76 -56 -145t-56 -144q0 -8 8 -8q70 25 146 53t155 27q78 0 153 -41q27 -17 27 -66q0 -25 -76 -38q-16 -3 -22 -3l-68 6q-83 1 -155 -25t-114 -41t-68 -23t-47 -14q-22 -7 -27 -22q-25 -57 -53 -118q-103 -224 -103 -336q0 -26 17 -48t40 -22q72 0 139 30q68 30 102 42
q34 14 66 28t73 39q40 25 80 49q93 55 171 56q16 0 20 -5t14 -13q50 -34 50 -55q0 -22 -18 -26q-18 -5 -44 -29q-28 -24 -144 -85q-300 -158 -570 -158q-45 1 -95 31q-49 30 -64 54t-15 95q0 146 86 360q23 56 43 111q-27 27 -27 64zM1100 1505q0 -14 -7 -22q-7 -7 -15 -21
t-13 -17t-21 -3t-34 18l-113 119q-8 10 -17 10q-29 0 -193 -135q-17 -14 -23 -20l-15 -15q-15 -16 -33 -16t-21 6t-12 8q-9 1 -23 17t-13 45q0 29 5 41t9 15t11 14t41 34q35 22 69 45l182 117q23 14 43 14q21 0 25 -4t9 -6t13 -14l123 -183q23 -33 23 -47z" />
    <glyph glyph-name="Edieresis" unicode="&#xcb;" horiz-adv-x="1040" 
d="M262 674v13q0 16 14 21t38 12t29 11t52 109t64 170q0 10 -9 10t-31 -8q-23 -8 -45 -8q-65 0 -87 86q-4 14 -4 24t12 14q98 25 245 80t213 75q268 77 468 77q72 0 138 -58q32 -28 32 -62t-31 -34l-51 -12q-13 0 -29 10t-45 10q-231 0 -516 -96q-20 -8 -25 -24
q-28 -76 -56 -145t-56 -144q0 -8 8 -8q70 25 146 53t155 27q78 0 153 -41q27 -17 27 -66q0 -25 -76 -38q-16 -3 -22 -3l-68 6q-83 1 -155 -25t-114 -41t-68 -23t-47 -14q-22 -7 -27 -22q-25 -57 -53 -118q-103 -224 -103 -336q0 -26 17 -48t40 -22q72 0 139 30q68 30 102 42
q34 14 66 28t73 39q40 25 80 49q93 55 171 56q16 0 20 -5t14 -13q50 -34 50 -55q0 -22 -18 -26q-18 -5 -44 -29q-28 -24 -144 -85q-300 -158 -570 -158q-45 1 -95 31q-49 30 -64 54t-15 95q0 146 86 360q23 56 43 111q-27 27 -27 64zM1144 1618q10 -18 9 -34q0 -16 -4 -34
q-31 -62 -51 -72t-57 -10q-38 0 -50 27t-28 44q-34 36 0 105q20 42 47 44l41 -2q71 0 79 -37q4 -13 14 -31zM637 1706q67 0 85 -31q19 -31 19 -69t-39 -77q-8 -9 -8 -17t-22 -20q-22 -13 -42 -13h-32q-23 0 -34 20q-11 19 -18 27t-7 52t18 79q19 37 37 43t43 6z" />
    <glyph glyph-name="Igrave" unicode="&#xcc;" horiz-adv-x="520" 
d="M203 -92q-11 0 -15 10t-20 10t-34 16t-30 15q-10 -1 -10 25t16 78t26 67q9 16 47 166q39 150 130 410t112 328t45 111t52 138q6 25 60 25q53 -1 84 -13q55 -23 55 -48q0 -73 -31 -107q-12 -14 -28 -30t-67 -147q-50 -130 -126 -360t-118 -358q-42 -127 -42 -135l4 -31
q0 -52 -39 -125q-6 -8 -24 -8t-27 -21q-10 -16 -20 -16zM410 1589q-25 9 -25 55q0 45 24 68t48 23l28 -6q6 -1 42 -27t71 -51l209 -144q53 -37 53 -51l-14 -53q0 -34 -24 -34q-40 -1 -68 17l-209 136q-29 20 -135 67z" />
    <glyph glyph-name="Iacute" unicode="&#xcd;" horiz-adv-x="520" 
d="M203 -92q-11 0 -15 10t-20 10t-34 16t-30 15q-10 -1 -10 25t16 78t26 67q9 16 47 166q39 150 130 410t112 328t45 111t52 138q6 25 60 25q53 -1 84 -13q55 -23 55 -48q0 -73 -31 -107q-12 -14 -28 -30t-67 -147q-50 -130 -126 -360t-118 -358q-42 -127 -42 -135l4 -31
q0 -52 -39 -125q-6 -8 -24 -8t-27 -21q-10 -16 -20 -16zM1010 1694q23 0 42 -20t19 -56q0 -37 -17 -58q-17 -20 -141 -59l-241 -76q-24 -6 -48 -6q-24 -1 -38 21t-24 31t-9 23q0 36 37 36q8 0 51 16l182 70q119 40 154 70q10 8 33 8z" />
    <glyph glyph-name="Icircumflex" unicode="&#xce;" horiz-adv-x="520" 
d="M203 -92q-11 0 -15 10t-20 10t-34 16t-30 15q-10 -1 -10 25t16 78t26 67q9 16 47 166q39 150 130 410t112 328t45 111t52 138q6 25 60 25q53 -1 84 -13q55 -23 55 -48q0 -73 -31 -107q-12 -14 -28 -30t-67 -147q-50 -130 -126 -360t-118 -358q-42 -127 -42 -135l4 -31
q0 -52 -39 -125q-6 -8 -24 -8t-27 -21q-10 -16 -20 -16zM1114 1425q0 -16 -10 -22q-10 -7 -20 -19q-16 -20 -35 -20q-20 0 -37 29l-129 176q-8 12 -17 12q-9 -1 -84 -33q-76 -32 -109 -49t-38 -24q-6 -7 -19 -7q-14 0 -24 10t-20 16q-10 4 -11 48q0 44 9 54q9 8 18 18
t108 45l183 63q52 17 65 -8q4 -10 9 -10t16 -16l123 -211q22 -36 22 -52z" />
    <glyph glyph-name="Idieresis" unicode="&#xcf;" horiz-adv-x="520" 
d="M203 -92q-11 0 -15 10t-20 10t-34 16t-30 15q-10 -1 -10 25t16 78t26 67q9 16 47 166q39 150 130 410t112 328t45 111t52 138q6 25 60 25q53 -1 84 -13q55 -23 55 -48q0 -73 -31 -107q-12 -14 -28 -30t-67 -147q-50 -130 -126 -360t-118 -358q-42 -127 -42 -135l4 -31
q0 -52 -39 -125q-6 -8 -24 -8t-27 -21q-10 -16 -20 -16zM651 1704q67 0 86 -32t19 -66q0 -35 -39 -79q-8 -9 -8 -17t-23 -20q-23 -13 -42 -13h-32q-23 0 -34 20q-11 19 -18 27t-7 54q1 46 19 79q18 35 36 41t43 6zM1023 1378q-38 0 -50 27t-29 44q-16 17 -16 35t7 46
q7 27 23 47q17 20 33 20l41 -2q72 0 80 -36q4 -13 13 -31q20 -39 -2 -85q-22 -45 -42 -55t-58 -10z" />
    <glyph glyph-name="Eth" unicode="&#xd0;" horiz-adv-x="1150" 
d="M378 899q-46 -1 -46 53q0 68 21 96.5t94 79.5q250 172 462 172q130 0 184 -37.5t95.5 -64.5t71.5 -66t40.5 -71.5t10.5 -116.5t-56 -186q-12 -23 -15.5 -39.5t-39.5 -88.5q-117 -239 -253 -420t-341 -257q-67 -25 -219 18q-2 -14 -17.5 -16t-39.5 -2t-59 23.5t-52 52.5
q-14 6 -43 18t-80 44t-51 83q0 35 41 35l76 -6q18 0 30.5 -11.5t23.5 -11.5t13 6q26 118 93 322q0 8 -21 8t-39 -6t-46 -6t-28 24q0 87 52 129q16 14 39.5 18.5t89.5 14.5q16 2 22 17q23 57 44 115.5t44 113.5q0 10 -7 10q-11 0 -43 -23.5t-51 -23.5zM470 80q106 0 192 86
q286 286 378.5 541.5t92.5 275.5t-2.5 33.5t-7.5 43.5t-15 46q-51 72 -137 72q-59 0 -115.5 -24t-101.5 -34q8 -8 8 -18t-4 -16.5t-9.5 -12.5t-12 -12.5t-28.5 -54.5t-60 -129.5t-73 -165.5q32 0 83.5 11t74.5 11q22 0 27 -6q18 -29 18 -53t-8 -44t-17.5 -30t-14.5 -22
t-23.5 -15.5t-38.5 -7.5l-152 -12q-16 0 -24 -21q-78 -209 -111 -418q0 -10 3.5 -17t77.5 -7z" />
    <glyph glyph-name="Ntilde" unicode="&#xd1;" horiz-adv-x="1224" 
d="M1392 1261q7 -11 7 -33q-1 -22 -17 -50q-16 -27 -20 -44t-28 -85t-127 -397q-104 -329 -210 -591q-15 -38 -47 -72q-33 -34 -69 -34q-36 -1 -88 25q-51 26 -70 52q-44 64 -71 222q-28 158 -44 268t-30 206q-14 97 -24 137t-12 45t-10 5q-8 -1 -20 -43t-43 -140
q-172 -541 -172 -750q0 -16 -22 -26q-23 -10 -51 -11q-28 0 -39 2t-18 5t-12 8t-25 14t-19 29q0 21 15 85t40 150t52 181q28 95 53 178q26 83 43 142t22 74l18 70q29 106 57 225q29 118 36 122t19 8q12 3 13 16q0 13 -15 37q-15 23 -15 53t3 35t32 17t108 13q18 0 29 -29
q75 -229 114 -592q15 -146 35 -296t44 -240t32 -90q6 0 8 5t12 26q84 180 143 369t93 305t54 163t23 123q3 75 15 117t18 48q6 7 29 7l84 -12q29 0 67 -52zM1161 1523q1 -13 -19 -25t-53 -34q-33 -21 -79 -39t-72 -18q-78 0 -129 66q-15 20 -36 52t-45 34t-95 -43
q-14 -7 -30 -7q-16 -1 -38 7t-22 24l-17 76q0 20 19 29l129 47q48 18 84 18q37 0 57 -22t49 -65q29 -42 42 -56t42 -15l164 50q18 0 28 -12t13 -26q2 -12 5 -20t3 -21z" />
    <glyph glyph-name="Ograve" unicode="&#xd2;" horiz-adv-x="1003" 
d="M1063 872v-30q0 -45 -21 -117q-45 -184 -107 -352t-164 -295t-276 -127q-175 0 -249 117q-35 53 -50 104t-16 129q0 211 67 382t183 342t238 245q37 22 53 22t41 -11t49 -18q25 -7 39 -11t31 -5q17 0 37 -16q145 -130 145 -359zM478 88q44 0 84 22t63 54q137 211 208 469
q43 156 45 228q3 73 3 106q-1 33 -25 78t-63 57q-13 4 -13 20t-19 16t-99 -82q-80 -83 -161 -217t-135 -319q-9 -31 -10 -76l-10 -141q0 -127 70 -197q18 -18 62 -18zM588 1585q-4 16 -4 46q0 29 24 53t47 24l29 -6q10 0 43 -26q34 -26 70 -52l209 -143q53 -37 53 -49
t-7 -30t-8 -26q0 -34 -28 -35q-34 0 -64 19l-209 135q-37 26 -135 68q-16 6 -20 22z" />
    <glyph glyph-name="Oacute" unicode="&#xd3;" horiz-adv-x="1003" 
d="M1063 872v-30q0 -45 -21 -117q-45 -184 -107 -352t-164 -295t-276 -127q-175 0 -249 117q-35 53 -50 104t-16 129q0 211 67 382t183 342t238 245q37 22 53 22t41 -11t49 -18q25 -7 39 -11t31 -5q17 0 37 -16q145 -130 145 -359zM478 88q44 0 84 22t63 54q137 211 208 469
q43 156 45 228q3 73 3 106q-1 33 -25 78t-63 57q-13 4 -13 20t-19 16t-99 -82q-80 -83 -161 -217t-135 -319q-9 -31 -10 -76l-10 -141q0 -127 70 -197q18 -18 62 -18zM1010 1673q23 0 42 -19t19 -56t-16 -57t-142 -60l-241 -76q-24 -6 -48 -6q-24 -1 -38 21t-24 30t-9 22
q0 37 37 37q8 0 51 17l182 69q54 18 99 40t55 30t33 8z" />
    <glyph glyph-name="Ocircumflex" unicode="&#xd4;" horiz-adv-x="1003" 
d="M1063 872v-30q0 -45 -21 -117q-45 -184 -107 -352t-164 -295t-276 -127q-175 0 -249 117q-35 53 -50 104t-16 129q0 211 67 382t183 342t238 245q37 22 53 22t41 -11t49 -18q25 -7 39 -11t31 -5q17 0 37 -16q145 -130 145 -359zM478 88q44 0 84 22t63 54q137 211 208 469
q43 156 45 228q3 73 3 106q-1 33 -25 78t-63 57q-13 4 -13 20t-19 16t-99 -82q-80 -83 -161 -217t-135 -319q-9 -31 -10 -76l-10 -141q0 -127 70 -197q18 -18 62 -18zM1114 1384q0 -16 -10 -22t-20 -18q-17 -21 -35 -21q-19 0 -37 29l-129 176q-8 12 -17 12t-84 -32
q-76 -32 -108 -50q-32 -17 -39 -24q-6 -6 -19 -6q-14 0 -24 10t-20 14t-11 50q0 44 9 52t18 19q9 10 108 45l183 63q52 17 65 -8q4 -10 9 -10t16 -16l123 -211q22 -36 22 -52z" />
    <glyph glyph-name="Otilde" unicode="&#xd5;" horiz-adv-x="1003" 
d="M1063 872v-30q0 -45 -21 -117q-45 -184 -107 -352t-164 -295t-276 -127q-175 0 -249 117q-35 53 -50 104t-16 129q0 211 67 382t183 342t238 245q37 22 53 22t41 -11t49 -18q25 -7 39 -11t31 -5q17 0 37 -16q145 -130 145 -359zM478 88q44 0 84 22t63 54q137 211 208 469
q43 156 45 228q3 73 3 106q-1 33 -25 78t-63 57q-13 4 -13 20t-19 16t-99 -82q-80 -83 -161 -217t-135 -319q-9 -31 -10 -76l-10 -141q0 -127 70 -197q18 -18 62 -18zM612 1464q-69 0 -69 31l-17 76q0 21 19 28l129 48q48 18 84 18q37 0 57 -23q20 -22 49 -64t42 -56t42 -15
l164 49q18 0 28 -12t13 -25q2 -13 5 -21t3 -20q1 -14 -19 -26t-53 -33t-79 -39t-72 -18q-88 0 -152 98q-26 42 -35 47q-9 6 -30 6t-88 -43q-12 -6 -21 -6z" />
    <glyph glyph-name="Odieresis" unicode="&#xd6;" horiz-adv-x="1003" 
d="M740 1597q16 -27 16 -59q0 -31 -16 -52q-16 -20 -23 -30q-8 -10 -8 -17t-22 -21t-42 -13h-33q-23 1 -34 21t-18 27t-7 53q1 46 19 79q18 35 36 41t38 6t49 -4t45 -31zM1022 1307q-37 1 -49 27t-29 43q-16 17 -16 35q0 60 36 100q11 13 27 14l41 -2q28 0 52 -10t28 -25
t13 -33t10 -44t-21 -58q-22 -33 -38 -40t-54 -7zM1063 872v-30q0 -45 -21 -117q-45 -184 -107 -352t-164 -295t-276 -127q-175 0 -249 117q-35 53 -50 104t-16 129q0 211 67 382t183 342t238 245q37 22 53 22t41 -11t49 -18q25 -7 39 -11t31 -5q17 0 37 -16
q145 -130 145 -359zM478 88q44 0 84 22t63 54q137 211 208 469q43 156 45 228q3 73 3 106q-1 33 -25 78t-63 57q-13 4 -13 20t-19 16t-99 -82q-80 -83 -161 -217t-135 -319q-9 -31 -10 -76l-10 -141q0 -127 70 -197q18 -18 62 -18z" />
    <glyph glyph-name="multiply" unicode="&#xd7;" horiz-adv-x="1208" 
d="M885.5 629q-68.5 -59 -113.5 -97t-45 -46t32 -91q32 -84 73 -149q40 -66 65 -97.5t25 -46.5q0 -14 -14 -24t-27 -19.5t-39 -9.5t-42 10q-17 10 -30.5 7t-32.5 26t-37 63.5t-34.5 68.5t-31 70t-24.5 64t-17 27q-7 0 -50 -40q-44 -40 -109 -96t-102 -134q-17 -39 -51 -39
l-37 4q-23 0 -32 14.5t-22 27.5l-15 15q-15 15 -15 23q0 55 90 135q58 53 260 229q27 25 27.5 35t-9.5 31t-16 42.5t-21 73.5q-29 101 -49 152.5t-20 69.5q0 53 66 53h34q40 0 44 -11.5t22 -17.5t18 -28q0 -72 62 -267q4 -4 8 -4t38 30q35 30 79.5 64.5t108.5 84.5t118 110
q14 14 51 14l72 -10q27 0 45 -29t8 -47q-44 -53 -143 -118q-99 -64 -167.5 -123z" />
    <glyph glyph-name="Oslash" unicode="&#xd8;" horiz-adv-x="1105" 
d="M1073 1166q5 0 27 22t37 20q53 -2 67 -32q4 -10 13.5 -20t9.5 -28t-4.5 -27t-18.5 -19t-26 -18.5t-30 -23.5t-18 -21q0 -5 10 -50t9 -100q0 -115 -72 -351t-213 -420q-49 -66 -120.5 -109.5t-200.5 -43.5q-168 0 -242 92q-8 10 -12 10t-18 -18t-26 -23q-13 -6 -17.5 -10
t-19.5 -4q-16 0 -28 4t-17 13t-19 25t-13 33q0 17 22.5 41t42.5 44t21 25v5q0 4 -9 32t-9 174q0 271 219 618q95 148 171.5 206t103.5 65t49 11t43.5 4t39 -10t52.5 -10l55 6q18 0 55 -26t59 -56t27 -30zM839 1126q-15 0 -25 14t-27 13q-17 0 -52 -35q-230 -234 -321 -510
q-37 -106 -37 -170t6 -63.5t47 49.5l498 582q28 35 28 38q0 4 -10 22t-37 37t-41 21t-29 2zM408 188q0 -10 18 -42t47 -49q30 -16 43 -17q68 0 111 16.5t79 70.5q195 297 234 472t39 199t-10 24t-211.5 -245.5t-275.5 -332.5q-74 -86 -74 -96z" />
    <glyph glyph-name="Ugrave" unicode="&#xd9;" horiz-adv-x="1228" 
d="M1064 -86q-26 0 -30 5t-20 9t-49 25t-49 28t-11 33q4 25 15 42t21 176q11 160 25 218t15 67q0 9 -8 9t-19 -10q-118 -135 -234 -266t-243 -242q-60 -51 -138 -24q-26 8 -40 22q-18 18 -58 28q-40 11 -55 38q-10 25 -10 148t56 304q56 180 129 354t109 273q36 98 42 107
q6 8 13 24q23 50 59 51q8 0 17 -6t44 -19t44 -33t9 -38q0 -17 -7 -35l-11 -28q-47 -117 -138 -319t-144 -361q-54 -160 -54 -312q0 -30 11 -30q40 0 79 41q441 441 703 860q14 25 25 55q10 30 43 65q32 33 39 33q8 0 24 -4t36 -4t31 -18l29 -45q4 -7 8 -15t4 -16t-20 -58
t-58 -111q-39 -60 -63 -126q-148 -399 -148 -813l3 -62q0 -20 -26 -20zM1016 1354q-36 0 -64 18l-209 135q-37 26 -135 68q-24 9 -24 53t24 69q24 24 47 23l29 -6q10 0 43 -26q34 -26 70 -52l209 -143q53 -37 53 -49t-7 -30t-8 -25q0 -35 -28 -35z" />
    <glyph glyph-name="Uacute" unicode="&#xda;" horiz-adv-x="1228" 
d="M1064 -86q-26 0 -30 5t-20 9t-49 25t-49 28t-11 33q4 25 15 42t21 176q11 160 25 218t15 67q0 9 -8 9t-19 -10q-118 -135 -234 -266t-243 -242q-60 -51 -138 -24q-26 8 -40 22q-18 18 -58 28q-40 11 -55 38q-10 25 -10 148t56 304q56 180 129 354t109 273q36 98 42 107
q6 8 13 24q23 50 59 51q8 0 17 -6t44 -19t44 -33t9 -38q0 -17 -7 -35l-11 -28q-47 -117 -138 -319t-144 -361q-54 -160 -54 -312q0 -30 11 -30q40 0 79 41q441 441 703 860q14 25 25 55q10 30 43 65q32 33 39 33q8 0 24 -4t36 -4t31 -18l29 -45q4 -7 8 -15t4 -16t-20 -58
t-58 -111q-39 -60 -63 -126q-148 -399 -148 -813l3 -62q0 -20 -26 -20zM1317 1657q23 0 42 -20t19 -56q0 -37 -16 -58q-16 -20 -141 -59l-242 -75q-45 -12 -64 -3q-20 14 -28 26q-7 12 -17 22t-10 23q0 36 37 36q8 0 51 16l182 70q119 39 154 69q10 8 33 9z" />
    <glyph glyph-name="Ucircumflex" unicode="&#xdb;" horiz-adv-x="1228" 
d="M1064 -86q-26 0 -30 5t-20 9t-49 25t-49 28t-11 33q4 25 15 42t21 176q11 160 25 218t15 67q0 9 -8 9t-19 -10q-118 -135 -234 -266t-243 -242q-60 -51 -138 -24q-26 8 -40 22q-18 18 -58 28q-40 11 -55 38q-10 25 -10 148t56 304q56 180 129 354t109 273q36 98 42 107
q6 8 13 24q23 50 59 51q8 0 17 -6t44 -19t44 -33t9 -38q0 -17 -7 -35l-11 -28q-47 -117 -138 -319t-144 -361q-54 -160 -54 -312q0 -30 11 -30q40 0 79 41q441 441 703 860q14 25 25 55q10 30 43 65q32 33 39 33q8 0 24 -4t36 -4t31 -18l29 -45q4 -7 8 -15t4 -16t-20 -58
t-58 -111q-39 -60 -63 -126q-148 -399 -148 -813l3 -62q0 -20 -26 -20zM1114 1421q0 -16 -10 -22q-10 -7 -20 -19q-16 -20 -35 -20q-20 0 -37 29l-129 176q-8 12 -17 12q-9 -1 -84 -33q-76 -32 -109 -49t-38 -24q-6 -7 -19 -7q-14 0 -24 10t-20 16q-10 4 -11 44q0 40 5 49
q5 10 9 13t13 14t108 45l183 63q17 6 37 6t26 -12t11 -12t16 -17l123 -210q22 -36 22 -52z" />
    <glyph glyph-name="Udieresis" unicode="&#xdc;" horiz-adv-x="1228" 
d="M1064 -86q-26 0 -30 5t-20 9t-49 25t-49 28t-11 33q4 25 15 42t21 176q11 160 25 218t15 67q0 9 -8 9t-19 -10q-118 -135 -234 -266t-243 -242q-60 -51 -138 -24q-26 8 -40 22q-18 18 -58 28q-40 11 -55 38q-10 25 -10 148t56 304q56 180 129 354t109 273q36 98 42 107
q6 8 13 24q23 50 59 51q8 0 17 -6t44 -19t44 -33t9 -38q0 -17 -7 -35l-11 -28q-47 -117 -138 -319t-144 -361q-54 -160 -54 -312q0 -30 11 -30q40 0 79 41q441 441 703 860q14 25 25 55q10 30 43 65q32 33 39 33q8 0 24 -4t36 -4t31 -18l29 -45q4 -7 8 -15t4 -16t-20 -58
t-58 -111q-39 -60 -63 -126q-148 -399 -148 -813l3 -62q0 -20 -26 -20zM740 1648q16 -27 16 -59q0 -31 -16 -52t-23 -31q-8 -10 -8 -17q0 -8 -27 -20q-27 -13 -42 -13h-28q-23 0 -34 20t-18 28q-7 7 -7 53q1 46 19 80t36 40t38 6t49 -4t45 -31zM1023 1358q-38 0 -50 27
q-13 27 -29 43t-16 36q0 58 36 100q11 13 27 13l41 -2q28 1 52 -9t28 -26t13 -34q20 -38 -2 -83t-42 -55t-58 -10z" />
    <glyph glyph-name="Yacute" unicode="&#xdd;" horiz-adv-x="1028" 
d="M414 506q0 -31 53 -21t143 81t129 110q108 108 230 344q57 114 131 225q14 21 28 21t52 -10t55 -25q17 -16 25 -39t8 -34t-13 -25q-217 -305 -357 -743t-220 -1027q-4 -31 -8 -41t-4 -23t-13 -14q-10 0 -21 3t-42 8q-78 13 -86 53q-4 17 -4 73t22 136t31 131q8 51 34 188
t169 619l-17 -19q-116 -133 -272 -133q-19 0 -69 32t-80 58q-30 27 -51 60t-21 43q2 42 4 137q3 95 10 115q6 20 6 51t7 46t26 137t82 345q6 18 16 18q39 0 69 -7t60 -11q10 -2 18 -22t9 -44q-1 -24 -21 -68t-31 -100q-87 -438 -87 -628zM553 1444q0 37 39 37q6 0 49 16
l182 70q117 39 141 58q24 20 46 20t42 -20q19 -20 19 -56q0 -37 -17 -58q-17 -20 -141 -59l-241 -76q-24 -6 -48 -6t-38 22t-24 29q-10 9 -9 23z" />
    <glyph glyph-name="Thorn" unicode="&#xde;" horiz-adv-x="1024" 
d="M707 1150q0 -9 6 -9t13 3.5t48 17.5q143 50 225 50t110.5 -5t56.5 -31t41.5 -65t13.5 -93q0 -72 -29.5 -138.5t-73.5 -139.5q-81 -134 -164 -227t-225 -204q-23 -16 -84 -27.5t-109 -11.5t-66.5 5.5t-32 12.5t-25 18t-27.5 24q-14 -51 -29.5 -103.5t-29 -99.5t-21.5 -83
t-8.5 -54.5t-22.5 -32.5t-49 -14t-37 10q-16 16 -45.5 27t-29.5 40t33.5 134.5t63.5 181.5t30 121q-12 12 -27.5 24.5t-15.5 31.5t8 21.5t34.5 32t61.5 29.5q10 31 19.5 52.5t16.5 42l14 41t14 44.5q-44 18 -64 60q-4 6 -8 10t-4 24t41 51t69.5 46.5t57.5 33.5
q41 92 75.5 182.5t79.5 180.5q10 23 28 27t34 4t23.5 -7.5t32.5 -10.5q56 -7 56 -38q0 -41 -12 -56t-14 -33t-14 -38t-25.5 -36.5t-13.5 -25.5zM1053 1038q0 20 -6.5 24.5t-37.5 4.5h-40q-7 0 -61 -12t-139 -47t-163 -95q-35 -90 -83 -200.5t-81 -220.5q77 -72 93 -77t31 -5
t32 12q180 120 338 352q75 112 96 178t21 86z" />
    <glyph glyph-name="germandbls" unicode="&#xdf;" horiz-adv-x="888" 
d="M897 589q0 -133 -119 -352t-295 -270q-31 -8 -65 -8q-93 0 -191 86q-16 16 -22 16t-28 -66q-142 -425 -159 -609q-2 -16 -18 -34t-38 -23t-38 -13t-29 -8t-33 14t-21 34.5t-1 62.5t22 93.5t32 85.5t17 51t14 46t24.5 86t131.5 382.5t189 501.5t97 233q22 56 28 61.5
t18 15t27 35.5q18 39 64.5 101.5t105.5 119.5t111.5 88t106.5 31t78 -16.5t38 -21.5t49 -16.5t35 -52.5q0 -32 -13 -61t-21 -57t-81 -159q-74 -131 -139 -196q-23 -29 -22.5 -31t6.5 -2l33 2q53 0 79.5 -47t26.5 -103zM852 1214q0 8 -5 9q-14 0 -80 -37t-131 -138.5
t-84 -149.5t-29.5 -63.5t-19.5 -15.5t-14 -7t-43 -98t-38 -104q0 -14 4 -14t16 12t20.5 19.5t14.5 13.5q143 116 239 275t123 224q27 66 27 74zM395 424q-18 0 -27.5 13.5t-16.5 13.5t-21 -41t-47 -122t-33 -91t6 -10.5t12 3t26 3.5t30 -5.5t29 -29.5t23.5 -34t14.5 -20
q18 -18 54 -18t63 29q102 95 159 232q56 137 56 201t-41 64q-22 0 -46 -22q-36 -35 -51.5 -43.5t-49.5 -41.5q-84 -81 -140 -81z" />
    <glyph glyph-name="agrave" unicode="&#xe0;" horiz-adv-x="958" 
d="M852 991q68 0 123 -57q26 -27 33 -43q6 -15 19 -27t25 -12q43 0 62 -27q4 -6 4 -14q0 -7 -22 -37q-187 -256 -219 -398q-33 -141 -33 -215q0 -75 43 -141q4 -8 4 -12t-8 -14q-9 -10 -27 -13t-28 -7t-26 -3t-44 11t-37 30q-35 79 -35 151t4 98t4 33t-10 7t-47 -37
l-111 -102q-180 -162 -276 -162q-26 0 -67 32t-63 48q-58 45 -58 129q-1 122 106 282q108 160 186 229t125 103q152 111 328 162q20 6 45 6zM199 203q0 -54 45 -56q39 0 106 63q66 63 190 164t200 184q75 83 103 137t70 98q23 23 0 56q-9 15 -33 15t-67 -20
q-471 -253 -602 -586q-12 -33 -12 -55zM1188 1006q-36 0 -64 18l-209 135q-37 26 -135 68q-24 9 -24 53t24 69q24 24 47 23l29 -6q10 0 43 -26q34 -26 70 -52l209 -143q53 -37 53 -51l-14 -54q0 -34 -29 -34z" />
    <glyph glyph-name="aacute" unicode="&#xe1;" horiz-adv-x="958" 
d="M852 991q68 0 123 -57q26 -27 33 -43q6 -15 19 -27t25 -12q43 0 62 -27q4 -6 4 -14q0 -7 -22 -37q-187 -256 -219 -398q-33 -141 -33 -215q0 -75 43 -141q4 -8 4 -12t-8 -14q-9 -10 -27 -13t-28 -7t-26 -3t-44 11t-37 30q-35 79 -35 151t4 98t4 33t-10 7t-47 -37
l-111 -102q-180 -162 -276 -162q-26 0 -67 32t-63 48q-58 45 -58 129q-1 122 106 282q108 160 186 229t125 103q152 111 328 162q20 6 45 6zM199 203q0 -54 45 -56q39 0 106 63q66 63 190 164t200 184q75 83 103 137t70 98q23 23 0 56q-9 15 -33 15t-67 -20
q-471 -253 -602 -586q-12 -33 -12 -55zM1223 1374q23 0 42 -19t19 -56t-16 -57t-142 -60l-241 -76q-23 -6 -47 -6t-39 22q-13 22 -23 29q-10 8 -10 22q0 37 37 37q8 0 51 17l182 69q54 18 99 40t55 30t33 8z" />
    <glyph glyph-name="acircumflex" unicode="&#xe2;" horiz-adv-x="958" 
d="M852 991q68 0 123 -57q26 -27 33 -43q6 -15 19 -27t25 -12q43 0 62 -27q4 -6 4 -14q0 -7 -22 -37q-187 -256 -219 -398q-33 -141 -33 -215q0 -75 43 -141q4 -8 4 -12t-8 -14q-9 -10 -27 -13t-28 -7t-26 -3t-44 11t-37 30q-35 79 -35 151t4 98t4 33t-10 7t-47 -37
l-111 -102q-180 -162 -276 -162q-26 0 -67 32t-63 48q-58 45 -58 129q-1 122 106 282q108 160 186 229t125 103q152 111 328 162q20 6 45 6zM199 203q0 -54 45 -56q39 0 106 63q66 63 190 164t200 184q75 83 103 137t70 98q23 23 0 56q-9 15 -33 15t-67 -20
q-471 -253 -602 -586q-12 -33 -12 -55zM1274 1072q0 -15 -10 -21q-10 -7 -20 -19q-16 -20 -34 -20t-39 28l-129 177q-8 12 -16 12q-8 -1 -84 -33t-109 -49t-38 -24t-19 -7t-24 10t-20 14t-10 16q-1 11 -1 40t5 39t9 13t13 14t108 45l182 63q18 6 38 6t26 -12t11 -12t15 -17
l123 -211q23 -37 23 -52z" />
    <glyph glyph-name="atilde" unicode="&#xe3;" horiz-adv-x="958" 
d="M852 991q68 0 123 -57q26 -27 33 -43q6 -15 19 -27t25 -12q43 0 62 -27q4 -6 4 -14q0 -7 -22 -37q-187 -256 -219 -398q-33 -141 -33 -215q0 -75 43 -141q4 -8 4 -12t-8 -14q-9 -10 -27 -13t-28 -7t-26 -3t-44 11t-37 30q-35 79 -35 151t4 98t4 33t-10 7t-47 -37
l-111 -102q-180 -162 -276 -162q-26 0 -67 32t-63 48q-58 45 -58 129q-1 122 106 282q108 160 186 229t125 103q152 111 328 162q20 6 45 6zM199 203q0 -54 45 -56q39 0 106 63q66 63 190 164t200 184q75 83 103 137t70 98q23 23 0 56q-9 15 -33 15t-67 -20
q-471 -253 -602 -586q-12 -33 -12 -55zM834 1165q-70 0 -70 31l-16 76q0 21 18 28l129 48q48 18 84 18q37 0 57 -23t49 -65t42 -55q13 -14 42 -15l164 49q19 0 29 -12t12 -25q2 -12 5 -20t3 -21t-20 -25t-54 -35q-35 -22 -79 -39q-45 -17 -71 -17q-93 0 -150 98
q-25 41 -35 47t-30 6t-89 -43q-12 -6 -20 -6z" />
    <glyph glyph-name="adieresis" unicode="&#xe4;" horiz-adv-x="958" 
d="M852 991q68 0 123 -57q26 -27 33 -43q6 -15 19 -27t25 -12q43 0 62 -27q4 -6 4 -14q0 -7 -22 -37q-187 -256 -219 -398q-33 -141 -33 -215q0 -75 43 -141q4 -8 4 -12t-8 -14q-9 -10 -27 -13t-28 -7t-26 -3t-44 11t-37 30q-35 79 -35 151t4 98t4 33t-10 7t-47 -37
l-111 -102q-180 -162 -276 -162q-26 0 -67 32t-63 48q-58 45 -58 129q-1 122 106 282q108 160 186 229t125 103q152 111 328 162q20 6 45 6zM199 203q0 -54 45 -56q39 0 106 63q66 63 190 164t200 184q75 83 103 137t70 98q23 23 0 56q-9 15 -33 15t-67 -20
q-471 -253 -602 -586q-12 -33 -12 -55zM811 1380q67 0 86 -31q18 -31 18 -55t-9 -45t-23 -38t-15 -25t-26 -21q-26 -12 -42 -12h-28q-23 1 -34 21t-18 27t-7 51t18 80q19 36 37 42t43 6zM1285 1204q9 -18 9 -45t-21 -58q-21 -32 -37 -39t-54 -7q-38 1 -50 27t-28 43
q-32 34 -5 91q26 58 52 58l41 -2q28 0 52 -10t28 -25t13 -33z" />
    <glyph glyph-name="aring" unicode="&#xe5;" horiz-adv-x="958" 
d="M852 991q68 0 123 -57q26 -27 33 -43q6 -15 19 -27t25 -12q43 0 62 -27q4 -6 4 -14q0 -7 -22 -37q-187 -256 -219 -398q-33 -141 -33 -215q0 -75 43 -141q4 -8 4 -12t-8 -14q-9 -10 -27 -13t-28 -7t-26 -3t-44 11t-37 30q-35 79 -35 151t4 98t4 33t-10 7t-47 -37
l-111 -102q-180 -162 -276 -162q-26 0 -67 32t-63 48q-58 45 -58 129q-1 122 106 282q108 160 186 229t125 103q152 111 328 162q20 6 45 6zM199 203q0 -54 45 -56q39 0 106 63q66 63 190 164t200 184q75 83 103 137t70 98q23 23 0 56q-9 15 -33 15t-67 -20
q-471 -253 -602 -586q-12 -33 -12 -55zM1266 1260q0 -90 -54 -170q-41 -58 -118 -60q-137 0 -187 85q-16 30 -16 71t43 115t84 89t74 15q32 0 68 -9t67 -39t35 -50t4 -47zM1148 1248q0 30 -14 54t-33 23q-18 -1 -34 -23q-49 -65 -49 -108q0 -44 14 -64t34 -20t28 12
q18 33 36 64q18 32 18 62z" />
    <glyph glyph-name="ae" unicode="&#xe6;" horiz-adv-x="1243" 
d="M584 221q-4 0 -11 -7.5t-25 -27.5t-51.5 -56t-64.5 -59q-53 -39 -109.5 -57t-72.5 -18q-35 0 -148 80q-10 8 -31.5 44t-21.5 90q0 119 93 283q93 163 236.5 306t258.5 186t168 43t96 -33q9 -8 15 -8q15 0 30 25l15 22q13 21 27 21q15 0 44 -12.5t40 -12.5t35 6t50.5 13.5
t52.5 7.5q75 0 110 -41q36 -41 36 -122t-58 -167q-103 -152 -265.5 -308.5t-274.5 -201.5q-13 -6 -13 -34t23.5 -49t49.5 -21q43 0 110.5 25t129.5 66q62 42 127.5 95t123.5 97t98 61q41 18 50 18t24.5 -12t15.5 -29l-2 -26q-1 -18 -27 -40t-66.5 -63t-121.5 -112t-264 -168
q-80 -41 -167 -41q-267 0 -267 172l6 59q0 6 -4 6zM195 186q0 -51 47 -51q23 0 53.5 11.5t40.5 21.5q92 92 170 166t149 165.5t129 211.5l62 114q20 38 20 56q0 34 -32 34q-24 0 -37 -8q-305 -170 -425.5 -338t-148.5 -264t-28 -119zM1192 884q0 50 -23 50
q-50 0 -168.5 -160t-201.5 -350q-13 -33 -2.5 -33t84 69.5t192.5 204.5t119 219z" />
    <glyph glyph-name="ccedilla" unicode="&#xe7;" horiz-adv-x="708" 
d="M395 -8q0 -6 6 -8q31 -16 31 -49q0 -65 -45 -121q-78 -96 -182 -97q-62 0 -131 38q-70 38 -70 71q0 16 22 36t34 20.5t17 -7.5t15 -14.5t18 -14.5q23 -26 62 -26t65.5 26.5t50.5 67.5t23 49q0 8 -6 15.5t-35 12.5q-46 8 -97 42.5t-67 67.5q-16 34 -16 76t11.5 81.5
t18.5 63.5t12.5 47t29.5 75q70 147 181 304t230 217q15 6 51 6t95 -22.5t100 -63.5q8 -8 8 -29l4 -31q0 -17 -35.5 -83t-35.5 -124q0 -30 -32 -30t-48 14l-53 39q-23 15 -23 37q0 31 22.5 72.5t22.5 59.5q-1 19 -15 19t-57 -43t-108.5 -129t-118.5 -180t-86 -182.5
t-33 -118.5q0 -52 35 -53q119 0 270 113t199.5 134t64.5 21q27 0 50.5 -22t23.5 -31l-8 -21q0 -18 -16 -24q-70 -30 -177 -117q-107 -88 -163.5 -124t-85.5 -45t-29 -15z" />
    <glyph glyph-name="egrave" unicode="&#xe8;" horiz-adv-x="749" 
d="M518 -6q-38 -21 -77 -21q-39 1 -65 11q-25 10 -71 28t-73 34q-27 15 -55 52t-48 100t-20 119t10 95q43 158 139 294t213 261q27 29 85 61t127 31q69 0 132 -23q16 -6 41 -36t25 -81t-25 -110t-45 -88q-20 -30 -58 -72l-95 -105q-198 -220 -365 -313q-12 -9 -12 -25
t17 -42q62 -96 226 -8q106 57 178 118q72 62 132 114t108 61q10 -1 26 -13t15 -28l-2 -27q0 -20 -10 -29q-37 -30 -69 -66q-148 -164 -384 -292zM708 928q-1 6 -13 6t-35 -14t-28 -16q-5 0 -37 -30q-251 -231 -304 -454q0 -10 4 -10t14 6q92 70 205 190q114 120 144 184
q4 10 16 28q12 20 26 47q13 27 8 63zM608 1378q-24 9 -24 54q0 44 24 68t47 24l29 -6q4 0 9 -4t17 -11q12 -8 31 -23q20 -15 56 -40l209 -144q53 -37 53 -49t-7 -28t-8 -27q0 -34 -28 -35q-36 0 -64 19l-209 135q-43 30 -135 67z" />
    <glyph glyph-name="eacute" unicode="&#xe9;" horiz-adv-x="749" 
d="M518 -6q-38 -21 -77 -21q-39 1 -65 11q-25 10 -71 28t-73 34q-27 15 -55 52t-48 100t-20 119t10 95q43 158 139 294t213 261q27 29 85 61t127 31q69 0 132 -23q16 -6 41 -36t25 -81t-25 -110t-45 -88q-20 -30 -58 -72l-95 -105q-198 -220 -365 -313q-12 -9 -12 -25
t17 -42q62 -96 226 -8q106 57 178 118q72 62 132 114t108 61q10 -1 26 -13t15 -28l-2 -27q0 -20 -10 -29q-37 -30 -69 -66q-148 -164 -384 -292zM708 928q-1 6 -13 6t-35 -14t-28 -16q-5 0 -37 -30q-251 -231 -304 -454q0 -10 4 -10t14 6q92 70 205 190q114 120 144 184
q4 10 16 28q12 20 26 47q13 27 8 63zM1010 1464q23 0 42 -19t19 -56t-16 -57t-142 -60l-241 -76q-24 -6 -48 -6t-38 22t-24 29q-10 8 -9 23q0 36 37 36q8 0 51 17l182 69q54 18 99 40t55 30t33 8z" />
    <glyph glyph-name="ecircumflex" unicode="&#xea;" horiz-adv-x="749" 
d="M518 -6q-38 -21 -77 -21q-39 1 -65 11q-25 10 -71 28t-73 34q-27 15 -55 52t-48 100t-20 119t10 95q43 158 139 294t213 261q27 29 85 61t127 31q69 0 132 -23q16 -6 41 -36t25 -81t-25 -110t-45 -88q-20 -30 -58 -72l-95 -105q-198 -220 -365 -313q-12 -9 -12 -25
t17 -42q62 -96 226 -8q106 57 178 118q72 62 132 114t108 61q10 -1 26 -13t15 -28l-2 -27q0 -20 -10 -29q-37 -30 -69 -66q-148 -164 -384 -292zM708 928q-1 6 -13 6t-35 -14t-28 -16q-5 0 -37 -30q-251 -231 -304 -454q0 -10 4 -10t14 6q92 70 205 190q114 120 144 184
q4 10 16 28q12 20 26 47q13 27 8 63zM1096 1170q0 -15 -10 -21t-20 -18q-16 -21 -34 -21q-19 0 -39 29l-129 176q-8 12 -17 12q-9 -1 -84 -33q-123 -54 -145 -72q-22 -19 -39 -3q-16 17 -26 21t-10 48t9 54q9 8 17 18t109 45l182 63q52 17 66 -8q4 -10 9 -10t15 -16
l123 -211q23 -38 23 -53z" />
    <glyph glyph-name="edieresis" unicode="&#xeb;" horiz-adv-x="749" 
d="M518 -6q-38 -21 -77 -21q-39 1 -65 11q-25 10 -71 28t-73 34q-27 15 -55 52t-48 100t-20 119t10 95q43 158 139 294t213 261q27 29 85 61t127 31q69 0 132 -23q16 -6 41 -36t25 -81t-25 -110t-45 -88q-20 -30 -58 -72l-95 -105q-198 -220 -365 -313q-12 -9 -12 -25
t17 -42q62 -96 226 -8q106 57 178 118q72 62 132 114t108 61q10 -1 26 -13t15 -28l-2 -27q0 -20 -10 -29q-37 -30 -69 -66q-148 -164 -384 -292zM708 928q-1 6 -13 6t-35 -14t-28 -16q-5 0 -37 -30q-251 -231 -304 -454q0 -10 4 -10t14 6q92 70 205 190q114 120 144 184
q4 10 16 28q12 20 26 47q13 27 8 63zM651 1487q67 0 86 -32t19 -66q0 -35 -39 -79q-8 -8 -8 -16t-23 -21t-42 -13h-32q-23 0 -34 20t-18 28t-7 52q1 46 19 80t36 40t43 7zM1023 1161q-38 0 -50 27t-29 44q-16 18 -16 36t7 45t23 47q17 20 33 20l41 -2q28 0 52 -10t28 -25
q4 -16 13 -33q20 -38 -2 -84t-42 -55q-20 -10 -58 -10z" />
    <glyph glyph-name="igrave" unicode="&#xec;" horiz-adv-x="450" 
d="M532 246q70 0 70 -43q0 -23 -33 -56l-84 -77q-33 -29 -87 -64t-111 -35t-104 53q-72 79 -72 195q0 72 21 133q20 62 28 88t36 92q28 68 76 180q47 112 105 230q27 55 92 55t84 -28q4 -6 4 -34q0 -62 -90 -179q-33 -45 -122 -259t-89 -290t37 -76q47 -1 83 23t69 49
q58 43 87 43zM739 1067q-34 0 -63 18l-209 136q-34 24 -135 67q-25 9 -25 54q0 44 24 68t48 24l29 -7q6 0 41 -26q36 -26 71 -51l209 -144q53 -37 53 -51l-14 -53q0 -35 -29 -35z" />
    <glyph glyph-name="iacute" unicode="&#xed;" horiz-adv-x="450" 
d="M532 246q70 0 70 -43q0 -23 -33 -56l-84 -77q-33 -29 -87 -64t-111 -35t-104 53q-72 79 -72 195q0 72 21 133q20 62 28 88t36 92q28 68 76 180q47 112 105 230q27 55 92 55t84 -28q4 -6 4 -34q0 -62 -90 -179q-33 -45 -122 -259t-89 -290t37 -76q47 -1 83 23t69 49
q58 43 87 43zM897 1403q23 0 42 -20t19 -56q0 -37 -16 -58q-16 -20 -141 -59l-242 -75q-47 -12 -65 0t-29 27q-11 16 -18 22t-7 19t9 25t23 11q13 0 56 16l183 70q121 39 153 69q10 8 33 9z" />
    <glyph glyph-name="icircumflex" unicode="&#xee;" horiz-adv-x="450" 
d="M532 246q70 0 70 -43q0 -23 -33 -56l-84 -77q-33 -29 -87 -64t-111 -35t-104 53q-72 79 -72 195q0 72 21 133q20 62 28 88t36 92q28 68 76 180q47 112 105 230q27 55 92 55t84 -28q4 -6 4 -34q0 -62 -90 -179q-33 -45 -122 -259t-89 -290t37 -76q47 -1 83 23t69 49
q58 43 87 43zM858 1101q0 -15 -10 -21t-20 -19q-17 -21 -34 -21q-18 0 -38 29l-129 176q-8 12 -17 12t-110 -44q-102 -44 -125 -66q-2 -2 -15 -2q-14 0 -24 10q-10 11 -20 15t-11 44q0 40 5 50t9 13t13 13t108 45l183 64q17 6 37 6t26 -12t10 -13q6 0 17 -16l123 -211
q22 -37 22 -52z" />
    <glyph glyph-name="idieresis" unicode="&#xef;" horiz-adv-x="450" 
d="M532 246q70 0 70 -43q0 -23 -33 -56l-84 -77q-33 -29 -87 -64t-111 -35t-104 53q-72 79 -72 195q0 72 21 133q20 62 28 88t36 92q28 68 76 180q47 112 105 230q27 55 92 55t84 -28q4 -6 4 -34q0 -62 -90 -179q-33 -45 -122 -259t-89 -290t37 -76q47 -1 83 23t69 49
q58 43 87 43zM412 1450q67 0 85 -31q19 -31 19 -69t-39 -77q-8 -9 -8 -19t-28 -20q-28 -11 -42 -11h-26q-25 0 -35 20q-10 19 -18 27t-7 50t19 80t36 44t44 6zM886 1274q10 -18 9 -47q1 -29 -21 -59q-22 -28 -38 -36t-54 -8q-37 0 -49 27t-28 44q-35 37 0 104q21 44 47 44
l41 -2q71 0 79 -36q4 -13 14 -31z" />
    <glyph glyph-name="eth" unicode="&#xf0;" horiz-adv-x="819" 
d="M552 791q-9 0 -38.5 -13.5t-61.5 -61.5q-94 -143 -137 -237t-43 -246q0 -96 54 -124q40 -22 70 -3.5t71 56.5q88 83 143 215t60 217q-12 4 -20.5 8t-16.5 41t-19.5 69.5t-21.5 50t-20.5 23t-19.5 5.5zM328 1440q0 55 23 55q15 0 34 14.5t27 14.5q14 0 25 -5t51 -33
t47.5 -37t7.5 -19q1 -10 27 -43q26 -32 51.5 -64.5t33.5 -43.5q7 -11 13 -11t53 22t84 50t60 28t43 -22t20 -40q0 -20 -18.5 -36.5t-18.5 -23.5q1 -23 -69 -57t-73.5 -38t-3.5 -8t3.5 -12.5t21.5 -56.5q66 -176 66 -362q0 -161 -60.5 -335t-179.5 -293q-41 -41 -83 -81
t-90 -40t-68.5 4t-33 9.5t-20 10.5t-39.5 17t-63 32.5t-55 77.5t-25 149q0 133 49 262t89 176t81 104q76 106 174 106q54 -1 101 -35q47 -35 54 -34q7 0 7 16t-14 76.5t-36 103.5t-25 43q-6 0 -65 -31.5t-89 -53.5q-29 -23 -60 -23q-7 -1 -23 21t-16 48t13.5 35t18.5 19
q15 29 131 87q21 11 21 16q0 14 -64 81t-83 85q-39 33 -47 44t-8 31z" />
    <glyph glyph-name="ntilde" unicode="&#xf1;" horiz-adv-x="860" 
d="M219 168q0 -12 6 -12q16 0 35 26q189 267 419 497q38 38 63 93t39 61q13 5 30 5t30 -10t33 -11q20 -2 33 -19q26 -37 -18 -108q-158 -250 -158 -469q0 -34 17 -88q4 -29 32 -47q70 -44 70 -74q0 -10 -12 -29t-32 -19q-83 -2 -111 23t-46 37t-46 48q-28 38 -28 123t10 119
q9 34 9 40t-6 6t-13 -8q-63 -84 -107 -140t-80 -108t-70 -73q-9 -6 -23 -24t-59 -17q-45 0 -97 40q-53 40 -64 56q-11 15 -13 52q-1 38 10 75q12 37 15 68q4 41 71 194q90 220 142 307q51 88 74 123t26 42t22 23t77 17q59 -1 71 -27t12 -53t-28 -62q-28 -34 -68 -81
q-40 -46 -72 -106q-138 -262 -184 -438q-10 -40 -11 -52zM594 1178q-70 0 -70 30l-16 76q0 20 18 29l129 47q48 18 85 18t57 -22q20 -23 49 -65t42 -56t42 -14l164 49q33 0 41 -39q2 -11 5 -19t3 -21t-20 -25t-56 -36q-88 -55 -159 -55t-117 66q-12 16 -30 45t-28 35t-30 6
t-89 -43q-12 -6 -20 -6z" />
    <glyph glyph-name="ograve" unicode="&#xf2;" horiz-adv-x="753" 
d="M1112 782q0 -18 -46 -36q-9 -4 -14 -10q-5 -7 -28 -10q-23 -4 -85 -22t-140 -18q-20 0 -25 -16q-41 -166 -100 -305q-81 -190 -245 -328q-44 -37 -85 -37q-72 0 -161 72q-85 70 -85 256q0 108 54 220t94 173t46 69t12 12q7 7 49 63q112 148 214 151q72 0 127 -55
q7 -7 16 -33q10 -26 32 -62q22 -37 67 -37l176 7q49 0 88 -14t39 -40zM614 704v66q0 23 -11 34t-17 28q-6 16 -10 28t-16 12q-10 0 -22 -14t-24 -22t-17 -14t-25 -32q-109 -137 -171 -280q-63 -143 -63 -266q0 -26 20 -56q20 -31 30 -38t25 -7q15 1 23 7t21 13t107 153
t122 246t28 142zM870 1055q-35 0 -63 18l-209 135q-37 26 -135 68q-25 9 -25 54q0 44 24 68t48 23l29 -6q7 -1 42 -27t70 -51l209 -143q53 -37 53 -51l-14 -53q0 -35 -29 -35z" />
    <glyph glyph-name="oacute" unicode="&#xf3;" horiz-adv-x="753" 
d="M1112 782q0 -18 -46 -36q-9 -4 -14 -10q-5 -7 -28 -10q-23 -4 -85 -22t-140 -18q-20 0 -25 -16q-41 -166 -100 -305q-81 -190 -245 -328q-44 -37 -85 -37q-72 0 -161 72q-85 70 -85 256q0 108 54 220t94 173t46 69t12 12q7 7 49 63q112 148 214 151q72 0 127 -55
q7 -7 16 -33q10 -26 32 -62q22 -37 67 -37l176 7q49 0 88 -14t39 -40zM614 704v66q0 23 -11 34t-17 28q-6 16 -10 28t-16 12q-10 0 -22 -14t-24 -22t-17 -14t-25 -32q-109 -137 -171 -280q-63 -143 -63 -266q0 -26 20 -56q20 -31 30 -38t25 -7q15 1 23 7t21 13t107 153
t122 246t28 142zM506 1204q0 39 37 39q8 0 51 17l182 69q115 38 158 72q6 6 29 6t42 -20t19 -56q0 -37 -17 -58q-17 -20 -141 -59l-241 -75q-23 -6 -46 -6t-41 23q-17 23 -24 30q-8 8 -8 18z" />
    <glyph glyph-name="ocircumflex" unicode="&#xf4;" horiz-adv-x="753" 
d="M1112 782q0 -18 -46 -36q-9 -4 -14 -10q-5 -7 -28 -10q-23 -4 -85 -22t-140 -18q-20 0 -25 -16q-41 -166 -100 -305q-81 -190 -245 -328q-44 -37 -85 -37q-72 0 -161 72q-85 70 -85 256q0 108 54 220t94 173t46 69t12 12q7 7 49 63q112 148 214 151q72 0 127 -55
q7 -7 16 -33q10 -26 32 -62q22 -37 67 -37l176 7q49 0 88 -14t39 -40zM614 704v66q0 23 -11 34t-17 28q-6 16 -10 28t-16 12q-10 0 -22 -14t-24 -22t-17 -14t-25 -32q-109 -137 -171 -280q-63 -143 -63 -266q0 -26 20 -56q20 -31 30 -38t25 -7q15 1 23 7t21 13t107 153
t122 246t28 142zM940 1105q0 -15 -10 -21t-20 -19q-10 -12 -19 -20q-10 -8 -28 4q-17 12 -25 24l-129 176q-11 16 -20 13t-109 -46t-123 -65q-1 -2 -15 -2t-24 10q-10 11 -20 15t-10 15q-1 11 -1 40t5 39t9 13t14 14t107 44l183 64q17 6 37 6t26 -12t10 -13q6 0 17 -16
l123 -211q22 -37 22 -52z" />
    <glyph glyph-name="otilde" unicode="&#xf5;" horiz-adv-x="753" 
d="M1112 782q0 -18 -46 -36q-9 -4 -14 -10q-5 -7 -28 -10q-23 -4 -85 -22t-140 -18q-20 0 -25 -16q-41 -166 -100 -305q-81 -190 -245 -328q-44 -37 -85 -37q-72 0 -161 72q-85 70 -85 256q0 108 54 220t94 173t46 69t12 12q7 7 49 63q112 148 214 151q72 0 127 -55
q7 -7 16 -33q10 -26 32 -62q22 -37 67 -37l176 7q49 0 88 -14t39 -40zM614 704v66q0 23 -11 34t-17 28q-6 16 -10 28t-16 12q-10 0 -22 -14t-24 -22t-17 -14t-25 -32q-109 -137 -171 -280q-63 -143 -63 -266q0 -26 20 -56q20 -31 30 -38t25 -7q15 1 23 7t21 13t107 153
t122 246t28 142zM508 1202q-70 0 -70 31l-16 76q0 21 18 28l129 47q50 19 86 19t56 -23q20 -22 49 -64t42 -56t42 -15l164 49q33 0 41 -39q2 -12 5 -19q3 -6 3 -20t-20 -26t-54 -34t-78 -39q-45 -17 -71 -17q-80 0 -129 65q-12 16 -31 46t-28 35t-29 5t-89 -43
q-12 -6 -20 -6z" />
    <glyph glyph-name="odieresis" unicode="&#xf6;" horiz-adv-x="753" 
d="M547 1446q67 0 85 -31q19 -31 19 -69t-39 -77q-8 -9 -8 -19t-28 -20q-28 -11 -42 -11h-26q-23 0 -34 20q-11 19 -18 27t-7 52t18 79q19 37 37 43t43 6zM1021 1269q9 -17 9 -46t-22 -59q-22 -28 -37 -36t-53 -8t-50 27t-28 44q-35 37 0 104q21 44 47 44l41 -2q28 1 52 -9
t28 -26t13 -33zM1112 782q0 -18 -46 -36q-9 -4 -14 -10q-5 -7 -28 -10q-23 -4 -85 -22t-140 -18q-20 0 -25 -16q-41 -166 -100 -305q-81 -190 -245 -328q-44 -37 -85 -37q-72 0 -161 72q-85 70 -85 256q0 108 54 220t94 173t46 69t12 12q7 7 49 63q112 148 214 151
q72 0 127 -55q7 -7 16 -33q10 -26 32 -62q22 -37 67 -37l176 7q49 0 88 -14t39 -40zM614 704v66q0 23 -11 34t-17 28q-6 16 -10 28t-16 12q-10 0 -22 -14t-24 -22t-17 -14t-25 -32q-109 -137 -171 -280q-63 -143 -63 -266q0 -26 20 -56q20 -31 30 -38t25 -7q15 1 23 7t21 13
t107 153t122 246t28 142z" />
    <glyph glyph-name="divide" unicode="&#xf7;" horiz-adv-x="1208" 
d="M866 941q0 -51 -25 -121t-81 -70q-24 0 -83 26t-59 66q0 79 27 118.5t35 59.5t38 20q31 0 54 -11t58.5 -39.5t35.5 -48.5zM662 307q47 -29 47 -127q1 -98 -97 -98q-56 0 -66 13t-28 33t-34.5 32t-16.5 34q0 53 27 110.5t70 57.5q44 0 64 -22.5t34 -32.5zM1044 489
l-453 -16q-111 0 -197.5 7t-100.5 7q-23 0 -35 48.5t-12 79.5q0 32 69 32q25 0 105 -8t219 -8l430 16q29 0 47 -18q17 -18 17 -51q1 -33 -11 -63q-12 -29 -22 -30z" />
    <glyph glyph-name="oslash" unicode="&#xf8;" horiz-adv-x="831" 
d="M129 18q-31 -18 -47 -18t-19 12q-4 18 -15 36t-11 33t3 19t10 8.5t20.5 11.5t32.5 23t25.5 21.5t6.5 14.5t-12 43t-12 98t22.5 143t88 182.5t103.5 147.5q38 45 112 137t167 92q69 0 141 -74q10 -10 26.5 -17t24.5 -17t12 -11q6 1 24 19t34.5 31.5t36.5 13.5t37.5 -28
t17.5 -58q0 -10 -18 -17.5t-47 -30.5t-29 -36l4 -54q0 -96 -41 -221t-84.5 -219.5t-119.5 -196.5q-107 -131 -224 -131q-45 0 -107.5 33t-77.5 48q-15 16 -21 16q-5 0 -19 -18t-45 -36zM723 808q0 3 -18 3q-18 -1 -35 27q-18 28 -23 34.5t-23 6.5t-39 -15.5t-55 -58.5
q-108 -139 -162 -224t-94 -214q-8 -19 -8 -33t5.5 -14.5t51.5 46.5q46 48 94 101t100 111.5t105.5 117t77.5 84.5t23 28zM374 113q24 0 53 14t57 49q122 156 184 343q26 78 26 83.5t-4 5.5t-30 -28t-62.5 -66.5t-69.5 -76.5t-83 -89t-81 -88t-55 -63q-24 -25 -24 -30t3 -9
t15 -14.5t29.5 -20.5t41.5 -10z" />
    <glyph glyph-name="ugrave" unicode="&#xf9;" horiz-adv-x="860" 
d="M300 -35q-8 0 -48 8q-39 8 -86 37t-52 55q-12 62 -12 117t30 150t34 116t8 35l10 35q16 45 30 93q50 183 114 292q29 53 88 53q16 0 38 -8t29 -21q5 -13 15 -25t10 -36q0 -23 -41 -53q-42 -28 -59 -96q-18 -69 -41 -139q-117 -359 -117 -424v-17q0 -8 9 -18t26 -10t54 34
t51 51l42 54q222 241 305 459q7 20 13 27q24 30 71 30q11 0 25 -8t40 -17t25 -36q0 -26 -12 -56q-118 -252 -149 -463q-13 -107 -13 -149q1 -41 19 -73t18 -64t-11 -38q-11 -7 -34 -7t-55 19q-36 21 -54 28q-36 14 -36 145l6 139q0 12 -8 13q-10 0 -46 -43
q-106 -127 -212 -181q-16 -8 -24 -8zM870 973q-35 0 -63 18l-209 135q-37 26 -135 68q-25 9 -25 54q0 44 24 68t48 23l29 -6q7 -1 42 -27t70 -51l209 -143q53 -37 53 -51l-14 -53q0 -35 -29 -35z" />
    <glyph glyph-name="uacute" unicode="&#xfa;" horiz-adv-x="860" 
d="M300 -35q-8 0 -48 8q-39 8 -86 37t-52 55q-12 62 -12 117t30 150t34 116t8 35l10 35q16 45 30 93q50 183 114 292q29 53 88 53q16 0 38 -8t29 -21q5 -13 15 -25t10 -36q0 -23 -41 -53q-42 -28 -59 -96q-18 -69 -41 -139q-117 -359 -117 -424v-17q0 -8 9 -18t26 -10t54 34
t51 51l42 54q222 241 305 459q7 20 13 27q24 30 71 30q11 0 25 -8t40 -17t25 -36q0 -26 -12 -56q-118 -252 -149 -463q-13 -107 -13 -149q1 -41 19 -73t18 -64t-11 -38q-11 -7 -34 -7t-55 19q-36 21 -54 28q-36 14 -36 145l6 139q0 12 -8 13q-10 0 -46 -43
q-106 -127 -212 -181q-16 -8 -24 -8zM992 1333q22 1 42 -19t19 -57q0 -37 -16 -57t-142 -59l-242 -76q-23 -6 -46 -6q-23 -1 -39 21q-15 22 -24 31t-9 22t8 25t22 11q14 0 58 17l182 69q54 18 99 40t55 30q11 8 33 8z" />
    <glyph glyph-name="ucircumflex" unicode="&#xfb;" horiz-adv-x="860" 
d="M300 -35q-8 0 -48 8q-39 8 -86 37t-52 55q-12 62 -12 117t30 150t34 116t8 35l10 35q16 45 30 93q50 183 114 292q29 53 88 53q16 0 38 -8t29 -21q5 -13 15 -25t10 -36q0 -23 -41 -53q-42 -28 -59 -96q-18 -69 -41 -139q-117 -359 -117 -424v-17q0 -8 9 -18t26 -10t54 34
t51 51l42 54q222 241 305 459q7 20 13 27q24 30 71 30q11 0 25 -8t40 -17t25 -36q0 -26 -12 -56q-118 -252 -149 -463q-13 -107 -13 -149q1 -41 19 -73t18 -64t-11 -38q-11 -7 -34 -7t-55 19q-36 21 -54 28q-36 14 -36 145l6 139q0 12 -8 13q-10 0 -46 -43
q-106 -127 -212 -181q-16 -8 -24 -8zM1014 1048q0 -16 -10 -22t-20 -18q-17 -21 -35 -21t-38 29l-129 176q-8 12 -17 12t-84 -32t-106 -49q-31 -16 -39 -24q-8 -7 -21 -7t-23 10t-21 14q-10 6 -10 50t9 52t17 19q8 10 109 45l182 64q18 6 38 6t26 -12t11 -13q5 0 15 -16
l123 -211q23 -37 23 -52z" />
    <glyph glyph-name="udieresis" unicode="&#xfc;" horiz-adv-x="860" 
d="M700 1351q16 -27 17 -61q1 -33 -23 -61q-24 -29 -24 -37t-27 -20q-27 -13 -42 -13h-28q-25 0 -38 29q-5 12 -13 19t-8 53t18 80t37 40t39 6t48 -4t44 -31zM983 1061q-37 0 -49 27t-29 44q-16 18 -16 36q0 58 36 99q11 13 27 13l41 -2q27 0 51 -10t29 -25q4 -15 13 -33
t10 -46t-21 -58q-23 -30 -39 -38t-53 -7zM300 -35q-8 0 -48 8q-39 8 -86 37t-52 55q-12 62 -12 117t30 150t34 116t8 35l10 35q16 45 30 93q50 183 114 292q29 53 88 53q16 0 38 -8t29 -21q5 -13 15 -25t10 -36q0 -23 -41 -53q-42 -28 -59 -96q-18 -69 -41 -139
q-117 -359 -117 -424v-17q0 -8 9 -18t26 -10t54 34t51 51l42 54q222 241 305 459q7 20 13 27q24 30 71 30q11 0 25 -8t40 -17t25 -36q0 -26 -12 -56q-118 -252 -149 -463q-13 -107 -13 -149q1 -41 19 -73t18 -64t-11 -38q-11 -7 -34 -7t-55 19q-36 21 -54 28q-36 14 -36 145
l6 139q0 12 -8 13q-10 0 -46 -43q-106 -127 -212 -181q-16 -8 -24 -8z" />
    <glyph glyph-name="yacute" unicode="&#xfd;" horiz-adv-x="892" 
d="M694 -18q37 0 37 -28t-12 -46q-176 -236 -248 -578q-6 -30 -11 -66q-19 -138 -116 -153q-12 -2 -24 -5t-28 -3q-14 0 -28 2q-52 8 -53 71q0 64 39 156q91 214 180 361q9 61 56 204q47 144 63 196q17 52 29 91t12 48q0 22 -31 -9q-86 -86 -195 -147q-26 -14 -34 -15
q-127 0 -195 82q-12 15 -12 85q0 140 76 343q33 87 69 177t66 190q10 31 36 45t36 14l57 -10q16 0 35 -12q18 -13 18 -37t-7 -52q-7 -29 -24 -52q-18 -23 -23 -29t-9 -10t-31 -60t-65 -185q-37 -128 -51 -168t-16 -55t-10 -46t-8 -58t11 -26q77 0 206 147q11 14 31 32t45 49
q25 29 55 59q125 123 207 345q3 12 21 37t34 25t26 -7q11 -7 36 -7q72 0 72 -74q0 -35 -30 -79t-81 -124q-50 -79 -79 -166q-30 -88 -63 -176t-64 -174t-31 -95t8 -9zM1010 1309q23 0 42 -20t19 -56q0 -37 -17 -58q-17 -20 -141 -59l-241 -76q-24 -6 -48 -6t-38 22t-24 30
t-9 22q0 36 37 37q8 0 51 16l182 70q119 39 154 69q10 8 33 9z" />
    <glyph glyph-name="thorn" unicode="&#xfe;" horiz-adv-x="933" 
d="M465 1231q22 76 22 117t37 41q23 0 38.5 7t49.5 7q58 0 58 -41q0 -52 -59.5 -223.5t-84 -240.5t-46 -126t-31.5 -90q0 -4 6 -4q31 27 63.5 59.5t94.5 91t143 103.5q19 12 43 12q59 0 162 -70q32 -19 32 -83t-12 -109t-12 -56q-1 -12 -17 -56q-50 -135 -136.5 -297.5
t-194.5 -254.5q-18 -14 -47 -14q-47 0 -106.5 30.5t-96.5 93t-47 116.5q-136 -204 -285 -682q-8 -27 -10 -49.5t-5 -46t-30 -23.5l-62 8q-46 0 -57 12q-10 12 -18.5 19.5t-9.5 22.5t37 130t104.5 283t202 511.5t274.5 801.5zM463.5 216q29.5 -73 65.5 -73q35 0 89 98.5
t69 132.5t23 50q75 166 92 260t17 104t-12 10t-87 -65t-122 -115.5t-87.5 -103t-58.5 -82.5t-18 -87q0 -56 29.5 -129z" />
    <glyph glyph-name="ydieresis" unicode="&#xff;" horiz-adv-x="892" 
d="M694 -18q37 0 37 -28t-12 -46q-176 -236 -248 -578q-6 -30 -11 -66q-19 -138 -116 -153q-12 -2 -24 -5t-28 -3q-14 0 -28 2q-52 8 -53 71q0 64 39 156q91 214 180 361q9 61 56 204q47 144 63 196q17 52 29 91t12 48q0 22 -31 -9q-86 -86 -195 -147q-26 -14 -34 -15
q-127 0 -195 82q-12 15 -12 85q0 140 76 343q33 87 69 177t66 190q10 31 36 45t36 14l57 -10q16 0 35 -12q18 -13 18 -37t-7 -52q-7 -29 -24 -52q-18 -23 -23 -29t-9 -10t-31 -60t-65 -185q-37 -128 -51 -168t-16 -55t-10 -46t-8 -58t11 -26q77 0 206 147q11 14 31 32t45 49
q25 29 55 59q125 123 207 345q3 12 21 37t34 25t26 -7q11 -7 36 -7q72 0 72 -74q0 -35 -30 -79t-81 -124q-50 -79 -79 -166q-30 -88 -63 -176t-64 -174t-31 -95t8 -9zM608 1364q67 0 86 -32t19 -66q0 -35 -39 -79q-8 -9 -8 -17t-23 -20q-23 -13 -42 -13h-32q-23 0 -34 20
q-11 19 -18 27t-7 54t18 79q18 35 37 41q18 6 43 6zM978 1038q-36 0 -48 27t-29 44q-16 17 -16 35t7 46q7 27 23 47q17 20 33 20l41 -2q72 0 80 -36q4 -13 13 -31q20 -39 -2 -85t-44 -56q-22 -9 -58 -9z" />
    <glyph glyph-name="dotlessi" unicode="&#x131;" horiz-adv-x="450" 
d="M532 246q70 0 70 -43q0 -23 -33 -56l-84 -77q-33 -29 -87 -64t-124 -35q-42 0 -102.5 66t-60.5 182q0 72 21 133q21 62 28.5 87t35.5 93t75.5 179.5t105.5 230.5q27 55 92 55t76.5 -17t11.5 -45t-14.5 -59.5t-34 -60.5t-42 -59.5t-37.5 -63.5q-86 -190 -130 -307
q-43 -117 -43 -186q0 -68 37 -68q45 0 82 23.5t71 48.5q58 43 86 43z" />
    <glyph glyph-name="Lslash" unicode="&#x141;" horiz-adv-x="962" 
d="M229 414q-34 0 -34 42q0 54 7.5 64.5t11.5 26.5q3 16 22.5 25.5t54.5 22.5t52 20.5t28 31.5q78 176 158.5 342t160.5 344q12 23 64 23q14 0 20 -9.5t30 -15.5t45 -19.5t21 -25.5q0 -41 -14 -61.5t-14 -35.5t-23 -34q-44 -37 -94 -166q-12 -31 -24.5 -52t-24.5 -49
t-22.5 -49.5t-19.5 -42t-16.5 -37t-7.5 -22.5t6.5 -6t15 3.5t28.5 13.5t45.5 21t71.5 31.5t63.5 20.5t30 -12.5t12.5 -36.5t-7 -50t-13.5 -32t-8.5 -21t-21.5 -17.5t-35.5 -13.5t-51 -25.5t-73 -28t-73 -25.5t-57 -20t-29 -29q-35 -90 -62.5 -167l-47.5 -133t-21 -74
q0 -44 31 -44t156 35t341 123q9 4 31 4t57 -14.5t55 -33.5t19 -27q0 -9 6 -15t6 -32q1 -40 -75 -40h-38q-37 0 -139 -38t-228.5 -79t-252.5 -41q-72 0 -114 50.5t-52 63.5t-10 37t20 73t20.5 56t2.5 17.5t5.5 26.5t11.5 38t14 41t16 48t10 35t-8 6z" />
    <glyph glyph-name="lslash" unicode="&#x142;" horiz-adv-x="520" 
d="M866 1391q0 -28 -27 -59.5t-53 -75.5t-179.5 -270.5t-153.5 -260.5q0 -6 7 -6q6 1 42 17t102 43.5t129 27.5q20 0 23.5 -16.5t3.5 -44.5t-12 -40t-34 -28q-31 -22 -85 -39t-101 -39q-47 -21 -83.5 -33t-88.5 -51q-12 -10 -37 -69t-51 -120t-26 -116t9 -84t35 -29t51 14
q24 14 59.5 53.5t97.5 105t118 65.5q12 0 41 -11.5t29 -33.5t-12 -32.5t-40 -40.5t-65 -77t-100.5 -111.5t-169.5 -64.5q-27 0 -109 40.5t-96 115.5q-6 33 -6 84t18 101t17 67q0 12 -17 12l-32 -3q-33 -3 -33 36t6 54t19 34t40 31q62 27 89.5 49.5t50.5 72.5
q72 156 161 318.5t143 270.5q96 191 154 217q42 18 99 18q67 0 67 -92z" />
    <glyph glyph-name="OE" unicode="&#x152;" horiz-adv-x="1544" 
d="M840 145q0 -26 38 -26t182 34t203.5 67.5t129.5 69.5t145 36q22 0 51 -25.5t29 -39.5q0 -44 -24 -61t-50 -28.5t-86 -44.5q-134 -73 -349 -120.5t-277 -47.5t-90 13.5t-46 13.5t-33.5 -5.5t-66 -23t-153 -4t-179 101t-76.5 246.5q4 211 69 383t174 329t191.5 218
t120.5 61q203 0 271 -90q8 -10 19 -10t208.5 73.5t476.5 73.5q16 0 29.5 -3t44.5 -6t65.5 -23.5t34.5 -55.5q0 -77 -32 -77t-81 8t-108 8q-99 0 -243.5 -32.5t-211.5 -60.5t-75.5 -37.5t-13.5 -29.5q-11 -45 -21.5 -100.5t-23.5 -111.5t-13 -64q1 -17 31 -3q56 24 147.5 52
t153.5 28q61 0 105 -15t50.5 -21.5t6.5 -34.5q0 -54 -26.5 -71t-49.5 -17l-64 6q-97 0 -218 -47t-153 -55t-42.5 -15.5t-58.5 -132.5t-80 -198q-31 -73 -31 -85zM367 472l-13 -160q0 -92 31 -158t105 -66q73 0 131 66q68 85 128 223t60 153q1 15 -15 39t-16 78q0 15 33 21
t40 11t18 35q25 66 49 158t24 114t-10 19t-32 11q-37 24 -48 104q-7 33 -46 33t-75 -33q-246 -234 -346 -561q-18 -59 -18 -87z" />
    <glyph glyph-name="oe" unicode="&#x153;" horiz-adv-x="1171" 
d="M354 -4q-28 0 -62 13q-114 43 -152 119q-38 74 -38 150q0 262 201 517.5t320 255.5q61 0 125 -52q42 -34 58 -75q15 -41 19 -52q23 23 40 41.5t55 53.5t107 62.5t124 27.5q113 0 145 -74q19 -44 -1.5 -128.5t-71.5 -156.5q-265 -330 -480 -450q-20 -11 -20 -21
q0 -40 29 -66q29 -25 42.5 -30.5t33.5 -5.5q96 0 271 145.5t232 188.5q14 10 44 10t44 -14q26 -40 -4 -70q-179 -179 -283 -254t-219 -129q-18 -8 -62 -8q-79 0 -192 76q-43 29 -65 90q-6 16 -13 16t-31 -32t-43.5 -55t-44 -43.5t-53 -35t-55.5 -14.5zM610 886q0 16 -10 17
q-28 -1 -72 -59q-135 -182 -206.5 -318.5t-71.5 -281.5q0 -46 32 -71.5t48 -25.5q16 -1 46 29q74 71 186 274.5t112 333.5q0 33 -6 45.5t-32 26.5t-26 30zM1149 910q0 20 -26 20t-62 -33q-104 -98 -193.5 -204.5t-126.5 -235.5q-6 -23 -6 -29t7 -6q6 0 62 44t126.5 124
t113.5 127t55.5 65.5t23 40t18.5 44.5t8 43z" />
    <glyph glyph-name="Scaron" unicode="&#x160;" horiz-adv-x="884" 
d="M616 1339q199 0 301 -110q61 -65 79 -165q6 -28 10 -48q4 -18 4 -28t-14 -19q-14 -8 -28 -8q-50 -1 -83 31t-42 45t-15 33t-11 44q-23 90 -98 90q-9 0 -29 -43t-20 -123t20 -164q20 -83 40 -157t43 -154q85 -309 85 -434q0 -63 -43 -123t-113 -64q-16 -1 -51 -1
q-137 1 -265 73t-226 195q-12 15 -28 31q-64 64 -87 170q-4 16 -4 30v31q0 14 14 37q14 22 36 22q85 -2 150 -69q32 -33 14 -67q-7 -12 -7 -32t4 -28l16 -32q12 -24 43 -58q107 -119 238 -162q25 -8 51 -8t50 22q22 22 22 58q0 156 -32 277q-32 120 -78 277q-47 157 -56 224
q-10 67 -16 111t-5 72q0 27 4 45q3 18 9 50q22 128 118 129zM839 1406q-5 -3 -21 -3t-30 20l-100 144q-45 67 -45 90l2 22q1 17 19 44q18 26 28 26l35 6q14 0 16 -8q5 -20 35 -69q31 -50 64 -105q8 -14 19 -14t41 18t56 33l132 71q18 10 28 11q23 0 23 -35l4 -31
q0 -34 -20 -46q-7 -5 -29 -19l-228 -146q-12 -8 -18 -7t-11 -2z" />
    <glyph glyph-name="scaron" unicode="&#x161;" horiz-adv-x="606" 
d="M658 625q-12 0 -35 8q-64 22 -64 84q1 6 21 40t20 58q0 65 -34 87q-13 9 -22 9q-18 0 -52 -50q-80 -120 -80 -214q0 -4 2 -21t5 -55q11 -121 41 -287t32 -235q0 -31 -75 -88q-30 -23 -66 -23t-56 9q-179 72 -299 274q-12 24 -12 39q0 16 20 42t52 26t52 -6t47 -53
q27 -45 41 -71q67 -118 113 -118q20 0 21 16q0 16 -15 87q-15 70 -38 244t-23 205q0 103 34 183q58 135 139 179q54 30 83 30q84 0 126 -20q92 -45 105 -116q21 -104 -4 -158q-23 -54 -41 -76t-22 -26q-4 -3 -16 -3zM704 1115q-6 -3 -22 -3t-29 21l-100 143q-45 67 -45 90
l2 23q0 16 18 43q18 26 29 26l35 6q14 0 16 -8q6 -23 99 -174q8 -14 19 -14t41 18t56 33l131 72q18 10 29 10q21 0 23 -35l4 -31q0 -29 -14 -40t-35 -25l-228 -146q-12 -8 -18 -7q-5 1 -11 -2z" />
    <glyph glyph-name="Ydieresis" unicode="&#x178;" horiz-adv-x="1028" 
d="M414 506q0 -31 53 -21t143 81t129 110q108 108 230 344q57 114 131 225q14 21 28 21t52 -10t55 -25q17 -16 25 -39t8 -34t-13 -25q-217 -305 -357 -743t-220 -1027q-4 -31 -8 -41t-4 -23t-13 -14q-10 0 -21 3t-42 8q-78 13 -86 53q-4 17 -4 73t22 136t31 131q8 51 34 188
t169 619l-17 -19q-116 -133 -272 -133q-19 0 -69 32t-80 58q-30 27 -51 60t-21 43q2 42 4 137q3 95 10 115q6 20 6 51t7 46t26 137t82 345q6 18 16 18q39 0 69 -7t60 -11q10 -2 18 -22t9 -44q-1 -24 -21 -68t-31 -100q-87 -438 -87 -628zM721 1710q67 0 85 -31
q19 -31 19 -69t-39 -77q-8 -9 -8 -19t-28 -20q-28 -11 -42 -11h-26q-23 0 -34 20q-11 19 -18 27t-7 52t18 79q19 37 37 43t43 6zM1195 1534q9 -18 9 -47t-22 -59q-22 -28 -38 -36t-52 -8t-50 27q-12 27 -28 44q-34 36 0 105q20 42 47 44l41 -2q28 0 52 -10t28 -25t13 -33z
" />
    <glyph glyph-name="Zcaron" unicode="&#x17d;" horiz-adv-x="1146" 
d="M1147 1151q1 57 -277 57q-58 0 -139 -26q-80 -26 -115 -90q-10 -15 -40 -15q-30 -1 -61 15q-32 16 -44 43t-25 79q0 22 9 27q162 107 391 107t395 -93q43 -29 76 -67q33 -39 33 -72q0 -61 -74 -139q-74 -77 -144 -140q-72 -63 -84 -72t-12 -18t19 -10q148 0 200 -69
q11 -12 11 -34t-12 -34t-21 -12l-25 2l-82 2q-107 0 -247 -31q-141 -31 -211 -43q-52 -45 -114 -86t-120 -85q-140 -105 -190 -204q-4 -10 -11 -25t11 -28q17 -13 49 -24t55 -11q22 0 48 -8t95 -8q118 0 395 102q111 41 129 41t41 -7t27 -13q16 -29 41 -56t25 -48t-14 -21
l-35 8q-12 0 -14 -6t-15 -12q-292 -129 -536 -128t-424 113q-32 21 -59 76q-27 54 -27 86t25 69q50 72 255 238q12 11 12 17t-41 12t-61 28t-20 40l6 52q0 28 18 40t34 12t74 -20q57 -20 104 -19t93 13t54 16q429 266 555 450q14 21 14 29zM1076 1433q-5 -3 -21 -3t-29 20
l-100 143q-45 67 -45 90l2 23q1 16 19 43t28 27l35 6q14 0 16 -8t7 -21q5 -12 32 -55q26 -43 59 -99q7 -14 19 -14q12 1 42 19t56 32l131 72q18 10 29 10q22 0 22 -35l4 -30q0 -32 -13 -42q-13 -9 -36 -24l-227 -145q-12 -8 -18 -7t-12 -2z" />
    <glyph glyph-name="zcaron" unicode="&#x17e;" horiz-adv-x="786" 
d="M348 707q-12 0 -40 25t-30 80q-2 54 39 65q76 18 161 43q154 45 280 8q53 -16 65 -33q10 -10 36 -28t26 -57q0 -38 -12 -61t-79 -72t-67 -61q0 -6 32 -6q105 0 152 -55q17 -20 17 -31q-11 -30 -43 -30q-51 0 -164 -17q-175 -26 -241 -60q-38 -20 -116 -111
q-79 -91 -109 -117t-30 -60q0 -16 32 -31q31 -16 59 -16t63 12t75 12t116 40q75 40 123 40t79 -28t21 -57q-2 -5 -35 -18t-86 -35q-200 -83 -329 -83t-220 53q-59 37 -62 127q0 39 14 68t70 89q55 60 65 72t9 19q0 6 -3 9q-3 4 -22 10t-41 16t-40 56t3 61q21 16 49 16
q29 0 61 -14t97 -15q84 -1 206 135q30 33 68 53t66 50q27 30 27 46q0 14 -29 16t-45 -6t-68 -14q-106 -10 -183 -101q-5 -4 -17 -4zM794 1194q12 0 41 18q30 18 56 33l131 72q18 10 29 10q22 0 22 -35l4 -30q0 -31 -13 -41q-13 -11 -36 -25l-227 -145q-12 -8 -19 -8l-24 -5
q-10 0 -19 2q-8 2 -18 19l-100 143q-43 64 -46 90l3 23q0 16 18 43t29 26l34 7q15 -1 17 -9q7 -25 36 -72t62 -102q8 -14 20 -14z" />
    <glyph glyph-name="florin" unicode="&#x192;" horiz-adv-x="860" 
d="M893 750q16 0 35.5 -14.5t23.5 -33t11.5 -21.5t7.5 -35t-17 -32q-82 0 -179.5 -20.5t-148.5 -20.5t-61 -18q-194 -506 -227 -573.5t-43 -87.5q-82 -167 -207 -227t-223 -60l-94 8q-68 0 -93.5 4t-25.5 32t13 44t20 41q17 47 87 47t90.5 -2t27 -4t7.5 -4t17 -2
q82 0 138 56t115 205q195 488 195 506q0 19 -10 28t-62 26.5t-52 62.5l-7 39q0 16 10.5 30.5t18.5 14.5l148 -12q27 0 36 29q26 73 41 107t59 146q78 202 198.5 289.5t279.5 87.5q85 0 121.5 -10t36.5 -33l6 -22q0 -39 -19 -63.5t-41 -24.5t-23 -8t-27 -8q-48 0 -64 4t-36 4
q-167 0 -274 -291q-18 -47 -34.5 -93t-32.5 -87q0 -8 1 -13.5t4 -5.5l210 15h43z" />
    <glyph glyph-name="circumflex" unicode="&#x2c6;" 
d="M1114 1443q0 -15 -10 -21.5t-20 -18.5q-17 -21 -34 -21q-18 0 -38 29l-129 176q-8 12 -17 12t-84 -32.5t-107.5 -49.5t-38.5 -23q-7 -7 -20 -7t-23.5 10.5t-20.5 14.5t-11 44q0 40 5 50t9.5 13t13.5 14t107 44l183 64q17 6 37 6t26 -12t10 -13q6 0 17 -16l123 -211
q22 -37 22 -52z" />
    <glyph glyph-name="caron" unicode="&#x2c7;" 
d="M839 1408q-5 -3 -21 -3t-30 20l-100 144q-45 67 -45 90l2 22q1 17 19 44q18 26 28 26l35 6q14 0 16 -8t5.5 -15.5t12.5 -23.5t28.5 -48t52.5 -87q8 -14 19 -14t41 18t56 33l132 71q51 28 51 -24l4 -31q0 -33 -13.5 -42t-35.5 -23l-228 -146q-12 -8 -18 -7t-11 -2z" />
    <glyph glyph-name="breve" unicode="&#x2d8;" 
d="M859 1536q40 0 75 21.5t62.5 47t49 47t39.5 21.5t25.5 -3t9.5 -18t13.5 -25.5t11.5 -26.5t-6.5 -19t-20.5 -25q-35 -51 -117 -101t-151 -50q-115 0 -178 66t-97 171q-6 20 -6 28q1 8 11 24q10 18 28.5 17t34.5 15t30 17q20 0 41 -40.5t21 -55.5l-1 -31q-1 -31 42 -55.5
t83 -24.5z" />
    <glyph glyph-name="dotaccent" unicode="&#x2d9;" 
d="M748 1539q0 132 127 132q71 0 92 -29q26 -26 26 -59t-10 -47q-29 -35 -64.5 -69.5t-81.5 -34.5t-75 43q-14 28 -14 64z" />
    <glyph glyph-name="ring" unicode="&#x2da;" 
d="M1040 1589q0 -90 -53 -170q-41 -59 -119 -59q-141 0 -171.5 57t-30.5 83q0 53 42.5 129t83.5 90q70 25 124 11q55 -13 85.5 -43.5t34.5 -50.5t4 -47zM908 1631q-15 24 -32 24q-18 0 -34 -23q-48 -68 -49 -110q0 -42 13.5 -62t33.5 -20t28 12q18 33 37 63.5t19 60.5
t-16 55z" />
    <glyph glyph-name="ogonek" unicode="&#x2db;" horiz-adv-x="712" 
d="M406 -201q38 0 38 -18t-2 -24.5t-12 -21t-8 -22.5t-10 -25q-12 -18 -18 -20t-12.5 -3t-19.5 -6t-69 -5q-99 0 -140.5 46t-41.5 103q0 92 42.5 173.5t90.5 121.5h133q-89 -89 -115 -155t-26 -103q0 -59 67 -59q19 0 31 6t23 9t49 3z" />
    <glyph glyph-name="tilde" unicode="&#x2dc;" 
d="M612 1516q-69 0 -69 8l-17 98q0 21 19 29l129 47q48 18 84 18q37 0 57.5 -22.5t48.5 -64.5t42 -56t42 -14l164 49q18 0 28.5 -12.5t12.5 -25.5t5 -20.5t3 -20.5q1 -13 -19 -25t-80.5 -51.5t-131.5 -39.5q-81 0 -125 69t-53 77q-10 6 -29 6q-19 -1 -60 -25t-51 -24z" />
    <glyph glyph-name="hungarumlaut" unicode="&#x2dd;" 
d="M889 1880q6 0 14.5 -3t16.5 -5t18 -10.5t36 -27.5t25 -40q0 -20 -12 -31.5t-16 -27.5q-5 -11 -23 -19t-36.5 -28.5t-50.5 -56.5q-78 -88 -113 -130q-35 -41 -66 -41q-30 0 -36 28t-18 33t-17 7t-5 9t3 12t13.5 17.5t30 35t49.5 63.5l78 102q23 31 44.5 52t39.5 41t25 20z
M929 1395q-9 0 -10 4t-21 8t-37 21q-38 38 2.5 74t50.5 50.5t22 28.5l154 166q43 49 94 49q14 0 25 -15.5t33 -30.5q22 -16 22 -42t-27 -53t-42 -33t-28 -16l-213 -195q-16 -16 -25 -16z" />
    <glyph glyph-name="Delta" unicode="&#x394;" horiz-adv-x="1228" 
d="M291 -45q-77 4 -115 4h-100q-36 0 -46 70.5t-10 84.5t8.5 25t49.5 58t149 239q264 469 617 963q36 43 43 43q23 0 61.5 8t79.5 8t47 -10q7 -12 25 -15t18 -12v-12q0 -8 -2 -37t-4 -81t-9 -148t-7 -284q0 -432 59 -759q2 -14 26 -20t28 -37q5 -31 5 -48t-3 -24.5
t-12 -12.5t-24.5 -12.5t-38.5 -21.5t-53 -14h-35q-35 0 -108.5 7t-202 19t-249.5 13.5t-197 5.5zM922 1192q0 29 -9 29t-24 -21q-254 -390 -358 -573q-105 -183 -185 -318.5t-80 -157.5t31 -27t243.5 -8t300.5 -13q87 -11 94 -11h11q14 0 15 17q-39 449 -39 1083z" />
    <glyph glyph-name="Omega" unicode="&#x3a9;" horiz-adv-x="1478" 
d="M1325 834q0 383 -340 383q-98 0 -195.5 -49.5t-175 -138.5t-127 -212t-49.5 -235t27 -222.5t190 -218.5q14 -10 18.5 -16t4.5 -25t-12.5 -38.5t-12.5 -35.5q0 -36 -92 -36l-268 -15q-101 0 -106 7.5t-5 12.5t-16 12q-28 12 -27 91q0 16 7.5 22.5t35.5 6.5l185 -4
q53 0 53 14q0 9 -43 53q-43 45 -85 144.5t-42 260.5t63.5 304t165 246.5t226 162t256.5 58.5t212.5 -25.5t147.5 -107.5q16 -23 101 -105.5t85 -320.5q0 -136 -74 -320.5t-221 -306.5q-12 -10 -12 -19t19 -9l180 10q14 0 25.5 -8.5t11.5 -14.5t-5.5 -9t-5.5 -13l5 -23
q0 -16 -9.5 -33.5t-15.5 -33.5q-10 -16 -25 -17l-174 -6l-121 2l-141 -6q-31 0 -31 37t13.5 53t13.5 28.5t4 19t22 16.5t21.5 15t27.5 20.5t72 65.5q91 94 164.5 252t73.5 327z" />
    <glyph glyph-name="pi" unicode="&#x3c0;" horiz-adv-x="1179" 
d="M998.5 807q-0.5 -4 11.5 -8q38 -13 39 -46q0 -33 -55.5 -140t-73.5 -171t-42 -125t-24 -117t9 -82t21 -31t36 -5t57 24.5t60.5 53t50 53.5t42.5 25t34 7t38 7t33.5 -6t9.5 -42t-38 -74t-68.5 -72.5t-77.5 -71.5t-139 -37q-28 0 -117 42.5t-104 100.5t-15 93
q0 71 24 165.5t89 233.5t79 170t15 43q0 7 -52.5 -1t-110 -13t-71.5 -5t-22 -6t-16 -38q-9 -36 -67.5 -174.5t-61.5 -152.5q-4 -15 -16.5 -35t-16.5 -42t-16.5 -57t-28 -74t-28.5 -79t-21.5 -77t-11.5 -54.5t-42 -17.5l-49 -18q-14 0 -39.5 13.5t-38 13.5t-12.5 28t12 62
q47 115 87 220t86 216t72 174q26 62 26 70t-10 8t-40 -6t-59 -22.5t-62 -16.5q-104 0 -112 39q-3 12 -14 15t-11 22q0 20 6.5 35.5t9.5 28.5t6 15t23 2t76 8.5t230.5 33t316.5 31t239 18.5t149 12t93 -10.5t41 -26.5t10.5 -21.5t10.5 -28t-7.5 -27.5t-10.5 -17t-9 -16.5
t-28 -4.5l-41 2l-250 -12q-13 0 -13.5 -4z" />
    <glyph glyph-name="endash" unicode="&#x2013;" horiz-adv-x="1208" 
d="M1126 618q7 -7 7 -40t-12 -62t-27 -29h-50l-491 -14q-222 0 -262 16q-18 8 -31.5 43t-13.5 82q0 33 69 33q25 0 105 -8t219 -8l281 8l88 5q89 5 118 -26z" />
    <glyph glyph-name="emdash" unicode="&#x2014;" horiz-adv-x="1372" 
d="M53 612q0 31 62 31h1349q25 0 54 -29q6 -5 6 -41t-17 -79q-6 -11 -30 -11h-1356q-30 1 -41 15q-27 38 -27 114z" />
    <glyph glyph-name="quoteleft" unicode="&#x2018;" horiz-adv-x="393" 
d="M664 1221q0 -34 -23 -66.5t-42 -59t-42 -65.5l-127 -215q-20 -33 -72 -33q-22 0 -37.5 6.5t-26.5 9.5t-19.5 17t-8.5 27t23 53q23 39 55 95t50 88t33 58.5t33.5 59t43.5 82.5q14 39 49 39l55 -1q56 -1 56 -95z" />
    <glyph glyph-name="quoteright" unicode="&#x2019;" horiz-adv-x="393" 
d="M664 1221q0 -34 -23 -66.5t-42 -59t-42 -65.5l-127 -215q-20 -33 -72 -33q-22 0 -37.5 6.5t-26.5 9.5t-19.5 17t-8.5 27t23 53q23 39 55 95t50 88t33 58.5t33.5 59t43.5 82.5q14 39 49 39l55 -1q56 -1 56 -95z" />
    <glyph glyph-name="quotesinglbase" unicode="&#x201a;" horiz-adv-x="393" 
d="M299 125q0 -34 -22.5 -66t-42 -59t-41.5 -66l-127 -215q-20 -32 -57 -32q-38 0 -52.5 6t-26.5 9t-20 17.5t-8 27.5t22 52t54 95t50 88t34 59t32.5 55.5t28.5 53t16 32.5q14 39 49 39l56 -1q55 -1 55 -95z" />
    <glyph glyph-name="quotedblleft" unicode="&#x201c;" horiz-adv-x="696" 
d="M285 897q0 10 11 17t100 168q89 160 128 251q18 43 57 43t70 -41q10 -12 22.5 -23.5t12.5 -31.5t-27 -59q-27 -40 -81 -142l-107 -200q-10 -16 -34.5 -28.5t-39.5 -12.5l-80 14q-10 0 -21 17.5t-11 27.5zM851 1317q76 0 99 -24q23 -23 23 -69t-37 -93.5t-70 -100.5
l-125 -211q-23 -37 -57.5 -37t-51 6.5t-28.5 8.5t-20.5 16t-8.5 27t13 37l127 221q10 18 26.5 47t43.5 77t36 71q9 24 30 24z" />
    <glyph glyph-name="quotedblright" unicode="&#x201d;" horiz-adv-x="696" 
d="M285 896q0 10 10 18q10 7 100 167q89 160 129 252q18 43 56 43t71 -41q11 -12 23 -23t12 -31t-35 -71t-73 -131l-107 -200q-10 -17 -35 -29t-39 -12l-80 14q-10 0 -21 17t-11 27zM851 1317q76 0 99 -24q23 -23 23 -69t-37 -94t-70 -100l-125 -211q-22 -35 -57 -36t-51 5
q-17 6 -29 8t-23 22t-6 32t13 27l127 221q98 177 106 198q9 21 30 21z" />
    <glyph glyph-name="quotedblbase" unicode="&#x201e;" horiz-adv-x="696" 
d="M-88 -213q0 10 11.5 17.5t93.5 154.5t135 264q18 43 56 43t71 -41q10 -12 22 -23.5t12 -31.5t-27 -59q-27 -40 -81 -142l-107 -200q-10 -16 -34.5 -28.5t-38.5 -12.5l-80 14q-10 0 -21.5 17.5t-11.5 27.5zM600 114q0 -46 -37 -93.5t-69 -100.5l-125 -211q-23 -37 -58 -37
t-51 6.5t-28 8.5t-20.5 16t-8.5 27.5t12 36.5l127 221q10 18 26.5 46.5t43.5 77.5t36 72t30 23q74 1 98 -23t24 -70z" />
    <glyph glyph-name="dagger" unicode="&#x2020;" horiz-adv-x="1167" 
d="M920 1327q76 -1 77 -35q0 -10 4.5 -12t4.5 -9v-12q0 -12 -2 -18l-25 -82q-6 -18 -13.5 -27.5t-26.5 -34.5t-38 -78q-18 -53 -17.5 -61t26.5 -8q52 0 143 14.5t121 14.5q49 0 73.5 -12.5t24.5 -45.5q0 -34 -14.5 -54.5t-18.5 -39.5q-6 -16 -22 -16q-76 0 -148 -7t-129 -11
t-111 -15q-23 -4 -41 -57t-56 -180t-95 -281t-107 -328q-6 -25 -32 -24t-33 17q-8 17 -19.5 22.5t-34 15t-22.5 24.5t6 39.5t12.5 43t12.5 44.5t21.5 67.5t33.5 105.5l111 385q18 65 18 73q0 19 -30 19t-74.5 2t-112.5 7t-84 16t-16 118q0 14 5 16.5t14 15.5t30 13
q20 0 22 -1t17 -3l123 -14l112 -8q50 0 60 7t37 81l65 182q14 39 22.5 60.5t14 36t14.5 14.5q41 6 59 13t38 7z" />
    <glyph glyph-name="daggerdbl" unicode="&#x2021;" horiz-adv-x="1167" 
d="M188 332q-41 0 -41 78q0 44 6.5 51t10.5 23t23 16h25q6 0 30 -3q187 -23 232.5 -15.5t54 17t28.5 76.5l39 136q18 65 18 73q0 18 -30 18t-74.5 2.5t-111.5 7.5t-84 15.5t-17 118.5q0 14 5 16.5t14 15.5t27 13q17 0 20.5 -1t7.5 -3t13 -3t26 -3l114 -8q58 -8 102 -8t54 8
t37 80l65 182q35 98 43.5 104.5t20.5 6.5q23 0 43 10t52 10q54 0 54 -41l6 -18v-11q0 -10 -2 -16l-24 -82q-6 -18 -31 -54t-43 -88q-18 -51 -17.5 -59t26.5 -8q44 0 128.5 13.5t134.5 13.5q49 0 73 -9t24 -45t-14.5 -56.5t-18.5 -39.5q-6 -16 -23 -16q-76 0 -145.5 -7
t-128.5 -10t-113 -16q-23 -4 -66.5 -132t-43.5 -169q1 -8 63 -8t137.5 9t107.5 9t40.5 -2t24.5 -22t16 -34q0 -15 -14.5 -46t-14.5 -48t-22 -18h-51l-189 -6q-136 0 -158 -28.5t-59 -158.5t-42 -150.5t-14.5 -48t-29.5 -87.5q-9 -24 -30 -24t-27.5 3.5t-14.5 23.5t-19 23
t-27.5 6.5t-16.5 33.5q1 30 23 99t28 100.5t24 87.5t19 72q0 17 -27 17h-53z" />
    <glyph glyph-name="bullet" unicode="&#x2022;" horiz-adv-x="1003" 
d="M471 29q-47 0 -101 17t-86 43q-66 55 -103.5 107t-37.5 157q0 106 36 209.5t100.5 195.5t153.5 154.5t185 62.5t154.5 -20.5t101.5 -82.5q23 -31 49.5 -55t55.5 -87t29 -142q0 -80 -37 -181.5t-106.5 -185.5t-169 -138t-224.5 -54z" />
    <glyph glyph-name="ellipsis" unicode="&#x2026;" horiz-adv-x="1454" 
d="M352 55q-17 -49 -43 -49q-8 0 -29.5 -9t-51.5 -9q-49 0 -97 71q-8 11 -8 27t2 30.5t4 29.5t14.5 27.5t14.5 36.5t14 38t25 18t43 4t42.5 -6t22.5 -15t20.5 -18.5t22.5 -15.5q21 -8 21 -60q0 -51 -17 -100zM707 274q21 0 56.5 -12t72.5 -78q6 -12 6 -36t-10 -44
t-23.5 -36.5t-15.5 -29.5t-24 -29q-21 -17 -45.5 -17t-61.5 12q-62 20 -72 78q-2 8 -4 15t-2 13t2 25t10 43.5t25 48t41 35.5t45 12zM1282 197q12 -24 12 -71t-59 -120q-17 -18 -61 -18t-82.5 25t-38.5 61v16l-2 64q0 63 19.5 79.5t27.5 27.5t46 11q103 0 138 -75z" />
    <glyph glyph-name="perthousand" unicode="&#x2030;" horiz-adv-x="2211" 
d="M905 1122q0 -85 -33.5 -183.5t-83.5 -160.5t-95 -93.5t-119 -31.5q-120 0 -207 121q-56 73 -56 134t19.5 119.5t49.5 116.5q104 206 275 206q37 0 72 -17.5t74 -27.5t71.5 -54t32.5 -129zM1426 1208q-18 -6 -38 -30q-20 -23 -60 -43.5t-216 -310t-251 -414.5t-149 -240
t-118.5 -167t-54.5 -52q-72 0 -90.5 23.5t-18.5 59.5t8 52t20 22q22 12 42 35t69 99l574 907q38 61 102 133t107 72t63 -16t24.5 -26.5t4.5 -53.5q0 -44 -18 -50zM1526 400q0 -140 -117 -322q-71 -105 -224 -105t-203 92.5t-50 164.5t80 241q23 49 67.5 99.5t77.5 63.5
q43 17 104 17t104 -16q44 -16 69.5 -34.5t46 -43.5t33 -57t12.5 -100zM2157 424q0 -186 -127 -371q-57 -80 -189 -80q-99 1 -159 43q-114 82 -115 198q0 82 75 245q23 49 66 98t77 69t86 19q52 0 64.5 -3t20.5 -8t14 -10.5t30 -9.5q51 -9 104 -66t53 -124zM561 762
q23 0 38 12t45 62q106 177 106 285q0 40 -3.5 56.5t-19.5 21.5q-25 8 -28 31t-26 23t-34.5 -9.5t-49.5 -65.5q-116 -169 -116 -293q0 -123 88 -123zM1096 174q0 -108 82 -108q46 0 71 57q121 240 121 302t-17 85q-69 91 -122 4q-135 -205 -135 -340zM1906 535
q-18 0 -49.5 -39t-78.5 -130.5t-47 -165.5t11 -93t25.5 -29t40.5 -10t51 24.5t45 71.5t41 84t38.5 71.5t17.5 68.5q0 85 -27 93q-17 6 -29 23.5t-16.5 24t-22.5 6.5z" />
    <glyph glyph-name="guilsinglleft" unicode="&#x2039;" horiz-adv-x="522" 
d="M473.5 968.5q11.5 4.5 36.5 4.5q25 -1 31 -19t11.5 -22t19.5 -28t14 -36t-2 -18t-10.5 -16.5t-26 -24.5t-53.5 -42t-58 -52.5t-42 -39.5t-19 -29q0 -14 34 -87q34 -74 49 -93t15 -57q0 -87 -82 -87q-20 0 -39 45q-2 6 -17.5 28.5t-35.5 52t-43 61t-35 50.5t-12 53l-4 37
q0 32 22 56l158 172q77 87 88.5 91.5z" />
    <glyph glyph-name="guilsinglright" unicode="&#x203a;" horiz-adv-x="522" 
d="M259 324q-31 0 -44.5 16t-13.5 26t-6.5 13.5t-6.5 13.5t11 23l190 207q14 14 14 28.5t-13 32.5t-19 36q-6 17 -9.5 23.5t-7.5 12.5t-9 15t-13 25.5t-25.5 38t-17.5 37.5t19.5 28.5t41.5 41.5t49 29t39 -6t51 -88l78 -160q8 -19 8 -63t-45 -89l-204 -205q-36 -36 -67 -36z
" />
    <glyph glyph-name="Euro" unicode="&#x20ac;" horiz-adv-x="1323" 
d="M510 490q0 -18 6 -19q6 0 14.5 2t33 10.5t74.5 24.5t207 66t205 51q48 0 76 -25t36.5 -39.5t8.5 -32.5t-5 -28.5t-52 -26.5t-69 -16q-56 0 -177.5 -31t-234.5 -72q-113 -40 -119 -44.5t-6 -11.5q0 -86 76 -141t164 -55q136 0 253 78q20 14 60.5 54t70 44.5t54.5 4.5
t88 -35q22 -13 22 -37t-2 -31.5t-12 -17.5t-35 -27t-95 -67t-174 -79.5t-204 -29.5q-174 0 -280.5 69.5t-141.5 192.5q-6 25 -17 25t-58.5 -17.5t-72.5 -17.5t-59 7t-34 71t24 71q73 25 100 25t57 10t35 18.5t10 44.5t5 48t-7 12q-10 0 -59 -17.5t-82 -17.5q-34 0 -57 20
q-24 20 -24 45q0 26 10 54.5t50.5 50t81.5 21.5t81 14q41 14 50.5 23t27.5 43t42.5 81.5t76 124t99.5 124.5t59 64.5t43 45t328 97.5t429 69q51 0 91 -36.5t40 -60.5t-13.5 -44.5t-39.5 -20.5l-99 -10l-57 6q-38 0 -209.5 -37t-261.5 -63q-90 -27 -97 -31t-17 -15t-20 -22.5
t-62 -63.5t-84.5 -106.5t-32.5 -61.5q0 -8 6 -8t41 11.5t88 28t116.5 37t171 48t140.5 27.5q34 0 48.5 -6t40.5 -37t26 -50q0 -28 -39 -57q-39 -28 -88 -28l-41 2q-104 0 -257.5 -52t-243.5 -82t-97 -35t-19 -45t-12 -58z" />
    <glyph glyph-name="trademark" unicode="&#x2122;" horiz-adv-x="1589" 
d="M547 1151q-90 -10 -143 -10q-54 0 -78 28q-6 7 -6 55t14 53t22 5t14.5 -2t42.5 -5t89 -3q89 0 223.5 24.5t187.5 24.5q160 0 160 -33l-6 -59q0 -16 -12.5 -25.5t-20.5 -17.5t-36 -8t-34 3t-26 9t-53 6q-41 0 -81.5 -8.5t-86.5 -13.5q2 -2 2 -17q1 -15 -15 -43
q-140 -248 -196 -471q-4 -32 -4 -82l2 -41q0 -53 -47 -53q-34 0 -90 33q-23 15 -23 29q0 32 54.5 221.5t156.5 392.5q0 8 -10 8zM1235 918q0 -97 5.5 -97.5t29.5 29.5q64 81 209.5 220.5t164.5 163.5t30.5 43t37.5 19t28.5 -5t8.5 -5q14 0 33.5 -12.5t19.5 -29.5t-12 -36
q-123 -184 -194.5 -413t-71.5 -357q0 -25 -27 -24l-53 6q-26 0 -46 16t-20 37q0 41 8.5 74t17.5 76q10 50 28 114t34 127q0 4 -3 4t-11 -4q-25 -27 -51.5 -54.5t-61.5 -67t-43 -55.5q-8 -15 -18 -18t-29 -3l-55 6q-49 0 -66.5 51t-17.5 79t1 43t2 30.5t2 28t1 18.5t-3 6
t-17 -22q-69 -110 -96 -190q-27 -81 -44.5 -122t-17.5 -84q0 -8 -14.5 -17.5t-24.5 -9.5t-14 -7t-14.5 -7t-28 12.5t-23.5 12.5t-15 16t-9 45t17 69t43 104q35 86 145 284.5t155 298.5q4 10 19 10l47 6q27 0 33 -5t10 -9t15 -9t11 -29t-20 -88t-20.5 -79.5t-7.5 -53.5
q-7 -39 -7 -136z" />
    <glyph glyph-name="partialdiff" unicode="&#x2202;" horiz-adv-x="786" 
d="M527 1550q9 0 19.5 -9t10.5 -20q0 -17 -13.5 -36t-13.5 -46q0 -28 9.5 -50.5t28 -50t99.5 -134.5t116 -230q36 -123 36 -290q0 -229 -88 -384t-140 -207t-96.5 -90t-92.5 -38t-68.5 4t-32.5 9.5t-20.5 10.5t-40.5 16q-85 30 -109 93q-37 79 -37 168q0 130 49 259t82 167
q64 75 101 125q63 86 163 86q53 0 99 -33l37 -26q8 -8 15 -8t7 26t-21.5 93t-57.5 128t-138 193q-45 59 -45 106q0 17 7 32t5.5 18.5t7.5 19.5t26.5 33.5t35.5 32t34.5 23.5t25.5 9zM523 764q-9 0 -35.5 -14.5t-55.5 -60.5t-100.5 -155t-71.5 -303q0 -76 27.5 -104.5
t48.5 -28.5t38 9t62 51q92 87 148.5 221t56.5 207q-8 4 -15.5 8t-14.5 40t-19 65.5t-24.5 44t-24 17.5t-20.5 3z" />
    <glyph glyph-name="product" unicode="&#x220f;" horiz-adv-x="1302" 
d="M317 -188l-10 -91l8 -43q0 -37 -20.5 -51t-41 -23.5t-40.5 -15.5t-30.5 -6t-17.5 9.5t-31 9.5q-24 -1 -23 65q0 139 43 252l73 203q258 703 320 856q63 154 63 169t-39 15q-100 -1 -159 -17t-85 -16t-54.5 37.5t-28.5 62.5q0 26 9 42t18 16t21 4q25 9 82.5 30t78.5 21
q25 0 40.5 -7t47.5 -7l114 2l222 2h48q48 0 79 7q31 8 91 8t103 4t160 6.5t205 58.5q7 4 27 4q62 0 92 -31l24 -24q25 -25 25 -35t-7 -45q0 -4 -17 -18t-60 -32t-98.5 -20t-98.5 -14t-81 -12q-37 0 -37 -6t10 -17t10 -20l-4 -47q0 -37 -35 -131l-72 -195q-20 -46 -36 -81.5
t-20 -50.5q-6 -25 -34 -99t-46 -137q-19 -64 -43 -133.5t-46.5 -136t-42 -124t-30.5 -104.5t-14 -79t-13 -79t-11 -62q0 -15 7.5 -22.5t7.5 -16.5q0 -36 -70 -52.5t-91 -16.5t-19.5 7t-7.5 15t-16 12.5t-7 31.5q0 92 67 331q10 39 48.5 146.5t51.5 157.5q14 51 56.5 160
t80.5 221t60.5 177.5t41 116t33 94.5t26.5 78t13 39.5t1 12t-21 6.5l-344 -13q-17 0 -21 -10q-3 -10 -15.5 -42t-29 -79t-37 -103.5t-39.5 -114.5t-43 -104t-32 -74t-26.5 -78t-39 -99t-37.5 -90t-47 -124q-140 -379 -139 -441z" />
    <glyph glyph-name="summation" unicode="&#x2211;" horiz-adv-x="978" 
d="M1178 1231q0 -14 -32 -28.5t-146 -14.5h-217q-252 0 -268 -6q-17 -6 -19 -10.5t-2 -13.5t20.5 -41t53.5 -80t139 -194t130 -174q23 -28 30 -39.5t11.5 -18.5t7.5 -14t11 -17t8 -52q-1 -42 -25 -75t-45 -52t-81 -79q-85 -85 -304.5 -268.5t-258.5 -221.5t-39 -53
q0 -23 24 -23q18 0 75.5 5.5t191.5 16.5t182 11t102 9t100 9q105 0 105 -38l6 -43q0 -10 -19.5 -38t-31.5 -50t-29 -21l-59 2h-66l-110 4q-28 0 -185 -12t-264.5 -19.5t-170.5 -7.5q-62 0 -94 7.5t-44 27.5t-25.5 58t-13.5 50t14.5 29t36 34t46.5 36.5t67 61.5t133.5 120
t183.5 159t174 152.5t131 120.5t66.5 70.5t17.5 34t-16 35.5q-360 479 -378.5 527.5t-18.5 69.5q0 25 25.5 77.5t33.5 60.5q37 28 680 28q23 0 27 7.5t50 7.5t66.5 -7.5t20.5 -31.5l8 -35q0 -18 -8 -28.5t-8 -24.5z" />
    <glyph glyph-name="minus" unicode="&#x2212;" horiz-adv-x="1208" 
d="M1126 618q7 -7 7 -40t-12 -62t-27 -29h-50l-491 -14q-222 0 -262 16q-18 8 -31.5 43t-13.5 82q0 33 69 33q25 0 105 -8t219 -8l281 8l88 5q89 5 118 -26z" />
    <glyph glyph-name="fraction" unicode="&#x2215;" horiz-adv-x="675" 
d="M1008 1301q0 -42 -3.5 -51t-18.5 -14t-35 -29t-67.5 -49t-361 -546.5t-377 -597t-73.5 -75.5q-47 0 -65.5 14t-27 23.5t-8.5 54.5t23 55q23 8 49.5 47t54.5 82l625 963q45 72 122 154t139 30q24 -19 24 -61z" />
    <glyph glyph-name="radical" unicode="&#x221a;" horiz-adv-x="1175" 
d="M164 764l14 76q0 14 21 14l106 -6l109 4q35 0 60.5 -3t47.5 -33t32.5 -49t10.5 -35t1 -48.5t4 -79.5t5.5 -103.5t9.5 -185t11 -142t16 -13.5q20 0 58.5 59.5t95.5 159.5l303 532q215 388 235.5 405t36.5 17h66q90 0 90 -18q0 -50 -25.5 -75.5t-42 -39.5t-28.5 -34.5
t-32.5 -56.5t-45.5 -79t-49.5 -87t-44.5 -77l-529 -897q-12 -23 -24 -25.5t-34 -2.5t-32 -9.5t-24 -9.5t-46 15t-58 39t-32 31t-6 17v19q0 12 -1 28.5t-2 42t-4 74.5t-6 99.5t-5 98.5t-5 98.5t-5 99.5q-4 87 -9.5 104t-24.5 18t-51 1h-61q-60 0 -74 17q-13 17 -22.5 19.5
t-9.5 20.5z" />
    <glyph glyph-name="infinity" unicode="&#x221e;" horiz-adv-x="1556" 
d="M1575 574q0 -26 -11 -69q-11 -44 -54.5 -117t-123.5 -122q-46 -30 -80 -30q-110 0 -353 182q-99 76 -106 76t-65 -34t-144.5 -86t-141.5 -78q-176 -82 -224 -81q-48 -1 -65 15q-38 33 -47 56q-8 22 -24.5 39t-16.5 70q0 123 86 293t270 170q117 0 348 -153
q20 -14 28.5 -10.5t75.5 36.5q183 90 263 115.5t166 25.5q140 0 201 -64t61 -155q0 -47 -29 -51q-14 -2 -14 -28zM1453 631q13 0 13 12q0 47 -19 65q-19 19 -79 19q-125 0 -340 -123q-14 -8 -18 -10t-4 -6t4 -7t16 -14q205 -145 227.5 -154.5t42.5 -9.5q44 0 87.5 45.5
t43.5 81.5q0 35 -6 40.5t-6 17.5t12.5 27.5t25.5 15.5zM283 442q0 -50 26 -50.5t109 46.5l246 140q27 12 26.5 18t-22.5 22q-113 80 -175 80q-61 0 -96 -24.5t-60.5 -61.5t-39.5 -78.5t-14 -91.5z" />
    <glyph glyph-name="integral" unicode="&#x222b;" horiz-adv-x="655" 
d="M-289 -364q0 30 12.5 48.5t18.5 42.5t32.5 29.5t75.5 5.5t76.5 -7t51.5 -7q57 0 90.5 29t53.5 89q21 60 42.5 124.5t46.5 141.5t51.5 160t51 160.5t45.5 145.5t39 128t34.5 110.5t32 97t45 122.5t73.5 212q77 237 165.5 313t230.5 76l90 -4l61 2q60 2 65 -0.5t16 -20.5
q19 -31 2 -80t-39 -49q-8 0 -21.5 -9t-36.5 -9l-123 8q-86 0 -130 -38t-68 -111q-217 -656 -277.5 -850.5t-98.5 -311t-76 -226.5q-38 -111 -69.5 -181t-91.5 -128.5t-241 -58.5l-101 9q-72 0 -100.5 3.5t-28.5 33.5z" />
    <glyph glyph-name="approxequal" unicode="&#x2248;" horiz-adv-x="1208" 
d="M260 718q0 13 2 20t19 14l86 32q116 46 161 50t85 4t79 -20.5t75 -46.5t71.5 -46t78.5 -20q58 0 116.5 31.5t93.5 31.5t53 -15.5t20 -26.5t10.5 -19.5t8.5 -21.5t-26 -25t-62.5 -32t-109 -49.5t-136.5 -29.5t-97.5 20.5t-93 66.5t-117.5 46t-125 -32q-68 -32 -72 -32
l-40 5q-25 0 -35 2.5t-16 26.5t-17.5 38.5t-11.5 27.5zM853 264q-71 0 -104.5 21.5t-66.5 47t-67.5 47t-84.5 21.5t-85 -20t-72 -37.5t-78 -18t-50 32.5t-14.5 44.5t-5.5 24.5t8.5 29.5t25.5 20.5t46 16q34 15 51.5 15t44.5 10t43.5 17.5t45.5 12.5t77 5q47 0 86 -20.5
t75 -46t72 -46t79 -20.5t67.5 10t46 21.5t46 21.5t69.5 10t45 -26l10 -66q0 -27 -15 -27t-53 -20q-38 -21 -104.5 -50.5t-137.5 -29.5z" />
    <glyph glyph-name="notequal" unicode="&#x2260;" horiz-adv-x="1208" 
d="M1100 784q71 0 71 -54q0 -99 -50 -99q-59 0 -138 -6l-178 -17q-16 -27 -31.5 -56.5t-34.5 -62.5l27 1q28 0 56 4t64 8t86 10t90 6t56 -16q24 -16 22 -36q-1 -20 -8.5 -43.5t-12.5 -41.5t-19 -19l-49 5h-15q-16 0 -94 -13t-289 -18l-94 -158q-100 -165 -110.5 -171.5
t-36.5 -6.5t-41 14q-37 36 -37 56t16.5 37.5t25.5 44.5t30.5 42t37.5 44l58 98q-185 0 -197 12q-16 10 -37.5 41t-21.5 57t5 30t10 18t29 14t57 -5q115 -18 241 -18l63 109h-49q-188 0 -287 22q-35 10 -34 115q0 17 10 29t16 13t20 1t83 -13q68 -13 132 -13q65 0 83 1
t35.5 2l35 2t45.5 1l72 125q73 124 91 136.5t31 30t28 17.5t43 -20t28 -42l10 -51q0 -20 -34.5 -45.5t-49.5 -48.5t-31 -45.5t-30 -44.5q182 18 201 18z" />
    <glyph glyph-name="lessequal" unicode="&#x2264;" horiz-adv-x="1208" 
d="M1118 942q-12 0 -76 -21t-196.5 -94t-210.5 -109q-109 -50 -109 -58t18 -16q18 -9 42 -21.5t58 -30t75 -39t87 -43.5q124 -60 172 -61q48 0 48 -41q0 -29 -10 -34.5t-28 -29.5t-35 -34.5t-44.5 -11t-116.5 45.5t-134.5 68t-92.5 45.5t-99 49t-104 51.5t-53 58q1 11 9 45
q8 35 16 40.5t13 21.5q8 27 36 45t79 41q146 69 276 138q167 89 209.5 107.5t48.5 18.5l63 6q69 0 69 -24l19 -56q0 -12 -11.5 -34.5t-17.5 -22.5zM1022 238q33 0 33 -78t-41 -78t-56.5 -2t-38 -3t-58.5 -3t-97 -2l-348 -13l-152 2q-49 0 -80 29q-4 4 -14 8t-10 8l8 78
q0 14 14.5 21.5t26.5 7.5l139 -8l395 16q139 0 198.5 8.5t80.5 8.5z" />
    <glyph glyph-name="greaterequal" unicode="&#x2265;" horiz-adv-x="1208" 
d="M519 1079q19 0 26.5 -9t36.5 -21t59.5 -32t117.5 -58t226 -107q140 -69 153 -78.5t13 -22.5t-7.5 -35t-19.5 -38t-23.5 -48t-77.5 -61q-112 -49 -284 -144q-222 -124 -275 -144.5t-92 -20.5q-40 0 -49.5 9.5t-13.5 24.5t-16 30.5t-12 30.5t17 24q17 10 27.5 14t29 12.5
t49 21.5t71.5 33q88 42 210.5 106.5t164.5 84.5q43 21 60.5 30t17.5 15t-81 45t-132.5 64t-90.5 39t-66.5 27.5t-69.5 33.5q-42 19 -42 47t16 54t27 49.5t30 23.5zM1016 246q39 0 39 -77t-42 -77t-61.5 -3t-70.5 -9t-91 -6q-43 0 -190 -13.5t-168 -13.5h-176q-53 0 -80 25
q-4 4 -14 8t-10 20l8 66q0 12 15 21.5t26 9.5l139 -7q14 0 53 3.5t93.5 7.5t120 10t158.5 12t159.5 14.5t91.5 8.5z" />
    <glyph glyph-name="lozenge" unicode="&#x25ca;" horiz-adv-x="1208" 
d="M827 1401q29 0 63 7t76 7t54 -8t18 -14.5t22.5 -7.5t16.5 -21q0 -116 30 -271t46 -240t27.5 -140.5t11.5 -80.5q0 -24 -17.5 -64t-45.5 -68t-68.5 -78.5t-89.5 -116t-105.5 -143.5t-117.5 -160q-37 -47 -60 -47h-39q-15 0 -28.5 -9t-32.5 -9t-59 2t-60 8t-34.5 19.5
t-14.5 25.5v69q0 67 -20 134q-55 179 -103 397q-7 31 -23 46t-16 48q0 34 68 117q12 14 33 25.5t47 47.5t75 99t100.5 127.5t102 127t76.5 96.5t42.5 54.5t24.5 20.5zM598 125q44 0 380 479q36 51 36 65q0 41 -8 71q-40 151 -65 310q-25 160 -27.5 168.5t-13.5 8.5
q-11 -1 -46 -47t-79 -98t-118.5 -141t-129.5 -171q-56 -82 -61 -91t-5 -19v-14q0 -13 8 -43q48 -180 104 -439q8 -39 25 -39z" />
    <glyph glyph-name="FL290" unicode="&#xe003;" horiz-adv-x="1945" 
d="M1479 188q0 4 -35 4q-179 3 -216 45t-50 70.5t-13 45.5t17 36q86 96 191.5 216.5t182.5 186.5q78 66 84 77q20 34 47 34t55 -10q52 -19 52 -59q0 -25 -12.5 -50.5t-12.5 -49.5t-7 -49l-14 -50t-24 -76t-36 -125t-19 -84t5 -10t32 6t72 6q46 0 70 -24t24 -62
q0 -27 -37 -27.5t-72 -6.5t-62.5 -9.5t-49.5 -9.5q-23 -53 -27 -111t-10 -90t-11 -43.5t-33 -11.5t-50 13.5t-44 27.5t-22 36q0 23 7 61t8 45.5t5 25.5t5 22zM1331 326q1 -17 43 -17h62q61 0 66 5t13 49t39 148q31 103 31 107t-2 5q-9 0 -246 -285q-6 -10 -6 -12z" />
    <glyph glyph-name="FL291" unicode="&#xe004;" 
d="M817 1632q0 -24 -7 -40.5t-15.5 -29t-16.5 -21.5t-8 -16q0 -12 -28 -23t-42 -11h-26q-25 0 -34.5 20.5t-17.5 27.5t-8 48t27 99q16 32 78 32t80 -31t18 -55zM1257 1534v-21q0 -19 -20 -49t-36 -38t-55 -9q-38 0 -50 27t-28.5 44.5t-16.5 35.5q0 34 18 73t45 39l41 -2
q27 0 51.5 -9.5t28.5 -25.5t13 -33.5t9 -31.5z" />
    <glyph glyph-name="FL292" unicode="&#xe005;" 
d="M379 426q0 -8 10 -8q23 0 99.5 22t120.5 40t81 29t46 16t12 22q38 334 38 428t-6.5 94t-30.5 -40t-197 -295.5t-173 -307.5zM929 602l113 8q94 0 127 -39q19 -22 3 -51q-28 -51 -146 -51q-58 0 -81 -15t-26.5 -20.5t-5.5 -25.5l-10 -205l-1 -15l-1 -114q0 -111 14.5 -153
t20.5 -54.5t6 -23.5t-14.5 -22t-25.5 -21t-30 -9q-61 0 -99 38t-38 259l8 274q0 8 -12 9q-153 -57 -269 -89t-136 -35t-27 -8.5t-27 -50.5t-20 -113q0 -69 3 -86.5t3 -26.5t-15 -19t-32.5 -25.5t-42.5 -15.5t-59.5 34.5t-34.5 110.5t13 132.5t13 61.5t-24 17t-38.5 24
t-14.5 40t13 65t20 43t26 6t40.5 -17.5t33.5 -17.5t17 4.5t39 70.5t94.5 165.5t124 201t132.5 210t119 193.5t58 92.5t19 7.5t47 11t76 11t67.5 -4t31.5 -14.5t11 -15.5t7 -17l-28 -187v-28q0 -10 -6 -51q-10 -69 -24.5 -236t-14.5 -190t3 -23z" />
    <glyph glyph-name="FL293" unicode="&#xe006;" horiz-adv-x="1040" 
d="M1034 1704q20 0 36 -9q42 -25 42 -87q0 -22 -23 -42t-108 -73l-215 -133q-30 -19 -53 -18.5t-39 16.5t-23.5 17.5t-12.5 10.5t-5 13v16q0 16 26 27q4 2 14.5 7t33.5 21l159 113q37 27 72 52t56 47q20 22 40 22z" />
    <glyph glyph-name="FL294" unicode="&#xe007;" horiz-adv-x="1040" 
d="M1100 1505q0 -14 -7.5 -21.5t-15.5 -21.5t-12.5 -17t-20.5 -3t-34 18l-113 119q-8 10 -17 10q-24 0 -117 -74.5t-95 -76.5l-19 -19q-15 -16 -33 -16t-21 6t-12 8t-22.5 17.5t-13.5 44.5t5 41t9 15t7 8q13 21 114 85l182 117q23 14 43 14t24.5 -4t9.5 -6t13 -14l123 -183
q23 -33 23 -47z" />
    <glyph glyph-name="FL295" unicode="&#xe008;" horiz-adv-x="1040" 
d="M1143.5 1617.5q9.5 -17.5 9.5 -33.5t-4 -34q-30 -60 -50 -71t-58 -11t-50 27t-28.5 44t-16.5 35q0 35 19 74.5t45 39.5l41 -2q71 0 79 -37q4 -14 13.5 -31.5zM637 1706q67 0 85 -31q19 -31 19 -55t-7 -40.5t-15 -29t-16.5 -21.5t-8.5 -17q0 -12 -27.5 -22.5t-42.5 -10.5
h-26q-24 0 -34.5 20.5t-17.5 27.5t-7 51t18 79q18 36 36.5 42.5t43.5 6.5z" />
    <glyph glyph-name="apple" unicode="&#xf8ff;" horiz-adv-x="1343" 
d="M1430 741l-13 -76q1 -8 -33 -32l-102 -75t-145 -103q-23 -15 -19 -31t37 -110t63.5 -179.5t32.5 -97.5t4 -18.5t2 -11.5t-10 -15t-16 -10t-9 -2.5t-37 -18t-83 30.5q-12 10 -15 18t-118 94l-135 99q-29 20 -36 20q-29 0 -178 -109.5t-161 -115.5q-29 -23 -30 -23h-17
l-37 9q-6 0 -24.5 8t-18.5 10q0 8 -18 19t-18.5 24.5t39 106t45.5 95.5q7 3 17.5 24.5t21.5 51t22.5 60.5t18.5 47t7 26q1 10 -33 32q-34 24 -87.5 62t-99.5 69t-48 36q-6 18 -6 23l-9 55q0 22 8 34q8 13 9 16q0 3 10 3h33l88 -4l155 -2l99 -2q14 0 21.5 7.5t72.5 173
t84 165.5q26 0 45 12t25 12l45 -5q19 0 25 -50t48 -181q43 -131 50.5 -135.5t18.5 -4.5h34h25l102 2q43 0 61 14t31 14l125 -5q4 0 11 -5.5t7 -13.5t6.5 -13t6.5 -24z" />
    </font>
</defs>
</svg>
