<svg xmlns="http://www.w3.org/2000/svg" width="400" height="400" viewBox="0 0 400 400"><g fill="#fff"><path d="M60.516 30.415l-8.082 24.758h-9.784l-5.19-42.837c-1.333-.17-2.34-.631-3.021-1.382-.681-.752-1.021-1.709-1.021-2.872 0-1.361.446-2.452 1.34-3.275.894-.822 2.389-1.233 4.487-1.233l11.613.043c2.099 0 3.595.397 4.488 1.19.894.795 1.34 1.844 1.34 3.148s-.446 2.36-1.34 3.169c-.894.808-2.39 1.212-4.488 1.212h-4.552l2.894 24.375 6.85-20.291h9.061l6.806 20.291 2.893-24.375h-4.552c-2.099 0-3.594-.404-4.487-1.212-.894-.809-1.34-1.864-1.34-3.169s.446-2.361 1.34-3.17c.894-.808 2.389-1.212 4.487-1.212l11.571.043c2.098 0 3.595.397 4.487 1.19.894.795 1.34 1.844 1.34 3.148 0 1.105-.354 2.056-1.063 2.85s-1.729 1.305-3.062 1.531l-5.02 42.837h-9.613l-8.382-24.757zM134.661 40.284h-35.775c.907 2.27 2.517 4.099 4.828 5.487 2.312 1.39 5.438 2.085 9.38 2.085 3.233 0 7.529-.695 12.89-2.085 2.212-.566 3.743-.851 4.594-.851 1.163 0 2.142.411 2.936 1.233.794.823 1.191 1.858 1.191 3.105 0 1.135-.426 2.1-1.276 2.893-1.135 1.05-3.899 2.05-8.295 2.999-4.396.95-8.622 1.425-12.677 1.425-6.977 0-12.557-1.971-16.739-5.912-4.184-3.941-6.274-8.791-6.274-14.549 0-6.125 2.261-11.109 6.785-14.952 4.522-3.843 9.733-5.764 15.633-5.764 3.545 0 6.799.624 9.763 1.871 2.963 1.248 5.168 2.595 6.615 4.041 2.041 2.1 3.729 4.694 5.062 7.785.907 2.155 1.361 4.651 1.361 7.486v3.703zm-9.656-8.721c-1.333-2.495-3.077-4.36-5.232-5.594s-4.722-1.851-7.699-1.851c-2.95 0-5.502.617-7.657 1.851s-3.914 3.099-5.274 5.594h25.862zM163.247 16.548v5.444c3.658-2.637 6.544-4.396 8.657-5.274 2.112-.879 4.09-1.318 5.934-1.318 2.836 0 5.587 1.049 8.253 3.147 1.814 1.418 2.723 2.864 2.723 4.339 0 1.248-.433 2.305-1.298 3.169-.865.865-1.907 1.298-3.127 1.298-1.078 0-2.212-.538-3.402-1.616-1.191-1.078-2.255-1.617-3.19-1.617-1.22 0-3.042.766-5.467 2.298-2.425 1.531-5.452 3.828-9.082 6.891v13.145h12.422c2.098 0 3.594.404 4.487 1.213.894.808 1.34 1.865 1.34 3.169 0 1.276-.446 2.318-1.34 3.127-.894.808-2.39 1.212-4.487 1.212h-26.332c-2.099 0-3.595-.404-4.487-1.212-.894-.809-1.341-1.865-1.341-3.17 0-1.275.447-2.318 1.341-3.126.893-.809 2.389-1.213 4.487-1.213h5.189v-21.186h-3.147c-2.099 0-3.595-.403-4.488-1.212-.893-.809-1.34-1.864-1.34-3.169 0-1.276.447-2.318 1.34-3.127.894-.808 2.39-1.212 4.488-1.212h11.867zM210.168 40.667v14.506h-10.21c-2.099 0-3.594-.404-4.487-1.212-.894-.809-1.34-1.865-1.34-3.17 0-1.275.453-2.318 1.361-3.126.907-.809 2.396-1.213 4.466-1.213h1.489v-37.731h-1.489c-2.099 0-3.594-.404-4.487-1.213-.894-.808-1.34-1.864-1.34-3.169 0-1.276.446-2.318 1.34-3.127.893-.808 2.388-1.212 4.487-1.212h10.21v29.395l6.806-5.487c-.709-1.22-1.063-2.213-1.063-2.979 0-1.304.439-2.36 1.319-3.169.878-.808 2.367-1.212 4.466-1.212h9.954c2.099 0 3.595.404 4.488 1.212.894.809 1.34 1.865 1.34 3.169 0 1.276-.446 2.318-1.34 3.127s-2.39 1.212-4.488 1.212h-2.425l-10.592 8.594 14.251 12.591h2.552c2.099 0 3.595.404 4.488 1.213.894.808 1.34 1.865 1.34 3.169 0 1.276-.446 2.318-1.34 3.127-.894.808-2.39 1.212-4.488 1.212h-10.039c-2.099 0-3.595-.404-4.487-1.212-.894-.809-1.341-1.865-1.341-3.17 0-1.105.482-2.197 1.446-3.275l-9.23-8.167-1.617 1.317zM291.502 40.284h-35.775c.907 2.27 2.517 4.099 4.828 5.487 2.312 1.39 5.438 2.085 9.38 2.085 3.233 0 7.529-.695 12.89-2.085 2.212-.566 3.743-.851 4.594-.851 1.163 0 2.142.411 2.936 1.233.794.823 1.191 1.858 1.191 3.105 0 1.135-.426 2.1-1.276 2.893-1.135 1.05-3.899 2.05-8.295 2.999-4.396.95-8.622 1.425-12.677 1.425-6.977 0-12.557-1.971-16.739-5.912-4.184-3.941-6.274-8.791-6.274-14.549 0-6.125 2.261-11.109 6.785-14.952 4.522-3.843 9.733-5.764 15.633-5.764 3.545 0 6.799.624 9.763 1.871 2.963 1.248 5.168 2.595 6.615 4.041 2.041 2.1 3.729 4.694 5.062 7.785.907 2.155 1.361 4.651 1.361 7.486v3.703zm-9.656-8.721c-1.333-2.495-3.077-4.36-5.232-5.594s-4.722-1.851-7.699-1.851c-2.95 0-5.502.617-7.657 1.851s-3.914 3.099-5.274 5.594h25.862zM313.069 16.548v2.935c1.588-1.361 3.339-2.382 5.253-3.062 1.915-.681 3.992-1.021 6.232-1.021 5.161 0 9.245 1.603 12.251 4.807 2.383 2.552 3.573 5.898 3.573 10.039v16.207c1.844 0 3.205.404 4.084 1.213.879.808 1.318 1.865 1.318 3.169 0 1.276-.446 2.318-1.34 3.127-.894.808-2.39 1.212-4.487 1.212h-7.87c-2.099 0-3.595-.404-4.487-1.212-.894-.809-1.341-1.865-1.341-3.17 0-1.275.439-2.318 1.319-3.126.879-.809 2.239-1.213 4.083-1.213v-16.463c0-1.9-.51-3.29-1.531-4.169-1.333-1.134-3.332-1.702-5.998-1.702-2.014 0-3.779.391-5.296 1.17-1.518.78-3.438 2.433-5.764 4.956v16.207c2.24 0 3.687.213 4.339.639 1.389.851 2.084 2.099 2.084 3.743 0 1.276-.446 2.318-1.34 3.127-.894.808-2.39 1.212-4.487 1.212h-9.912c-2.099 0-3.595-.404-4.487-1.212-.894-.809-1.34-1.865-1.34-3.17 0-1.588.681-2.821 2.041-3.7.681-.426 2.142-.639 4.382-.639v-21.184c-1.844 0-3.205-.41-4.084-1.233-.879-.822-1.318-1.871-1.318-3.147s.446-2.318 1.34-3.127c.894-.808 2.389-1.212 4.488-1.212h8.295zM16.954 112.251c-.988.866-2.302 1.823-3.938 2.872-1.637 1.05-3.506 1.575-5.604 1.575-.681 0-1.376-.217-2.085-.648-.711-.433-1.39-1.003-2.038-1.714-.648-.709-1.221-1.497-1.714-2.362-.495-.864-.866-1.729-1.112-2.595-.185-.679-.31-1.327-.37-1.945-.063-.617-.093-1.265-.093-1.946 0-1.173.107-2.316.324-3.428.216-1.112.603-2.47 1.158-4.077.309-.864.57-1.682.787-2.455.216-.771.479-1.497.788-2.177 1.42-3.396 2.84-6.778 4.262-10.146 1.42-3.365 2.995-6.84 4.725-10.423.494-.987 1.173-1.651 2.038-1.991.864-.339 1.729-.51 2.595-.51.493 0 1.003.046 1.528.139.524.093.941.294 1.251.603.246.186.432.37.556.556.123.186.186.495.186.927 0 1.236-.217 2.332-.648 3.289-.433.958-.942 1.868-1.529 2.732-.587.866-1.22 1.761-1.898 2.688-.681.926-1.298 1.945-1.854 3.057-.37.866-.804 1.869-1.297 3.012-.495 1.144-1.005 2.332-1.528 3.566-.525 1.236-1.02 2.425-1.482 3.567-.464 1.144-.85 2.146-1.158 3.011-.804 2.101-1.375 3.97-1.714 5.605-.341 1.637-.51 2.795-.51 3.474 0 .434.076 1.035.231 1.807.153.773.633 1.158 1.437 1.158.493 0 .956-.046 1.39-.139.431-.093.895-.246 1.39-.463.493-.216 1.049-.524 1.667-.927.617-.401 1.39-.941 2.316-1.621 1.112-.803 1.93-1.344 2.455-1.622.524-.277 1.158-.417 1.899-.417.371 0 .771.047 1.204.14.432.093.803.264 1.112.51.309.247.478.479.51.694.03.217.046.417.046.603 0 .556-.155 1.019-.463 1.39-.311.37-.648.741-1.02 1.111l-3.8 3.52zm11.767-60.869c.494.495.802 1.005.927 1.529.123.525.185 1.034.185 1.528 0 .31-.031.603-.092.88-.062.278-.186.542-.371.788-.865 1.051-1.807 2.069-2.825 3.057-1.02.989-2.055 1.482-3.104 1.482-.926 0-1.714-.199-2.362-.602-.648-.401-1.097-.818-1.343-1.251-.248-.494-.417-1.02-.51-1.575s-.14-1.08-.14-1.575c0-.679.093-1.374.278-2.084s.494-1.312.927-1.807c.493-.557 1.126-.957 1.899-1.205.771-.246 1.651-.37 2.64-.37.741 0 1.497.108 2.271.324.77.218 1.31.511 1.62.881zM23.809 90.757c.679-1.605 1.344-3.104 1.992-4.493s1.312-2.747 1.992-4.076c.679-1.328 1.42-2.688 2.224-4.077.802-1.39 1.729-2.855 2.779-4.4.37-.556.602-.94.694-1.158.093-.216.354-.51.788-.88.679-.617 1.76-.927 3.242-.927 2.038 0 3.273.464 3.706 1.39.123.248.231.51.324.788.093.277.139.571.139.88 0 .495-.124 1.081-.37 1.76-.248.681-.804 1.545-1.668 2.595-.31.37-1.065 1.267-2.27 2.687-1.204 1.422-2.425 3.305-3.66 5.651-.68 1.236-1.561 2.997-2.64 5.281-1.082 2.286-2.395 5.343-3.938 9.172-.186.433-.387.989-.603 1.668-.217.681-.417 1.375-.603 2.084-.185.711-.34 1.329-.463 1.854-.125.525-.186.819-.186.88 0 .186.015.387.047.603.03.217.106.324.231.324.493 0 1.019-.401 1.575-1.205 3.149-4.446 5.929-8.09 8.338-10.932 2.409-2.841 4.493-5.188 6.254-7.041 1.76-1.854 3.211-3.351 4.354-4.494 1.142-1.142 1.96-2.27 2.455-3.382.432-.863.787-1.559 1.065-2.084.277-.524.523-.911.741-1.158.216-.246.432-.401.648-.463.216-.062.478-.093.787-.093.68 0 1.219.139 1.622.417.4.277.973.448 1.714.509.493.062.926.356 1.297.881.37.525.556 1.065.556 1.621 0 .186-.093.541-.278 1.065-.185.525-.402.973-.648 1.344-1.667 2.719-2.996 5.096-3.983 7.134-.989 2.038-1.822 4.231-2.502 6.578-.124.495-.263 1.111-.417 1.853s-.277 1.515-.37 2.316c-.093.803-.171 1.591-.231 2.362-.062.773-.093 1.375-.093 1.807 0 .865.093 1.621.278 2.27.185.648.338 1.221.463 1.714.123.866.616 1.575 1.482 2.131.864.557 1.45.959 1.76 1.205.371.31.695.618.974.926.277.311.416.711.416 1.205 0 .31-.185.756-.556 1.343-.37.587-.988.881-1.853.881-.371 0-1.128-.093-2.271-.278-1.144-.186-1.991-.525-2.547-1.02-.681-.616-1.298-1.096-1.854-1.436-.556-.339-1.144-.941-1.76-1.807-1.052-1.42-1.575-3.335-1.575-5.744 0-2.717.139-4.586.417-5.605.277-1.019.417-1.589.417-1.714 0-.246-.093-.37-.278-.37s-.371.124-.556.37c-1.915 2.533-3.537 4.648-4.864 6.347-1.329 1.699-2.548 3.352-3.659 4.956-.495.681-.912 1.221-1.251 1.622-.34.402-.665.727-.973.973-.311.247-.603.463-.881.648-.277.186-.571.463-.88.834-.37.433-.927.709-1.668.834-.74.123-1.328.185-1.76.185-.31 0-.757-.154-1.344-.463-.588-.309-1.236-.679-1.945-1.111-.711-.432-1.375-.896-1.992-1.391-.618-.493-1.081-.926-1.39-1.297-.186-.246-.34-.633-.463-1.158-.125-.523-.186-1.033-.186-1.528 0-.741.047-1.344.139-1.807.093-.463.2-.895.324-1.297.123-.401.246-.788.371-1.158.123-.371.216-.802.278-1.297.061-.679.262-1.543.602-2.595.339-1.049.741-2.161 1.205-3.335.463-1.173.94-2.347 1.436-3.521.5-1.176.932-2.226 1.303-3.153zM113.676 117.811c-.556.123-1.081.277-1.575.463-.495.186-1.051.278-1.667.278-.311 0-.649-.032-1.02-.093-.371-.062-.927-.248-1.668-.556-1.792-.681-3.073-1.746-3.845-3.197-.772-1.45-1.158-3.319-1.158-5.604 0-2.965.587-6.423 1.761-10.377.616-2.038 1.204-3.798 1.76-5.28.557-1.482 1.112-2.903 1.668-4.262.246-.557.371-.927.371-1.112 0-.123-.062-.186-.186-.186-.186 0-.588.341-1.205 1.02-1.606 1.792-3.196 3.768-4.771 5.93-1.575 2.162-3.12 4.34-4.633 6.531-1.514 2.193-3.011 4.324-4.493 6.393-1.482 2.07-2.904 3.907-4.262 5.513-.31.31-.495.51-.556.603-.062.092-.218.201-.464.324-.495.31-1.035.588-1.621.834-.588.247-1.221.37-1.899.37-.247 0-.927-.246-2.038-.741-1.112-.493-2.038-1.111-2.779-1.853-.248-.246-.371-.587-.371-1.02 0-.493.093-.834.278-1.02.186-.185.37-.679.556-1.481.864-3.645 1.945-7.181 3.243-10.608 1.297-3.428 2.717-6.81 4.262-10.146 1.543-3.335 3.134-6.624 4.771-9.866 1.636-3.243 3.196-6.47 4.679-9.682.37-.803.648-1.39.833-1.761.186-.37.401-.771.648-1.204 2.1-3.829 4.17-7.551 6.208-11.164s4.199-7.704 6.485-12.276c.309-.556.663-.91 1.065-1.065.4-.153.848-.231 1.343-.231.494 0 .881.032 1.158.093.278.062.54.093.788.093.431 0 .88.139 1.343.417.464.277.881.603 1.251.973.309.31.524.618.648.927.123.31.186.772.186 1.39 0 1.236-.417 2.316-1.251 3.242-.834.927-1.869 2.131-3.104 3.613-.433.495-.741.912-.927 1.251-.185.34-.463.757-.834 1.251-2.1 2.903-4.122 6.192-6.068 9.867-1.945 3.675-3.86 7.504-5.744 11.488-1.885 3.983-3.722 8.014-5.512 12.09-1.793 4.077-3.553 7.968-5.281 11.674-.371.804-.603 1.297-.695 1.482-.092.186-.139.31-.139.37 0 .125.061.186.186.186.061 0 .123-.046.186-.139.061-.093.215-.293.463-.603 3.767-5.249 7.365-9.928 10.793-14.036 3.429-4.106 6.841-8.014 10.238-11.72.616-.679 1.079-1.158 1.39-1.437.308-.277.709-.509 1.204-.694.927-.309 1.636-.463 2.131-.463.494 0 1.096.078 1.807.231.709.154 1.251.294 1.621.417.309.124.617.37.927.741.309.37.463.711.463 1.019 0 1.482-.294 2.812-.88 3.984-.588 1.174-1.221 2.315-1.899 3.428-.68 1.111-1.158 2.116-1.436 3.011-.278.896-.603 1.776-.973 2.641-1.236 2.965-2.349 6.224-3.336 9.774-.988 3.553-1.482 6.902-1.482 10.052 0 2.224.216 3.706.648 4.447.432.741.987 1.297 1.668 1.668.309.124.679.217 1.112.278.431.062.833.154 1.204.277.432.125.648.371.648.741 0 .186-.046.371-.139.556l-.324.648c-.125.309-.371.571-.741.788-.37.216-.71.385-1.018.51zM139.246 115.68c-.865.493-1.482.771-1.853.833-.371.062-.866.093-1.482.093-.556 0-1.098-.031-1.621-.093-.525-.062-1.158-.247-1.899-.556-.495-.186-1.051-.402-1.668-.648-.618-.246-1.22-.51-1.807-.787-.588-.278-1.097-.51-1.528-.695-.433-.186-.741-.339-.927-.463-.927-.494-1.807-1.297-2.641-2.409-.833-1.111-1.498-2.439-1.991-3.983-.311-.927-.572-2.131-.788-3.613-.217-1.482-.324-2.655-.324-3.521 0-.432.03-.881.093-1.344.061-.463.186-1.033.371-1.714 1.297-4.756 3.396-9.187 6.3-13.295 2.902-4.107 6.114-8.045 9.635-11.812.803-.864 2.085-1.774 3.845-2.733 1.761-.957 3.783-1.436 6.069-1.436 1.234 0 2.254.093 3.057.277.802.186 1.668.434 2.595.741.493.186 1.111.727 1.853 1.622s1.112 2.27 1.112 4.122c0 1.236-.218 2.379-.649 3.429-.433 1.051-.926 2.131-1.482 3.242-.494.927-.942 1.699-1.343 2.316-.402.618-.942 1.297-1.621 2.038-1.607 1.792-3.259 3.629-4.957 5.513-1.699 1.885-3.444 3.691-5.234 5.42-1.792 1.729-3.629 3.335-5.513 4.817-1.885 1.482-3.814 2.779-5.79 3.892-.371.247-.557.495-.557.741 0 .741.263 1.514.788 2.315.523.804 1.003 1.329 1.436 1.575.927.495 1.884.741 2.872.741.802 0 1.668-.153 2.595-.463.926-.309 2.438-1.02 4.539-2.131 1.605-.864 3.072-1.807 4.401-2.826 1.327-1.019 2.608-2.053 3.845-3.104 1.234-1.05 2.455-2.099 3.659-3.15 1.205-1.049 2.517-2.006 3.938-2.872.494-.308.881-.493 1.158-.556.278-.061.51-.093.695-.093.308 0 .694.186 1.158.556.463.371.694.804.694 1.298 0 .433-.016.711-.046.834-.032.124-.047.247-.047.37 0 .186-.016.402-.046.648-.032.248-.171.463-.417.648-1.112.927-2.146 1.932-3.104 3.011-.959 1.082-2.131 2.271-3.521 3.567s-3.166 2.749-5.328 4.354c-2.163 1.609-5.003 3.37-8.524 5.284zm6.949-37.153c.431-.679.817-1.343 1.158-1.991.338-.648.509-1.404.509-2.271 0-.37-.016-.648-.046-.834-.032-.185-.201-.277-.51-.277-.37 0-.711.093-1.019.277l-.927.557c-.495.31-.819.479-.973.509-.155.032-.449.264-.881.695-1.482 1.359-2.98 2.842-4.493 4.447-1.514 1.606-2.935 3.305-4.262 5.096-1.329 1.792-2.501 3.675-3.521 5.651-1.02 1.978-1.776 3.983-2.27 6.021 0 .311.061.464.185.464.123 0 .339-.093.649-.278 2.779-2.099 5.311-4.369 7.597-6.81 2.284-2.439 4.478-4.925 6.578-7.458.37-.432.633-.787.787-1.065.153-.278.293-.54.417-.787.123-.246.246-.51.371-.788.126-.277.341-.663.651-1.158zM183.995 56.385c-.311 1.792-.788 3.537-1.437 5.234-.648 1.7-1.39 3.367-2.224 5.003-.834 1.638-1.684 3.259-2.548 4.864-.865 1.607-1.667 3.182-2.408 4.726-.248.495-.495 1.051-.741 1.667-.248.618-.479 1.221-.695 1.807-.217.588-.387 1.098-.51 1.529-.124.433-.185.68-.185.741 0 .185.123.277.37.277.123 0 .417-.03.88-.093.464-.061.941-.153 1.437-.277 2.038-.432 4.229-1.08 6.578-1.946 2.347-.864 4.292-1.76 5.836-2.687.494-.309.834-.463 1.02-.463.371 0 .818.078 1.344.231.523.155 1.019.34 1.482.556.463.218.864.479 1.204.788.339.31.51.587.51.833 0 .618-.248 1.251-.741 1.899-.495.648-1.267 1.19-2.316 1.622-1.236.495-2.038.865-2.409 1.111-.37.247-.958.525-1.76.834-1.112.433-2.409.865-3.892 1.297-1.482.433-2.918.834-4.308 1.204-1.39.371-2.641.695-3.753.973-1.111.278-1.915.51-2.408.695-.804.248-1.39.711-1.761 1.39-.37.681-.68 1.422-.926 2.224-.248.804-.464 1.545-.649 2.224-.124.495-.293.988-.509 1.482-.218.495-.387.988-.51 1.482-.125.741-.402 1.76-.834 3.058-.433 1.297-.88 2.672-1.344 4.122-.463 1.452-.896 2.919-1.297 4.401-.402 1.482-.664 2.811-.787 3.983-.062.433-.294 1.112-.695 2.038-.402.927-.942 1.543-1.621 1.854-.186.123-.417.199-.694.231-.278.03-.51.046-.695.046-.556 0-1.158-.093-1.807-.277-.648-.186-1.158-.434-1.528-.741-.681-.495-1.02-1.235-1.02-2.224 0-.371.03-.818.093-1.344.061-.523.153-1.003.278-1.436 1.172-3.459 2.254-7.103 3.242-10.933.987-3.829 2.224-7.535 3.706-11.118.123-.37.186-.586.186-.648 0-.185-.155-.37-.464-.556-.865-.432-1.561-.895-2.084-1.39-.525-.493-.989-.987-1.39-1.482-.403-.493-.788-1.003-1.158-1.528-.371-.524-.834-1.004-1.39-1.437-.248-.186-.387-.385-.417-.602-.032-.216-.047-.386-.047-.51 0-.309.093-.54.278-.695.186-.153.463-.324.834-.51l.834-.324c.246-.093.586-.139 1.019-.139 1.05 0 2.1.248 3.15.741 1.049.495 2.006.741 2.872.741.864 0 1.39-.432 1.575-1.297.308-1.112.802-2.562 1.481-4.354 1.112-2.841 2.301-5.976 3.567-9.404s2.701-6.84 4.309-10.237c.308-.616.509-.973.602-1.065s.231-.139.417-.139c.741 0 1.235-.077 1.482-.231.246-.153.617-.231 1.111-.231.432 0 .987.062 1.668.185.679.125 1.297.31 1.854.557.556.247.833.463.833.648v.37c.002.126-.029.341-.09.65zM263.762 56.199c.432.866.726 1.7.88 2.502.153.804.263 1.638.324 2.501.062.681.107 1.313.14 1.899.03.588.046 1.19.046 1.807 0 2.349-.155 4.525-.463 6.532-.31 2.008-.773 4.463-1.39 7.365-1.422 6.485-3.397 12.801-5.93 18.946-2.533 6.146-5.776 12.029-9.729 17.649-.556.802-1.189 1.513-1.898 2.131-.711.617-1.653.927-2.826.927-.247 0-.541-.093-.88-.278-.341-.186-.942-.31-1.807-.37-.681-.062-1.221-.186-1.621-.371-.403-.186-.819-.495-1.251-.927-.31-.31-.927-.587-1.854-.833-.926-.248-1.544-.71-1.853-1.39-.866-1.854-1.422-3.783-1.668-5.791-.247-2.006-.525-4.276-.834-6.81-.124-.802-.231-1.281-.324-1.436-.092-.154-.201-.232-.324-.232-.247 0-.525.248-.834.741-.494.741-.973 1.406-1.436 1.992-.463.588-1.065 1.221-1.807 1.899-1.174 1.051-2.286 2.255-3.335 3.613-1.052 1.359-2.085 2.626-3.104 3.799-1.019 1.174-2.023 2.162-3.011 2.965-.988.802-2.008 1.204-3.058 1.204-.618 0-1.729-.711-3.335-2.131-.247-.246-.541-.417-.88-.51l-1.02-.278c-.34-.092-.634-.199-.88-.324-.248-.123-.402-.339-.463-.648-.125-.37-.186-.709-.186-1.019v-2.131c0-1.544.107-2.949.324-4.216.216-1.266.417-2.516.603-3.752l.139-1.297.093-.927c.03-.309.076-.663.139-1.065.061-.401.186-.973.371-1.714 1.42-6.485 3.118-12.971 5.095-19.456s3.829-12.908 5.56-19.271c.123-.494.324-.881.602-1.158.278-.278 1.034-.417 2.271-.417.493 0 .973.062 1.436.186.464.124.941.247 1.437.37.123 0 .308.125.556.371l.787.787c.278.278.51.541.695.787.186.248.277.402.277.464 0 .124-.031.277-.092.463-.062.186-.125.34-.186.463-2.842 6.796-5.234 13.82-7.181 21.078-1.945 7.258-3.691 14.592-5.234 22.003-.186.866-.31 1.545-.37 2.039-.062.495-.093.803-.093.926 0 .311.093.464.277.464.123 0 .339-.093.648-.278.309-.186.896-.709 1.761-1.575 3.025-3.149 5.883-6.592 8.57-10.33 2.687-3.736 4.771-7.272 6.253-10.608.246-.493.432-.91.557-1.25.123-.339.231-.648.324-.927s.185-.586.277-.927c.093-.339.2-.756.324-1.251.186-.864.401-1.682.648-2.455.246-.771.524-1.496.834-2.177.123-.309.231-.51.324-.603s.231-.139.417-.139c.371 0 .788.062 1.251.186.463.124.849.217 1.158.277.741.062 1.39.434 1.945 1.112 1.05 1.236 1.575 2.378 1.575 3.428 0 .556-.016.973-.046 1.251-.032.277-.109.571-.232.88-.865 2.719-1.528 5.436-1.991 8.153-.464 2.719-.695 5.559-.695 8.523 0 3.768.401 7.659 1.204 11.674.123.556.339.833.649.833.185 0 .385-.123.602-.37.216-.246.478-.556.788-.927 3.767-5.063 6.84-10.777 9.218-17.14 2.377-6.36 4.309-12.754 5.791-19.178.246-.987.4-1.791.463-2.409.061-.616.093-1.173.093-1.668 0-.556.015-1.019.046-1.39.03-.37.047-.741.047-1.111 0-.371.015-.756.046-1.158.03-.401.047-.941.047-1.621 0-.741-.093-1.344-.278-1.807-.186-.464-.402-.911-.648-1.344-.248-.432-.463-.88-.648-1.343-.186-.464-.278-1.034-.278-1.715 0-1.049.077-1.853.231-2.408s.479-.834.974-.834c.37 0 .755.032 1.157.093.401.062.941.093 1.622.093.864 0 1.636.124 2.315.37.681.252 1.267.9 1.762 1.949zM283.031 112.251c-.988.866-2.302 1.823-3.938 2.872-1.637 1.05-3.506 1.575-5.604 1.575-.681 0-1.376-.217-2.085-.648-.711-.433-1.39-1.003-2.038-1.714-.648-.709-1.221-1.497-1.714-2.362-.495-.864-.866-1.729-1.112-2.595-.185-.679-.31-1.327-.37-1.945-.062-.616-.093-1.265-.093-1.945 0-1.173.107-2.316.324-3.428.216-1.112.603-2.47 1.158-4.077.309-.864.57-1.682.787-2.455.216-.771.479-1.497.788-2.177 1.42-3.396 2.84-6.778 4.262-10.146 1.42-3.365 2.995-6.84 4.725-10.423.494-.987 1.173-1.651 2.038-1.991.864-.339 1.729-.51 2.595-.51.493 0 1.003.046 1.528.139.524.093.941.294 1.251.603.246.186.432.37.556.556.123.186.186.495.186.927 0 1.236-.217 2.332-.648 3.289-.433.958-.942 1.868-1.529 2.732-.587.866-1.22 1.761-1.898 2.688-.681.926-1.298 1.945-1.854 3.057-.37.866-.804 1.869-1.297 3.012-.495 1.144-1.005 2.332-1.528 3.566-.525 1.236-1.02 2.425-1.482 3.567-.464 1.144-.85 2.146-1.158 3.011-.804 2.101-1.375 3.97-1.714 5.605-.341 1.637-.51 2.795-.51 3.474 0 .434.076 1.035.231 1.807.153.773.633 1.158 1.437 1.158.493 0 .956-.046 1.39-.139.431-.093.895-.246 1.39-.463.493-.216 1.049-.524 1.667-.927.617-.401 1.39-.941 2.316-1.621 1.112-.803 1.93-1.344 2.455-1.622.524-.277 1.158-.417 1.899-.417.371 0 .771.047 1.204.14.432.093.803.264 1.112.51.309.247.478.479.51.694.03.217.046.417.046.603 0 .556-.155 1.019-.463 1.39-.311.37-.648.741-1.02 1.111l-3.8 3.519zm11.767-60.869c.494.495.802 1.005.927 1.529.123.525.185 1.034.185 1.528 0 .31-.031.603-.092.88-.062.278-.186.542-.371.788-.865 1.051-1.807 2.069-2.825 3.057-1.02.989-2.055 1.482-3.104 1.482-.926 0-1.714-.199-2.362-.602-.648-.401-1.097-.818-1.343-1.251-.248-.494-.417-1.02-.51-1.575s-.14-1.08-.14-1.575c0-.679.093-1.374.278-2.084s.494-1.312.927-1.807c.493-.557 1.126-.957 1.899-1.205.771-.246 1.651-.37 2.64-.37.741 0 1.497.108 2.271.324.77.218 1.31.511 1.62.881zM294.519 117.069c-.186 0-.727-.14-1.621-.417-.896-.278-1.869-.695-2.919-1.251-1.051-.556-2.038-1.281-2.965-2.177-.926-.896-1.514-1.992-1.76-3.289-.186-.987-.278-2.039-.278-3.15 0-2.161.401-4.339 1.204-6.531s1.729-4.617 2.78-7.273c.987-2.594 2.223-5.435 3.705-8.523 1.482-3.088 3.072-6.254 4.771-9.496 1.698-3.243 3.475-6.5 5.327-9.774 1.854-3.273 3.675-6.423 5.467-9.45.37-.679.709-1.467 1.019-2.362.309-.895.663-1.761 1.065-2.595.401-.833.881-1.528 1.437-2.084s1.297-.834 2.224-.834c.679 0 1.234-.03 1.667-.093.432-.061.895-.093 1.39-.093.494 0 .957.093 1.391.278.431.186.771.433 1.019.741.494.741.741 1.606.741 2.594 0 1.112-.31 2.193-.927 3.243-2.101 3.397-4.262 6.749-6.485 10.052-2.224 3.305-4.37 6.61-6.438 9.913-2.07 3.306-4.03 6.656-5.883 10.053-1.854 3.397-3.46 6.888-4.818 10.469-.741 1.916-1.514 3.784-2.316 5.605-.803 1.822-1.204 3.752-1.204 5.791 0 .556.03 1.111.093 1.667.061.556.186 1.144.371 1.761.246.741.863 1.111 1.853 1.111.616 0 1.143-.123 1.575-.37.987-.617 2.022-1.513 3.104-2.688 1.08-1.172 2.161-2.33 3.242-3.474 1.08-1.143 2.178-2.131 3.289-2.965 1.112-.834 2.192-1.251 3.243-1.251.37 0 .987.171 1.853.51.864.34 1.297.88 1.297 1.621 0 .618-.185 1.082-.556 1.39-.37.31-.804.711-1.297 1.205-1.174 1.297-2.316 2.656-3.428 4.076-1.112 1.422-2.271 2.733-3.475 3.938s-2.518 2.193-3.938 2.965c-1.424.771-3.029 1.157-4.819 1.157zM370.026 46.193c0 1.175-.201 2.147-.603 2.919-.402.772-.85 1.498-1.344 2.177-.433.618-.772 1.236-1.019 1.854-.248.618-.618 1.328-1.112 2.131-1.359 2.162-2.779 4.354-4.262 6.578-1.482 2.223-2.935 4.446-4.354 6.67-1.421 2.224-2.732 4.447-3.938 6.671-1.204 2.224-2.177 4.387-2.918 6.485l-1.482 4.076c-1.422 3.892-2.58 7.259-3.475 10.099-.896 2.842-1.606 5.281-2.131 7.319-.525 2.038-.896 3.722-1.111 5.049-.218 1.329-.324 2.395-.324 3.197 0 1.667.123 2.857.37 3.566.246.709.371 1.251.371 1.621 0 .186-.125.401-.371.648-.31.309-.556.587-.741.834-.186.246-.37.447-.556.603-.186.153-.433.278-.741.37-.31.093-.741.14-1.297.14-.433 0-1.082-.218-1.945-.648-.866-.434-1.329-.804-1.391-1.112-.37-2.099-.556-4.106-.556-6.021 0-2.78.278-5.312.834-7.598.556-2.284 1.08-4.322 1.575-6.114.186-.617.432-1.312.741-2.085.309-.771.633-1.482.973-2.131.339-.648.616-1.204.834-1.668.216-.463.324-.725.324-.787 0-.123-.062-.186-.186-.186s-.433.278-.927.834c-1.853 2.163-3.705 4.324-5.559 6.485-1.853 2.163-3.752 4.247-5.697 6.254-1.946 2.008-3.938 3.907-5.977 5.697-2.038 1.793-4.2 3.367-6.485 4.726-.495.31-.988.495-1.481.556-.495.061-.927.093-1.298.093-.495 0-1.081-.123-1.76-.371-.681-.246-1.375-.523-2.085-.833-.711-.309-1.329-.617-1.853-.927-.525-.309-.819-.556-.881-.741-1.051-1.791-1.574-3.551-1.574-5.281 0-2.47 1.08-5.774 3.242-9.913 2.224-4.262 5.063-8.153 8.523-11.674 3.459-3.521 7.134-6.578 11.025-9.172.679-.493 1.651-.91 2.918-1.251 1.266-.339 2.517-.509 3.753-.509.987 0 1.853.154 2.594.463.617.31 1.357.588 2.224.834.864.247 1.575.556 2.131.926.432 0 .679-.03.741-.092 2.409-2.595 4.508-5.266 6.3-8.015 1.791-2.747 3.489-5.513 5.096-8.292 1.605-2.779 3.211-5.559 4.817-8.338 1.605-2.779 3.396-5.467 5.374-8.061.309-.37.586-.648.834-.834.246-.186.679-.277 1.297-.277.309 0 .709.092 1.204.277.494.186.987.417 1.482.695.494.277.927.602 1.297.973.375.37.56.741.56 1.111zm-32.056 35.022c0-.617-.711-.927-2.131-.927-.927 0-1.699.155-2.316.463-2.223 1.112-4.433 2.548-6.624 4.309-2.193 1.76-4.231 3.706-6.114 5.837-1.885 2.131-3.599 4.433-5.143 6.902-1.544 2.471-2.779 4.972-3.706 7.504-.062.125-.124.324-.185.603-.062.277-.093.479-.093.602 0 .495.046.974.139 1.437s.262.694.51.694c.309 0 .616-.123.927-.37.308-.246.602-.417.88-.51s.633-.292 1.065-.603c4.015-3.149 7.736-6.685 11.164-10.607 3.428-3.922 6.654-7.922 9.682-11.998.556-.741 1.02-1.281 1.39-1.621.369-.34.555-.912.555-1.715z"/></g><g fill="#1E1E1C"><path d="M75.502 160.415l-8.082 24.758h-9.784l-5.189-42.837c-1.333-.17-2.34-.631-3.021-1.382-.681-.752-1.021-1.709-1.021-2.872 0-1.361.446-2.452 1.34-3.275.894-.822 2.389-1.233 4.487-1.233l11.613.043c2.099 0 3.595.397 4.488 1.19.894.795 1.34 1.844 1.34 3.148s-.446 2.36-1.34 3.169c-.894.808-2.39 1.212-4.488 1.212h-4.552l2.893 24.375 6.85-20.291h9.061l6.806 20.291 2.893-24.375h-4.552c-2.099 0-3.594-.404-4.487-1.212-.894-.809-1.34-1.864-1.34-3.169s.446-2.361 1.34-3.17c.894-.808 2.389-1.212 4.487-1.212l11.571.043c2.098 0 3.595.397 4.487 1.19.894.795 1.34 1.844 1.34 3.148 0 1.105-.354 2.056-1.063 2.85s-1.729 1.305-3.062 1.531l-5.02 42.837h-9.613l-8.382-24.757zM149.648 170.284h-35.775c.907 2.27 2.517 4.099 4.828 5.487 2.312 1.39 5.438 2.085 9.38 2.085 3.233 0 7.529-.695 12.89-2.085 2.212-.566 3.743-.851 4.594-.851 1.163 0 2.142.411 2.936 1.233.794.823 1.191 1.858 1.191 3.105 0 1.135-.426 2.1-1.276 2.893-1.135 1.05-3.899 2.05-8.295 2.999-4.396.95-8.622 1.425-12.677 1.425-6.977 0-12.557-1.971-16.739-5.912-4.184-3.941-6.274-8.791-6.274-14.549 0-6.125 2.261-11.109 6.785-14.952 4.522-3.843 9.733-5.764 15.633-5.764 3.545 0 6.799.624 9.763 1.871 2.963 1.248 5.168 2.595 6.615 4.041 2.041 2.1 3.729 4.694 5.062 7.785.907 2.155 1.361 4.651 1.361 7.486v3.703zm-9.656-8.721c-1.333-2.495-3.077-4.36-5.232-5.594s-4.722-1.851-7.699-1.851c-2.95 0-5.502.617-7.657 1.851s-3.914 3.099-5.274 5.594h25.862zM178.234 146.548v5.444c3.658-2.637 6.544-4.396 8.657-5.274 2.112-.879 4.09-1.318 5.934-1.318 2.836 0 5.587 1.049 8.253 3.147 1.814 1.418 2.723 2.864 2.723 4.339 0 1.248-.434 2.305-1.299 3.169-.865.865-1.907 1.298-3.126 1.298-1.078 0-2.212-.538-3.402-1.616-1.191-1.078-2.255-1.617-3.19-1.617-1.22 0-3.042.766-5.467 2.298-2.425 1.531-5.452 3.828-9.082 6.891v13.145h12.422c2.098 0 3.594.404 4.487 1.213.894.808 1.34 1.865 1.34 3.169 0 1.276-.446 2.318-1.34 3.127-.894.808-2.39 1.212-4.487 1.212h-26.332c-2.099 0-3.595-.404-4.487-1.212-.894-.809-1.341-1.865-1.341-3.17 0-1.275.447-2.318 1.341-3.126.893-.809 2.389-1.213 4.487-1.213h5.189v-21.185h-3.147c-2.099 0-3.595-.403-4.488-1.212-.893-.809-1.34-1.864-1.34-3.169 0-1.276.447-2.318 1.34-3.127.894-.808 2.39-1.212 4.488-1.212h11.867zM225.154 170.667v14.506h-10.209c-2.1 0-3.594-.404-4.488-1.212-.893-.809-1.34-1.865-1.34-3.17 0-1.275.453-2.318 1.361-3.126.908-.809 2.396-1.213 4.467-1.213h1.488v-37.731h-1.488c-2.1 0-3.594-.404-4.488-1.213-.893-.808-1.34-1.864-1.34-3.169 0-1.276.447-2.318 1.34-3.127.895-.808 2.389-1.212 4.488-1.212h10.209v29.395l6.807-5.487c-.709-1.22-1.064-2.213-1.064-2.979 0-1.304.439-2.36 1.32-3.169.877-.808 2.367-1.212 4.465-1.212h9.955c2.098 0 3.594.404 4.488 1.212.893.809 1.34 1.865 1.34 3.169 0 1.276-.447 2.318-1.34 3.127-.895.809-2.391 1.212-4.488 1.212h-2.426l-10.592 8.594 14.252 12.591h2.551c2.1 0 3.596.404 4.488 1.213.895.808 1.34 1.865 1.34 3.169 0 1.276-.445 2.318-1.34 3.127-.893.808-2.389 1.212-4.488 1.212h-10.039c-2.098 0-3.594-.404-4.486-1.212-.895-.809-1.342-1.865-1.342-3.17 0-1.105.482-2.197 1.447-3.275l-9.23-8.167-1.618 1.317zM306.488 170.284h-35.775c.908 2.27 2.518 4.099 4.828 5.487 2.312 1.39 5.438 2.085 9.381 2.085 3.232 0 7.529-.695 12.889-2.085 2.213-.566 3.744-.851 4.594-.851 1.164 0 2.143.411 2.936 1.233.795.823 1.191 1.858 1.191 3.105 0 1.135-.426 2.1-1.275 2.893-1.135 1.05-3.9 2.05-8.295 2.999-4.396.95-8.623 1.425-12.678 1.425-6.977 0-12.557-1.971-16.738-5.912-4.184-3.941-6.275-8.791-6.275-14.549 0-6.125 2.262-11.109 6.785-14.952s9.734-5.764 15.633-5.764c3.545 0 6.799.624 9.764 1.871 2.963 1.248 5.168 2.595 6.615 4.041 2.041 2.1 3.729 4.694 5.061 7.785.908 2.155 1.361 4.651 1.361 7.486v3.703zm-9.656-8.721c-1.332-2.495-3.076-4.36-5.232-5.594-2.154-1.233-4.721-1.851-7.699-1.851-2.949 0-5.502.617-7.656 1.851-2.156 1.233-3.914 3.099-5.275 5.594h25.862zM328.057 146.548v2.935c1.588-1.361 3.338-2.382 5.252-3.062 1.916-.681 3.992-1.021 6.232-1.021 5.162 0 9.246 1.603 12.252 4.807 2.383 2.552 3.572 5.898 3.572 10.039v16.207c1.844 0 3.205.404 4.084 1.213.879.808 1.318 1.865 1.318 3.169 0 1.276-.445 2.318-1.34 3.127-.893.808-2.389 1.212-4.486 1.212h-7.871c-2.098 0-3.594-.404-4.486-1.212-.895-.809-1.342-1.865-1.342-3.17 0-1.275.439-2.318 1.32-3.126.879-.809 2.238-1.213 4.082-1.213v-16.463c0-1.9-.51-3.29-1.531-4.169-1.332-1.134-3.332-1.702-5.998-1.702-2.014 0-3.779.391-5.295 1.17-1.518.78-3.439 2.433-5.764 4.956v16.207c2.24 0 3.686.213 4.338.639 1.389.851 2.084 2.099 2.084 3.743 0 1.276-.445 2.318-1.34 3.127-.893.808-2.389 1.212-4.486 1.212h-9.912c-2.1 0-3.596-.404-4.488-1.212-.893-.809-1.34-1.865-1.34-3.17 0-1.588.682-2.821 2.041-3.7.682-.426 2.143-.639 4.383-.639v-21.185c-1.844 0-3.205-.41-4.084-1.233-.879-.822-1.318-1.871-1.318-3.147s.445-2.318 1.34-3.127c.893-.808 2.389-1.212 4.488-1.212h8.295zM31.941 242.251c-.988.866-2.302 1.823-3.938 2.872-1.637 1.05-3.506 1.575-5.604 1.575-.681 0-1.376-.217-2.085-.648-.711-.433-1.39-1.003-2.038-1.714-.648-.709-1.221-1.497-1.714-2.362-.495-.864-.866-1.729-1.112-2.595-.185-.679-.31-1.327-.37-1.945-.062-.616-.093-1.265-.093-1.945 0-1.173.107-2.316.324-3.428.216-1.112.603-2.47 1.158-4.077.309-.864.57-1.682.787-2.455.216-.771.479-1.497.788-2.177 1.42-3.396 2.84-6.778 4.262-10.146 1.42-3.365 2.995-6.84 4.725-10.423.494-.987 1.173-1.651 2.038-1.991.864-.339 1.729-.51 2.595-.51.493 0 1.003.046 1.528.139.524.093.941.294 1.251.603.246.186.432.37.556.556.123.186.186.495.186.927 0 1.236-.217 2.332-.648 3.289-.433.958-.942 1.868-1.529 2.732-.587.866-1.22 1.761-1.898 2.688-.681.926-1.298 1.945-1.854 3.057-.37.866-.804 1.869-1.297 3.012-.495 1.144-1.005 2.332-1.528 3.566-.525 1.236-1.02 2.425-1.482 3.567-.464 1.144-.85 2.146-1.158 3.011-.804 2.101-1.375 3.97-1.714 5.605-.341 1.637-.51 2.795-.51 3.474 0 .434.076 1.035.231 1.807.153.773.633 1.158 1.437 1.158.493 0 .956-.046 1.39-.139.431-.093.895-.246 1.39-.463.493-.216 1.049-.524 1.667-.927.617-.401 1.39-.941 2.316-1.621 1.112-.803 1.93-1.344 2.455-1.622.524-.277 1.158-.417 1.899-.417.371 0 .771.047 1.204.14.432.093.803.264 1.112.51.309.247.478.479.51.694.03.217.046.417.046.603 0 .556-.155 1.019-.463 1.39-.311.37-.648.741-1.02 1.111l-3.8 3.519zm11.767-60.869c.494.495.802 1.005.927 1.529.123.525.185 1.034.185 1.528 0 .31-.031.603-.092.88-.062.278-.186.542-.371.788-.865 1.051-1.807 2.069-2.825 3.057-1.02.989-2.055 1.482-3.104 1.482-.926 0-1.714-.199-2.362-.602-.648-.401-1.097-.818-1.343-1.251-.248-.494-.417-1.02-.51-1.575s-.14-1.08-.14-1.575c0-.679.093-1.374.278-2.084s.494-1.312.927-1.807c.493-.557 1.126-.957 1.899-1.205.771-.246 1.651-.37 2.64-.37.741 0 1.497.108 2.271.324.77.218 1.31.511 1.62.881zM38.795 220.757c.679-1.605 1.344-3.104 1.992-4.493s1.312-2.747 1.992-4.076c.679-1.328 1.42-2.688 2.224-4.077.802-1.39 1.729-2.855 2.779-4.4.37-.556.602-.94.694-1.158.093-.216.354-.51.788-.88.679-.617 1.76-.927 3.242-.927 2.038 0 3.273.464 3.706 1.39.123.248.231.51.324.788.093.277.139.571.139.88 0 .495-.124 1.081-.37 1.76-.248.681-.804 1.545-1.668 2.595-.31.37-1.065 1.267-2.27 2.687-1.204 1.422-2.425 3.305-3.66 5.651-.68 1.236-1.561 2.997-2.64 5.281-1.082 2.286-2.395 5.343-3.938 9.172-.186.433-.387.989-.603 1.668-.217.681-.417 1.375-.603 2.084-.185.711-.34 1.329-.463 1.854-.125.525-.186.819-.186.88 0 .186.015.387.047.603.03.217.106.324.231.324.493 0 1.019-.401 1.575-1.205 3.149-4.446 5.929-8.09 8.338-10.932 2.409-2.841 4.493-5.188 6.254-7.041 1.76-1.854 3.211-3.351 4.354-4.494 1.142-1.142 1.96-2.27 2.455-3.382.432-.863.787-1.559 1.065-2.084.277-.524.523-.911.741-1.158.216-.246.432-.401.648-.463.216-.062.478-.093.787-.093.68 0 1.219.139 1.622.417.4.277.973.448 1.714.509.493.062.926.356 1.297.881.37.525.556 1.065.556 1.621 0 .186-.093.541-.278 1.065-.185.525-.402.973-.648 1.344-1.667 2.719-2.996 5.096-3.983 7.134-.989 2.038-1.822 4.231-2.502 6.578-.124.495-.263 1.111-.417 1.853s-.277 1.515-.37 2.316c-.093.803-.171 1.591-.231 2.362-.062.773-.093 1.375-.093 1.807 0 .865.093 1.621.278 2.27.185.648.338 1.221.463 1.714.123.866.616 1.575 1.482 2.131.864.557 1.45.959 1.76 1.205.371.31.695.618.974.926.277.311.416.711.416 1.205 0 .31-.185.756-.556 1.343-.37.587-.988.881-1.853.881-.371 0-1.128-.093-2.271-.278-1.144-.186-1.991-.525-2.547-1.02-.681-.616-1.298-1.096-1.854-1.436-.556-.339-1.144-.941-1.76-1.807-1.052-1.42-1.575-3.335-1.575-5.744 0-2.717.139-4.586.417-5.605.277-1.019.417-1.589.417-1.714 0-.246-.093-.37-.278-.37s-.371.124-.556.37c-1.915 2.533-3.537 4.648-4.864 6.347-1.329 1.699-2.548 3.352-3.659 4.956-.495.681-.912 1.221-1.251 1.622-.34.402-.665.727-.973.973-.311.247-.603.463-.881.648-.277.186-.571.463-.88.834-.37.433-.927.709-1.668.834-.74.123-1.328.185-1.76.185-.31 0-.757-.154-1.344-.463-.588-.309-1.236-.679-1.945-1.111-.711-.432-1.375-.896-1.992-1.391-.618-.493-1.081-.926-1.39-1.297-.186-.246-.34-.633-.463-1.158-.125-.523-.186-1.033-.186-1.528 0-.741.047-1.344.139-1.807.093-.463.2-.895.324-1.297.123-.401.246-.788.371-1.158.123-.371.216-.802.278-1.297.061-.679.262-1.543.602-2.595.339-1.049.741-2.161 1.205-3.335.463-1.173.94-2.347 1.436-3.521.501-1.176.933-2.226 1.303-3.153zM128.663 247.811c-.556.123-1.081.277-1.575.463-.495.186-1.051.278-1.667.278-.311 0-.649-.032-1.02-.093-.371-.062-.927-.248-1.668-.556-1.792-.681-3.073-1.746-3.845-3.197-.772-1.45-1.158-3.319-1.158-5.604 0-2.965.587-6.423 1.761-10.377.616-2.038 1.204-3.798 1.76-5.28.557-1.482 1.112-2.903 1.668-4.262.246-.557.371-.927.371-1.112 0-.123-.062-.186-.186-.186-.186 0-.588.341-1.205 1.02-1.606 1.792-3.196 3.768-4.771 5.93-1.575 2.162-3.12 4.34-4.633 6.531-1.514 2.193-3.011 4.324-4.493 6.393-1.482 2.07-2.904 3.907-4.262 5.513-.31.31-.495.51-.556.603-.062.092-.218.201-.464.324-.495.31-1.035.588-1.621.834-.588.247-1.221.37-1.899.37-.247 0-.927-.246-2.038-.741-1.112-.493-2.038-1.111-2.779-1.853-.248-.246-.371-.587-.371-1.02 0-.493.093-.834.278-1.02.186-.185.37-.679.556-1.481.864-3.645 1.945-7.181 3.243-10.608 1.297-3.428 2.717-6.81 4.262-10.146 1.543-3.335 3.134-6.624 4.771-9.866 1.636-3.243 3.196-6.47 4.679-9.682.37-.803.648-1.39.833-1.761.186-.37.401-.771.648-1.204 2.1-3.829 4.17-7.551 6.208-11.164s4.199-7.704 6.485-12.276c.309-.556.663-.91 1.065-1.065.4-.153.848-.231 1.343-.231.494 0 .881.032 1.158.093.278.062.54.093.788.093.431 0 .88.139 1.343.417.464.277.881.603 1.251.973.309.31.524.618.648.927.123.31.186.772.186 1.39 0 1.236-.417 2.316-1.251 3.242-.834.927-1.869 2.131-3.104 3.613-.433.495-.741.912-.927 1.251-.185.34-.463.757-.834 1.251-2.1 2.903-4.122 6.192-6.068 9.867-1.945 3.675-3.86 7.504-5.744 11.488-1.885 3.983-3.722 8.014-5.512 12.09-1.793 4.077-3.553 7.968-5.281 11.674-.371.804-.603 1.297-.695 1.482-.092.186-.139.31-.139.37 0 .125.061.186.186.186.061 0 .123-.046.186-.139.061-.093.215-.293.463-.603 3.767-5.249 7.365-9.928 10.793-14.036 3.429-4.106 6.841-8.014 10.238-11.72.616-.679 1.079-1.158 1.39-1.437.308-.277.709-.509 1.204-.694.927-.309 1.636-.463 2.131-.463.494 0 1.096.078 1.807.231.709.154 1.251.294 1.621.417.309.124.617.37.927.741.309.37.463.711.463 1.019 0 1.482-.294 2.812-.88 3.984-.588 1.174-1.221 2.315-1.899 3.428-.68 1.111-1.158 2.116-1.436 3.011-.278.896-.603 1.776-.973 2.641-1.236 2.965-2.349 6.224-3.336 9.774-.988 3.553-1.482 6.902-1.482 10.052 0 2.224.216 3.706.648 4.447.432.741.987 1.297 1.668 1.668.309.124.679.217 1.112.278.431.062.833.154 1.204.277.432.125.648.371.648.741 0 .186-.046.371-.139.556l-.324.648c-.125.309-.371.571-.741.788-.37.216-.71.385-1.018.51zM154.233 245.68c-.865.493-1.482.771-1.853.833-.371.062-.866.093-1.482.093-.556 0-1.098-.031-1.621-.093-.525-.062-1.158-.247-1.899-.556-.495-.186-1.051-.402-1.668-.648-.618-.246-1.22-.51-1.807-.787-.588-.278-1.097-.51-1.528-.695-.433-.186-.741-.339-.927-.463-.927-.494-1.807-1.297-2.641-2.409-.833-1.111-1.498-2.439-1.991-3.983-.311-.927-.572-2.131-.788-3.613-.217-1.482-.324-2.655-.324-3.521 0-.432.03-.881.093-1.344.061-.463.186-1.033.371-1.714 1.297-4.756 3.396-9.187 6.3-13.295 2.902-4.107 6.114-8.045 9.635-11.812.803-.864 2.085-1.774 3.845-2.733 1.761-.957 3.783-1.436 6.069-1.436 1.234 0 2.254.093 3.057.277.802.186 1.668.434 2.595.741.493.186 1.111.727 1.853 1.622s1.112 2.27 1.112 4.122c0 1.236-.218 2.379-.649 3.429-.433 1.051-.926 2.131-1.482 3.242-.494.927-.942 1.699-1.343 2.316-.402.618-.942 1.297-1.621 2.038-1.607 1.792-3.259 3.629-4.957 5.513-1.699 1.885-3.444 3.691-5.234 5.42-1.792 1.729-3.629 3.335-5.513 4.817-1.885 1.482-3.814 2.779-5.79 3.892-.371.247-.557.495-.557.741 0 .741.263 1.514.788 2.315.523.804 1.003 1.329 1.436 1.575.927.495 1.884.741 2.872.741.802 0 1.668-.153 2.595-.463.926-.309 2.438-1.02 4.539-2.131 1.605-.864 3.072-1.807 4.401-2.826 1.327-1.019 2.608-2.053 3.845-3.104 1.234-1.05 2.455-2.099 3.659-3.15 1.205-1.049 2.517-2.006 3.938-2.872.494-.308.881-.493 1.158-.556.278-.061.51-.093.695-.093.308 0 .694.186 1.158.556.463.371.694.804.694 1.298 0 .433-.016.711-.046.834-.032.124-.047.247-.047.37 0 .186-.016.402-.046.648-.032.248-.171.463-.417.648-1.112.927-2.146 1.932-3.104 3.011-.959 1.082-2.131 2.271-3.521 3.567s-3.166 2.749-5.328 4.354c-2.163 1.609-5.004 3.37-8.524 5.284zm6.949-37.153c.431-.679.817-1.343 1.158-1.991.338-.648.509-1.404.509-2.271 0-.37-.016-.648-.046-.834-.032-.185-.201-.277-.51-.277-.37 0-.711.093-1.019.277l-.927.557c-.495.31-.819.479-.973.509-.155.032-.449.264-.881.695-1.482 1.359-2.98 2.842-4.493 4.447-1.514 1.606-2.935 3.305-4.262 5.096-1.329 1.792-2.501 3.675-3.521 5.651-1.02 1.978-1.776 3.983-2.27 6.021 0 .311.061.464.185.464.123 0 .339-.093.649-.278 2.779-2.099 5.311-4.369 7.597-6.81 2.284-2.439 4.478-4.925 6.578-7.458.37-.432.633-.787.787-1.065.153-.278.293-.54.417-.787.123-.246.246-.51.371-.788.126-.277.341-.663.651-1.158zM198.982 186.385c-.311 1.792-.788 3.537-1.437 5.234-.648 1.7-1.39 3.367-2.224 5.003-.834 1.638-1.684 3.259-2.548 4.864-.865 1.607-1.667 3.182-2.408 4.726-.248.495-.495 1.051-.741 1.667-.248.618-.479 1.221-.695 1.807-.217.588-.387 1.098-.51 1.529-.124.433-.185.68-.185.741 0 .185.123.277.37.277.123 0 .417-.03.88-.093.464-.061.941-.153 1.437-.277 2.038-.432 4.229-1.08 6.578-1.946 2.347-.864 4.292-1.76 5.836-2.687.494-.309.834-.463 1.02-.463.371 0 .818.078 1.344.231.523.155 1.018.34 1.482.556.463.218.863.479 1.203.788.34.31.51.587.51.833 0 .618-.248 1.251-.74 1.899-.496.648-1.268 1.19-2.316 1.622-1.236.495-2.039.865-2.41 1.111-.369.247-.957.525-1.76.834-1.112.433-2.409.865-3.891 1.297-1.482.433-2.918.834-4.308 1.204-1.39.371-2.641.695-3.753.973-1.111.278-1.915.51-2.408.695-.804.248-1.39.711-1.761 1.39-.37.681-.68 1.422-.926 2.224-.248.804-.464 1.545-.649 2.224-.124.495-.293.988-.509 1.482-.218.495-.387.988-.51 1.482-.125.741-.402 1.76-.834 3.058-.433 1.297-.88 2.672-1.344 4.122-.463 1.452-.896 2.919-1.297 4.401-.402 1.482-.664 2.811-.787 3.983-.062.433-.294 1.112-.695 2.038-.402.927-.942 1.543-1.621 1.854-.186.123-.417.199-.694.231-.278.03-.51.046-.695.046-.556 0-1.158-.093-1.807-.277-.648-.186-1.158-.434-1.528-.741-.681-.495-1.02-1.235-1.02-2.224 0-.371.03-.818.093-1.344.061-.523.153-1.003.278-1.436 1.172-3.459 2.254-7.103 3.242-10.933.987-3.829 2.224-7.535 3.706-11.118.123-.37.186-.586.186-.648 0-.185-.155-.37-.464-.556-.865-.432-1.561-.895-2.084-1.39-.525-.493-.989-.987-1.39-1.482-.403-.493-.788-1.003-1.158-1.528-.371-.524-.834-1.004-1.39-1.437-.248-.186-.387-.385-.417-.602-.032-.216-.047-.386-.047-.51 0-.309.093-.54.278-.695.186-.153.463-.324.834-.51l.834-.324c.246-.093.586-.139 1.019-.139 1.05 0 2.1.248 3.15.741 1.049.495 2.006.741 2.872.741.864 0 1.39-.432 1.575-1.297.308-1.112.802-2.562 1.481-4.354 1.112-2.841 2.301-5.976 3.567-9.404s2.701-6.84 4.309-10.237c.308-.616.509-.973.602-1.065s.231-.139.417-.139c.741 0 1.235-.077 1.482-.231.246-.153.617-.231 1.111-.231.432 0 .987.062 1.668.185.679.125 1.297.31 1.854.557.556.247.833.463.833.648v.37c.002.126-.03.341-.09.65zM278.748 186.199c.432.866.727 1.7.881 2.502.152.804.262 1.638.324 2.501.061.681.107 1.313.139 1.899.031.588.047 1.19.047 1.807 0 2.349-.156 4.525-.463 6.532-.311 2.008-.773 4.463-1.391 7.365-1.422 6.485-3.396 12.801-5.93 18.946-2.533 6.146-5.775 12.029-9.729 17.649-.555.802-1.189 1.513-1.898 2.131-.711.617-1.652.927-2.826.927-.246 0-.541-.093-.879-.278-.342-.186-.943-.31-1.807-.37-.682-.062-1.221-.186-1.621-.371-.404-.186-.82-.495-1.252-.927-.309-.31-.926-.587-1.854-.833-.926-.248-1.543-.71-1.852-1.39-.867-1.854-1.422-3.783-1.668-5.791-.248-2.006-.525-4.276-.834-6.81-.125-.802-.232-1.281-.324-1.436s-.201-.232-.324-.232c-.248 0-.525.248-.834.741-.494.741-.973 1.406-1.436 1.992-.463.588-1.066 1.221-1.807 1.899-1.174 1.051-2.287 2.255-3.336 3.613-1.051 1.359-2.084 2.626-3.104 3.799-1.02 1.174-2.023 2.162-3.012 2.965-.988.802-2.008 1.204-3.057 1.204-.619 0-1.73-.711-3.336-2.131-.246-.246-.541-.417-.879-.51l-1.02-.278c-.34-.092-.635-.199-.881-.324-.248-.123-.402-.339-.463-.648-.125-.37-.186-.709-.186-1.019v-2.131c0-1.544.107-2.949.324-4.216.217-1.266.418-2.516.604-3.752l.139-1.297.092-.927c.031-.309.076-.663.139-1.065.061-.401.186-.973.371-1.714 1.42-6.485 3.119-12.971 5.096-19.456s3.828-12.908 5.559-19.271c.123-.494.324-.881.602-1.158.279-.278 1.035-.417 2.271-.417.492 0 .973.062 1.436.186.463.124.941.247 1.436.37.123 0 .309.125.557.371l.787.787s.51.541.695.787c.186.248.277.402.277.464 0 .124-.031.277-.092.463-.062.186-.125.34-.186.463-2.842 6.796-5.234 13.82-7.182 21.078-1.945 7.258-3.691 14.592-5.234 22.003-.186.866-.309 1.545-.369 2.039-.062.495-.094.803-.094.926 0 .311.094.464.277.464.123 0 .34-.093.648-.278s.896-.709 1.762-1.575c3.025-3.149 5.883-6.592 8.57-10.33 2.686-3.736 4.77-7.272 6.252-10.608.246-.493.432-.91.557-1.25.123-.339.232-.648.324-.927.094-.278.186-.586.277-.927.094-.339.201-.756.324-1.251.186-.864.402-1.682.648-2.455.246-.771.525-1.496.834-2.177.123-.309.232-.51.324-.603.094-.093.232-.139.418-.139.371 0 .787.062 1.25.186.463.124.85.217 1.158.277.742.062 1.391.434 1.945 1.112 1.051 1.236 1.576 2.378 1.576 3.428 0 .556-.016.973-.047 1.251-.031.277-.109.571-.232.88-.865 2.719-1.527 5.436-1.99 8.153-.465 2.719-.695 5.559-.695 8.523 0 3.768.4 7.659 1.203 11.674.123.556.34.833.65.833.184 0 .385-.123.602-.37.215-.246.477-.556.787-.927 3.768-5.063 6.84-10.777 9.219-17.14 2.377-6.36 4.309-12.754 5.791-19.178.246-.987.4-1.791.463-2.409.061-.616.092-1.173.092-1.668 0-.556.016-1.019.047-1.39.029-.37.047-.741.047-1.111 0-.371.014-.756.045-1.158.031-.401.047-.941.047-1.621 0-.741-.092-1.344-.277-1.807-.186-.464-.402-.911-.648-1.344-.248-.432-.463-.88-.648-1.343-.186-.464-.279-1.034-.279-1.715 0-1.049.078-1.853.232-2.408s.479-.834.973-.834c.371 0 .756.032 1.158.093.4.062.941.093 1.621.093.865 0 1.637.124 2.316.37.683.252 1.269.9 1.763 1.949zM298.018 242.251c-.988.866-2.301 1.823-3.938 2.872-1.637 1.05-3.506 1.575-5.604 1.575-.682 0-1.377-.217-2.086-.648-.711-.433-1.389-1.003-2.037-1.714-.648-.709-1.221-1.497-1.715-2.362-.494-.864-.865-1.729-1.111-2.595-.186-.679-.311-1.327-.371-1.945-.062-.616-.092-1.265-.092-1.945 0-1.173.107-2.316.324-3.428.215-1.112.602-2.47 1.158-4.077.309-.864.57-1.682.787-2.455.215-.771.479-1.497.787-2.177 1.42-3.396 2.84-6.778 4.262-10.146 1.42-3.365 2.996-6.84 4.725-10.423.494-.987 1.174-1.651 2.039-1.991.863-.339 1.729-.51 2.594-.51.494 0 1.004.046 1.529.139.523.093.941.294 1.25.603.246.186.432.37.557.556.123.186.186.495.186.927 0 1.236-.217 2.332-.648 3.289-.434.958-.943 1.868-1.529 2.732-.588.866-1.221 1.761-1.898 2.688-.682.926-1.299 1.945-1.854 3.057l-1.297 3.012c-.496 1.144-1.006 2.332-1.529 3.566-.525 1.236-1.02 2.425-1.482 3.567-.463 1.144-.85 2.146-1.158 3.011-.803 2.101-1.375 3.97-1.713 5.605-.342 1.637-.51 2.795-.51 3.474 0 .434.076 1.035.23 1.807.154.773.633 1.158 1.438 1.158.492 0 .955-.046 1.389-.139.432-.093.895-.246 1.391-.463.492-.216 1.049-.524 1.666-.927.617-.401 1.391-.941 2.316-1.621 1.113-.803 1.93-1.344 2.455-1.622.525-.277 1.158-.417 1.9-.417.371 0 .771.047 1.203.14s.803.264 1.113.51c.309.247.477.479.51.694.029.217.045.417.045.603 0 .556-.154 1.019-.463 1.39-.311.37-.648.741-1.02 1.111l-3.799 3.519zm11.767-60.869c.494.495.801 1.005.926 1.529.123.525.186 1.034.186 1.528 0 .31-.031.603-.092.88-.062.278-.186.542-.371.788-.865 1.051-1.807 2.069-2.826 3.057-1.02.989-2.055 1.482-3.104 1.482-.926 0-1.715-.199-2.363-.602-.648-.401-1.096-.818-1.342-1.251-.248-.494-.418-1.02-.51-1.575-.094-.556-.141-1.08-.141-1.575 0-.679.094-1.374.279-2.084s.494-1.312.926-1.807c.494-.557 1.127-.957 1.9-1.205.771-.246 1.65-.37 2.639-.37.742 0 1.498.108 2.271.324.773.218 1.312.511 1.622.881zM309.506 247.069c-.186 0-.727-.14-1.621-.417-.896-.278-1.869-.695-2.92-1.251s-2.037-1.281-2.965-2.177c-.926-.896-1.514-1.992-1.76-3.289-.186-.987-.277-2.039-.277-3.15 0-2.161.4-4.339 1.203-6.531s1.729-4.617 2.781-7.273c.986-2.594 2.223-5.435 3.705-8.523 1.482-3.088 3.072-6.254 4.771-9.496 1.697-3.243 3.475-6.5 5.326-9.774 1.854-3.273 3.676-6.423 5.467-9.45.371-.679.709-1.467 1.02-2.362.309-.895.662-1.761 1.064-2.595.402-.833.881-1.528 1.438-2.084.555-.556 1.297-.834 2.223-.834.68 0 1.234-.03 1.668-.093.432-.061.895-.093 1.389-.093s.957.093 1.391.278c.432.186.771.433 1.02.741.494.741.74 1.606.74 2.594 0 1.112-.309 2.193-.926 3.243-2.102 3.397-4.262 6.749-6.486 10.052-2.223 3.305-4.369 6.61-6.438 9.913-2.07 3.306-4.031 6.656-5.883 10.053-1.854 3.397-3.461 6.888-4.818 10.469-.742 1.916-1.514 3.784-2.316 5.605-.803 1.822-1.205 3.752-1.205 5.791 0 .556.031 1.111.094 1.667.061.556.186 1.144.371 1.761.246.741.863 1.111 1.852 1.111.617 0 1.143-.123 1.576-.37.986-.617 2.021-1.513 3.104-2.688 1.08-1.172 2.16-2.33 3.242-3.474 1.08-1.143 2.178-2.131 3.289-2.965s2.191-1.251 3.242-1.251c.371 0 .988.171 1.854.51.863.34 1.297.88 1.297 1.621 0 .618-.186 1.082-.557 1.39-.369.31-.803.711-1.297 1.205-1.174 1.297-2.316 2.656-3.428 4.076-1.111 1.422-2.27 2.733-3.475 3.938-1.203 1.204-2.518 2.193-3.938 2.965-1.423.771-3.028 1.157-4.817 1.157zM385.014 176.193c0 1.175-.201 2.147-.604 2.919-.402.772-.85 1.498-1.344 2.177-.432.618-.771 1.236-1.018 1.854-.248.618-.619 1.328-1.113 2.131-1.359 2.162-2.779 4.354-4.262 6.578-1.482 2.223-2.934 4.446-4.354 6.67-1.422 2.224-2.732 4.447-3.938 6.671s-2.178 4.387-2.918 6.485l-1.482 4.076c-1.422 3.892-2.58 7.259-3.475 10.099-.896 2.842-1.607 5.281-2.131 7.319-.525 2.038-.896 3.722-1.111 5.049-.219 1.329-.324 2.395-.324 3.197 0 1.667.123 2.857.369 3.566s.371 1.251.371 1.621c0 .186-.125.401-.371.648-.309.309-.555.587-.74.834-.186.246-.371.447-.557.603-.186.153-.432.278-.74.37-.311.093-.742.14-1.297.14-.434 0-1.082-.218-1.945-.648-.867-.434-1.33-.804-1.391-1.112-.371-2.099-.557-4.106-.557-6.021 0-2.78.279-5.312.834-7.598.557-2.284 1.08-4.322 1.576-6.114.186-.617.432-1.312.74-2.085.309-.771.633-1.482.973-2.131s.617-1.204.834-1.668c.217-.463.324-.725.324-.787 0-.123-.062-.186-.186-.186s-.432.278-.926.834c-1.854 2.163-3.705 4.324-5.559 6.485-1.854 2.163-3.752 4.247-5.697 6.254-1.947 2.008-3.938 3.907-5.977 5.697-2.039 1.793-4.201 3.367-6.486 4.726-.494.31-.988.495-1.48.556-.496.061-.928.093-1.299.093-.494 0-1.08-.123-1.76-.371-.68-.246-1.375-.523-2.084-.833-.711-.309-1.33-.617-1.854-.927-.525-.309-.818-.556-.881-.741-1.051-1.791-1.574-3.551-1.574-5.281 0-2.47 1.08-5.774 3.242-9.913 2.225-4.262 5.064-8.153 8.523-11.674s7.135-6.578 11.025-9.172c.68-.493 1.652-.91 2.918-1.251 1.266-.339 2.518-.509 3.754-.509.986 0 1.852.154 2.594.463.617.31 1.357.588 2.223.834.865.247 1.576.556 2.131.926.432 0 .68-.03.742-.092 2.408-2.595 4.508-5.266 6.299-8.015 1.791-2.747 3.49-5.513 5.096-8.292s3.211-5.559 4.818-8.338c1.605-2.779 3.396-5.467 5.373-8.061.309-.37.586-.648.834-.834.246-.186.68-.277 1.297-.277.309 0 .709.092 1.205.277.494.186.986.417 1.482.695.494.277.926.602 1.297.973.375.37.561.741.561 1.111zm-32.057 35.022c0-.617-.711-.927-2.131-.927-.928 0-1.699.155-2.316.463-2.223 1.112-4.434 2.548-6.625 4.309-2.193 1.76-4.23 3.706-6.113 5.837-1.885 2.131-3.6 4.433-5.143 6.902-1.545 2.471-2.779 4.972-3.707 7.504-.061.125-.123.324-.184.603-.062.277-.094.479-.094.602 0 .495.047.974.139 1.437.094.463.262.694.51.694.309 0 .617-.123.928-.37.307-.246.602-.417.879-.51.279-.093.633-.292 1.066-.603 4.014-3.149 7.736-6.685 11.164-10.607 3.428-3.922 6.654-7.922 9.682-11.998.555-.741 1.02-1.281 1.389-1.621.37-.34.556-.912.556-1.715z"/></g><g fill="#1E1E1C"><path d="M13.083 266.576l-1.747 5.353h-2.115l-1.123-9.262c-.288-.036-.506-.137-.653-.299-.147-.163-.221-.369-.221-.621 0-.294.097-.53.29-.708.193-.178.517-.267.97-.267l2.511.01c.454 0 .777.086.971.257.193.172.29.399.29.681 0 .282-.097.511-.29.686-.193.175-.517.262-.971.262h-.984l.625 5.27 1.481-4.387h1.959l1.471 4.387.625-5.27h-.982c-.454 0-.777-.087-.971-.262-.193-.175-.29-.403-.29-.686 0-.281.097-.511.29-.686.193-.174.517-.262.971-.262l2.501.01c.454 0 .777.086.971.257.193.172.29.399.29.681 0 .239-.077.444-.23.616s-.374.282-.662.331l-1.085 9.262h-2.078l-1.814-5.353zM29.114 268.709h-7.734c.196.491.544.887 1.043 1.188.5.3 1.176.45 2.028.45.699 0 1.628-.15 2.787-.45.478-.123.81-.185.993-.185.251 0 .463.089.635.267.171.179.257.402.257.672 0 .245-.092.453-.276.625-.245.227-.843.443-1.793.648-.951.206-1.864.309-2.741.309-1.508 0-2.715-.427-3.619-1.278-.905-.853-1.357-1.901-1.357-3.146 0-1.324.489-2.401 1.467-3.232.978-.831 2.104-1.246 3.38-1.246.766 0 1.47.135 2.11.404.641.271 1.118.562 1.43.874.441.454.806 1.016 1.094 1.684.196.466.294 1.005.294 1.618v.798zm-2.088-1.885c-.289-.54-.666-.943-1.131-1.209-.466-.267-1.021-.4-1.665-.4-.637 0-1.189.134-1.655.4-.466.266-.846.669-1.14 1.209h5.591zM35.294 263.577v1.178c.791-.57 1.415-.95 1.872-1.141.457-.19.884-.285 1.283-.285.613 0 1.208.228 1.784.681.393.307.589.619.589.938 0 .271-.094.499-.281.686-.187.188-.413.28-.676.28-.233 0-.478-.115-.735-.349s-.488-.35-.689-.35c-.264 0-.658.165-1.183.497-.524.33-1.178.827-1.963 1.489v2.842h2.686c.454 0 .777.088.971.263.193.174.29.403.29.685 0 .276-.097.501-.29.676-.193.175-.517.263-.971.263h-5.693c-.454 0-.777-.088-.97-.263-.193-.175-.29-.402-.29-.685 0-.276.097-.502.29-.676.192-.175.516-.263.97-.263h1.122v-4.58h-.681c-.454 0-.777-.087-.97-.262-.193-.176-.29-.403-.29-.686 0-.275.097-.501.29-.676s.517-.263.97-.263h2.565zM45.438 268.792v3.137h-2.208c-.454 0-.777-.088-.97-.263-.193-.175-.29-.402-.29-.685 0-.276.098-.502.294-.676.196-.175.518-.263.965-.263h.322v-8.158h-.322c-.454 0-.777-.087-.97-.262-.193-.175-.29-.402-.29-.685 0-.276.097-.502.29-.676.193-.175.517-.263.97-.263h2.208v6.354l1.471-1.186c-.153-.264-.229-.479-.229-.644 0-.282.095-.511.285-.686.19-.175.512-.263.965-.263h2.152c.454 0 .777.088.97.263s.29.403.29.686c0 .275-.096.5-.29.676-.193.175-.517.262-.97.262h-.524l-2.29 1.858 3.081 2.722h.552c.454 0 .777.088.97.263.193.174.29.403.29.685 0 .276-.096.501-.29.676-.193.175-.517.263-.97.263h-2.17c-.454 0-.777-.088-.97-.263-.193-.175-.29-.402-.29-.685 0-.239.104-.476.312-.709l-1.996-1.766-.348.288zM63.023 268.709h-7.735c.196.491.544.887 1.044 1.188.499.3 1.175.45 2.028.45.699 0 1.627-.15 2.787-.45.478-.123.809-.185.993-.185.251 0 .463.089.634.267.172.179.258.402.258.672 0 .245-.092.453-.276.625-.246.227-.843.443-1.793.648-.95.206-1.864.309-2.741.309-1.508 0-2.715-.427-3.619-1.278-.904-.853-1.356-1.901-1.356-3.146 0-1.324.489-2.401 1.467-3.232.978-.831 2.104-1.246 3.379-1.246.767 0 1.47.135 2.111.404.641.271 1.117.562 1.43.874.441.454.806 1.016 1.095 1.684.196.466.294 1.005.294 1.618v.798zm-2.088-1.885c-.288-.54-.665-.943-1.131-1.209-.466-.267-1.021-.4-1.665-.4-.638 0-1.189.134-1.656.4-.466.266-.846.669-1.141 1.209h5.593zM67.686 263.577v.635c.343-.294.722-.515 1.135-.662.414-.146.863-.221 1.348-.221 1.116 0 1.999.347 2.648 1.04.516.551.773 1.274.773 2.17v3.504c.398 0 .693.088.883.263.19.174.285.403.285.685 0 .276-.097.501-.29.676-.193.175-.516.263-.97.263h-1.702c-.454 0-.777-.088-.97-.263s-.29-.402-.29-.685c0-.276.095-.502.285-.676.19-.175.484-.263.883-.263v-3.56c0-.41-.11-.711-.331-.9-.288-.245-.72-.368-1.296-.368-.436 0-.817.084-1.145.253-.328.168-.744.525-1.246 1.071v3.504c.484 0 .797.046.938.139.3.184.451.453.451.809 0 .276-.097.501-.29.676s-.517.263-.97.263h-2.144c-.454 0-.777-.088-.97-.263-.193-.175-.29-.402-.29-.685 0-.344.147-.61.441-.8.147-.093.463-.139.947-.139v-4.58c-.398 0-.693-.089-.883-.267s-.285-.405-.285-.681.097-.501.29-.676c.193-.175.516-.263.97-.263h1.795zM3.666 284.269c-.214.188-.498.395-.852.621s-.758.341-1.211.341c-.147 0-.297-.047-.451-.141-.154-.093-.301-.217-.44-.37-.141-.153-.264-.323-.371-.511-.107-.188-.188-.374-.241-.562-.04-.146-.067-.286-.08-.42l-.02-.42c0-.254.023-.501.07-.741s.13-.533.251-.881l.17-.531s.104-.323.17-.471l.921-2.193c.307-.728.647-1.479 1.021-2.253.106-.214.253-.357.44-.431s.374-.11.561-.11l.331.029c.113.021.204.063.271.131l.12.12.04.2c0 .268-.047.505-.14.711-.093.208-.204.404-.331.591l-.411.581s-.281.421-.401.661l-.28.65-.331.771-.32.771-.25.651c-.174.453-.297.858-.371 1.211-.074.354-.11.604-.11.751 0 .094.016.225.05.391.033.168.137.251.311.251l.3-.03.301-.1c.106-.047.227-.114.36-.2l.501-.352c.24-.173.417-.29.531-.351.113-.06.25-.09.411-.09l.26.03c.093.02.173.058.24.11.067.054.104.104.11.15l.01.13c0 .12-.033.22-.1.301l-.221.24-.819.764zm2.543-13.161c.106.107.173.218.2.331l.04.331-.02.189-.081.171c-.187.227-.391.447-.611.66-.22.215-.444.32-.671.32-.2 0-.371-.043-.51-.129-.14-.087-.237-.178-.291-.271-.054-.107-.09-.222-.11-.342l-.031-.34c0-.146.02-.297.061-.45.04-.153.107-.284.2-.391.106-.121.243-.207.411-.261.167-.054.357-.08.571-.08.16 0 .324.023.491.07s.285.113.351.192zM5.147 279.622c.146-.348.291-.671.431-.972s.284-.594.431-.882c.147-.286.307-.58.481-.881.173-.301.374-.617.601-.952l.15-.25c.02-.047.077-.109.17-.19.146-.133.38-.2.701-.2.44 0 .708.101.801.301l.07.171.03.189c0 .107-.026.233-.08.381-.053.146-.174.334-.36.561l-.491.581s-.524.715-.792 1.222c-.147.268-.337.648-.571 1.142-.234.495-.518 1.155-.851 1.983l-.13.36-.13.45-.1.401-.041.19.01.13.05.07c.106 0 .22-.087.34-.261.681-.961 1.282-1.749 1.803-2.363s.972-1.122 1.352-1.522.694-.725.941-.972c.247-.246.424-.49.531-.73l.23-.451.16-.251.14-.1.17-.021c.146 0 .263.03.351.091.086.061.21.097.37.11.107.013.201.076.281.189.08.114.12.23.12.351l-.06.23c-.04.114-.087.211-.14.291-.361.588-.648 1.102-.861 1.542-.214.44-.394.915-.541 1.422l-.09.401c-.034.16-.06.327-.08.5l-.05.512-.02.391c0 .187.02.351.06.49l.1.37c.027.188.133.341.321.461l.38.261.21.2c.06.066.09.153.09.261 0 .066-.04.163-.12.29s-.213.19-.4.19c-.081 0-.244-.02-.491-.06-.248-.041-.431-.114-.551-.222-.147-.133-.281-.236-.401-.31s-.247-.203-.38-.391c-.228-.308-.34-.722-.34-1.242 0-.588.03-.991.09-1.212l.09-.37-.061-.08-.12.08c-.414.548-.765 1.005-1.052 1.372-.288.367-.551.725-.792 1.071l-.27.351-.21.211-.19.14-.19.181c-.08.094-.2.152-.361.18-.16.027-.287.04-.38.04-.067 0-.164-.033-.291-.1l-.421-.241c-.154-.093-.297-.192-.431-.3-.133-.106-.234-.2-.3-.281-.04-.053-.073-.137-.1-.25-.027-.113-.041-.224-.041-.33 0-.16.011-.291.03-.391l.07-.28.08-.25.06-.281c.013-.146.057-.333.13-.561.074-.228.161-.467.261-.721l.31-.762.284-.678zM24.577 285.471l-.34.101c-.107.04-.228.06-.36.06l-.221-.02c-.08-.014-.2-.055-.361-.121-.387-.146-.664-.377-.831-.69s-.25-.718-.25-1.212c0-.641.127-1.389.38-2.243.133-.44.26-.821.38-1.143.121-.32.241-.627.361-.921l.08-.24-.04-.04c-.04 0-.127.073-.261.22-.347.388-.691.815-1.031 1.282-.34.468-.674.938-1.001 1.412-.327.475-.651.935-.972 1.383-.32.447-.628.845-.921 1.191l-.12.13-.101.07c-.107.066-.224.127-.351.181s-.264.08-.411.08c-.053 0-.2-.054-.44-.16-.241-.107-.441-.241-.601-.401-.054-.053-.08-.126-.08-.22 0-.107.02-.181.06-.221s.08-.146.12-.32c.187-.788.421-1.552.701-2.294.28-.741.587-1.472.921-2.192.333-.722.678-1.433 1.031-2.134.354-.701.691-1.398 1.012-2.093l.181-.381.14-.261c.454-.827.902-1.632 1.342-2.413s.908-1.666 1.402-2.654c.067-.12.144-.197.23-.23s.184-.051.291-.051l.25.021.17.021c.093 0 .19.029.29.09.1.06.191.13.271.211.066.066.113.133.14.2.027.066.041.167.041.3 0 .268-.09.501-.271.701-.18.2-.404.461-.67.781-.094.107-.161.197-.201.271l-.18.271c-.454.627-.891 1.339-1.312 2.134-.42.794-.834 1.621-1.242 2.483-.407.86-.805 1.732-1.191 2.614-.388.881-.768 1.722-1.142 2.523l-.15.32-.03.08.041.04.04-.03.101-.13c.814-1.135 1.592-2.146 2.333-3.034.742-.888 1.479-1.733 2.214-2.534l.3-.311c.067-.061.153-.11.26-.15.2-.066.354-.1.461-.1.106 0 .237.017.391.05l.35.09c.067.026.133.08.201.16.067.08.1.154.1.221 0 .32-.064.607-.19.861-.127.254-.265.501-.411.741-.147.24-.25.457-.311.65-.06.194-.13.384-.21.571-.267.641-.508 1.345-.721 2.113-.214.769-.321 1.492-.321 2.173 0 .48.047.801.14.962.094.16.213.28.361.36l.241.06.26.061c.093.027.14.08.14.16l-.03.12-.07.141c-.027.066-.08.123-.16.17l-.222.109zM30.105 285.01c-.187.106-.32.167-.4.181l-.32.02-.351-.02s-.25-.054-.411-.121l-.361-.14-.391-.17-.33-.15-.201-.1c-.2-.107-.391-.281-.571-.521-.18-.24-.324-.527-.431-.861-.067-.2-.124-.461-.17-.781s-.07-.574-.07-.761l.02-.29.081-.371c.28-1.028.733-1.986 1.362-2.875.627-.888 1.322-1.738 2.083-2.554.174-.187.451-.384.832-.591.381-.207.818-.31 1.312-.31.267 0 .487.02.661.06.173.04.361.094.561.16.106.04.24.157.4.351.161.193.241.49.241.892 0 .267-.047.515-.141.741-.093.228-.2.461-.32.7-.107.2-.204.368-.291.501-.087.134-.204.28-.35.44l-1.072 1.192c-.368.407-.745.798-1.132 1.172-.387.374-.784.721-1.191 1.042-.407.32-.825.601-1.252.841-.08.054-.12.107-.12.16 0 .16.057.327.17.5.113.175.217.288.31.342.2.106.407.16.621.16.173 0 .36-.034.561-.101.2-.066.527-.22.981-.461.347-.187.665-.391.952-.61.287-.221.563-.444.831-.671l.791-.682c.261-.227.544-.434.851-.621l.25-.12.15-.02c.066 0 .15.04.25.119.1.081.15.175.15.281l-.01.18-.01.081-.01.14c-.007.054-.037.1-.09.141-.241.2-.464.418-.671.65-.207.234-.461.491-.761.771-.301.28-.685.595-1.152.941-.466.349-1.08.729-1.841 1.143zm1.503-8.032l.25-.43c.073-.141.11-.304.11-.491l-.01-.181c-.007-.04-.043-.061-.11-.061-.08 0-.154.021-.221.061l-.2.12-.21.11-.191.15c-.32.294-.645.614-.971.961-.328.348-.634.715-.921 1.102-.288.388-.541.795-.761 1.222-.221.429-.384.862-.491 1.303l.04.1.14-.06c.601-.454 1.148-.944 1.643-1.473.494-.527.968-1.064 1.422-1.612l.17-.23.09-.17.08-.17.141-.251zM39.78 272.19c-.067.388-.17.765-.311 1.132-.14.367-.3.728-.48 1.082-.181.354-.364.704-.551 1.051-.188.348-.361.688-.521 1.022l-.16.36-.15.391-.11.33-.04.16.08.061.19-.021.311-.061c.44-.093.915-.232 1.422-.42.507-.187.928-.381 1.262-.581.106-.066.18-.101.221-.101.08 0 .177.018.29.051l.32.12c.101.047.187.104.261.17.073.067.11.127.11.181 0 .134-.053.271-.16.41-.107.141-.273.258-.5.352-.268.106-.441.187-.521.239-.08.054-.207.113-.38.181-.241.094-.521.187-.842.28-.32.094-.631.181-.931.261l-.812.21c-.24.061-.414.11-.52.15-.174.054-.301.153-.381.301s-.147.308-.2.48l-.141.48-.11.32-.11.32c-.027.16-.087.381-.181.661l-.291.892c-.1.314-.194.631-.28.951-.087.32-.144.608-.17.862-.013.093-.063.239-.15.439-.087.201-.204.334-.351.401l-.15.05-.15.01c-.121 0-.251-.02-.391-.06-.141-.04-.251-.094-.331-.16-.147-.107-.22-.267-.22-.48l.02-.291.061-.311c.253-.747.487-1.535.701-2.363.213-.828.481-1.629.801-2.403l.04-.141c0-.04-.034-.08-.1-.12-.187-.094-.337-.193-.451-.301-.114-.106-.214-.214-.301-.32l-.25-.331c-.081-.113-.18-.216-.301-.31l-.09-.13-.01-.111c0-.066.02-.116.061-.149l.18-.11.18-.07.22-.03c.227 0 .454.054.681.16.227.107.434.16.621.16s.3-.093.34-.28c.066-.24.173-.554.32-.941.24-.614.498-1.291.771-2.032.274-.742.584-1.479.932-2.214l.13-.23.09-.029c.161 0 .268-.018.321-.051s.133-.05.24-.05c.093 0 .213.013.361.04.146.026.28.066.4.12.12.054.18.101.18.141v.079l-.019.141zM57.026 272.15c.093.188.157.367.19.541s.057.354.07.541l.03.41.01.391c0 .508-.033.979-.1 1.412-.066.435-.167.965-.3 1.593-.307 1.401-.734 2.768-1.282 4.096-.548 1.329-1.249 2.602-2.104 3.816-.12.173-.257.326-.41.461-.154.133-.357.2-.611.2l-.19-.061c-.074-.04-.204-.067-.391-.08-.147-.014-.264-.04-.351-.08-.087-.04-.177-.107-.271-.2-.067-.067-.201-.127-.4-.181-.201-.054-.334-.153-.401-.301-.187-.4-.308-.817-.36-1.251l-.181-1.473c-.027-.174-.05-.276-.07-.311l-.07-.05c-.054 0-.113.053-.181.16-.106.16-.21.304-.31.431s-.23.264-.39.411c-.254.227-.495.487-.722.781-.227.293-.45.566-.671.82-.22.254-.438.468-.651.642-.214.173-.434.26-.661.26-.133 0-.374-.153-.721-.46-.053-.054-.117-.091-.19-.11l-.22-.061-.19-.07c-.054-.026-.087-.073-.1-.14l-.041-.221v-.461c0-.333.023-.637.07-.911l.13-.812.03-.28.021-.2.03-.23.08-.37c.307-1.402.674-2.805 1.102-4.207.427-1.401.828-2.79 1.202-4.166.027-.106.07-.19.13-.25.06-.061.224-.09.491-.09.107 0 .21.013.311.04l.311.079.12.081.17.17.15.17.06.101-.021.1-.04.101c-.615 1.469-1.132 2.988-1.553 4.558-.42 1.568-.798 3.154-1.131 4.756l-.08.441-.021.2c0 .067.021.1.06.1l.14-.06c.067-.04.194-.153.381-.34.654-.682 1.272-1.426 1.853-2.233.581-.809 1.032-1.573 1.353-2.294l.12-.271.07-.2.06-.2.07-.271c.04-.187.086-.363.14-.531.053-.167.113-.323.18-.471l.07-.13.09-.03.271.04.25.061c.161.013.3.094.421.24.227.268.34.514.34.741l-.01.271-.05.189c-.187.589-.33 1.176-.43 1.763-.1.589-.15 1.202-.15 1.843 0 .815.087 1.656.26 2.524.027.12.073.18.141.18l.13-.079.17-.2c.814-1.096 1.479-2.331 1.993-3.706s.932-2.758 1.252-4.146c.054-.213.087-.388.101-.521l.02-.359.01-.301.01-.24.01-.251.01-.35c0-.16-.02-.291-.06-.391l-.14-.291-.141-.29c-.04-.101-.06-.224-.06-.371 0-.227.017-.4.05-.521.033-.12.104-.181.21-.181l.25.021.351.021c.187 0 .354.026.501.079.147.053.273.194.381.42zM61.192 284.269c-.214.188-.498.395-.852.621s-.758.341-1.212.341c-.147 0-.297-.047-.451-.141-.153-.093-.3-.217-.44-.37s-.264-.323-.371-.511c-.107-.188-.188-.374-.241-.562-.04-.146-.067-.286-.08-.42l-.02-.421c0-.254.023-.501.07-.741s.13-.533.25-.881l.17-.531s.104-.323.17-.471l.921-2.193s.648-1.479 1.021-2.253c.107-.214.254-.357.441-.431.187-.073.374-.11.561-.11l.33.029c.113.021.204.063.271.131l.12.12.041.2c0 .268-.047.505-.141.711-.093.208-.204.404-.331.591l-.411.581s-.28.421-.4.661l-.28.65-.331.771-.321.771-.25.651c-.174.453-.297.858-.371 1.211-.074.354-.11.604-.11.751 0 .094.017.225.05.391.033.168.137.251.311.251l.3-.03.3-.1.36-.2.501-.352c.24-.173.417-.29.531-.351.113-.06.25-.09.411-.09l.261.03c.093.02.173.058.24.11.067.054.103.104.11.15l.01.13c0 .12-.034.22-.1.301l-.221.24-.817.765zm2.543-13.161c.107.107.173.218.201.331.026.113.04.224.04.331l-.02.189-.08.171c-.188.227-.391.447-.611.66-.22.215-.444.32-.671.32-.2 0-.371-.043-.511-.129-.14-.087-.237-.178-.291-.271-.053-.107-.09-.222-.11-.342l-.03-.34c0-.146.02-.297.06-.45s.107-.284.201-.391c.106-.121.243-.207.41-.261s.357-.08.571-.08c.16 0 .324.023.491.07.167.05.283.113.35.192zM63.675 285.311l-.351-.09c-.194-.061-.404-.151-.631-.271-.228-.12-.441-.277-.642-.471-.2-.193-.327-.431-.38-.712-.041-.213-.061-.44-.061-.681 0-.468.087-.938.26-1.412.174-.474.374-.998.602-1.572.213-.562.48-1.175.801-1.843s.664-1.352 1.032-2.054c.367-.7.751-1.404 1.152-2.113.4-.707.794-1.388 1.182-2.043.08-.146.153-.316.22-.51s.144-.382.23-.562c.086-.18.19-.331.311-.45.12-.12.28-.181.481-.181l.36-.021.301-.02c.107 0 .207.02.3.061.093.04.167.094.221.16.107.16.16.347.16.561 0 .24-.067.475-.201.701-.454.734-.921 1.459-1.402 2.173-.481.715-.945 1.43-1.392 2.144-.447.715-.871 1.438-1.271 2.173-.401.734-.748 1.489-1.042 2.264-.161.415-.327.818-.501 1.212-.173.395-.26.812-.26 1.252l.02.36c.013.12.04.248.08.381.053.16.187.24.401.24.133 0 .247-.026.34-.08.214-.133.437-.327.671-.581l.701-.751c.233-.247.471-.461.711-.641.241-.181.474-.271.701-.271.08 0 .213.036.401.11.187.073.28.19.28.351 0 .134-.04.233-.12.3l-.281.261c-.254.28-.5.574-.741.882-.241.307-.491.59-.751.851s-.544.475-.852.642c-.306.168-.653.251-1.04.251zM80 269.987c0 .254-.043.464-.13.631s-.184.324-.291.471c-.093.134-.167.268-.22.4-.053.134-.133.287-.24.461-.294.467-.601.941-.922 1.422-.32.481-.634.962-.941 1.442-.307.48-.59.961-.851 1.442-.26.48-.47.948-.631 1.401l-.32.882c-.308.841-.558 1.569-.751 2.184s-.347 1.142-.46 1.582c-.114.441-.194.805-.24 1.092-.047.287-.07.518-.07.691 0 .36.027.617.08.771.053.153.08.27.08.35l-.08.141-.16.18-.12.131-.161.08-.28.03c-.094 0-.234-.047-.421-.141-.187-.094-.288-.174-.3-.24-.08-.454-.121-.888-.121-1.302 0-.602.061-1.148.18-1.643.121-.494.234-.935.341-1.322l.16-.45.21-.461.18-.36.07-.171-.041-.04-.2.181-1.202 1.402s-.811.918-1.231 1.352c-.421.434-.852.845-1.292 1.231-.441.389-.908.729-1.402 1.022-.107.066-.213.106-.32.12l-.28.02c-.107 0-.234-.026-.38-.08l-.451-.181c-.154-.066-.288-.133-.401-.199-.113-.067-.177-.121-.19-.16-.227-.388-.34-.769-.34-1.143 0-.533.234-1.248.701-2.143.48-.922 1.094-1.763 1.842-2.524.748-.761 1.542-1.422 2.384-1.983.146-.106.357-.196.631-.27.273-.074.544-.11.811-.11.214 0 .4.033.561.1.134.067.294.128.481.181.187.053.34.12.46.2l.16-.02c.521-.562.975-1.139 1.362-1.733.387-.594.754-1.191 1.102-1.793l1.042-1.802c.347-.602.734-1.183 1.162-1.743l.18-.181c.054-.04.147-.06.281-.06.066 0 .153.02.26.06l.32.151c.107.06.201.129.281.21.078.08.118.161.118.241zm-6.931 7.572c0-.134-.154-.2-.461-.2-.2 0-.367.034-.5.101-.48.239-.958.551-1.432.931-.474.381-.915.802-1.322 1.262-.408.461-.778.959-1.112 1.492-.333.534-.601 1.076-.801 1.623l-.04.13-.021.13.03.312c.02.1.057.149.11.149.066 0 .133-.026.2-.079l.19-.11.23-.131c.868-.681 1.673-1.445 2.414-2.294.741-.848 1.438-1.712 2.093-2.594.12-.16.22-.276.3-.351.082-.074.122-.198.122-.371z"/></g></svg>